<svg width="20" height="20" viewBox="0 0 20 20" fill="none" xmlns="http://www.w3.org/2000/svg">
<g clip-path="url(#clip0_11_82)">
<path d="M17 11V14L14 11H8C7.46957 11 6.96086 10.7893 6.58579 10.4142C6.21071 10.0391 6 9.53043 6 9V2C6 0.9 6.9 0 8 0H18C18.5304 0 19.0391 0.210714 19.4142 0.585786C19.7893 0.960859 20 1.46957 20 2V9C20 9.53043 19.7893 10.0391 19.4142 10.4142C19.0391 10.7893 18.5304 11 18 11H17ZM14 13V15C14 15.5304 13.7893 16.0391 13.4142 16.4142C13.0391 16.7893 12.5304 17 12 17H6L3 20V17H2C1.46957 17 0.960859 16.7893 0.585786 16.4142C0.210714 16.0391 0 15.5304 0 15V8C0 6.9 0.9 6 2 6H4V9C4 10.0609 4.42143 11.0783 5.17157 11.8284C5.92172 12.5786 6.93913 13 8 13H14Z" fill="white"/>
</g>
<defs>
<clipPath id="clip0_11_82">
<rect width="20" height="20" fill="white"/>
</clipPath>
</defs>
</svg>
