<svg width="21" height="21" viewBox="0 0 21 21" fill="none" xmlns="http://www.w3.org/2000/svg">
<g clip-path="url(#clip0_12_2)">
<path d="M5.03049 20.356C4.65512 20.5943 4.17868 20.2608 4.27411 19.8266L5.66053 13.5175C5.69888 13.343 5.6412 13.1613 5.50923 13.0409L0.83728 8.77726C0.516281 8.48432 0.696055 7.94956 1.12883 7.91001L7.25545 7.3502C7.44238 7.33312 7.604 7.21277 7.67395 7.03857L10.036 1.15563C10.2039 0.737362 10.7961 0.737362 10.964 1.15563L13.3261 7.03857C13.396 7.21277 13.5576 7.33312 13.7446 7.3502L19.8712 7.91001C20.3039 7.94956 20.4837 8.48432 20.1627 8.77726L15.4908 13.0409C15.3588 13.1613 15.3011 13.343 15.3395 13.5175L16.7259 19.8266C16.8213 20.2608 16.3449 20.5943 15.9695 20.356L10.768 17.0531C10.6044 16.9492 10.3956 16.9492 10.232 17.0531L5.03049 20.356Z" fill="#5552FF"/>
</g>
<defs>
<clipPath id="clip0_12_2">
<rect width="21" height="21" rx="2" fill="white"/>
</clipPath>
</defs>
</svg>
