<svg width="24" height="24" viewBox="0 0 24 24" fill="none" xmlns="http://www.w3.org/2000/svg">
<path d="M8.87506 2.89997L17.3001 11.3C17.4001 11.4 17.4711 11.5083 17.5131 11.625C17.5551 11.7416 17.5757 11.8666 17.5751 12C17.5751 12.1333 17.5544 12.2583 17.5131 12.375C17.4717 12.4916 17.4007 12.6 17.3001 12.7L8.87506 21.125C8.64172 21.3583 8.35006 21.475 8.00006 21.475C7.65006 21.475 7.35006 21.35 7.10006 21.1C6.85006 20.85 6.72506 20.5583 6.72506 20.225C6.72506 19.8916 6.85006 19.6 7.10006 19.35L14.4501 12L7.10006 4.64997C6.86673 4.41664 6.75006 4.12897 6.75006 3.78697C6.75006 3.44498 6.87506 3.14931 7.12506 2.89997C7.37506 2.64997 7.66673 2.52497 8.00006 2.52497C8.33339 2.52497 8.62506 2.64997 8.87506 2.89997Z" fill="white"/>
</svg>
