<svg width="311" height="277" viewBox="0 0 311 277" fill="none" xmlns="http://www.w3.org/2000/svg">
<path d="M154.538 6.9058C90.7063 35.6255 148.651 86.8092 111.799 114.687C74.947 142.564 -25.263 110.34 12.9363 182.72C57.8483 267.733 254.339 255.943 296.668 151.651C338.998 47.3587 218.369 -21.8139 154.538 6.9058Z" fill="#5552FF"/>
<path opacity="0.9" d="M154.538 6.9058C90.7063 35.6255 148.651 86.8092 111.799 114.687C74.947 142.564 -25.263 110.34 12.9363 182.72C57.8483 267.733 254.339 255.943 296.668 151.651C338.998 47.3587 218.369 -21.8139 154.538 6.9058Z" fill="white"/>
<path d="M155.5 276.627C241.38 276.627 311 272.562 311 267.548C311 262.534 241.38 258.469 155.5 258.469C69.6197 258.469 0 262.534 0 267.548C0 272.562 69.6197 276.627 155.5 276.627Z" fill="#F5F5F5"/>
<path d="M24.5491 248.108C24.5491 248.108 28.3586 239.799 24.0037 231.602C19.6489 223.406 18.3897 221.473 21.1646 219.797C23.9396 218.121 25.1747 226.349 25.1747 226.349C26.547 222.63 26.6904 218.568 25.5837 214.76C23.6509 208.834 22.4398 199.178 25.0784 198.143C27.717 197.108 25.5757 210.173 27.8694 214.648C29.0326 211.516 29.7848 208.246 30.107 204.92C30.4197 200.156 29.9305 192.553 32.0077 190.604C34.0849 188.655 35.4242 190.003 33.3791 200.509C32.15 206.79 31.471 213.166 31.3501 219.564C31.3501 219.564 35.8733 205.778 38.9049 205.377C41.9365 204.976 41.9365 209.435 39.338 213.309C36.7395 217.182 31.735 224.12 30.909 227.689C30.909 227.689 35.8733 217.311 40.3325 220.471C44.7916 223.631 36.4508 229.91 32.7295 232.18C29.0082 234.45 26.4258 248.629 26.4258 248.629L24.5491 248.108Z" fill="#5552FF"/>
<path opacity="0.2" d="M24.5491 248.108C24.5491 248.108 28.3586 239.799 24.0037 231.602C19.6489 223.406 18.3897 221.473 21.1646 219.797C23.9396 218.121 25.1747 226.349 25.1747 226.349C26.547 222.63 26.6904 218.568 25.5837 214.76C23.6509 208.834 22.4398 199.178 25.0784 198.143C27.717 197.108 25.5757 210.173 27.8694 214.648C29.0326 211.516 29.7848 208.246 30.107 204.92C30.4197 200.156 29.9305 192.553 32.0077 190.604C34.0849 188.655 35.4242 190.003 33.3791 200.509C32.15 206.79 31.471 213.166 31.3501 219.564C31.3501 219.564 35.8733 205.778 38.9049 205.377C41.9365 204.976 41.9365 209.435 39.338 213.309C36.7395 217.182 31.735 224.12 30.909 227.689C30.909 227.689 35.8733 217.311 40.3325 220.471C44.7916 223.631 36.4508 229.91 32.7295 232.18C29.0082 234.45 26.4258 248.629 26.4258 248.629L24.5491 248.108Z" fill="black"/>
<path d="M27.5566 251.548C27.5566 251.548 23.8434 243.183 28.2945 235.051C32.7456 226.919 34.0288 225.01 31.2779 223.294C28.527 221.577 27.1476 229.79 27.1476 229.79C25.8185 226.05 25.7257 221.982 26.8829 218.185C28.8879 212.29 30.2113 202.65 27.5887 201.576C24.9662 200.501 26.9391 213.606 24.5972 218.041C23.4704 214.893 22.7561 211.612 22.4719 208.28C22.2153 203.516 22.8008 195.921 20.7396 193.94C18.6785 191.96 17.3311 193.291 19.2559 203.821C20.4084 210.117 21.0096 216.501 21.0524 222.901C21.0524 222.901 16.6975 209.05 13.674 208.609C10.6504 208.168 10.5943 212.619 13.1447 216.533C15.695 220.447 20.6193 227.448 21.3973 231.033C21.3973 231.033 16.5853 220.607 12.062 223.703C7.53868 226.798 15.8314 233.198 19.5206 235.524C23.2098 237.85 25.6318 252.069 25.6318 252.069L27.5566 251.548Z" fill="#5552FF"/>
<path d="M10.4419 245.581H41.0864L38.6082 267.516H12.9281L10.4419 245.581Z" fill="#121212"/>
<path d="M298.441 81.131H275.399C274.467 81.131 273.545 81.3147 272.684 81.6715C271.824 82.0283 271.042 82.5512 270.383 83.2104C269.725 83.8696 269.203 84.6521 268.847 85.5132C268.491 86.3743 268.308 87.297 268.309 88.2287V96.0402L261.18 98.2538L268.309 100.467V108.279C268.308 109.21 268.491 110.133 268.847 110.994C269.203 111.855 269.725 112.638 270.383 113.297C271.042 113.956 271.824 114.479 272.684 114.836C273.545 115.193 274.467 115.376 275.399 115.376H298.441C300.323 115.376 302.128 114.629 303.459 113.298C304.791 111.967 305.538 110.161 305.538 108.279V88.2287C305.538 86.3463 304.791 84.541 303.459 83.2099C302.128 81.8788 300.323 81.131 298.441 81.131Z" fill="#5552FF"/>
<path opacity="0.7" d="M298.441 81.131H275.399C274.467 81.131 273.545 81.3147 272.684 81.6715C271.824 82.0283 271.042 82.5512 270.383 83.2104C269.725 83.8696 269.203 84.6521 268.847 85.5132C268.491 86.3743 268.308 87.297 268.309 88.2287V96.0402L261.18 98.2538L268.309 100.467V108.279C268.308 109.21 268.491 110.133 268.847 110.994C269.203 111.855 269.725 112.638 270.383 113.297C271.042 113.956 271.824 114.479 272.684 114.836C273.545 115.193 274.467 115.376 275.399 115.376H298.441C300.323 115.376 302.128 114.629 303.459 113.298C304.791 111.967 305.538 110.161 305.538 108.279V88.2287C305.538 86.3463 304.791 84.541 303.459 83.2099C302.128 81.8788 300.323 81.131 298.441 81.131Z" fill="white"/>
<path d="M295.094 106.342C299.56 101.876 299.56 94.6347 295.094 90.1684C290.628 85.7022 283.387 85.7022 278.92 90.1685C274.454 94.6347 274.454 101.876 278.92 106.342C283.387 110.808 290.628 110.808 295.094 106.342Z" fill="#5552FF"/>
<path d="M285.809 103.362C285.657 103.363 285.506 103.33 285.368 103.266C285.229 103.203 285.106 103.11 285.007 102.994L280.516 97.7084C280.335 97.4957 280.246 97.2198 280.269 96.9416C280.291 96.6633 280.424 96.4054 280.636 96.2246C280.849 96.0439 281.125 95.955 281.403 95.9775C281.681 96.0001 281.939 96.1323 282.12 96.345L285.809 100.684L291.896 93.5139C291.986 93.4086 292.095 93.3219 292.218 93.2589C292.341 93.1958 292.476 93.1576 292.613 93.1464C292.751 93.1353 292.89 93.1514 293.021 93.1938C293.153 93.2362 293.275 93.3041 293.38 93.3936C293.485 93.4831 293.572 93.5925 293.635 93.7155C293.698 93.8385 293.736 93.9727 293.748 94.1105C293.759 94.2483 293.743 94.3869 293.7 94.5185C293.658 94.65 293.59 94.772 293.5 94.8773L286.619 102.994C286.519 103.11 286.394 103.203 286.255 103.267C286.115 103.33 285.963 103.363 285.809 103.362Z" fill="white"/>
<path d="M89.6798 29.8912H66.6463C64.7639 29.8912 62.9585 30.639 61.6275 31.97C60.2964 33.3011 59.5486 35.1064 59.5486 36.9889V57.0389C59.5486 58.9213 60.2964 60.7267 61.6275 62.0577C62.9585 63.3888 64.7639 64.1366 66.6463 64.1366H73.3671V71.2664L78.1791 64.1366H89.7199C91.6023 64.1366 93.4076 63.3888 94.7387 62.0577C96.0698 60.7267 96.8176 58.9213 96.8176 57.0389V36.9889C96.8176 36.0534 96.6327 35.1272 96.2735 34.2634C95.9143 33.3996 95.3879 32.6154 94.7245 31.9558C94.0612 31.2962 93.274 30.7742 92.4083 30.4199C91.5425 30.0656 90.6152 29.8859 89.6798 29.8912Z" fill="#5552FF"/>
<path opacity="0.7" d="M89.6798 29.8912H66.6463C64.7639 29.8912 62.9585 30.639 61.6275 31.97C60.2964 33.3011 59.5486 35.1064 59.5486 36.9889V57.0389C59.5486 58.9213 60.2964 60.7267 61.6275 62.0577C62.9585 63.3888 64.7639 64.1366 66.6463 64.1366H73.3671V71.2664L78.1791 64.1366H89.7199C91.6023 64.1366 93.4076 63.3888 94.7387 62.0577C96.0698 60.7267 96.8176 58.9213 96.8176 57.0389V36.9889C96.8176 36.0534 96.6327 35.1272 96.2735 34.2634C95.9143 33.3996 95.3879 32.6154 94.7245 31.9558C94.0612 31.2962 93.274 30.7742 92.4083 30.4199C91.5425 30.0656 90.6152 29.8859 89.6798 29.8912Z" fill="white"/>
<path d="M73.5917 57.2314L74.3937 57.8891L75.7972 56.4856L75.1396 55.6836C75.5211 55.1278 75.7933 54.5045 75.9416 53.847L76.9601 53.7507V51.7778L75.9416 51.6816C75.7933 51.024 75.5211 50.4007 75.1396 49.845L75.7972 49.043L74.3937 47.6395L73.5917 48.2971C73.033 47.9298 72.4098 47.6713 71.7551 47.5352L71.6589 46.5087H69.686L69.5897 47.5352C68.9371 47.6698 68.3163 47.9284 67.7612 48.2971L66.9592 47.6395L65.5557 49.043L66.2133 49.845C65.8459 50.4037 65.5874 51.0269 65.4514 51.6816L64.4329 51.7778V53.7588L65.4514 53.855C65.5874 54.5097 65.8459 55.1328 66.2133 55.6916L65.5557 56.4936L66.9592 57.8971L67.7612 57.2394C68.3163 57.6081 68.9371 57.8668 69.5897 58.0013L69.686 59.0279H71.6669L71.7632 58.0013C72.4156 57.8619 73.036 57.6007 73.5917 57.2314ZM67.9777 52.7723C67.9777 52.2409 68.1353 51.7215 68.4305 51.2796C68.7257 50.8378 69.1453 50.4934 69.6363 50.2901C70.1272 50.0867 70.6674 50.0335 71.1886 50.1372C71.7097 50.2409 72.1885 50.4968 72.5642 50.8725C72.9399 51.2483 73.1958 51.727 73.2995 52.2481C73.4032 52.7693 73.35 53.3095 73.1466 53.8004C72.9433 54.2914 72.5989 54.711 72.1571 55.0062C71.7152 55.3014 71.1958 55.459 70.6644 55.459C70.3116 55.4579 69.9624 55.3874 69.6369 55.2514C69.3113 55.1154 69.0157 54.9166 68.767 54.6664C68.5182 54.4162 68.3212 54.1194 68.1872 53.793C68.0531 53.4667 67.9847 53.1171 67.9857 52.7643L67.9777 52.7723Z" fill="#5552FF"/>
<path d="M87.2176 50.9195L88.3645 51.8659L90.3855 49.8448L89.4391 48.6979C89.9688 47.8928 90.3416 46.9949 90.5379 46.0513L92.0136 45.915V43.0438L90.5379 42.9075C90.3416 41.964 89.9688 41.066 89.4391 40.2609L90.3855 39.114L88.3645 37.085L87.2176 38.0394C86.4129 37.5072 85.515 37.1317 84.571 36.9326L84.4266 35.4569H81.5635L81.4271 36.9246C80.4832 37.1237 79.5853 37.4992 78.7805 38.0313L77.6337 37.0769L75.6046 39.106L76.559 40.2529C76.0269 41.0576 75.6514 41.9555 75.4522 42.8995L73.9766 43.0358V45.907L75.4522 46.0433C75.6514 46.9873 76.0269 47.8852 76.559 48.6899L75.6046 49.8368L77.6337 51.8578L78.7805 50.9115C79.5839 51.4444 80.4825 51.8175 81.4271 52.0102L81.5635 53.4859H84.4266L84.571 52.0102C85.515 51.82 86.4136 51.4496 87.2176 50.9195ZM79.1174 44.5035C79.1174 43.7358 79.345 42.9853 79.7716 42.3469C80.1981 41.7086 80.8043 41.2111 81.5136 40.9173C82.2229 40.6235 83.0034 40.5466 83.7563 40.6964C84.5093 40.8462 85.201 41.2158 85.7438 41.7587C86.2867 42.3016 86.6564 42.9932 86.8062 43.7462C86.9559 44.4992 86.8791 45.2797 86.5853 45.9889C86.2915 46.6982 85.794 47.3045 85.1556 47.731C84.5173 48.1575 83.7668 48.3852 82.9991 48.3852C82.4873 48.3852 81.9806 48.284 81.508 48.0874C81.0355 47.8908 80.6065 47.6028 80.2458 47.2398C79.885 46.8768 79.5996 46.446 79.4059 45.9723C79.2123 45.4985 79.1142 44.9912 79.1174 44.4794V44.5035Z" fill="#5552FF"/>
<path d="M72.99 106.562C79.7348 108.07 93.4891 123.493 93.4891 123.493L118.351 125.987L118.616 131.858C118.616 131.858 94.2992 132.347 91.1553 132.05C88.0115 131.753 73.014 120.092 73.014 120.092L72.99 106.562Z" fill="#5552FF"/>
<path opacity="0.7" d="M118.608 131.858C118.608 131.858 94.2993 132.339 91.1554 132.05C89.5514 131.906 85.0201 128.898 80.8658 125.931C78.7565 124.431 76.7515 122.931 75.2919 121.833C73.8322 120.734 73.0142 120.092 73.0142 120.092V106.554C79.759 108.07 93.5053 123.493 93.5053 123.493L118.367 125.987L118.608 131.858Z" fill="white"/>
<path d="M117.806 131.617L125.192 131.055L123.677 124.76C123.677 124.76 118.456 124.423 116.643 128.337L117.806 131.617Z" fill="#EBB376"/>
<path d="M129.652 128.232L127.398 123.813L123.677 124.76L125.193 131.056L129.652 128.232Z" fill="#EBB376"/>
<path opacity="0.1" d="M80.8419 125.931C78.7327 124.431 76.7277 122.931 75.268 121.832C74.6992 120.127 74.5077 118.318 74.7066 116.531C74.7066 116.531 79.8394 120.533 80.8419 125.931Z" fill="black"/>
<path d="M58.6262 261.084L51.8814 261.188C51.7713 261.193 51.6658 261.234 51.5816 261.305C51.4974 261.376 51.4392 261.473 51.4162 261.581L50.4378 266.553C50.4145 266.66 50.4131 266.769 50.4335 266.876C50.4539 266.982 50.4957 267.084 50.5565 267.174C50.6172 267.264 50.6956 267.341 50.7868 267.399C50.8781 267.458 50.9803 267.498 51.0874 267.516H51.2638C53.4453 267.444 55.0332 267.283 57.7761 267.243C59.4603 267.243 64.553 267.307 66.8788 267.243C69.2046 267.179 69.4773 264.901 68.5229 264.701C64.2322 263.835 60.9921 262.6 59.6046 261.389C59.3309 261.163 58.9797 261.053 58.6262 261.084Z" fill="#121212"/>
<path d="M115.464 261.084L108.719 261.188C108.609 261.193 108.504 261.234 108.42 261.305C108.335 261.376 108.277 261.473 108.254 261.581L107.236 266.554C107.212 266.66 107.211 266.769 107.231 266.876C107.252 266.983 107.294 267.084 107.354 267.174C107.415 267.264 107.493 267.341 107.585 267.399C107.676 267.458 107.778 267.498 107.885 267.516H108.07C110.251 267.444 111.831 267.283 114.574 267.243C116.258 267.243 121.351 267.307 123.685 267.243C126.018 267.179 126.275 264.901 125.289 264.701C120.998 263.835 117.758 262.6 116.37 261.389C116.116 261.179 115.793 261.071 115.464 261.084Z" fill="#121212"/>
<path d="M50.3738 261.429H59.5567C59.5567 261.429 71.2499 222.885 72.2604 213.052C73.2709 203.22 73.6318 178.566 73.6318 178.566V178.606C74.0248 179.135 77.4975 184.02 81.4914 189.682C86.7124 197.108 92.8397 205.882 94.1229 208.032C97.9164 214.359 107.188 261.397 107.188 261.397H116.362C116.362 261.397 114.053 219.3 109.337 205.425C104.621 191.55 84.2343 161.251 83.3521 159.615C82.2212 157.546 79.4463 150.953 79.4463 150.953L51.9297 154.771C51.9297 154.771 52.2825 159.43 52.3146 163.504C52.4429 178.791 57.7361 199.458 58.2013 205.008C59.1076 215.602 50.3738 261.429 50.3738 261.429Z" fill="#121212"/>
<path d="M72.99 106.562C72.99 106.562 81.2266 121.255 79.4782 150.977L51.9696 154.811C51.1676 150.608 50.9751 129.636 44.134 110.308C47.0962 109.298 50.1207 108.481 53.1886 107.862C57.0525 107.104 60.9566 106.569 64.8818 106.258C67.5884 106.149 70.2992 106.251 72.99 106.562Z" fill="#5552FF"/>
<path opacity="0.7" d="M79.4782 150.977L57.2869 154.065L51.9696 154.803C51.4884 152.236 51.2237 143.358 49.5155 132.419C49.5155 132.186 49.4433 131.946 49.4032 131.705C48.922 128.698 48.3285 125.546 47.5907 122.33C46.6637 118.258 45.5097 114.242 44.134 110.3C47.0952 109.306 50.1169 108.502 53.1806 107.894C57.0466 107.132 60.9536 106.597 64.8818 106.29C67.589 106.194 70.2995 106.304 72.99 106.619C72.99 106.619 81.2186 121.247 79.4782 150.977Z" fill="white"/>
<path d="M55.8755 110.308L62.484 113.444L63.9677 115.248C63.9677 115.248 66.3256 127.535 66.0769 137.159L68.5792 139.38L70.4799 135.675C70.4799 135.675 66.5501 118.36 65.283 114.823L65.6198 112.545L66.7827 107.733L56.2925 108.383L55.8755 110.308Z" fill="#121212"/>
<path d="M52.5635 95.2782C53.9349 98.8952 55.8356 105.632 53.6462 108.583C57.4958 109.49 60.2547 110.083 63.7674 112.297C64.4571 109.81 65.2832 106.594 65.2832 106.594C60.9364 106.314 60.5193 103.194 60.7519 100.178L52.5635 95.2782Z" fill="#EBB376"/>
<path opacity="0.2" d="M55.8996 97.2671L60.7116 100.154C60.6515 100.861 60.6515 101.572 60.7116 102.28C59.1076 102.328 56.5893 100.948 56.1322 99.3042C55.9315 98.6449 55.8527 97.9546 55.8996 97.2671Z" fill="black"/>
<path opacity="0.5" d="M50.3738 261.429H59.5567C59.5567 261.429 71.2499 222.885 72.2604 213.052C73.2709 203.22 73.6318 178.566 73.6318 178.566V178.606C74.0248 179.135 77.4975 184.02 81.4914 189.682C86.7124 197.108 92.8397 205.882 94.1229 208.032C97.9164 214.359 107.188 261.397 107.188 261.397H116.362C116.362 261.397 114.053 219.3 109.337 205.425C104.621 191.55 84.2343 161.251 83.3521 159.615C82.2212 157.546 79.4463 150.953 79.4463 150.953L51.9297 154.771C51.9297 154.771 52.2825 159.43 52.3146 163.504C52.4429 178.791 57.7361 199.458 58.2013 205.008C59.1076 215.602 50.3738 261.429 50.3738 261.429Z" fill="white"/>
<path d="M49.7483 108.632L52.034 105.784L59.4365 107.212L63.1979 111.519L63.671 106.546L65.0585 104.878L68.0981 106.194V109.305L65.9327 108.6L64.064 112.938L58.1452 110.508L56.83 112.184L49.7483 108.632Z" fill="#5552FF"/>
<path opacity="0.9" d="M49.7483 108.632L52.034 105.784L59.4365 107.212L63.1979 111.519L63.671 106.546L65.0585 104.878L68.0981 106.194V109.305L65.9327 108.6L64.064 112.938L58.1452 110.508L56.83 112.184L49.7483 108.632Z" fill="white"/>
<path opacity="0.1" d="M64.0637 112.938L64.7775 107.741L68.0978 109.305L65.9324 108.599L64.0637 112.938Z" fill="black"/>
<path opacity="0.1" d="M64.0639 112.938L58.5782 108.912L56.8298 112.184L58.1451 110.508L64.0639 112.938Z" fill="black"/>
<path opacity="0.2" d="M73.6318 178.582V178.622C74.0248 179.151 77.4975 184.036 81.4914 189.698C81.8854 186.624 81.3607 183.502 79.9835 180.726C78.6062 177.951 76.438 175.644 73.7521 174.099L73.6318 178.582Z" fill="black"/>
<path d="M62.2113 82.4783C63.8153 83.8497 64.0559 86.2798 64.3527 87.8116C64.6494 89.3434 65.2188 91.3083 62.9171 89.4878C60.6153 87.6672 57.255 79.2462 62.2113 82.4783Z" fill="#121212"/>
<path d="M50.943 91.4847C52.3947 96.5293 51.8413 97.5077 55.0012 99.5047C59.7651 102.56 66.2933 101.911 66.0768 96.5453C65.8763 91.6932 64.4728 83.1359 59.0352 82.2537C57.8224 82.0509 56.5778 82.1614 55.4197 82.5747C54.2615 82.9879 53.2281 83.6901 52.4175 84.6148C51.6069 85.5395 51.046 86.656 50.7879 87.8583C50.5299 89.0606 50.5833 90.3088 50.943 91.4847Z" fill="#EBB376"/>
<path d="M52.2345 94.8291C54.9292 94.3318 54.3839 93.3053 54.1914 93.0727C53.3172 92.0702 53.8465 90.3218 54.3678 88.0762C54.8891 85.8306 50.2776 84.0662 47.3343 85.4136C44.6155 86.6888 47.7192 95.6712 52.2345 94.8291Z" fill="#121212"/>
<path d="M49.3629 95.4146C50.0463 96.4174 51.0833 97.1249 52.2662 97.3956C53.7659 97.6843 54.2311 96.1846 53.5735 94.7169C52.98 93.3936 51.4882 91.6532 50.1008 92.0302C48.7133 92.4071 48.4807 94.1234 49.3629 95.4146Z" fill="#EBB376"/>
<path d="M61.7942 89.7845C62.3989 90.7299 63.1301 91.588 63.9676 92.3349C63.7701 92.5453 63.5297 92.7107 63.2626 92.8201C62.9955 92.9294 62.7081 92.98 62.4197 92.9685L61.7942 89.7845Z" fill="#D58745"/>
<path d="M46.917 83.2001C47.719 81.2994 56.6372 78.4683 60.4548 79.1901C60.8057 79.2145 61.1467 79.3172 61.4528 79.4905C61.759 79.6638 62.0224 79.9035 62.2239 80.1918C62.4254 80.4802 62.5598 80.81 62.6172 81.1571C62.6747 81.5041 62.6538 81.8597 62.556 82.1976C61.345 85.8627 58.1931 84.4432 58.1931 84.4432C57.6871 84.2087 57.1396 84.0771 56.5823 84.0559C56.025 84.0348 55.4691 84.1246 54.9468 84.3201C54.4245 84.5156 53.9462 84.8129 53.5398 85.1947C53.1333 85.5766 52.8068 86.0353 52.5791 86.5444L47.0614 86.0713C46.7938 85.645 46.6401 85.1572 46.6148 84.6545C46.5895 84.1518 46.6936 83.6511 46.917 83.2001Z" fill="#121212"/>
<path d="M58.1373 90.1133C58.2255 90.5464 58.5223 90.8431 58.803 90.787C59.0837 90.7308 59.2441 90.3298 59.1558 89.8967C59.0676 89.4637 58.7629 89.1669 58.4822 89.2311C58.2015 89.2952 58.0491 89.6962 58.1373 90.1133Z" fill="#121212"/>
<path d="M62.9971 89.0707C63.0854 89.5037 63.3901 89.8005 63.6708 89.7443C63.9515 89.6882 64.1039 89.2792 64.0157 88.8541C63.9275 88.4291 63.6307 88.1243 63.35 88.1804C63.0693 88.2366 62.9089 88.6376 62.9971 89.0707Z" fill="#121212"/>
<path d="M55.4907 89.0066C55.537 89.0024 55.5814 88.9861 55.6194 88.9594C55.6574 88.9326 55.6877 88.8963 55.7072 88.8542C55.8368 88.5554 56.0351 88.2915 56.286 88.0839C56.5368 87.8762 56.8331 87.7307 57.1508 87.6592C57.2198 87.6492 57.282 87.6125 57.3241 87.557C57.3661 87.5014 57.3845 87.4315 57.3754 87.3625C57.3636 87.2965 57.3272 87.2375 57.2736 87.1973C57.2201 87.1572 57.1532 87.1388 57.0867 87.1459C56.6824 87.2291 56.3039 87.4079 55.9829 87.6674C55.662 87.927 55.4079 88.2597 55.2421 88.6376C55.2271 88.6681 55.2183 88.7013 55.2163 88.7352C55.2142 88.7691 55.2189 88.8031 55.2301 88.8352C55.2413 88.8673 55.2588 88.8968 55.2815 88.9221C55.3042 88.9474 55.3317 88.9679 55.3624 88.9825C55.4033 88.9982 55.4468 89.0064 55.4907 89.0066Z" fill="#121212"/>
<path d="M63.9277 87.0657C63.9773 87.0658 64.0254 87.0488 64.064 87.0176C64.0921 86.9971 64.1157 86.9711 64.1335 86.9411C64.1512 86.9112 64.1627 86.878 64.1672 86.8435C64.1717 86.809 64.1692 86.7739 64.1597 86.7404C64.1502 86.7069 64.134 86.6757 64.1121 86.6487C63.8688 86.3208 63.5501 86.0563 63.183 85.8776C62.8158 85.6989 62.411 85.6113 62.0028 85.6221C61.9691 85.6251 61.9363 85.6348 61.9063 85.6506C61.8763 85.6663 61.8497 85.6879 61.8281 85.714C61.8064 85.7401 61.7902 85.7702 61.7803 85.8026C61.7704 85.835 61.767 85.8691 61.7703 85.9028C61.7723 85.9362 61.781 85.9689 61.7959 85.9988C61.8108 86.0288 61.8316 86.0554 61.8571 86.0771C61.8826 86.0989 61.9121 86.1152 61.9441 86.1252C61.976 86.1352 62.0096 86.1387 62.0429 86.1354C62.3641 86.1238 62.6831 86.1908 62.9725 86.3305C63.2618 86.4703 63.5126 86.6786 63.7031 86.9374C63.7258 86.9767 63.7586 87.0094 63.798 87.0319C63.8375 87.0545 63.8822 87.0661 63.9277 87.0657Z" fill="#121212"/>
<path d="M62.2437 95.607C61.3093 95.6227 60.3858 95.405 59.5569 94.9735C59.511 94.9451 59.4773 94.9006 59.4624 94.8487C59.4476 94.7967 59.4527 94.7411 59.4768 94.6928C59.5035 94.6472 59.5472 94.6141 59.5982 94.6006C59.6493 94.5871 59.7036 94.5943 59.7494 94.6206C60.8068 95.1347 61.996 95.3138 63.1579 95.1339C63.21 95.1245 63.2637 95.1361 63.3073 95.1661C63.3508 95.1962 63.3808 95.2422 63.3905 95.2943C63.3963 95.3201 63.3967 95.347 63.3916 95.373C63.3866 95.399 63.3762 95.4238 63.3611 95.4456C63.3461 95.4674 63.3267 95.4859 63.3041 95.4999C63.2816 95.5139 63.2564 95.5231 63.2301 95.5268C62.9044 95.5837 62.5742 95.6105 62.2437 95.607Z" fill="#121212"/>
<path opacity="0.1" d="M57.2868 154.065L51.9695 154.803C51.4883 152.236 51.2236 143.358 49.5154 132.419C51.4081 127.382 53.2367 123.557 53.2367 123.557C56.9117 127.434 60.14 131.711 62.8607 136.309C66.1409 141.81 62.9008 150.127 57.2868 154.065Z" fill="black"/>
<path d="M273.105 22.2721L229.436 23.9804L233.503 29.8991L236.879 34.3983L166.648 87.0577L132.739 82.2136L33.9888 156.262L38.0469 162.173L52.4829 181.429L143.261 113.355L177.17 118.207L255.614 59.3887L263.289 69.6303L277.164 28.1909L273.105 22.2721Z" fill="#5552FF"/>
<path opacity="0.2" d="M273.105 22.2721L229.436 23.9804L233.503 29.8991L236.879 34.3983L166.648 87.0577L132.739 82.2136L33.9888 156.262L38.0469 162.173L52.4829 181.429L143.261 113.355L177.17 118.207L255.614 59.3887L263.289 69.6303L277.164 28.1909L273.105 22.2721Z" fill="black"/>
<path d="M273.105 22.2721L229.436 23.9804L237.112 34.2219L166.648 87.0577L132.739 82.2136L33.9888 156.262L48.4168 175.51L139.203 107.437L173.104 112.289L251.548 53.4699L259.231 63.7115L273.105 22.2721Z" fill="#5552FF"/>
<path d="M273.105 22.2721L229.436 23.9804L237.112 34.2219L166.648 87.0577L132.739 82.2136L33.9888 156.262L48.4168 175.51L139.203 107.437L173.104 112.289L251.548 53.4699L259.231 63.7115L273.105 22.2721Z" fill="#5552FF"/>
<path d="M81.4913 145.54L88.0998 148.892L84.2823 154.129C84.2823 154.129 79.3339 152.429 79.1575 148.122L81.4913 145.54Z" fill="#EBB376"/>
<path d="M91.1316 153.207L87.3541 156.431L84.2825 154.129L88.1 148.892L91.1316 153.207Z" fill="#EBB376"/>
<path d="M44.134 110.308C36.916 114.791 48.946 138.249 51.2398 141.754C53.5335 145.259 79.1574 150.985 79.1574 150.985L82.3253 145.54L58.5059 134.953L51.2398 116.748C48.4167 110.965 44.134 110.308 44.134 110.308Z" fill="#5552FF"/>
<path opacity="0.7" d="M44.134 110.308C36.916 114.791 48.946 138.249 51.2398 141.754C53.5335 145.259 79.1574 150.985 79.1574 150.985L82.3253 145.54L58.5059 134.953L51.2398 116.748C48.4167 110.965 44.134 110.308 44.134 110.308Z" fill="white"/>
<path d="M259.993 266.257L264.949 264.204L261.605 252.158L256.648 254.211L259.993 266.257Z" fill="#B55B52"/>
<path d="M264.989 256.128L255.582 260.025C255.582 260.025 247.257 229.301 239.237 213.469C234.834 204.791 227.335 191.013 220.791 179.24C217.583 173.401 214.599 168.06 212.362 164.058C209.908 159.655 208.352 156.88 208.352 156.88L224.28 146.157C224.28 146.157 245.813 189.201 252.253 204.19C259.319 220.607 264.989 256.128 264.989 256.128Z" fill="#121212"/>
<path d="M264.572 261.421H258.036C257.93 261.422 257.826 261.459 257.743 261.526C257.66 261.593 257.603 261.686 257.579 261.79L256.504 266.554C256.483 266.67 256.488 266.79 256.518 266.905C256.549 267.02 256.605 267.126 256.681 267.217C256.758 267.307 256.854 267.379 256.962 267.428C257.07 267.477 257.188 267.502 257.306 267.5C259.408 267.5 260.947 267.339 263.594 267.339C265.198 267.339 270.13 267.516 272.416 267.516C274.702 267.516 274.982 265.286 274.06 265.11C269.938 264.204 266.842 262.961 265.535 261.774C265.407 261.652 265.256 261.558 265.09 261.497C264.925 261.436 264.749 261.41 264.572 261.421Z" fill="#121212"/>
<path opacity="0.3" d="M220.823 179.24C217.615 173.401 214.632 168.06 212.394 164.058C213.584 163.898 214.793 164.134 215.835 164.732C218.75 169.042 220.471 174.048 220.823 179.24Z" fill="black"/>
<path d="M245.741 75.2522L249.751 69.0207L243.817 66.4382C243.817 66.4382 240.4 70.3921 242.429 74.2016L245.741 75.2522Z" fill="#B55B52"/>
<path d="M250.193 63.7675L245.3 62.8934L243.817 66.4302L249.751 69.0207L250.193 63.7675Z" fill="#B55B52"/>
<path d="M234.024 121.159C244.915 112.208 250.61 106.274 252.791 102.713C254.972 99.1519 246.928 73.6562 246.928 73.6562L240.657 73.945L243.504 99.0877L233.88 107.003L234.024 121.159Z" fill="#121212"/>
<path opacity="0.2" d="M252.799 102.721C250.826 105.929 246.022 111.046 237.136 118.568C236.147 119.402 235.11 120.266 234.024 121.159L233.976 116.491L233.88 107.003L243.504 99.0877L240.649 73.945L246.928 73.6562C246.928 73.6562 254.948 99.1599 252.799 102.721Z" fill="white"/>
<path opacity="0.2" d="M237.136 118.568C236.147 119.402 235.11 120.266 234.024 121.159L233.976 116.491C235.112 117.048 236.174 117.746 237.136 118.568Z" fill="black"/>
<path d="M180.186 265.663L185.431 266.762L189.473 254.933L184.228 253.826L180.186 265.663Z" fill="#B55B52"/>
<path d="M218.955 146.598C218.955 146.598 212.442 194.285 209.234 210.285C205.778 227.817 190.403 260.33 190.403 260.33L180.443 258.237C180.443 258.237 190.917 228.186 193.235 210.582C195.825 190.909 199.715 146.422 199.715 146.422L218.955 146.598Z" fill="#121212"/>
<path d="M187.34 261.421H180.803C180.697 261.422 180.594 261.459 180.511 261.526C180.428 261.593 180.37 261.686 180.346 261.79L179.239 266.554C179.218 266.67 179.223 266.79 179.253 266.905C179.284 267.02 179.34 267.126 179.416 267.217C179.493 267.307 179.589 267.379 179.697 267.428C179.805 267.477 179.923 267.502 180.041 267.5C182.143 267.5 183.683 267.34 186.329 267.34C187.933 267.34 192.873 267.516 195.151 267.516C197.429 267.516 197.718 265.286 196.795 265.11C192.681 264.204 189.577 262.961 188.27 261.774C188.146 261.656 188 261.564 187.84 261.503C187.681 261.443 187.51 261.415 187.34 261.421Z" fill="#121212"/>
<path d="M229.95 145.588C236.198 123.204 233.343 110.789 233.343 110.789C231.175 110.045 228.962 109.44 226.718 108.976C226.245 108.872 225.764 108.792 225.274 108.712C221.325 108.19 217.348 107.898 213.365 107.838C212.619 107.838 211.865 107.838 211.127 107.838C208.723 107.924 206.348 108.384 204.086 109.201C204.23 114.668 203.948 120.138 203.243 125.562C202.77 129.572 202.955 133.437 202.313 136.902C201.704 140.166 201.888 143.102 201.335 145.588H229.95Z" fill="#5552FF"/>
<path opacity="0.7" d="M229.95 145.588C236.198 123.204 233.343 110.789 233.343 110.789C231.175 110.045 228.962 109.44 226.718 108.976C226.245 108.872 225.764 108.792 225.274 108.712C221.325 108.19 217.348 107.898 213.365 107.838C212.619 107.838 211.865 107.838 211.127 107.838C208.723 107.924 206.348 108.384 204.086 109.201C204.23 114.668 203.948 120.138 203.243 125.562C202.77 129.572 202.955 133.437 202.313 136.902C201.704 140.166 201.888 143.102 201.335 145.588H229.95Z" fill="white"/>
<path d="M222.796 115.473C223.652 119.839 224.124 124.273 224.207 128.722C223.686 129.788 222.988 132.387 222.363 133.437C221.906 132.234 221.104 129.756 220.558 128.545C221.048 123.316 221.97 118.119 221.689 115.336L222.796 115.473Z" fill="#5552FF"/>
<path d="M221.601 114.542C219.955 114.13 218.418 113.367 217.095 112.305C215.771 111.243 214.693 109.908 213.934 108.391C214.815 107.904 215.549 107.189 216.059 106.322C217.222 104.336 218.035 102.166 218.465 99.9057C218.745 98.6073 218.959 97.2958 219.107 95.9759L221.513 99.8255L224.183 104.036C223.782 104.671 223.431 105.336 223.133 106.025C222.331 107.966 222.371 109.834 224.737 111.27C225.058 112.714 224.769 115.432 221.601 114.542Z" fill="#B55B52"/>
<path d="M222.467 117.125L223.839 114.679L222.098 113.58L220.558 114.221L222.467 117.125Z" fill="#5552FF"/>
<path d="M222.066 113.58C222.066 113.58 220.59 114.967 218.914 116.299C216.941 114.855 212.362 111.086 212.971 108.279C213.343 107.734 213.893 107.337 214.527 107.156C216.68 109.687 219.225 111.856 222.066 113.58Z" fill="white"/>
<path d="M222.066 113.58C223.006 114.632 223.792 115.812 224.4 117.085C226.1 116.226 225.491 110.669 224.993 109.979C224.383 109.135 223.577 108.452 222.644 107.99C223.071 109.866 222.868 111.831 222.066 113.58Z" fill="white"/>
<path d="M197.204 162.727L217.086 164.732L220.526 156.599L223.79 163.978L232.741 161.139L228.049 151.739C237.023 129.925 233.848 107.003 233.848 107.003C229.773 107.99 224.889 108.648 224.889 108.648C230.102 116.571 222.331 133.437 222.331 133.437C217.655 120.413 212.065 107.83 212.065 107.83C208.534 107.97 205.063 108.787 201.84 110.236C201.84 110.236 202.786 136.886 200.091 144.433C197.397 151.98 197.204 162.727 197.204 162.727Z" fill="#121212"/>
<path opacity="0.2" d="M228.089 151.739L232.773 161.139L223.823 163.978L220.558 156.607L217.118 164.699L197.204 162.727C197.204 162.727 197.405 151.956 200.091 144.409C200.949 142.003 201.439 137.68 201.695 132.892C201.928 128.882 201.992 124.519 201.992 120.718C201.992 114.807 201.832 110.22 201.832 110.22C205.054 108.769 208.526 107.952 212.057 107.813C212.057 107.813 217.671 120.397 222.323 133.421C222.323 133.421 230.102 116.579 224.881 108.64C224.881 108.64 229.773 107.974 233.84 106.987C233.88 107.003 237.064 129.925 228.089 151.739Z" fill="white"/>
<path d="M215.145 118.6L210.782 124.094C210.782 124.094 220.984 131.392 223.975 143.519L222.908 136.437L231.289 124.664L227.432 119.852L232.019 116.451C232.019 116.451 228.073 109.81 224.921 108.656C230.134 116.579 222.363 133.445 222.363 133.445C217.687 120.421 212.097 107.838 212.097 107.838C209.482 109.955 207.514 112.764 206.419 115.946L215.145 118.6Z" fill="#121212"/>
<path opacity="0.2" d="M224.191 104.052C223.79 104.687 223.439 105.352 223.141 106.041C220.908 107.06 218.365 107.161 216.059 106.322C217.222 104.336 218.035 102.166 218.465 99.9057C219.484 99.8335 220.526 99.8094 221.545 99.8255L224.191 104.052Z" fill="black"/>
<path d="M214.311 88.5094C213.34 90.4101 213.004 94.5805 216.019 93.7063C219.035 92.8321 215.963 85.2131 214.311 88.5094Z" fill="#121212"/>
<path d="M228.282 93.5859C227.728 98.7829 227.672 101.855 224.913 104.389C220.775 108.198 214.439 105.464 213.421 100.186C212.506 95.4466 213.565 87.7394 218.762 85.9429C219.915 85.5463 221.149 85.4481 222.35 85.6574C223.55 85.8667 224.679 86.3767 225.629 87.1398C226.58 87.9029 227.321 88.8942 227.785 90.0214C228.249 91.1486 228.42 92.3749 228.282 93.5859Z" fill="#B55B52"/>
<path d="M232.3 88.9102L226.822 86.9052L225.691 90.1132L226.068 90.033C226.068 90.033 224.977 94.7969 227.143 97.251C231.594 95.5347 234.032 91.3804 232.3 88.9102Z" fill="#121212"/>
<path d="M230.086 98.021C229.861 98.6294 229.518 99.1872 229.076 99.6621C228.634 100.137 228.103 100.52 227.512 100.788C225.908 101.486 224.865 100.122 225.106 98.4861C225.306 97.0105 226.373 94.8771 228.073 94.8611C228.444 94.8693 228.806 94.9687 229.129 95.1505C229.452 95.3323 229.725 95.5909 229.924 95.9033C230.123 96.2157 230.242 96.5724 230.27 96.9418C230.299 97.3112 230.235 97.6818 230.086 98.021Z" fill="#B55B52"/>
<path d="M220.302 94.6125C220.302 95.0376 220.037 95.3744 219.765 95.3584C219.492 95.3424 219.275 94.9815 219.291 94.5564C219.307 94.1313 219.556 93.8025 219.829 93.8186C220.101 93.8346 220.318 94.1875 220.302 94.6125Z" fill="#121212"/>
<path d="M215.498 94.3559C215.498 94.7809 215.233 95.1098 214.961 95.0937C214.688 95.0777 214.471 94.7248 214.487 94.2917C214.503 93.8586 214.752 93.5378 215.025 93.5459C215.297 93.5539 215.514 93.9308 215.498 94.3559Z" fill="#121212"/>
<path d="M217.014 94.6445C216.434 95.8728 215.686 97.0146 214.792 98.037C215.076 98.2491 215.401 98.3987 215.747 98.4761C216.092 98.5535 216.45 98.5569 216.797 98.4861L217.014 94.6445Z" fill="#A02724"/>
<path d="M219.002 100.234C218.818 100.247 218.633 100.247 218.449 100.234C218.43 100.239 218.41 100.24 218.391 100.236C218.372 100.232 218.354 100.224 218.338 100.212C218.323 100.2 218.31 100.184 218.302 100.167C218.293 100.149 218.289 100.13 218.289 100.11C218.289 100.091 218.293 100.071 218.302 100.054C218.31 100.036 218.323 100.021 218.338 100.009C218.354 99.9968 218.372 99.9885 218.391 99.9845C218.41 99.9806 218.43 99.981 218.449 99.9859C218.975 100.026 219.504 99.9418 219.991 99.7398C220.479 99.5378 220.912 99.2237 221.256 98.823C221.28 98.8004 221.311 98.7878 221.344 98.7878C221.377 98.7878 221.409 98.8004 221.432 98.823C221.455 98.8468 221.468 98.8784 221.468 98.9112C221.468 98.944 221.455 98.9756 221.432 98.9994C221.133 99.3596 220.762 99.6549 220.345 99.8672C219.927 100.08 219.47 100.205 219.002 100.234Z" fill="#121212"/>
<path d="M221.85 93.1448C221.804 93.1483 221.759 93.1398 221.718 93.1201C221.677 93.1003 221.642 93.0702 221.617 93.0326C221.448 92.7683 221.219 92.5477 220.949 92.3888C220.678 92.2299 220.374 92.1372 220.061 92.1183C219.995 92.1183 219.93 92.0924 219.883 92.046C219.835 91.9995 219.807 91.9363 219.805 91.8697C219.804 91.8374 219.809 91.8052 219.821 91.7751C219.832 91.745 219.85 91.7175 219.872 91.6943C219.895 91.6711 219.921 91.6527 219.951 91.6401C219.981 91.6275 220.013 91.621 220.045 91.621C220.449 91.6316 220.845 91.7409 221.197 91.9394C221.549 92.1379 221.848 92.4196 222.066 92.7599C222.103 92.8142 222.117 92.8809 222.105 92.9455C222.093 93.0102 222.056 93.0674 222.002 93.1047C221.957 93.1348 221.904 93.1489 221.85 93.1448Z" fill="#121212"/>
<path d="M213.501 92.5916C213.453 92.6028 213.404 92.6028 213.356 92.5916C213.299 92.5595 213.257 92.5061 213.239 92.443C213.221 92.3799 213.228 92.3122 213.26 92.2547C213.441 91.9039 213.704 91.6019 214.026 91.3743C214.349 91.1467 214.722 91.0003 215.113 90.9475C215.179 90.945 215.244 90.9675 215.294 91.0106C215.345 91.0537 215.377 91.1141 215.385 91.18C215.388 91.2127 215.383 91.2455 215.373 91.2765C215.362 91.3075 215.346 91.3361 215.324 91.3607C215.302 91.3853 215.276 91.4054 215.247 91.4198C215.217 91.4342 215.185 91.4427 215.153 91.4447C214.843 91.4876 214.549 91.6059 214.296 91.7891C214.043 91.9723 213.839 92.2148 213.701 92.4953C213.676 92.5242 213.645 92.5476 213.611 92.5641C213.576 92.5807 213.539 92.59 213.501 92.5916Z" fill="#121212"/>
<path d="M227.416 91.7173C227.283 91.7732 227.146 91.8188 227.007 91.8537C226.625 91.9483 226.226 91.945 225.846 91.844C225.466 91.7431 225.118 91.5478 224.833 91.2762C223.67 90.1695 224.472 86.1033 219.901 86.9053C219.502 86.6686 219.042 86.5525 218.578 86.571C218.114 86.5895 217.666 86.7418 217.286 87.0096C215.891 87.9319 215.193 92.6717 213.228 91.3805C211.263 90.0893 211.841 89.5359 211.841 89.5359C211.841 89.5359 212.33 90.1053 212.779 89.9128C212.553 89.5472 212.443 89.1218 212.463 88.6925C212.483 88.2632 212.633 87.8499 212.891 87.5068C212.891 87.5068 213.228 88.3088 213.613 88.3088C213.819 86.3689 214.614 84.5385 215.891 83.0638C218.104 80.337 225.515 83.4006 225.515 83.4006C225.515 83.4006 226.983 82.0933 230.094 84.2908C233.206 86.4883 233.487 91.1399 232.38 92.792" fill="#121212"/>
<path opacity="0.2" d="M204.855 121.159C204.855 121.159 204.687 128.577 201.735 132.892C201.968 128.882 202.032 124.519 202.032 120.718C202.995 120.513 204 120.67 204.855 121.159Z" fill="black"/>
<path d="M174.243 119.651L166.896 118.673L168.765 112.473C168.765 112.473 173.994 112.473 175.59 116.483L174.243 119.651Z" fill="#B55B52"/>
<path d="M162.606 115.609L165.108 111.318L168.765 112.473L166.896 118.681L162.606 115.609Z" fill="#B55B52"/>
<path d="M206.419 121.159C206.419 121.159 195.496 136.934 191.478 138.073C187.46 139.212 171.54 119.787 171.54 119.787L175.125 114.622L189.73 127.382C189.73 127.382 197.333 113.588 201.904 110.219L206.419 121.159Z" fill="#121212"/>
<path opacity="0.2" d="M206.419 121.159C206.419 121.159 195.496 136.934 191.478 138.073C187.46 139.212 171.54 119.787 171.54 119.787L175.125 114.622L189.73 127.382C189.73 127.382 197.333 113.588 201.904 110.219L206.419 121.159Z" fill="white"/>
</svg>
