<svg width="309" height="270" viewBox="0 0 309 270" fill="none" xmlns="http://www.w3.org/2000/svg">
<path d="M261.787 188.47C341.52 148.775 226.255 117.628 208.752 93.6375C196.199 76.4127 215.915 36.2558 194.544 15.8949C172.049 -5.50088 127.555 -2.41251 100.794 12.0185C60.3586 33.844 31.7274 122.659 76.5805 150.892C110.592 172.343 153.79 134.757 190.548 151.29C213.615 161.693 218.335 210.08 261.787 188.47Z" fill="#5552FF"/>
<path opacity="0.9" d="M261.787 188.47C341.52 148.775 226.255 117.628 208.752 93.6375C196.199 76.4127 215.915 36.2558 194.544 15.8949C172.049 -5.50088 127.555 -2.41251 100.794 12.0185C60.3586 33.844 31.7274 122.659 76.5805 150.892C110.592 172.343 153.79 134.757 190.548 151.29C213.615 161.693 218.335 210.08 261.787 188.47Z" fill="white"/>
<path d="M154.331 269.651C239.566 269.651 308.662 265.617 308.662 260.641C308.662 255.664 239.566 251.63 154.331 251.63C69.0964 251.63 0 255.664 0 260.641C0 265.617 69.0964 269.651 154.331 269.651Z" fill="#F5F5F5"/>
<path d="M210.925 249.855L204.891 248.2L207.136 233.776L213.169 235.44L210.925 249.855Z" fill="#FFC3BD"/>
<path d="M255.459 253.867H249.195L247.635 239.372H253.899L255.459 253.867Z" fill="#FFC3BD"/>
<path d="M248.686 253.142H256.311C256.436 253.143 256.556 253.186 256.653 253.264C256.75 253.342 256.817 253.451 256.844 253.572L258.086 259.144C258.115 259.28 258.113 259.421 258.079 259.556C258.046 259.691 257.983 259.817 257.894 259.924C257.805 260.031 257.693 260.117 257.567 260.175C257.44 260.233 257.302 260.261 257.163 260.258C254.711 260.218 252.92 260.067 249.824 260.067C247.922 260.067 242.191 260.266 239.564 260.266C236.937 260.266 236.587 257.671 237.662 257.433C242.485 256.382 246.123 254.925 247.667 253.54C247.945 253.285 248.308 253.143 248.686 253.142Z" fill="#121212"/>
<path d="M205.122 247.507L211.713 249.322C211.833 249.356 211.937 249.43 212.009 249.531C212.082 249.632 212.117 249.755 212.111 249.879L211.824 255.57C211.819 255.708 211.782 255.843 211.717 255.965C211.652 256.086 211.559 256.191 211.447 256.272C211.335 256.353 211.206 256.407 211.07 256.43C210.934 256.453 210.795 256.445 210.662 256.406C208.274 255.706 204.899 254.623 201.907 253.803C198.412 252.84 195.34 252.211 191.248 251.065C188.773 250.381 188.773 247.69 189.871 247.746C194.878 248.016 198.762 248.972 203.53 247.579C204.044 247.407 204.595 247.382 205.122 247.507Z" fill="#121212"/>
<path opacity="0.2" d="M207.136 233.784L205.974 241.211L212.015 242.874L213.169 235.448L207.136 233.784Z" fill="black"/>
<path opacity="0.2" d="M253.899 239.38H247.635L248.447 246.854H254.703L253.899 239.38Z" fill="black"/>
<path d="M180.646 55.5343L180.105 49.5327L174.23 52.3902C174.23 52.3902 175.775 57.7153 178.688 57.166L180.646 55.5343Z" fill="#FFC3BD"/>
<path d="M178.783 46.707L172.161 48.076L174.246 52.3902L180.105 49.5327L178.783 46.707Z" fill="#FFC3BD"/>
<path d="M219.195 56.4416C216.067 57.6809 213.053 59.1883 210.185 60.9468C209.572 61.2493 208.959 61.5518 208.338 61.8383C206.826 62.5229 205.289 63.1517 203.745 63.6929C200.858 64.7897 197.813 65.4106 194.727 65.5316C194.392 65.5316 194.05 65.5316 193.732 65.4918H193.501H193.397C193.314 65.4814 193.232 65.4655 193.151 65.4441C192.624 65.3427 192.112 65.1713 191.63 64.9346C190.289 64.2383 189.044 63.3686 187.929 62.3477C185.404 60.0627 183.106 57.5383 181.068 54.8099L176.984 57.1421C178.58 60.6346 180.541 63.9484 182.835 67.0281C184.097 68.7262 185.568 70.2585 187.213 71.589C188.204 72.3914 189.312 73.0358 190.5 73.4993C190.844 73.6244 191.195 73.7307 191.551 73.8177L192.116 73.9451L192.554 74.0167C193.119 74.1202 193.684 74.1839 194.241 74.2396C198.373 74.4843 202.517 74.0323 206.499 72.9023C208.155 72.4725 209.763 71.9711 211.347 71.4218C213.05 71.0636 227.059 67.9593 229.455 62.9368C232.551 56.4337 226.645 53.7831 219.195 56.4416Z" fill="#121212"/>
<path opacity="0.2" d="M216.544 70.0767C218.513 69.5136 220.448 68.8386 222.339 68.0549L222.817 62.9288C222.817 62.9288 219.076 64.4571 216.544 70.0767Z" fill="black"/>
<path d="M256.216 57.349C256.398 57.3963 256.57 57.4791 256.72 57.5928C256.871 57.7064 256.997 57.8487 257.093 58.0114C257.188 58.1741 257.25 58.354 257.276 58.5409C257.302 58.7277 257.29 58.9178 257.242 59.1002C255.606 65.4131 254.401 71.8303 253.637 78.307C253.048 83.1545 252.689 87.7791 252.475 91.9818C251.949 101.82 252.164 109.318 251.878 111.881C246.982 111.547 228.54 110.289 218.447 109.557C213.902 73.953 222.586 55.6138 222.586 55.6138C225.216 55.1194 227.874 54.7871 230.546 54.6189C231.111 54.6189 231.684 54.5631 232.273 54.5552C237.021 54.6108 241.763 54.9404 246.473 55.5422C247.364 55.6457 248.264 55.781 249.147 55.9242C252.029 56.362 254.624 56.967 256.216 57.349Z" fill="#121212"/>
<path opacity="0.2" d="M251.703 63.8444C251.043 68.0585 251.816 72.3722 253.899 76.0944C254.297 73.1413 254.791 70.1246 255.396 67.076L251.703 63.8444Z" fill="black"/>
<path d="M246.218 39.4317C245 43.9449 243.83 51.9921 246.155 55.5979C243.647 57.8425 240.662 57.2774 238.107 56.8794C234.995 56.3939 234.581 55.6855 235.568 54.2288C236.181 53.5602 236.293 52.8757 236.874 51.3156C237.343 49.6708 237.382 47.9329 236.985 46.2691L246.218 39.4317Z" fill="#FFC3BD"/>
<path d="M235.361 52.3026C235.767 54.3482 233.236 55.4387 233.976 56.3302C234.716 57.2217 241.315 59.4663 244.22 58.4077C247.126 57.349 246.815 57.0864 246.608 54.5233C246.401 51.9603 248.041 50.2888 245.924 50.9733C244.841 51.3235 239.222 50.4002 237.606 50.4002C235.99 50.4002 235.035 50.6629 235.361 52.3026Z" fill="#121212"/>
<path opacity="0.2" d="M242.453 42.2256L236.985 46.2612C237.15 47.1032 237.238 47.9584 237.248 48.8163C239.214 48.673 242.023 46.7229 242.39 44.7011C242.559 43.8864 242.58 43.048 242.453 42.2256Z" fill="black"/>
<path d="M234.128 24.3959C232.735 25.0406 230.482 28.0494 232.337 30.0393C234.191 32.0293 236.094 23.4964 234.128 24.3959Z" fill="#121212"/>
<path d="M248.049 32.865C247.022 38.994 246.728 42.6316 243.273 45.4732C238.091 49.7396 230.776 46.11 229.949 39.7979C229.208 34.1226 231.015 25.0565 237.311 23.2417C238.697 22.8316 240.165 22.7831 241.575 23.1006C242.985 23.4182 244.29 24.0913 245.367 25.0559C246.443 26.0205 247.254 27.2445 247.724 28.6114C248.193 29.9783 248.305 31.4426 248.049 32.865Z" fill="#FFC3BD"/>
<path d="M246.218 37.2587C243.926 35.8021 243.83 34.1146 244.523 32.6022C246.728 27.4921 246.115 24.9052 242.199 25.3748C238.282 25.8444 232.703 26.2981 233.395 24.5072C234.088 22.7163 239.007 21.9601 243.186 22.4536C247.364 22.9471 251.846 26.1947 250.954 31.3048C250.095 36.1921 249.052 37.5771 246.218 37.2587Z" fill="#121212"/>
<path d="M250.246 38.6517C249.464 40.0048 248.18 40.9946 246.672 41.4058C244.666 41.9311 243.703 40.1322 244.284 38.2219C244.809 36.5424 246.489 34.242 248.487 34.5366C250.485 34.8311 251.185 36.9802 250.246 38.6517Z" fill="#FFC3BD"/>
<path d="M204.103 239.197L214.316 242.007C214.316 242.007 222.363 201.675 222.864 182.182C223.016 176.252 225.579 169.239 227.537 160.436C230.02 149.348 233.109 137.352 235.672 127.96C238.362 118.066 240.408 111.069 240.408 111.069L218.455 109.533C218.455 109.533 207.12 161.598 205.759 180.653C204.334 200.465 204.103 239.197 204.103 239.197Z" fill="#5552FF"/>
<path opacity="0.4" d="M204.103 239.197L214.316 242.007C214.316 242.007 222.363 201.675 222.864 182.182C223.016 176.252 225.579 169.239 227.537 160.436C230.02 149.348 233.109 137.352 235.672 127.96C238.362 118.066 240.408 111.069 240.408 111.069L218.455 109.533C218.455 109.533 207.12 161.598 205.759 180.653C204.334 200.465 204.103 239.197 204.103 239.197Z" fill="black"/>
<path opacity="0.2" d="M227.561 160.435C230.044 149.348 233.132 137.352 235.695 127.96L233.419 123.049C227.951 129.52 226.486 149.555 227.561 160.435Z" fill="black"/>
<path d="M230.299 110.361C230.299 110.361 231.891 160.157 234.501 178.305C237.399 198.205 245.55 245.406 245.55 245.406H257.012C257.012 245.406 256.399 200.433 252.809 181.179C248.718 159.258 251.846 111.865 251.846 111.865L230.299 110.361Z" fill="#5552FF"/>
<path opacity="0.4" d="M230.299 110.361C230.299 110.361 231.891 160.157 234.501 178.305C237.399 198.205 245.55 245.406 245.55 245.406H257.012C257.012 245.406 256.399 200.433 252.809 181.179C248.718 159.258 251.846 111.865 251.846 111.865L230.299 110.361Z" fill="black"/>
<path d="M244.181 245.652H257.68V241.617L242.589 241.354L244.181 245.652Z" fill="#121212"/>
<path d="M202.75 239.077L214.929 242.436L216.011 238.504L202.456 234.548L202.75 239.077Z" fill="#121212"/>
<path d="M239.317 33.2073C239.269 33.7087 238.959 34.0908 238.633 34.059C238.306 34.0271 238.075 33.5893 238.131 33.0879C238.187 32.5864 238.489 32.2043 238.824 32.2362C239.158 32.268 239.373 32.7058 239.317 33.2073Z" fill="#121212"/>
<path d="M233.021 33.0082C232.973 33.5097 232.663 33.8917 232.329 33.8519C231.994 33.8121 231.779 33.3823 231.835 32.8808C231.891 32.3794 232.193 32.0053 232.528 32.0371C232.862 32.0689 233.077 32.5067 233.021 33.0082Z" fill="#121212"/>
<path d="M238.871 36.7812C238.074 36.8403 237.278 36.6581 236.586 36.2583C235.894 35.8584 235.338 35.2595 234.991 34.5395C234.645 33.8194 234.522 33.0116 234.641 32.2213C234.76 31.4309 235.114 30.6946 235.657 30.1081C236.2 29.5217 236.907 29.1124 237.686 28.9334C238.465 28.7544 239.279 28.8141 240.024 29.1047C240.769 29.3953 241.408 29.9034 241.86 30.5627C242.312 31.222 242.555 32.0021 242.557 32.8013C242.591 33.8166 242.223 34.8044 241.533 35.5497C240.843 36.2951 239.886 36.7377 238.871 36.7812ZM238.871 29.1796C238.146 29.1122 237.416 29.2659 236.779 29.6205C236.142 29.9751 235.628 30.514 235.302 31.1666C234.977 31.8191 234.857 32.5547 234.958 33.2767C235.059 33.9987 235.375 34.6734 235.866 35.2122C236.357 35.751 237 36.1286 237.71 36.2955C238.419 36.4625 239.163 36.4109 239.843 36.1475C240.522 35.8841 241.107 35.4213 241.519 34.8199C241.93 34.2184 242.151 33.5064 242.151 32.7774C242.185 31.8698 241.86 30.9852 241.246 30.3159C240.632 29.6467 239.779 29.2469 238.871 29.2035V29.1796Z" fill="white"/>
<path d="M230.745 36.7812C229.948 36.8403 229.151 36.6581 228.459 36.2583C227.767 35.8584 227.211 35.2595 226.865 34.5395C226.518 33.8194 226.396 33.0116 226.514 32.2213C226.633 31.4309 226.987 30.6946 227.53 30.1081C228.073 29.5217 228.78 29.1124 229.559 28.9334C230.338 28.7544 231.153 28.8141 231.897 29.1047C232.642 29.3953 233.281 29.9034 233.733 30.5627C234.185 31.222 234.428 32.0021 234.43 32.8013C234.464 33.8166 234.097 34.8044 233.406 35.5497C232.716 36.2951 231.759 36.7377 230.745 36.7812ZM230.745 29.1796C230.019 29.109 229.29 29.2593 228.652 29.6107C228.013 29.9621 227.496 30.4982 227.168 31.1487C226.84 31.7992 226.716 32.5338 226.813 33.2559C226.909 33.9781 227.222 34.6541 227.71 35.1954C228.198 35.7367 228.838 36.1179 229.546 36.289C230.254 36.4601 230.997 36.4131 231.678 36.1542C232.36 35.8953 232.946 35.4366 233.362 34.8383C233.778 34.2399 234.003 33.5299 234.008 32.8013C234.049 31.8922 233.729 31.0038 233.118 30.3298C232.506 29.6558 231.653 29.2509 230.745 29.2035V29.1796Z" fill="white"/>
<path d="M234.502 33.3347C233.875 34.8655 233.042 36.3036 232.026 37.609C232.364 37.8599 232.753 38.034 233.166 38.1192C233.578 38.2044 234.004 38.1988 234.414 38.1025L234.502 33.3347Z" fill="#ED847E"/>
<path d="M240.814 31.671C240.761 31.6824 240.706 31.6788 240.655 31.6605C240.605 31.6422 240.56 31.6099 240.527 31.5675C240.303 31.2688 240.012 31.0267 239.678 30.8609C239.343 30.695 238.974 30.6098 238.601 30.6123C238.562 30.6155 238.523 30.611 238.486 30.599C238.449 30.5871 238.415 30.5681 238.386 30.543C238.356 30.5178 238.332 30.4871 238.314 30.4526C238.296 30.4181 238.286 30.3804 238.282 30.3417C238.279 30.303 238.284 30.2641 238.296 30.2272C238.308 30.1902 238.327 30.156 238.352 30.1265C238.377 30.0969 238.408 30.0726 238.442 30.0549C238.477 30.0372 238.514 30.0264 238.553 30.0233C239.023 30.0098 239.489 30.109 239.913 30.3125C240.337 30.5161 240.706 30.8181 240.989 31.1934C241.038 31.2559 241.06 31.3352 241.051 31.4141C241.042 31.493 241.003 31.5653 240.941 31.6153C240.903 31.6418 240.859 31.6607 240.814 31.671Z" fill="#121212"/>
<path d="M236.237 40.761C236.967 40.7715 237.689 40.6071 238.342 40.2817C238.996 39.9563 239.562 39.4793 239.994 38.8904C240.017 38.8546 240.025 38.8109 240.016 38.7691C240.007 38.7273 239.982 38.6908 239.946 38.6676C239.928 38.6561 239.908 38.6482 239.887 38.6444C239.867 38.6406 239.845 38.6409 239.824 38.6453C239.783 38.6543 239.746 38.6794 239.723 38.7153C239.317 39.2557 238.791 39.6935 238.185 39.9934C237.58 40.2934 236.912 40.4473 236.237 40.4426C236.216 40.4426 236.195 40.4467 236.176 40.4547C236.156 40.4627 236.139 40.4744 236.124 40.4892C236.109 40.504 236.097 40.5216 236.089 40.5409C236.081 40.5602 236.077 40.5809 236.077 40.6018C236.077 40.6227 236.081 40.6434 236.089 40.6627C236.097 40.682 236.109 40.6996 236.124 40.7144C236.139 40.7291 236.156 40.7409 236.176 40.7489C236.195 40.7569 236.216 40.761 236.237 40.761Z" fill="#121212"/>
<path d="M229.55 31.6948C229.486 31.6952 229.423 31.6788 229.367 31.6471C229.302 31.6046 229.256 31.5388 229.239 31.4632C229.221 31.3876 229.233 31.3081 229.272 31.2411C229.512 30.8341 229.846 30.4907 230.246 30.24C230.647 29.9892 231.101 29.8385 231.572 29.8004C231.651 29.8004 231.727 29.8312 231.783 29.8862C231.84 29.9412 231.873 30.0161 231.875 30.0949C231.873 30.1732 231.841 30.2478 231.787 30.3039C231.732 30.36 231.658 30.3934 231.58 30.3974C231.21 30.4312 230.853 30.5537 230.54 30.7546C230.227 30.9555 229.966 31.2288 229.781 31.5515C229.756 31.5914 229.722 31.625 229.682 31.6498C229.642 31.6746 229.597 31.69 229.55 31.6948Z" fill="#121212"/>
<path d="M246.616 254.241C246.189 254.274 245.762 254.162 245.406 253.923C245.293 253.826 245.207 253.702 245.154 253.563C245.101 253.424 245.084 253.274 245.104 253.127C245.102 253.041 245.124 252.957 245.168 252.884C245.211 252.811 245.275 252.752 245.351 252.713C246.051 252.355 248.065 253.596 248.296 253.74C248.319 253.755 248.338 253.776 248.349 253.802C248.36 253.827 248.364 253.855 248.359 253.883C248.357 253.913 248.344 253.942 248.324 253.965C248.304 253.988 248.278 254.004 248.248 254.01C247.714 254.148 247.167 254.225 246.616 254.241ZM245.685 252.944C245.619 252.938 245.552 252.952 245.494 252.983C245.446 252.983 245.406 253.039 245.398 253.159C245.384 253.257 245.395 253.357 245.43 253.45C245.465 253.544 245.522 253.627 245.597 253.692C246.296 254.01 247.091 254.05 247.818 253.803C247.169 253.383 246.444 253.091 245.685 252.944Z" fill="#5552FF"/>
<path d="M248.256 254.018H248.184C247.54 253.668 246.282 252.291 246.417 251.63C246.439 251.521 246.498 251.423 246.583 251.352C246.669 251.281 246.776 251.242 246.887 251.24C247.001 251.224 247.116 251.233 247.226 251.266C247.336 251.299 247.438 251.355 247.524 251.431C248.248 252.02 248.399 253.819 248.399 253.907C248.403 253.933 248.399 253.96 248.388 253.984C248.377 254.008 248.358 254.028 248.336 254.042C248.307 254.042 248.28 254.033 248.256 254.018ZM246.99 251.479H246.927C246.736 251.479 246.712 251.59 246.712 251.63C246.632 252.036 247.428 253.079 248.073 253.564C248.031 252.852 247.773 252.169 247.333 251.606C247.227 251.516 247.09 251.47 246.951 251.479H246.99Z" fill="#5552FF"/>
<path d="M204.31 248.176C203.284 248.104 201.493 247.865 200.991 247.093C200.91 246.979 200.861 246.845 200.848 246.705C200.836 246.565 200.86 246.424 200.919 246.297C200.942 246.219 200.985 246.149 201.044 246.093C201.103 246.037 201.175 245.998 201.254 245.979C202.098 245.788 204.191 247.674 204.438 247.889C204.46 247.907 204.477 247.932 204.485 247.959C204.494 247.987 204.493 248.016 204.485 248.044C204.476 248.071 204.46 248.095 204.437 248.113C204.414 248.131 204.387 248.142 204.358 248.144L204.31 248.176ZM201.333 246.297H201.294C201.262 246.306 201.233 246.323 201.211 246.347C201.188 246.37 201.173 246.4 201.166 246.433C201.131 246.513 201.116 246.601 201.123 246.688C201.13 246.776 201.159 246.86 201.206 246.934C201.493 247.364 202.464 247.73 203.857 247.841C203.021 247.117 201.827 246.241 201.333 246.297Z" fill="#5552FF"/>
<path d="M204.31 248.176C204.293 248.183 204.274 248.187 204.255 248.187C204.236 248.187 204.217 248.183 204.199 248.176C203.562 247.65 202.472 245.947 202.774 245.294C202.846 245.143 203.013 244.976 203.419 245.039C203.565 245.065 203.704 245.12 203.829 245.201C203.953 245.281 204.06 245.386 204.143 245.509C204.732 246.345 204.446 248.016 204.438 248.088C204.434 248.114 204.423 248.138 204.406 248.158C204.39 248.178 204.367 248.192 204.342 248.199L204.31 248.176ZM203.196 245.294C203.077 245.294 203.053 245.366 203.045 245.39C202.862 245.78 203.562 247.069 204.183 247.722C204.305 247.016 204.205 246.29 203.897 245.644C203.836 245.554 203.757 245.477 203.665 245.418C203.574 245.359 203.471 245.32 203.363 245.302C203.307 245.303 203.251 245.311 203.196 245.326V245.294Z" fill="#5552FF"/>
<path d="M254.457 106.922L248.089 107.559L251.886 113.585C251.886 113.585 257.044 111.555 256.271 108.705L254.457 106.922Z" fill="#FFC3BD"/>
<path d="M243.902 110.727L247.818 116.06L251.917 113.585L248.121 107.559L243.902 110.727Z" fill="#FFC3BD"/>
<path d="M269.349 79.5727C268.776 77.9807 268.123 76.3888 267.431 74.8844C266.913 73.2208 262.536 59.5619 257.306 57.6357C250.564 55.1522 248.471 61.2812 251.806 68.4529C253.326 71.4541 255.106 74.3172 257.123 77.0096C257.481 77.5907 257.839 78.1718 258.174 78.7608C258.97 80.2095 259.766 81.682 260.45 83.1705C261.809 85.9414 262.71 88.9145 263.117 91.9739C263.117 92.3162 263.164 92.6505 263.164 92.9769V93.2077C263.16 93.2421 263.16 93.2768 263.164 93.3112C263.171 93.3933 263.171 93.4758 263.164 93.5579C263.116 94.1029 262.993 94.6387 262.798 95.1499C262.228 96.5489 261.479 97.868 260.57 99.074C258.525 101.802 256.219 104.324 253.684 106.604L256.391 110.456C259.722 108.544 262.841 106.285 265.696 103.715C267.271 102.301 268.664 100.697 269.843 98.9387C270.548 97.876 271.085 96.7108 271.435 95.4842C271.531 95.1309 271.605 94.7721 271.657 94.4096L271.729 93.8365V93.3908C271.777 92.8177 271.785 92.2525 271.793 91.6954C271.665 87.5459 270.839 83.4476 269.349 79.5727Z" fill="#121212"/>
<path d="M23.8473 129.568H156.05C157.756 129.551 159.39 128.882 160.618 127.698C161.845 126.513 162.572 124.904 162.649 123.2L165.61 38.8905C165.642 38.0644 165.507 37.2404 165.212 36.4679C164.918 35.6955 164.47 34.9906 163.896 34.3957C163.322 33.8008 162.634 33.3282 161.872 33.0064C161.111 32.6845 160.292 32.52 159.465 32.5227H27.2541C25.548 32.5374 23.9126 33.206 22.6849 34.3907C21.4572 35.5755 20.7308 37.1861 20.6555 38.8905L17.6945 123.192C17.6623 124.019 17.7977 124.844 18.0927 125.618C18.3876 126.391 18.836 127.097 19.4108 127.692C19.9856 128.288 20.675 128.761 21.4374 129.084C22.1998 129.406 23.0196 129.571 23.8473 129.568Z" fill="#5552FF"/>
<path opacity="0.4" d="M23.8473 129.568H156.05C157.756 129.551 159.39 128.882 160.618 127.698C161.845 126.513 162.572 124.904 162.649 123.2L165.61 38.8905C165.642 38.0644 165.507 37.2404 165.212 36.4679C164.918 35.6955 164.47 34.9906 163.896 34.3957C163.322 33.8008 162.634 33.3282 161.872 33.0064C161.111 32.6845 160.292 32.52 159.465 32.5227H27.2541C25.548 32.5374 23.9126 33.206 22.6849 34.3907C21.4572 35.5755 20.7308 37.1861 20.6555 38.8905L17.6945 123.192C17.6623 124.019 17.7977 124.844 18.0927 125.618C18.3876 126.391 18.836 127.097 19.4108 127.692C19.9856 128.288 20.675 128.761 21.4374 129.084C22.1998 129.406 23.0196 129.571 23.8473 129.568Z" fill="black"/>
<path d="M25.1051 129.568H157.316C159.021 129.549 160.654 128.879 161.881 127.695C163.108 126.511 163.836 124.903 163.915 123.2L166.876 38.8905C166.908 38.0637 166.773 37.239 166.477 36.466C166.182 35.6931 165.734 34.9878 165.159 34.3928C164.584 33.7978 163.895 33.3254 163.132 33.004C162.37 32.6826 161.55 32.5189 160.723 32.5227H28.5118C26.8072 32.5394 25.1737 33.2089 23.9477 34.3934C22.7217 35.578 21.9965 37.1874 21.9212 38.8905L18.9602 123.192C18.9269 124.019 19.0613 124.844 19.3553 125.617C19.6494 126.39 20.097 127.096 20.6712 127.692C21.2454 128.288 21.9342 128.761 22.6963 129.083C23.4583 129.406 24.2777 129.571 25.1051 129.568Z" fill="#5552FF"/>
<path opacity="0.9" d="M156.05 124.258C156.724 124.251 157.368 123.986 157.852 123.519C158.336 123.051 158.623 122.416 158.653 121.743L161.495 40.3311C161.512 40.007 161.463 39.6827 161.351 39.3782C161.239 39.0736 161.066 38.7951 160.842 38.5597C160.619 38.3243 160.35 38.1369 160.051 38.009C159.753 37.8811 159.432 37.8154 159.107 37.8159H29.7774C29.1049 37.8252 28.4613 38.0906 27.9777 38.5579C27.4941 39.0253 27.2069 39.6594 27.1745 40.3311L24.317 121.743C24.2997 122.067 24.3486 122.392 24.4609 122.696C24.5731 123.001 24.7462 123.279 24.9697 123.515C25.1932 123.75 25.4624 123.937 25.7607 124.065C26.059 124.193 26.3803 124.259 26.7049 124.258H156.05Z" fill="white"/>
<path opacity="0.3" d="M117.032 102.226C121.213 96.9595 123.65 90.5219 124.005 83.8071C124.349 77.2832 122.537 70.8272 118.847 65.4361V65.3406C118.784 65.2481 118.715 65.1603 118.64 65.0779C115.902 61.2201 112.273 58.0804 108.061 55.9255C103.85 53.7706 99.1807 52.6643 94.4502 52.7005C89.5598 52.7378 84.7396 53.8678 80.3422 56.008C75.9448 58.1482 72.0814 61.2443 69.0348 65.0699C68.9711 65.1416 68.9074 65.2052 68.8517 65.2769C68.8401 65.3042 68.8268 65.3308 68.8119 65.3565C64.6263 70.6238 62.1863 77.0647 61.8312 83.7832C61.4722 90.3298 63.2885 96.8113 66.9971 102.218C66.9941 102.242 66.9941 102.266 66.9971 102.29L67.0687 102.377C69.8029 106.27 73.4413 109.441 77.6713 111.618C81.9014 113.795 86.5967 114.912 91.3539 114.874C96.2363 114.836 101.049 113.708 105.44 111.574C109.831 109.44 113.691 106.352 116.737 102.536C116.811 102.458 116.88 102.375 116.944 102.29C116.975 102.27 117.004 102.249 117.032 102.226ZM91.5608 111.197C87.1113 111.197 83.3623 105.999 81.4599 98.3336C85.0107 97.6219 88.6239 97.2672 92.2454 97.275C95.833 97.2669 99.4121 97.6243 102.927 98.3416C100.269 106.031 96.0103 111.197 91.5688 111.197H91.5608ZM92.4284 93.5657C88.4989 93.5576 84.5787 93.947 80.7276 94.7279C80.2552 91.7299 80.0474 88.6961 80.1068 85.6617H105.538C105.289 88.7208 104.783 91.7535 104.026 94.7279C100.213 93.9441 96.3291 93.5546 92.4364 93.5657H92.4284ZM65.5007 85.6617H76.4055C76.328 88.9943 76.5518 92.3271 77.0741 95.6194C74.3596 96.383 71.7401 97.4511 69.2656 98.8032C66.8643 94.836 65.5671 90.2988 65.5086 85.6617H65.5007ZM70.7541 68.819C73.1149 70.1806 75.6328 71.2498 78.2521 72.0028C77.4129 75.2702 76.8615 78.6048 76.6045 81.9684H65.6997C66.2574 77.2313 67.9953 72.71 70.7541 68.819ZM94.2751 56.4257C98.7246 56.4257 102.466 61.6234 104.376 69.2886C100.822 69.996 97.2065 70.3506 93.5826 70.3472C89.9954 70.3535 86.4168 69.9988 82.9006 69.2886C85.5592 61.6234 89.8574 56.4257 94.2671 56.4257H94.2751ZM93.4075 74.0485C97.3369 74.0559 101.257 73.6665 105.108 72.8864C105.577 75.8874 105.785 78.9235 105.729 81.9605H80.3058C80.5507 78.8982 81.0566 75.8625 81.8181 72.8864C85.6284 73.6705 89.5094 74.0599 93.3995 74.0485H93.4075ZM120.335 81.9605H109.43C109.504 78.6253 109.28 75.2903 108.762 71.9949C111.475 71.2286 114.095 70.1607 116.57 68.811C118.969 72.7822 120.266 77.3212 120.327 81.9605H120.335ZM109.247 85.6617H120.152C119.587 90.3934 117.846 94.9083 115.09 98.7953C112.728 97.4354 110.21 96.3664 107.592 95.6114C108.434 92.35 108.985 89.0205 109.239 85.6617H109.247ZM114.461 65.85C112.407 66.9137 110.249 67.7645 108.022 68.3891C107.199 64.6823 105.67 61.1689 103.516 58.0415C107.79 59.6284 111.564 62.3233 114.453 65.85H114.461ZM84.8667 58.0574C82.4299 61.1541 80.5597 64.6572 79.3426 68.405C77.1961 67.7824 75.1227 66.9311 73.1579 65.8659C76.3702 62.3561 80.385 59.6769 84.8587 58.0574H84.8667ZM71.3909 101.772C73.4442 100.71 75.5988 99.8572 77.8223 99.2251C78.6466 102.931 80.1761 106.444 82.3275 109.573C78.0522 107.989 74.2749 105.297 71.3829 101.772H71.3909ZM101.001 109.557C103.443 106.464 105.314 102.959 106.525 99.2092C108.672 99.833 110.746 100.687 112.71 101.756C109.496 105.266 105.478 107.943 101.001 109.557Z" fill="#5552FF"/>
<path opacity="0.6" d="M53.6168 37.8159L42.1229 124.258H57.4215L68.9154 37.8159H53.6168Z" fill="white"/>
<path opacity="0.6" d="M74.1372 37.8159L62.6433 124.258H68.9156L80.4174 37.8159H74.1372Z" fill="white"/>
<path opacity="0.3" d="M93.543 35.3086C93.5376 35.4359 93.5581 35.563 93.6034 35.6822C93.6487 35.8013 93.7177 35.91 93.8063 36.0015C93.8949 36.0931 94.0013 36.1657 94.1188 36.2149C94.2364 36.2641 94.3627 36.2889 94.4902 36.2877C94.7522 36.2858 95.0035 36.183 95.1918 36.0007C95.3801 35.8184 95.4908 35.5705 95.501 35.3086C95.5065 35.1813 95.4859 35.0542 95.4406 34.9351C95.3953 34.816 95.3263 34.7073 95.2377 34.6157C95.1491 34.5241 95.0428 34.4515 94.9252 34.4023C94.8076 34.3531 94.6813 34.3284 94.5538 34.3296C94.2918 34.3314 94.0405 34.4342 93.8522 34.6165C93.6639 34.7989 93.5532 35.0467 93.543 35.3086Z" fill="white"/>
<path d="M176.706 217.562H44.487C42.6728 217.476 40.9339 216.811 39.5246 215.665C38.1153 214.52 37.1096 212.953 36.6546 211.195L19.7323 137.249C18.9363 133.746 21.1411 130.881 24.6434 130.881H156.854C158.668 130.969 160.407 131.634 161.816 132.779C163.225 133.925 164.231 135.491 164.687 137.249L181.609 211.195C182.421 214.697 180.208 217.562 176.706 217.562Z" fill="#5552FF"/>
<path opacity="0.4" d="M176.706 217.562H44.487C42.6728 217.476 40.9339 216.811 39.5246 215.665C38.1153 214.52 37.1096 212.953 36.6546 211.195L19.7323 137.249C18.9363 133.746 21.1411 130.881 24.6434 130.881H156.854C158.668 130.969 160.407 131.634 161.816 132.779C163.225 133.925 164.231 135.491 164.687 137.249L181.609 211.195C182.421 214.697 180.208 217.562 176.706 217.562Z" fill="black"/>
<path d="M177.972 217.562H45.7606C43.946 217.477 42.2065 216.813 40.7969 215.667C39.3874 214.521 38.3821 212.953 37.9282 211.194L21.0058 137.241C20.2099 133.738 22.4147 130.873 25.917 130.873H158.128C159.942 130.961 161.68 131.626 163.089 132.771C164.498 133.917 165.504 135.483 165.96 137.241L182.883 211.187C183.687 214.697 181.474 217.562 177.972 217.562Z" fill="#5552FF"/>
<path opacity="0.2" d="M38.7639 180.653C38.0478 180.619 37.3613 180.357 36.8054 179.904C36.2496 179.451 35.8535 178.832 35.6755 178.138L26.6492 138.666C26.5638 138.372 26.549 138.062 26.606 137.762C26.663 137.461 26.7902 137.178 26.9772 136.936C27.1641 136.694 27.4056 136.5 27.682 136.369C27.9583 136.238 28.2617 136.174 28.5675 136.182H157.889C158.606 136.215 159.293 136.477 159.849 136.93C160.405 137.383 160.801 138.002 160.978 138.697L170.012 178.138C170.102 178.435 170.12 178.75 170.064 179.056C170.008 179.362 169.879 179.65 169.689 179.896C169.499 180.143 169.253 180.34 168.971 180.471C168.69 180.603 168.38 180.665 168.07 180.653H38.7639Z" fill="black"/>
<path opacity="0.2" d="M92.0464 211.68C91.6286 211.66 91.2281 211.507 90.9032 211.244C90.5782 210.98 90.3458 210.62 90.2395 210.216L84.9782 187.22C84.9262 187.047 84.9163 186.864 84.9492 186.686C84.9821 186.508 85.0568 186.341 85.1673 186.198C85.2778 186.054 85.4208 185.94 85.5845 185.863C85.7481 185.786 85.9277 185.749 86.1084 185.755H123.058C123.478 185.771 123.883 185.922 124.212 186.186C124.54 186.45 124.774 186.812 124.88 187.22L130.15 210.216C130.202 210.389 130.212 210.572 130.179 210.75C130.146 210.928 130.071 211.095 129.96 211.238C129.85 211.381 129.707 211.496 129.543 211.573C129.38 211.65 129.2 211.687 129.019 211.68H92.0464Z" fill="black"/>
<path d="M181.577 160.077L185.557 55.1921C185.585 54.5358 185.48 53.8806 185.249 53.2657C185.018 52.6507 184.665 52.0887 184.212 51.6132C183.759 51.1377 183.214 50.7584 182.611 50.498C182.008 50.2377 181.359 50.1016 180.702 50.0979L113.84 49.5328C112.488 49.5333 111.187 50.0546 110.209 50.9883C109.231 51.922 108.65 53.1966 108.587 54.5474L104.607 159.425C104.578 160.082 104.682 160.738 104.912 161.354C105.143 161.97 105.495 162.533 105.949 163.009C106.402 163.485 106.947 163.865 107.551 164.126C108.154 164.387 108.804 164.523 109.462 164.527L176.324 165.092C177.676 165.09 178.975 164.568 179.952 163.634C180.93 162.701 181.512 161.428 181.577 160.077Z" fill="#5552FF"/>
<path opacity="0.4" d="M181.577 160.077L185.557 55.1921C185.585 54.5358 185.48 53.8806 185.249 53.2657C185.018 52.6507 184.665 52.0887 184.212 51.6132C183.759 51.1377 183.214 50.7584 182.611 50.498C182.008 50.2377 181.359 50.1016 180.702 50.0979L113.84 49.5328C112.488 49.5333 111.187 50.0546 110.209 50.9883C109.231 51.922 108.65 53.1966 108.587 54.5474L104.607 159.425C104.578 160.082 104.682 160.738 104.912 161.354C105.143 161.97 105.495 162.533 105.949 163.009C106.402 163.485 106.947 163.865 107.551 164.126C108.154 164.387 108.804 164.523 109.462 164.527L176.324 165.092C177.676 165.09 178.975 164.568 179.952 163.634C180.93 162.701 181.512 161.428 181.577 160.077Z" fill="black"/>
<path d="M183.05 160.077L187.07 55.1921C187.096 54.5354 186.99 53.88 186.758 53.2651C186.526 52.6501 186.173 52.0882 185.719 51.6128C185.265 51.1374 184.72 50.7582 184.117 50.498C183.513 50.2377 182.863 50.1016 182.206 50.0979L115.328 49.5168C113.976 49.5174 112.676 50.0386 111.698 50.9724C110.72 51.9061 110.138 53.1807 110.075 54.5315L106.095 159.409C106.066 160.066 106.17 160.722 106.401 161.338C106.631 161.954 106.984 162.517 107.437 162.993C107.891 163.469 108.436 163.849 109.039 164.11C109.643 164.371 110.293 164.507 110.951 164.511L177.812 165.076C179.159 165.072 180.453 164.551 181.428 163.621C182.402 162.691 182.983 161.423 183.05 160.077Z" fill="#5552FF"/>
<path opacity="0.9" d="M182.811 56.3065C182.822 56.0476 182.78 55.7892 182.689 55.5467C182.597 55.3043 182.458 55.0828 182.279 54.8955C182.099 54.7082 181.884 54.559 181.646 54.4568C181.408 54.3546 181.152 54.3015 180.893 54.3006L116.331 53.7514C115.798 53.7529 115.286 53.9595 114.9 54.3285C114.515 54.6974 114.286 55.2005 114.262 55.7334L110.33 158.31C110.319 158.57 110.361 158.828 110.452 159.071C110.543 159.314 110.683 159.536 110.862 159.724C111.041 159.912 111.256 160.062 111.494 160.165C111.732 160.268 111.989 160.322 112.248 160.324L176.809 160.865C177.342 160.866 177.855 160.661 178.24 160.293C178.626 159.926 178.854 159.424 178.879 158.891L182.811 56.3065Z" fill="white"/>
<path opacity="0.3" d="M170.577 125.333C174.456 120.44 176.717 114.463 177.048 108.228C177.38 102.158 175.701 96.1492 172.272 91.1303V91.0507C172.217 90.9602 172.15 90.8772 172.073 90.8039C169.531 87.2369 166.166 84.335 162.265 82.3439C158.363 80.3529 154.039 79.3314 149.659 79.3658C145.118 79.4017 140.642 80.4516 136.559 82.4388C132.476 84.426 128.888 87.3003 126.058 90.8517C125.998 90.9143 125.942 90.9808 125.891 91.0507L125.851 91.1223C121.937 96.0009 119.649 101.983 119.308 108.228C118.967 114.303 120.646 120.32 124.084 125.341C124.087 125.365 124.087 125.389 124.084 125.413L124.156 125.492C126.701 129.112 130.089 132.058 134.028 134.076C137.966 136.093 142.336 137.122 146.761 137.074C151.295 137.04 155.763 135.994 159.841 134.012C163.919 132.031 167.502 129.163 170.33 125.62C170.401 125.549 170.467 125.475 170.529 125.397L170.577 125.333ZM146.929 133.659C142.805 133.659 139.327 128.828 137.552 121.72C140.849 121.061 144.203 120.73 147.565 120.733C150.906 120.723 154.24 121.051 157.515 121.712C155.016 128.828 151.06 133.659 146.929 133.659ZM147.724 117.294C144.076 117.285 140.436 117.645 136.859 118.368C136.42 115.584 136.226 112.766 136.278 109.947H159.903C159.671 112.789 159.2 115.606 158.494 118.368C154.956 117.642 151.352 117.282 147.74 117.294H147.724ZM122.723 109.947H132.84C132.763 113.043 132.971 116.139 133.461 119.196C130.941 119.903 128.508 120.89 126.209 122.141C123.99 118.457 122.792 114.248 122.739 109.947H122.723ZM127.586 94.3142C129.779 95.576 132.118 96.5651 134.551 97.2593C133.767 100.294 133.253 103.391 133.015 106.516H122.906C123.424 102.12 125.039 97.9237 127.602 94.3142H127.586ZM149.42 82.8044C153.551 82.8044 157.029 87.628 158.804 94.744C155.505 95.4063 152.148 95.7369 148.783 95.731C145.452 95.7407 142.129 95.41 138.865 94.744C141.357 87.628 145.305 82.8044 149.436 82.8044H149.42ZM148.624 99.1696C152.276 99.174 155.919 98.8059 159.497 98.0712C159.933 100.859 160.125 103.679 160.07 106.501H136.469C136.695 103.656 137.164 100.836 137.87 98.0712C141.41 98.8091 145.016 99.1772 148.632 99.1696H148.624ZM173.625 106.516H163.509C163.577 103.418 163.37 100.32 162.888 97.2593C165.409 96.5565 167.842 95.5684 170.139 94.3142C172.367 97.9991 173.573 102.211 173.633 106.516H173.625ZM163.334 109.947H173.434C172.909 114.34 171.295 118.531 168.738 122.141C166.543 120.885 164.204 119.896 161.773 119.196C162.564 116.165 163.089 113.07 163.341 109.947H163.334ZM168.173 91.5521C166.267 92.5488 164.264 93.3489 162.195 93.9401C161.431 90.5043 160.012 87.2478 158.016 84.3486C161.982 85.8081 165.49 88.2938 168.181 91.5521H168.173ZM140.696 84.3247C138.431 87.1916 136.695 90.4396 135.57 93.9162C133.575 93.3333 131.651 92.5325 129.831 91.5283C132.82 88.2837 136.551 85.8119 140.704 84.3247H140.696ZM128.183 124.919C130.087 123.923 132.087 123.123 134.153 122.531C134.923 125.967 136.345 129.222 138.34 132.123C134.378 130.661 130.875 128.172 128.191 124.911L128.183 124.919ZM155.66 132.147C157.921 129.277 159.656 126.03 160.786 122.555C162.779 123.143 164.704 123.944 166.525 124.943C163.542 128.185 159.816 130.654 155.668 132.139L155.66 132.147Z" fill="#5552FF"/>
<path opacity="0.6" d="M130.285 53.8707L118.815 160.38L134.098 160.507L145.568 53.9981L130.285 53.8707Z" fill="white"/>
<path opacity="0.6" d="M150.781 54.0458L139.311 160.555L145.583 160.603L157.053 54.0936L150.781 54.0458Z" fill="white"/>
<path opacity="0.3" d="M147.263 52.4938C147.474 52.4938 147.676 52.4099 147.826 52.2607C147.975 52.1114 148.059 51.9089 148.059 51.6978C148.065 51.5956 148.051 51.4932 148.016 51.3968C147.981 51.3005 147.927 51.2122 147.857 51.1376C147.787 51.063 147.702 51.0036 147.608 50.963C147.514 50.9225 147.413 50.9016 147.311 50.9019C147.099 50.9019 146.897 50.9857 146.748 51.135C146.598 51.2843 146.515 51.4867 146.515 51.6978C146.508 51.8 146.523 51.9025 146.557 51.9988C146.592 52.0952 146.646 52.1834 146.716 52.258C146.786 52.3327 146.871 52.3921 146.965 52.4326C147.059 52.4732 147.16 52.494 147.263 52.4938Z" fill="white"/>
<path d="M201.731 188.191L205.751 105.872C205.779 105.215 205.674 104.559 205.443 103.944C205.212 103.329 204.859 102.766 204.406 102.29C203.953 101.814 203.409 101.434 202.806 101.173C202.202 100.911 201.553 100.774 200.896 100.769L162.235 100.212C160.884 100.213 159.585 100.733 158.607 101.665C157.629 102.597 157.047 103.87 156.982 105.219L153.002 187.546C152.974 188.203 153.079 188.858 153.31 189.473C153.541 190.088 153.894 190.65 154.347 191.125C154.8 191.601 155.345 191.98 155.948 192.241C156.551 192.501 157.2 192.637 157.857 192.641L196.518 193.206C197.863 193.195 199.153 192.669 200.123 191.737C201.093 190.804 201.668 189.535 201.731 188.191Z" fill="#5552FF"/>
<path opacity="0.4" d="M201.731 188.191L205.751 105.872C205.779 105.215 205.674 104.559 205.443 103.944C205.212 103.329 204.859 102.766 204.406 102.29C203.953 101.814 203.409 101.434 202.806 101.173C202.202 100.911 201.553 100.774 200.896 100.769L162.235 100.212C160.884 100.213 159.585 100.733 158.607 101.665C157.629 102.597 157.047 103.87 156.982 105.219L153.002 187.546C152.974 188.203 153.079 188.858 153.31 189.473C153.541 190.088 153.894 190.65 154.347 191.125C154.8 191.601 155.345 191.98 155.948 192.241C156.551 192.501 157.2 192.637 157.857 192.641L196.518 193.206C197.863 193.195 199.153 192.669 200.123 191.737C201.093 190.804 201.668 189.535 201.731 188.191Z" fill="black"/>
<path d="M203.212 188.191L207.192 105.872C207.221 105.215 207.117 104.559 206.886 103.943C206.655 103.327 206.303 102.764 205.85 102.288C205.396 101.811 204.851 101.431 204.248 101.17C203.644 100.909 202.994 100.773 202.336 100.769L163.676 100.212C162.326 100.213 161.028 100.733 160.051 101.666C159.074 102.598 158.494 103.87 158.43 105.219L154.411 187.546C154.383 188.203 154.488 188.858 154.719 189.473C154.95 190.088 155.303 190.65 155.756 191.125C156.209 191.601 156.754 191.98 157.357 192.241C157.96 192.501 158.609 192.637 159.266 192.641L197.927 193.206C199.284 193.211 200.591 192.693 201.575 191.759C202.56 190.825 203.146 189.547 203.212 188.191Z" fill="#5552FF"/>
<path opacity="0.9" d="M202.973 106.986C202.983 106.727 202.94 106.469 202.849 106.226C202.757 105.984 202.617 105.762 202.439 105.574C202.26 105.387 202.045 105.237 201.808 105.133C201.57 105.03 201.314 104.975 201.055 104.972L164.679 104.439C164.145 104.44 163.633 104.647 163.248 105.016C162.862 105.385 162.634 105.888 162.609 106.421L158.693 186.424C158.682 186.683 158.724 186.942 158.815 187.185C158.907 187.428 159.046 187.65 159.225 187.838C159.404 188.026 159.619 188.175 159.857 188.279C160.096 188.382 160.352 188.436 160.611 188.438L196.972 188.979C197.504 188.98 198.017 188.775 198.402 188.407C198.788 188.039 199.016 187.537 199.041 187.005L202.973 106.986Z" fill="white"/>
<path opacity="0.3" d="M194.576 157.769C196.959 154.767 198.35 151.098 198.555 147.27C198.757 143.543 197.724 139.853 195.618 136.771C195.618 136.771 195.618 136.771 195.618 136.724C195.586 136.67 195.548 136.619 195.507 136.572C193.943 134.383 191.876 132.602 189.479 131.38C187.082 130.158 184.427 129.531 181.737 129.552C178.95 129.573 176.203 130.217 173.698 131.438C171.193 132.658 168.992 134.423 167.258 136.604L167.146 136.724V136.771C164.759 139.771 163.368 143.441 163.167 147.27C162.956 151.001 163.989 154.696 166.104 157.777V157.817C166.104 157.817 166.104 157.817 166.143 157.865C167.703 160.072 169.776 161.869 172.182 163.1C174.589 164.331 177.258 164.96 179.962 164.933C182.743 164.912 185.485 164.269 187.987 163.054C190.49 161.838 192.689 160.078 194.424 157.904C194.471 157.86 194.514 157.812 194.552 157.761L194.576 157.769ZM180.065 162.879C177.526 162.879 175.393 159.918 174.31 155.548C176.333 155.145 178.392 154.942 180.455 154.943C182.5 154.94 184.54 155.143 186.544 155.548C185.024 159.878 182.596 162.839 180.065 162.839V162.879ZM180.559 152.834C178.319 152.829 176.084 153.051 173.888 153.495C173.622 151.786 173.505 150.058 173.538 148.329H188.025C187.887 150.072 187.6 151.801 187.165 153.495C185.006 153.038 182.805 152.803 180.598 152.794L180.559 152.834ZM165.212 148.329H171.429C171.385 150.228 171.513 152.128 171.811 154.004C170.262 154.437 168.766 155.043 167.353 155.811C165.982 153.539 165.243 150.942 165.212 148.289V148.329ZM168.197 138.666C169.544 139.437 170.979 140.043 172.471 140.473C171.991 142.335 171.677 144.237 171.532 146.156H165.316C165.635 143.457 166.625 140.882 168.197 138.666ZM181.601 131.597C184.14 131.597 186.274 134.558 187.364 138.928C185.339 139.336 183.277 139.538 181.211 139.533C179.166 139.541 177.126 139.338 175.122 138.928C176.618 134.582 179.07 131.621 181.601 131.621V131.597ZM181.108 141.643C183.348 141.647 185.582 141.426 187.778 140.982C188.044 142.693 188.162 144.424 188.128 146.156H173.642C173.782 144.41 174.07 142.679 174.501 140.982C176.674 141.436 178.888 141.665 181.108 141.666V141.643ZM196.454 146.156H190.238C190.281 144.254 190.153 142.352 189.855 140.473C191.405 140.04 192.9 139.434 194.313 138.666C195.683 140.935 196.422 143.529 196.454 146.18V146.156ZM190.15 148.289H196.367C196.046 150.985 195.056 153.557 193.485 155.771C192.138 155 190.703 154.393 189.211 153.964C189.69 152.104 190.005 150.205 190.15 148.289ZM193.127 136.994C191.956 137.6 190.727 138.085 189.457 138.443C188.987 136.332 188.114 134.333 186.886 132.553C189.318 133.456 191.466 134.989 193.111 136.994H193.127ZM176.26 132.553C174.858 134.312 173.78 136.306 173.076 138.443C171.852 138.09 170.669 137.604 169.55 136.994C171.389 134.993 173.686 133.469 176.244 132.553H176.26ZM168.579 157.467C169.748 156.863 170.975 156.377 172.241 156.018C172.715 158.127 173.587 160.126 174.812 161.908C172.37 161.011 170.213 159.478 168.563 157.467H168.579ZM185.438 161.908C186.84 160.149 187.918 158.155 188.622 156.018C189.845 156.374 191.027 156.86 192.148 157.467C190.3 159.472 187.992 160.997 185.422 161.908H185.438Z" fill="#5552FF"/>
<path opacity="0.6" d="M171.413 104.534L162.45 188.462L174.438 188.645L183.48 104.71L171.413 104.534Z" fill="white"/>
<path opacity="0.6" d="M187.595 104.773L178.553 188.708L183.504 188.78L192.546 104.845L187.595 104.773Z" fill="white"/>
<path opacity="0.3" d="M167.361 103.293C167.572 103.293 167.775 103.209 167.924 103.06C168.073 102.91 168.157 102.708 168.157 102.497C168.158 102.294 168.08 102.098 167.941 101.95C167.802 101.802 167.612 101.713 167.409 101.701C167.198 101.701 166.995 101.785 166.846 101.934C166.697 102.083 166.613 102.286 166.613 102.497C166.613 102.7 166.69 102.895 166.829 103.043C166.968 103.191 167.159 103.281 167.361 103.293Z" fill="white"/>
</svg>
