<svg width="638" height="309" viewBox="0 0 638 309" fill="none" xmlns="http://www.w3.org/2000/svg">
<path d="M318.377 308.321C494.212 308.321 636.754 299.999 636.754 289.733C636.754 279.467 494.212 271.145 318.377 271.145C142.542 271.145 0 279.467 0 289.733C0 299.999 142.542 308.321 318.377 308.321Z" fill="#F5F5F5"/>
<path d="M413.534 247.516C413.534 276.367 462.073 283.411 521.909 283.411C581.745 283.411 605.801 276.367 605.801 247.516C605.801 218.665 589.02 183.607 529.068 183.607C469.117 183.607 413.534 218.682 413.534 247.516Z" fill="#5552FF"/>
<path opacity="0.5" d="M413.534 247.516C413.534 276.367 462.073 283.411 521.909 283.411C581.745 283.411 605.801 276.367 605.801 247.516C605.801 218.665 589.02 183.607 529.068 183.607C469.117 183.607 413.534 218.682 413.534 247.516Z" fill="white"/>
<path d="M405.718 207.105C403.501 246.761 414.47 268.173 439.478 269.503C464.487 270.833 486.539 239.864 488.74 200.208C490.94 160.553 465.751 130.159 440.759 128.763C415.767 127.367 407.918 167.433 405.718 207.105Z" fill="#5552FF"/>
<path opacity="0.5" d="M405.718 207.105C403.501 246.761 414.47 268.173 439.478 269.503C464.487 270.833 486.539 239.864 488.74 200.208C490.94 160.553 465.751 130.159 440.759 128.763C415.767 127.367 407.918 167.433 405.718 207.105Z" fill="white"/>
<path opacity="0.1" d="M527.837 187.023C527.837 187.023 551.105 184.067 553.157 192.277C555.21 200.488 514.783 195.972 506.671 204.182C498.559 212.393 533.042 216.613 525.538 221.522C519.643 225.381 499.495 207.877 473.781 214.445C448.066 221.013 444.388 201.621 447.262 183.607C450.135 165.594 452.188 146.234 459.987 147.712C467.787 149.19 493.075 184.625 527.837 187.023Z" fill="#121212"/>
<path opacity="0.1" d="M455.472 216.432C455.472 216.432 431.399 212.195 430.069 222.278C428.739 232.36 426.916 217.434 455.472 216.432Z" fill="#121212"/>
<path opacity="0.1" d="M416.605 258.994C409.839 251.063 406.161 238.764 405.504 222.294C408.591 253.657 426.851 273.986 499.512 277.253C572.172 280.521 588.396 258.78 596.195 261.391C599.48 262.475 599.48 265.48 598.396 268.583C587.296 280.078 563.059 283.362 521.876 283.362C470.973 283.411 428.263 278.288 416.605 258.994Z" fill="#121212"/>
<path d="M541.745 124.789C539.742 125.138 537.873 126.029 536.343 127.367C534.323 129.403 528.428 129.19 528.428 129.19L527.837 135.873L541.302 135.085L541.745 124.789Z" fill="#B25B52"/>
<path d="M487.442 84.8544C489.199 84.7559 495.932 88.2699 499.988 106.037C504.043 123.804 503.14 129.748 534.635 127.728L533.617 136.579C533.617 136.579 506.326 139.502 498.181 132.966C490.037 126.431 480.94 85.2321 487.442 84.8544Z" fill="#263238"/>
<path opacity="0.6" d="M496.507 106.71L498.05 109.42C498.05 109.42 496.408 126.152 499.577 133.87C499.087 133.609 498.62 133.307 498.181 132.967C495.998 131.21 493.748 126.924 491.745 121.62L496.507 106.71Z" fill="#121212"/>
<path d="M451.547 52.2269C451.547 52.2269 451.317 57.4158 448.92 58.4667C446.523 59.5176 450.677 65.4618 449.511 69.0908C448.345 72.7197 445.669 75.9874 448.542 80.8479C448.542 80.8479 447.918 76.792 449.971 74.3782C449.971 74.3782 449.117 81.1763 451.317 81.3241C453.518 81.4718 453.945 79.485 457.557 80.3388C461.17 81.1927 457.984 74.7887 457.984 74.7887C459.252 75.9313 460.107 77.4612 460.414 79.1402C461.383 82.5392 470.94 78.6147 474.831 80.0104C478.723 81.4062 479.758 74.2304 479.758 74.2304C479.758 74.2304 481.498 78.4997 480.086 79.9447C481.085 79.5651 481.945 78.8907 482.553 78.0109C483.16 77.1311 483.485 76.0875 483.485 75.0186C484.139 76.207 484.298 77.6052 483.928 78.9102C483.928 78.9102 486.884 78.6968 486.145 72.9825C485.406 67.2681 480.956 65.6261 479.791 61.094C478.625 56.5619 464.388 47.7113 464.388 47.7113L451.547 52.2269Z" fill="#263238"/>
<path d="M459.298 69.6821L471.482 77.6132C471.482 86.1683 477.606 85.7085 477.606 85.7085C477.606 85.7085 477.705 88.6971 470.266 89.7972C466.965 90.416 463.608 90.6857 460.25 90.6018C463.895 86.1519 461.087 75.495 459.298 69.6821Z" fill="#B25B52"/>
<path opacity="0.1" d="M472.253 82.1944C471.642 80.7298 471.356 79.1498 471.416 77.5638L460.546 70.4866L459.872 71.7017C459.872 71.7017 463.977 82.7363 472.253 82.1944Z" fill="#121212"/>
<path d="M455.718 56.6441C456.95 66.5785 457.261 70.815 462.615 75.6097C470.661 82.8348 482.582 79.1566 484.355 69.0415C485.997 59.9446 483.649 45.2319 473.649 41.8821C471.445 41.1237 469.083 40.9433 466.789 41.3583C464.495 41.7733 462.346 42.7697 460.547 44.2523C458.748 45.735 457.36 47.6542 456.514 49.8266C455.669 51.999 455.395 54.3519 455.718 56.6605V56.6441Z" fill="#B25B52"/>
<path d="M477.672 62.4897C478.536 64.2747 479.641 65.9323 480.956 67.4159C480.564 67.7428 480.105 67.9787 479.611 68.1065C479.117 68.2343 478.6 68.2508 478.099 68.1548L477.672 62.4897Z" fill="#9D2724"/>
<path d="M468.92 57.3174C468.861 57.3335 468.799 57.3335 468.739 57.3174C468.701 57.282 468.67 57.2389 468.648 57.1908C468.627 57.1428 468.616 57.0908 468.616 57.0383C468.616 56.9857 468.627 56.9337 468.648 56.8857C468.67 56.8376 468.701 56.7945 468.739 56.7591C469.192 56.1668 469.78 55.692 470.455 55.3748C471.129 55.0575 471.87 54.9072 472.615 54.9364C472.716 54.9488 472.809 55.0003 472.874 55.08C472.938 55.1597 472.969 55.2614 472.96 55.3634C472.955 55.4152 472.941 55.4657 472.917 55.5119C472.894 55.5582 472.861 55.5993 472.821 55.6329C472.782 55.6665 472.736 55.6919 472.686 55.7076C472.637 55.7234 472.584 55.7291 472.533 55.7246C471.917 55.7091 471.307 55.8411 470.752 56.1096C470.198 56.3781 469.716 56.7754 469.347 57.2682C469.291 57.321 469.219 57.3543 469.142 57.3632C469.065 57.372 468.987 57.356 468.92 57.3174Z" fill="#121212"/>
<path d="M483.649 55.741C483.581 55.7383 483.516 55.7088 483.469 55.6589C482.985 55.2811 482.42 55.0219 481.818 54.9021C481.217 54.7823 480.595 54.8054 480.004 54.9692C479.956 54.9877 479.904 54.9963 479.852 54.9947C479.8 54.9931 479.749 54.9814 479.702 54.96C479.654 54.9386 479.612 54.9082 479.576 54.8703C479.541 54.8324 479.513 54.7879 479.495 54.7393C479.477 54.6898 479.469 54.6371 479.472 54.5844C479.474 54.5318 479.488 54.4802 479.511 54.4327C479.534 54.3853 479.566 54.3429 479.605 54.3081C479.645 54.2733 479.691 54.2469 479.741 54.2303C480.455 54.0191 481.21 53.9819 481.941 54.1218C482.672 54.2618 483.359 54.5749 483.945 55.0349C484.016 55.0873 484.067 55.162 484.09 55.247C484.114 55.332 484.108 55.4225 484.074 55.5038C484.04 55.5851 483.98 55.6527 483.903 55.6957C483.826 55.7387 483.736 55.7547 483.649 55.741Z" fill="#121212"/>
<path d="M471.859 61.5212C471.859 62.3258 472.385 62.9498 472.91 62.9169C473.436 62.8841 473.83 62.2108 473.781 61.3898C473.731 60.5687 473.255 59.9612 472.73 59.9941C472.204 60.0269 471.81 60.7001 471.859 61.5212Z" fill="#121212"/>
<path d="M481.038 60.9465C481.038 61.7511 481.564 62.3751 482.089 62.3586C482.615 62.3422 483.009 61.6361 482.96 60.8151C482.91 59.9941 482.434 59.3865 481.909 59.4194C481.383 59.4522 480.973 60.1254 481.038 60.9465Z" fill="#121212"/>
<path d="M481.679 59.4685L483.584 58.7953C483.584 58.7953 482.68 60.3717 481.679 59.4685Z" fill="#121212"/>
<path d="M472.434 60.0431L474.339 59.3699C474.339 59.3699 473.501 60.9462 472.434 60.0431Z" fill="#121212"/>
<path d="M472.861 69.6492C472.646 69.4044 472.453 69.1407 472.286 68.861C472.268 68.8442 472.254 68.8238 472.244 68.8012C472.235 68.7786 472.229 68.7542 472.229 68.7296C472.229 68.705 472.235 68.6807 472.244 68.6581C472.254 68.6355 472.268 68.6152 472.286 68.5983C472.303 68.5804 472.323 68.5662 472.346 68.5564C472.369 68.5467 472.393 68.5416 472.418 68.5416C472.442 68.5416 472.466 68.5467 472.489 68.5564C472.512 68.5662 472.532 68.5804 472.549 68.5983C472.979 69.3019 473.565 69.8964 474.263 70.3352C474.961 70.7739 475.752 71.045 476.572 71.1271C476.623 71.1309 476.671 71.1528 476.707 71.189C476.743 71.2252 476.765 71.2731 476.769 71.3241C476.765 71.3778 476.741 71.428 476.701 71.4645C476.661 71.5011 476.609 71.5213 476.556 71.5211C475.125 71.411 473.796 70.7378 472.861 69.6492Z" fill="#263238"/>
<path d="M473.83 42.5718C473.83 42.5718 479.167 48.4832 473.354 50.782C467.541 53.0809 462.303 56.6441 461.449 61.5539C461.236 62.9109 460.564 64.1537 459.545 65.0743C458.526 65.995 457.221 66.5376 455.849 66.6114C455.849 66.6114 448.165 56.8576 453.124 46.6276C458.083 36.3977 471.81 38.9921 473.83 42.5718Z" fill="#263238"/>
<path d="M458.411 44.0989C458.411 44.0989 464.832 34.1645 475.587 38.9757C486.342 43.7869 486.819 51.9479 484.126 51.1433C481.433 50.3387 477.114 49.5013 474.027 43.9676C470.94 38.4339 458.411 44.0989 458.411 44.0989Z" fill="#263238"/>
<path d="M459.987 62.8181C459.987 62.8181 465.291 62.5061 462.762 69.4849C462.538 67.0317 461.57 64.7056 459.987 62.8181Z" fill="#263238"/>
<path d="M453.846 64.6901C454.52 66.5009 455.884 67.971 457.639 68.7788C459.971 69.8462 461.531 67.8429 461.202 65.4947C460.907 63.3436 459.347 60.1745 456.835 60.1252C455.964 60.1252 455.128 60.4712 454.512 61.0871C453.897 61.703 453.551 62.5383 453.551 63.4093C453.557 63.8524 453.658 64.2889 453.846 64.6901Z" fill="#B25B52"/>
<path d="M529.906 147.679L501.548 143.755C501.407 143.736 501.273 143.684 501.157 143.603C501.041 143.522 500.946 143.414 500.88 143.289C500.814 143.163 500.779 143.024 500.778 142.882C500.777 142.74 500.81 142.6 500.874 142.474L518.411 108.188C518.644 107.725 519.017 107.347 519.477 107.109C519.937 106.87 520.46 106.782 520.973 106.858L549.331 110.783C549.471 110.799 549.605 110.849 549.722 110.928C549.838 111.007 549.933 111.114 550 111.238C550.066 111.362 550.101 111.501 550.102 111.642C550.103 111.783 550.069 111.922 550.004 112.047L532.385 146.349C532.157 146.798 531.797 147.165 531.354 147.403C530.911 147.641 530.405 147.737 529.906 147.679Z" fill="#263238"/>
<path opacity="0.5" d="M529.906 147.679L501.548 143.755C501.407 143.736 501.273 143.684 501.157 143.603C501.041 143.522 500.946 143.414 500.88 143.289C500.814 143.163 500.779 143.024 500.778 142.882C500.777 142.74 500.81 142.6 500.874 142.474L518.411 108.188C518.644 107.725 519.017 107.347 519.477 107.109C519.937 106.87 520.46 106.782 520.973 106.858L549.331 110.783C549.471 110.799 549.605 110.849 549.722 110.928C549.838 111.007 549.933 111.114 550 111.238C550.066 111.362 550.101 111.501 550.102 111.642C550.103 111.783 550.069 111.922 550.004 112.047L532.385 146.349C532.157 146.798 531.797 147.165 531.354 147.403C530.911 147.641 530.405 147.737 529.906 147.679Z" fill="white"/>
<path d="M530.989 147.876L502.615 143.935C502.476 143.917 502.344 143.865 502.23 143.785C502.116 143.705 502.022 143.598 501.958 143.474C501.893 143.35 501.86 143.212 501.86 143.073C501.86 142.933 501.894 142.795 501.958 142.671L519.561 108.369C519.802 107.909 520.179 107.535 520.64 107.297C521.101 107.059 521.625 106.969 522.139 107.039L550.497 110.963C550.636 110.984 550.768 111.038 550.882 111.12C550.996 111.202 551.089 111.31 551.154 111.435C551.218 111.56 551.251 111.699 551.251 111.84C551.251 111.98 551.218 112.119 551.154 112.244L533.551 146.53C533.315 146.991 532.942 147.368 532.484 147.609C532.025 147.85 531.503 147.943 530.989 147.876Z" fill="#263238"/>
<path opacity="0.7" d="M530.989 147.876L502.615 143.935C502.476 143.917 502.344 143.865 502.23 143.785C502.116 143.705 502.022 143.598 501.958 143.474C501.893 143.35 501.86 143.212 501.86 143.073C501.86 142.933 501.894 142.795 501.958 142.671L519.561 108.369C519.802 107.909 520.179 107.535 520.64 107.297C521.101 107.059 521.625 106.969 522.139 107.039L550.497 110.963C550.636 110.984 550.768 111.038 550.882 111.12C550.996 111.202 551.089 111.31 551.154 111.435C551.218 111.56 551.251 111.699 551.251 111.84C551.251 111.98 551.218 112.119 551.154 112.244L533.551 146.53C533.315 146.991 532.942 147.368 532.484 147.609C532.025 147.85 531.503 147.943 530.989 147.876Z" fill="white"/>
<path opacity="0.7" d="M546.622 116.874L543.338 116.415C543.327 116.405 543.319 116.394 543.313 116.381C543.307 116.369 543.304 116.355 543.304 116.341C543.304 116.327 543.307 116.313 543.313 116.3C543.319 116.288 543.327 116.276 543.338 116.267L545.357 112.31C545.388 112.26 545.432 112.219 545.484 112.193C545.536 112.167 545.595 112.156 545.653 112.162L548.937 112.605C548.948 112.614 548.956 112.626 548.962 112.638C548.967 112.651 548.97 112.665 548.97 112.679C548.97 112.693 548.967 112.707 548.962 112.72C548.956 112.732 548.948 112.744 548.937 112.753L546.917 116.677C546.896 116.738 546.856 116.79 546.802 116.825C546.749 116.861 546.686 116.878 546.622 116.874Z" fill="#263238"/>
<path opacity="0.3" d="M546.622 116.874L543.338 116.415C543.327 116.405 543.319 116.394 543.313 116.381C543.307 116.369 543.304 116.355 543.304 116.341C543.304 116.327 543.307 116.313 543.313 116.3C543.319 116.288 543.327 116.276 543.338 116.267L545.357 112.31C545.388 112.26 545.432 112.219 545.484 112.193C545.536 112.167 545.595 112.156 545.653 112.162L548.937 112.605C548.948 112.614 548.956 112.626 548.962 112.638C548.967 112.651 548.97 112.665 548.97 112.679C548.97 112.693 548.967 112.707 548.962 112.72C548.956 112.732 548.948 112.744 548.937 112.753L546.917 116.677C546.896 116.738 546.856 116.79 546.802 116.825C546.749 116.861 546.686 116.878 546.622 116.874Z" fill="white"/>
<path d="M528.954 127.761C528.477 129.091 527.312 130.077 526.474 129.962C525.637 129.847 525.275 128.648 525.752 127.318C526.228 125.988 527.394 124.986 528.231 125.101C529.069 125.216 529.446 126.415 528.954 127.761Z" fill="white"/>
<path d="M557.673 255.283L563.059 277.369L570.793 274.626L568.51 252.196L557.673 255.283Z" fill="#B25B52"/>
<path d="M571.417 273.378L562.057 273.559C561.859 273.559 561.668 273.628 561.515 273.754C561.362 273.879 561.258 274.054 561.22 274.249L559.463 283.034C559.404 283.398 559.487 283.771 559.694 284.077C559.902 284.382 560.219 284.596 560.579 284.676H560.891C564.767 284.528 568.215 284.249 573.043 284.167C578.741 284.068 577.296 284.774 583.995 284.741C588.035 284.741 588.691 280.127 586.984 279.93C579.118 279.093 576.869 276.761 573.847 274.019C573.144 273.511 572.278 273.283 571.417 273.378Z" fill="#263238"/>
<path opacity="0.1" d="M569.84 265.201L568.51 252.196L557.673 255.283L560.793 268.058L569.84 265.201Z" fill="#121212"/>
<path d="M482.664 148.254L495.029 143.492C499.205 148.26 502.748 153.547 505.571 159.223C509.61 167.761 490.168 167.761 490.168 167.761L484.043 156.267L482.664 148.254Z" fill="#5552FF"/>
<path opacity="0.3" d="M482.664 148.254L495.029 143.492C499.205 148.26 502.748 153.547 505.571 159.223C509.61 167.761 490.168 167.761 490.168 167.761L484.043 156.267L482.664 148.254Z" fill="#121212"/>
<path opacity="0.2" d="M489.856 145.495C493.354 164.855 499.626 161.39 499.626 161.39L496.884 165.43L489.429 166.382L484.043 156.267L482.664 148.254L489.856 145.495Z" fill="#121212"/>
<path d="M598.905 215.118L616.212 235.775L622.304 231.194L607.099 208.222L598.905 215.118Z" fill="#B25B52"/>
<path d="M619.217 225.43L611.795 231.21C611.633 231.326 611.515 231.493 611.462 231.684C611.408 231.875 611.421 232.079 611.499 232.261L615.03 240.472C615.101 240.646 615.207 240.803 615.34 240.936C615.473 241.069 615.631 241.175 615.805 241.246C615.979 241.318 616.166 241.355 616.354 241.354C616.542 241.354 616.728 241.316 616.902 241.243L617.181 241.096C620.284 238.78 622.961 236.596 626.885 233.772C631.516 230.488 630.744 231.851 636.245 228.025C639.529 225.71 637.476 221.555 635.949 222.36C629.02 226.137 625.67 225.184 621.581 224.675C620.727 224.629 619.886 224.898 619.217 225.43Z" fill="#263238"/>
<path opacity="0.1" d="M608.347 226.383L615.67 221.161L607.099 208.222L598.905 215.118L608.347 226.383Z" fill="#121212"/>
<path d="M457.557 156.612C457.557 156.612 453.074 182.54 462.023 199.305C470.973 216.071 490.825 219.109 541.843 165.069C541.843 165.069 559.775 173.41 602.96 222.114L612.566 214.675C612.566 214.675 574.98 153.624 556.819 139.141C538.658 124.658 498.329 165.414 493.222 163.115C488.674 161.095 486.523 146.99 486.523 146.99L457.557 156.612Z" fill="#5552FF"/>
<path opacity="0.3" d="M457.557 156.612C457.557 156.612 453.074 182.54 462.023 199.305C470.973 216.071 490.825 219.109 541.843 165.069C541.843 165.069 559.775 173.41 602.96 222.114L612.566 214.675C612.566 214.675 574.98 153.624 556.819 139.141C538.658 124.658 498.329 165.414 493.222 163.115C488.674 161.095 486.523 146.99 486.523 146.99L457.557 156.612Z" fill="#121212"/>
<path d="M599.89 222.048L603.864 225.562L615.194 216.153L613.256 211.095L599.89 222.048Z" fill="#5552FF"/>
<path d="M503.387 199.716C513.699 192.606 526.375 181.473 541.843 165.052C541.843 165.052 556.622 159.584 561.762 170.126C566.901 180.668 570.251 256.859 570.251 256.859L557.968 260.406C557.968 260.406 535.998 191.637 536.129 187.105L503.387 199.716Z" fill="#5552FF"/>
<path opacity="0.4" d="M503.387 199.716C513.699 192.606 526.375 181.473 541.843 165.052C541.843 165.052 556.622 159.584 561.762 170.126C566.901 180.668 570.251 256.859 570.251 256.859L557.968 260.406C557.968 260.406 535.998 191.637 536.129 187.105L503.387 199.716Z" fill="#121212"/>
<path opacity="0.2" d="M561.762 170.126C560.942 168.394 559.678 166.91 558.1 165.824C562.484 168.139 568.642 173.722 569.364 187.023C567.624 185.381 565.982 183.854 564.438 182.442C564.061 178.241 563.161 174.104 561.762 170.126Z" fill="#121212"/>
<path opacity="0.2" d="M541.843 165.052C543.564 164.462 545.342 164.055 547.147 163.837C541.79 173.695 535 182.704 526.999 190.57L503.387 199.667C513.699 192.606 526.326 181.473 541.843 165.052Z" fill="#121212"/>
<path d="M555.784 259.01L557.344 264.002L571.614 259.766L571.794 254.363L555.784 259.01Z" fill="#5552FF"/>
<path d="M498.806 146.94C498.806 146.94 495.127 152.901 456.26 158.813C456.26 158.813 457.984 146.809 453.879 129.633C449.774 112.457 434.667 96.2997 449.446 92.1289C464.224 87.958 489.84 79.3702 492.04 88.6642C494.241 97.9582 498.247 102.014 498.083 109.42C497.919 116.825 492.484 122.211 498.806 146.94Z" fill="#263238"/>
<path d="M546.523 127.827C546.735 127.05 546.641 126.222 546.261 125.512C545.686 124.379 544.619 122.917 543.19 123.065C540.826 123.295 540.202 124.986 539.61 127.17C539.019 129.354 537.147 133.246 539.282 134.592C541.417 135.939 544.438 135.183 546.523 127.827Z" fill="#B25B52"/>
<path d="M458.017 89.7149C458.017 89.7149 478.69 90.8972 477.475 85.0187C477.475 85.0187 473.452 83.1632 474.191 80.9793C474.93 78.7953 464.339 81.0614 460.168 80.4702C458.526 80.2239 459.544 82.4407 459.429 84.8052C459.261 86.514 458.782 88.1778 458.017 89.7149Z" fill="#263238"/>
<path opacity="0.6" d="M454.749 133.673L469.873 133.476L475.012 129.978L480.825 127.4L481.597 129.453C481.597 129.453 463.534 150.454 456.555 148.615C456.338 143.595 455.735 138.6 454.749 133.673Z" fill="#121212"/>
<path opacity="0.6" d="M467.508 129.354C467.508 129.354 461.711 131.111 460.726 126.891C459.298 120.832 455.061 103.902 450.759 97.4328C446.161 90.4048 455.357 124.231 455.357 124.231L457.409 131.358L460.693 135.742L467.688 130.816L467.508 129.354Z" fill="#121212"/>
<path opacity="0.6" d="M478.132 87.6788C478.132 87.6788 478.855 91.6362 463.354 91.2749C463.321 91.2749 481.433 95.6099 478.132 87.6788Z" fill="#121212"/>
<path d="M492.631 120.7L492.418 119.025L491.236 119.731L492.631 120.7Z" fill="#263238"/>
<path opacity="0.7" d="M492.631 120.7L492.418 119.025L491.236 119.731L492.631 120.7Z" fill="white"/>
<path d="M478.477 99.9122L478.674 98.8284L479.922 98.0895L480.956 98.4179L492.254 117.252L492.5 119.075L491.252 119.83L489.758 118.746L478.477 99.9122Z" fill="#263238"/>
<path opacity="0.6" d="M478.477 99.9122L478.674 98.8284L479.922 98.0895L480.956 98.4179L492.254 117.252L492.5 119.075L491.252 119.83L489.758 118.746L478.477 99.9122Z" fill="white"/>
<path opacity="0.5" d="M479.968 99.5649L478.729 100.308L489.721 118.645L490.96 117.902L479.968 99.5649Z" fill="white"/>
<path d="M445.833 93.1304C440.562 94.6247 440.217 101.768 445.028 119.321C449.839 136.875 453.37 148.057 462.664 143.837C471.958 139.617 482.713 128.32 482.713 128.32L478.05 120.733C478.05 120.733 462.894 133.771 459.725 131.275C456.555 128.779 453.928 90.8644 445.833 93.1304Z" fill="#263238"/>
<path d="M476.063 123.722L482.467 118.336C482.467 118.336 481.531 107.564 485.012 107.433C487.869 107.318 490.152 110.717 490.661 115.413C491.17 120.109 485.899 122.999 485.899 122.999L479.708 129.814L476.063 123.722Z" fill="#B25B52"/>
<path d="M344.781 20.1576C344.781 20.1576 359.182 11.2906 366.686 24.0165C372.006 33.0477 369.067 42.079 373.254 49.501C379.822 60.9954 375.455 66.4306 365.602 68.4831C355.75 70.5357 339.937 70.2566 342.121 58.7622C344.354 47.0052 333.385 19.9934 344.781 20.1576Z" fill="#263238"/>
<path d="M360.512 45.8064C360.512 45.8064 361.711 62.6703 364.864 62.9658C362.546 64.0327 360.025 64.5852 357.474 64.5852C354.923 64.5852 352.402 64.0327 350.085 62.9658L349.576 55.1989L360.512 45.8064Z" fill="#EBB376"/>
<path d="M290.955 284.216H285.158L286.997 194.182H294.731L290.955 284.216Z" fill="#5552FF"/>
<path opacity="0.7" d="M290.955 284.216H285.158L286.997 194.182H294.731L290.955 284.216Z" fill="white"/>
<g opacity="0.4">
<path d="M338.509 284.216H332.712L334.551 194.182H342.285L338.509 284.216Z" fill="#5552FF"/>
</g>
<path d="M386.046 284.216H391.842L390.003 194.182H382.269L386.046 284.216Z" fill="#5552FF"/>
<g opacity="0.4">
<path d="M386.046 284.216H391.842L390.003 194.182H382.269L386.046 284.216Z" fill="white"/>
</g>
<path d="M386.44 194.182H291.3V202.606H386.44V194.182Z" fill="#5552FF"/>
<path opacity="0.5" d="M386.44 194.182H291.3V202.606H386.44V194.182Z" fill="white"/>
<path d="M338.492 284.216H344.289L342.449 194.182H334.715L338.492 284.216Z" fill="#5552FF"/>
<path opacity="0.7" d="M338.492 284.216H344.289L342.449 194.182H334.715L338.492 284.216Z" fill="white"/>
<path d="M392.22 87.5474H376.456C368.246 87.5474 359.395 91.8332 357.064 99.7643C350.495 122.228 345.569 192.639 345.569 192.639H387.77C390.244 192.637 392.63 191.724 394.472 190.072C396.315 188.421 397.483 186.148 397.754 183.689L406.588 103.557C406.812 101.539 406.608 99.4957 405.987 97.5617C405.367 95.6278 404.345 93.8467 402.989 92.3352C401.632 90.8236 399.972 89.6158 398.116 88.7907C396.26 87.9656 394.251 87.5419 392.22 87.5474Z" fill="#263238"/>
<path opacity="0.6" d="M392.22 87.5474H376.456C368.246 87.5474 359.395 91.8332 357.064 99.7643C350.495 122.228 345.569 192.639 345.569 192.639H387.77C390.244 192.637 392.63 191.724 394.472 190.072C396.315 188.421 397.483 186.148 397.754 183.689L406.588 103.557C406.812 101.539 406.608 99.4957 405.987 97.5617C405.367 95.6278 404.345 93.8467 402.989 92.3352C401.632 90.8236 399.972 89.6158 398.116 88.7907C396.26 87.9656 394.251 87.5419 392.22 87.5474Z" fill="white"/>
<path d="M382.598 87.5474H366.834C358.624 87.5474 349.789 91.8331 347.458 99.7642C340.89 122.227 335.963 192.639 335.963 192.639H376.686C379.564 192.639 382.341 191.577 384.484 189.656C386.626 187.734 387.984 185.089 388.296 182.228L396.9 103.541C397.119 101.53 396.912 99.4949 396.293 97.5686C395.675 95.6424 394.659 93.8676 393.31 92.3595C391.961 90.8514 390.311 89.6437 388.465 88.8147C386.62 87.9857 384.621 87.5539 382.598 87.5474Z" fill="#263238"/>
<path opacity="0.5" d="M382.598 87.5474H366.834C358.624 87.5474 349.789 91.8331 347.458 99.7642C340.89 122.227 335.963 192.639 335.963 192.639H376.686C379.564 192.639 382.341 191.577 384.484 189.656C386.626 187.734 387.984 185.089 388.296 182.228L396.9 103.541C397.119 101.53 396.912 99.4949 396.293 97.5686C395.675 95.6424 394.659 93.8676 393.31 92.3595C391.961 90.8514 390.311 89.6437 388.465 88.8147C386.62 87.9857 384.621 87.5539 382.598 87.5474Z" fill="white"/>
<path d="M350.709 194.182H289.034C286.303 194.182 283.684 193.098 281.754 191.167C279.823 189.236 278.738 186.617 278.738 183.887C278.738 181.156 279.823 178.537 281.754 176.606C283.684 174.676 286.303 173.591 289.034 173.591H350.709V194.182Z" fill="#263238"/>
<path opacity="0.5" d="M350.709 194.182H289.034C286.303 194.182 283.684 193.098 281.754 191.167C279.823 189.236 278.738 186.617 278.738 183.887C278.738 181.156 279.823 178.537 281.754 176.606C283.684 174.676 286.303 173.591 289.034 173.591H350.709V194.182Z" fill="white"/>
<path d="M388.394 194.182H348.574C345.961 194.182 343.455 193.144 341.608 191.297C339.76 189.449 338.722 186.943 338.722 184.33V183.443C338.722 180.83 339.76 178.324 341.608 176.477C343.455 174.629 345.961 173.591 348.574 173.591H388.394C391.125 173.591 393.743 174.676 395.674 176.606C397.605 178.537 398.69 181.156 398.69 183.887C398.69 186.617 397.605 189.236 395.674 191.167C393.743 193.098 391.125 194.182 388.394 194.182Z" fill="#263238"/>
<path opacity="0.6" d="M388.394 194.182H348.574C345.961 194.182 343.455 193.144 341.608 191.297C339.76 189.449 338.722 186.943 338.722 184.33V183.443C338.722 180.83 339.76 178.324 341.608 176.477C343.455 174.629 345.961 173.591 348.574 173.591H388.394C391.125 173.591 393.743 174.676 395.674 176.606C397.605 178.537 398.69 181.156 398.69 183.887C398.69 186.617 397.605 189.236 395.674 191.167C393.743 193.098 391.125 194.182 388.394 194.182Z" fill="white"/>
<path d="M330.578 85.4784C330.578 85.4784 331.957 100.47 324.88 106.825C318.443 112.605 308.049 115.446 308.049 115.446L298.886 112.769C298.466 112.644 298.018 112.644 297.598 112.769C297.178 112.895 296.804 113.14 296.522 113.475L292.433 118.401C292.059 118.898 291.898 119.523 291.984 120.139C292.07 120.754 292.397 121.311 292.893 121.686C293.139 121.879 293.421 122.022 293.722 122.107C294.023 122.191 294.339 122.216 294.65 122.178L299.395 121.603C301.302 121.979 303.234 122.215 305.175 122.31C306.642 122.011 308.086 121.605 309.494 121.094C309.494 121.094 325.832 119.682 332.794 112.72C339.757 105.758 341.514 91.2913 341.514 91.2913L330.578 85.4784Z" fill="#EBB376"/>
<path d="M282.449 245.102L283.516 277.877H290.856L294.288 244.511L282.449 245.102Z" fill="#EBB376"/>
<path d="M283.401 274.511H291.759C291.937 274.508 292.109 274.567 292.247 274.678C292.385 274.789 292.48 274.945 292.515 275.119L294.255 282.984C294.329 283.319 294.266 283.67 294.082 283.959C293.897 284.249 293.605 284.453 293.27 284.528H293.007C289.526 284.528 286.439 284.265 282.088 284.265C276.965 284.265 278.262 284.856 272.235 284.938C268.606 284.938 267.95 280.849 269.493 280.652C276.538 279.782 278.557 277.647 281.283 275.135C281.888 274.673 282.642 274.451 283.401 274.511Z" fill="#263238"/>
<path opacity="0.1" d="M291.595 270.685L292.416 262.656H283.024L283.286 270.685H291.595Z" fill="#263238"/>
<path d="M368.312 121.932C368.312 121.932 391.169 173.87 369.215 173.87H305.865C305.865 173.87 303.122 187.68 293.254 263.592H282.663C282.663 263.592 280.889 174.675 286.751 161.423C291.333 151.029 320.758 143.591 334.683 140.865C336.508 140.509 338.177 139.591 339.455 138.239C340.733 136.888 341.556 135.171 341.809 133.328L344.896 120.569L368.312 121.932Z" fill="#263238"/>
<path opacity="0.2" d="M368.312 121.932C368.312 121.932 391.169 173.87 369.215 173.87H305.865C305.865 173.87 303.122 187.68 293.254 263.592H282.663C282.663 263.592 280.889 174.675 286.751 161.423C291.333 151.029 320.758 143.591 334.683 140.865C336.508 140.509 338.177 139.591 339.455 138.239C340.733 136.888 341.556 135.171 341.809 133.328L344.896 120.569L368.312 121.932Z" fill="#121212"/>
<path d="M280.626 261.769L281.48 267.532H294.075L295.241 261.769H280.626Z" fill="#263238"/>
<path opacity="0.2" d="M280.626 261.769L281.48 267.532H294.075L295.241 261.769H280.626Z" fill="white"/>
<path d="M304.485 245.119L305.717 277.45L312.728 277.434L317.77 244.527L304.485 245.119Z" fill="#EBB376"/>
<path opacity="0.1" d="M313.763 270.685L314.994 262.656H305.142L305.454 270.685H313.763Z" fill="#263238"/>
<path d="M305.865 274.511H314.239C314.416 274.511 314.587 274.571 314.724 274.682C314.862 274.792 314.957 274.947 314.994 275.119L316.637 282.984C316.675 283.149 316.681 283.32 316.653 283.488C316.625 283.655 316.565 283.815 316.475 283.958C316.384 284.102 316.267 284.226 316.128 284.324C315.99 284.422 315.833 284.491 315.668 284.528H315.389C311.907 284.528 308.82 284.265 304.485 284.265C299.362 284.265 300.659 284.856 294.633 284.938C291.021 284.938 290.364 280.85 291.891 280.653C298.935 279.782 300.971 277.648 303.697 275.135C304.313 274.657 305.089 274.433 305.865 274.511Z" fill="#263238"/>
<path d="M379.872 122.835C379.872 122.835 381.514 122.835 383.977 135.101C387.113 150.684 391.662 173.87 376.703 173.87H328.213C328.213 173.87 325.848 179.502 315.536 263.591H304.945C304.945 263.591 299.067 173.607 304.945 160.356C309.461 150.142 331.891 145.462 344.239 143.853C345.967 143.681 347.577 142.899 348.781 141.647C349.984 140.395 350.703 138.756 350.808 137.022C350.906 133.311 350.364 122.244 350.364 122.244L379.872 122.835Z" fill="#263238"/>
<path d="M302.827 261.769L304.042 267.532H316.259L317.425 261.769H302.827Z" fill="#263238"/>
<path opacity="0.2" d="M302.827 261.769L304.042 267.532H316.259L317.425 261.769H302.827Z" fill="white"/>
<path d="M338.377 63.048C332.466 62.1613 329.133 76.7098 328.821 90.4374L342.844 93.7215C342.844 93.7215 349.428 64.7229 338.377 63.048Z" fill="#5552FF"/>
<path opacity="0.1" d="M338.377 63.048C332.466 62.1613 329.133 76.7098 328.821 90.4374L342.844 93.7215C342.844 93.7215 349.428 64.7229 338.377 63.048Z" fill="#121212"/>
<path d="M342.121 129.354C341.771 121.967 341.014 114.605 339.855 107.301C337.638 93.1797 333.829 77.3011 335.126 67.2517C335.282 65.9561 335.918 64.7662 336.91 63.9177C337.901 63.0692 339.175 62.624 340.479 62.6704H378.837C379.428 62.6822 380.009 62.8141 380.547 63.058C381.085 63.3018 381.567 63.6525 381.965 64.0888C382.363 64.5251 382.668 65.0378 382.861 65.5957C383.055 66.1535 383.133 66.7449 383.09 67.3339C381.777 78.1057 378.443 104.904 383.517 130.208C383.501 130.208 354.207 132.54 342.121 129.354Z" fill="#5552FF"/>
<path d="M375.389 81.8658C375.389 81.8658 377.934 99.3044 370.249 104.214C362.565 109.124 345.75 114.214 345.75 114.214L335.356 112.014C335.095 111.956 334.822 111.98 334.575 112.083C334.328 112.186 334.119 112.362 333.977 112.589L329.806 119.321C329.653 119.575 329.585 119.871 329.611 120.166C329.638 120.461 329.758 120.74 329.954 120.963C330.105 121.143 330.297 121.283 330.515 121.372C330.732 121.461 330.968 121.495 331.202 121.472L337.491 120.832C338.927 121.18 340.387 121.422 341.858 121.554C343.69 121.278 345.497 120.855 347.261 120.29C347.261 120.29 371.284 117.942 378.624 110.618C385.964 103.295 386.834 88.0564 386.834 88.0564L375.389 81.8658Z" fill="#EBB376"/>
<path d="M380.184 62.9988C372.729 62.1121 374.699 78.7625 373.796 90.4375L387.721 92.0795C387.721 92.0795 391.268 64.3125 380.184 62.9988Z" fill="#5552FF"/>
<path opacity="0.1" d="M380.184 62.9988C372.729 62.1121 374.699 78.7625 373.796 90.4375L387.721 92.0795C387.721 92.0795 391.268 64.3125 380.184 62.9988Z" fill="#121212"/>
<path d="M348.919 63.754C348.919 63.754 347.474 76.1843 363.911 65.1005C364.416 64.7594 364.783 64.2508 364.948 63.6647C365.114 63.0786 365.066 62.453 364.814 61.8985C364.073 60.3589 363.665 58.6804 363.616 56.9724C363.604 56.7236 363.527 56.4822 363.392 56.2728C363.257 56.0634 363.07 55.8934 362.848 55.78C362.626 55.6667 362.378 55.614 362.13 55.6273C361.881 55.6406 361.64 55.7194 361.432 55.8558C358.154 58.0766 354.208 59.0921 350.266 58.7294C350.034 58.7094 349.802 58.7462 349.588 58.8363C349.374 58.9265 349.185 59.0675 349.038 59.247C348.891 59.4264 348.79 59.6391 348.743 59.8665C348.697 60.0939 348.707 60.3292 348.771 60.5521C349.09 61.5898 349.141 62.6913 348.919 63.754Z" fill="#5552FF"/>
<path opacity="0.1" d="M348.919 63.754C348.919 63.754 347.474 76.1843 363.911 65.1005C364.416 64.7594 364.783 64.2508 364.948 63.6647C365.114 63.0786 365.066 62.453 364.814 61.8985C364.073 60.3589 363.665 58.6804 363.616 56.9724C363.604 56.7236 363.527 56.4822 363.392 56.2728C363.257 56.0634 363.07 55.8934 362.848 55.78C362.626 55.6667 362.378 55.614 362.13 55.6273C361.881 55.6406 361.64 55.7194 361.432 55.8558C358.154 58.0766 354.208 59.0921 350.266 58.7294C350.034 58.7094 349.802 58.7462 349.588 58.8363C349.374 58.9265 349.185 59.0675 349.038 59.247C348.891 59.4264 348.79 59.6391 348.743 59.8665C348.697 60.0939 348.707 60.3292 348.771 60.5521C349.09 61.5898 349.141 62.6913 348.919 63.754Z" fill="#121212"/>
<path opacity="0.1" d="M360.775 48.2366C360.627 46.7752 360.561 45.8064 360.561 45.8064L349.691 55.1989L349.954 59.304C353.041 59.0577 357.639 57.038 360.775 48.2366Z" fill="#121212"/>
<path d="M361.399 32.2596C362.269 41.8656 362.844 45.9214 358.788 51.5372C352.696 59.9938 340.725 58.9757 336.982 49.8952C333.697 41.6849 332.745 27.3498 341.464 22.1281C343.382 20.959 345.568 20.3012 347.812 20.2174C350.056 20.1336 352.285 20.6267 354.284 21.6496C356.284 22.6724 357.988 24.1908 359.233 26.0599C360.479 27.9289 361.225 30.086 361.399 32.3253V32.2596Z" fill="#EBB376"/>
<path d="M341.169 41.3402C340.793 43.2281 340.163 45.0564 339.297 46.7754C339.742 46.9824 340.227 47.0897 340.717 47.0897C341.208 47.0897 341.693 46.9824 342.138 46.7754L341.169 41.3402Z" fill="#D58745"/>
<path d="M347.146 35.2975C347.205 35.267 347.256 35.2218 347.294 35.1661C347.362 35.0957 347.4 35.0015 347.4 34.9035C347.4 34.8054 347.362 34.7112 347.294 34.6407C346.735 34.1907 346.077 33.8812 345.374 33.7384C344.671 33.5955 343.944 33.6234 343.254 33.8197C343.16 33.8566 343.083 33.9283 343.041 34.02C342.998 34.1117 342.992 34.2164 343.024 34.3123C343.058 34.4053 343.126 34.4815 343.215 34.5245C343.304 34.5675 343.407 34.5738 343.5 34.5422C344.066 34.3956 344.658 34.3846 345.229 34.5101C345.8 34.6357 346.333 34.8942 346.785 35.2647C346.839 35.2954 346.899 35.3141 346.962 35.3197C347.024 35.3254 347.087 35.3178 347.146 35.2975Z" fill="#121212"/>
<path d="M333.812 37.317C333.747 37.3313 333.68 37.3313 333.615 37.317C333.536 37.2578 333.482 37.1709 333.463 37.0735C333.445 36.9761 333.464 36.8755 333.517 36.7915C333.907 36.1908 334.436 35.6923 335.059 35.3381C335.682 34.9838 336.38 34.784 337.096 34.7554C337.185 34.7738 337.265 34.8222 337.322 34.8925C337.379 34.9628 337.41 35.0507 337.41 35.1413C337.41 35.2319 337.379 35.3197 337.322 35.39C337.265 35.4603 337.185 35.5087 337.096 35.5271C336.51 35.5536 335.938 35.7157 335.425 36.0006C334.913 36.2856 334.473 36.6855 334.141 37.1692C334.106 37.2231 334.057 37.2659 333.999 37.2921C333.94 37.3184 333.876 37.327 333.812 37.317Z" fill="#121212"/>
<path d="M346.39 39.0905C346.522 39.8622 346.226 40.5519 345.717 40.6504C345.208 40.749 344.699 40.1907 344.568 39.4189C344.436 38.6471 344.715 37.9575 345.225 37.8589C345.734 37.7604 346.243 38.3187 346.39 39.0905Z" fill="#121212"/>
<path d="M337.655 40.6668C337.802 41.4222 337.507 42.1283 336.998 42.2104C336.489 42.2925 335.98 41.767 335.832 40.9788C335.684 40.1907 335.996 39.5174 336.505 39.4353C337.014 39.3532 337.523 39.8787 337.655 40.6668Z" fill="#121212"/>
<path d="M336.719 39.501L334.781 39.304C334.781 39.304 335.996 40.5026 336.719 39.501Z" fill="#121212"/>
<path d="M345.454 37.859L343.5 37.662C343.5 37.662 344.715 38.9428 345.454 37.859Z" fill="#121212"/>
<path d="M364.798 39.5012C364.672 40.4172 364.367 41.2994 363.899 42.0969C363.431 42.8944 362.81 43.5915 362.072 44.1481C360.085 45.626 358.213 44.066 358.032 41.7343C357.852 39.4026 358.689 36.332 361.037 35.7737C361.551 35.6654 362.084 35.6864 362.587 35.8349C363.091 35.9833 363.549 36.2544 363.922 36.624C364.295 36.9935 364.57 37.4499 364.723 37.9521C364.876 38.4543 364.902 38.9866 364.798 39.5012Z" fill="#EBB376"/>
<path d="M344.798 50.7162C344.519 50.8015 344.233 50.862 343.944 50.8968C343.922 50.9016 343.9 50.9019 343.878 50.8979C343.856 50.8938 343.836 50.8854 343.817 50.8731C343.799 50.8608 343.783 50.845 343.771 50.8265C343.759 50.808 343.751 50.7872 343.747 50.7654C343.746 50.7184 343.762 50.6727 343.792 50.6365C343.823 50.6004 343.865 50.5762 343.911 50.5684C344.634 50.4735 345.324 50.21 345.925 49.7993C346.527 49.3885 347.024 48.842 347.376 48.2038C347.394 48.1609 347.428 48.1267 347.471 48.1084C347.514 48.09 347.562 48.0889 347.606 48.1053C347.632 48.1377 347.647 48.1783 347.647 48.2203C347.647 48.2622 347.632 48.3029 347.606 48.3352C347.013 49.4619 346.006 50.3152 344.798 50.7162Z" fill="#263238"/>
<path d="M348.312 25.5109C348.312 25.5109 345.684 29.616 347.704 32.4896C349.724 35.3631 335.914 29.3532 332.367 35.6423C332.367 35.6423 327.852 16.2168 348.312 18.8113V25.5109Z" fill="#263238"/>
<path d="M347.638 24.2792C347.638 24.2792 346.111 32.0789 351.185 34.4763C356.259 36.8737 356.111 43.3105 360.66 42.2268C367.228 40.5847 362.532 20.7323 351.891 18.5812C344.058 16.972 347.638 24.2792 347.638 24.2792Z" fill="#263238"/>
<path d="M204.222 285.579H198.557L196.077 135.725H206.701L204.222 285.579Z" fill="#5552FF"/>
<path opacity="0.7" d="M204.222 285.579H198.557L196.077 135.725H206.701L204.222 285.579Z" fill="white"/>
<path d="M266.718 285.579H261.053L258.573 135.725H269.198L266.718 285.579Z" fill="#5552FF"/>
<path opacity="0.4" d="M266.718 285.579H261.053L258.573 135.725H269.198L266.718 285.579Z" fill="white"/>
<path d="M308.229 133.213H201.381V144.937H308.229V133.213Z" fill="#5552FF"/>
<path opacity="0.3" d="M308.229 133.213H201.381V144.937H308.229V133.213Z" fill="white"/>
<path d="M370.89 133.213H308.229V144.937H370.89V133.213Z" fill="#5552FF"/>
<path opacity="0.5" d="M370.89 133.213H308.229V144.937H370.89V133.213Z" fill="white"/>
<path d="M373.566 285.579H367.901L365.422 135.725H376.046L373.566 285.579Z" fill="#5552FF"/>
<path opacity="0.4" d="M373.566 285.579H367.901L365.422 135.725H376.046L373.566 285.579Z" fill="white"/>
<path d="M378.181 125.676H297.178C294.775 125.676 292.827 127.624 292.827 130.027V131.374C292.827 133.777 294.775 135.725 297.178 135.725H378.181C380.584 135.725 382.532 133.777 382.532 131.374V130.027C382.532 127.624 380.584 125.676 378.181 125.676Z" fill="#263238"/>
<path opacity="0.6" d="M378.181 125.676H297.178C294.775 125.676 292.827 127.624 292.827 130.027V131.374C292.827 133.777 294.775 135.725 297.178 135.725H378.181C380.584 135.725 382.532 133.777 382.532 131.374V130.027C382.532 127.624 380.584 125.676 378.181 125.676Z" fill="white"/>
<path d="M302.449 125.676H191.627C189.224 125.676 187.276 127.624 187.276 130.027V131.374C187.276 133.777 189.224 135.725 191.627 135.725H302.449C304.852 135.725 306.801 133.777 306.801 131.374V130.027C306.801 127.624 304.852 125.676 302.449 125.676Z" fill="#263238"/>
<path opacity="0.5" d="M302.449 125.676H191.627C189.224 125.676 187.276 127.624 187.276 130.027V131.374C187.276 133.777 189.224 135.725 191.627 135.725H302.449C304.852 135.725 306.801 133.777 306.801 131.374V130.027C306.801 127.624 304.852 125.676 302.449 125.676Z" fill="white"/>
<path d="M311.07 285.579H305.405L302.925 135.725H313.549L311.07 285.579Z" fill="#5552FF"/>
<path opacity="0.7" d="M311.07 285.579H305.405L302.925 135.725H313.549L311.07 285.579Z" fill="white"/>
<path d="M299.296 125.676C298.861 125.676 298.443 125.503 298.135 125.195C297.827 124.887 297.654 124.469 297.654 124.034C297.654 123.598 297.827 123.181 298.135 122.873C298.443 122.565 298.861 122.392 299.296 122.392H344.781C345.217 122.392 345.634 122.565 345.942 122.873C346.25 123.181 346.423 123.598 346.423 124.034C346.423 124.469 346.25 124.887 345.942 125.195C345.634 125.503 345.217 125.676 344.781 125.676H299.296Z" fill="#5552FF"/>
<path opacity="0.2" d="M299.296 125.676C298.861 125.676 298.443 125.503 298.135 125.195C297.827 124.887 297.654 124.469 297.654 124.034C297.654 123.598 297.827 123.181 298.135 122.873C298.443 122.565 298.861 122.392 299.296 122.392H344.781C345.217 122.392 345.634 122.565 345.942 122.873C346.25 123.181 346.423 123.598 346.423 124.034C346.423 124.469 346.25 124.887 345.942 125.195C345.634 125.503 345.217 125.676 344.781 125.676H299.296Z" fill="#121212"/>
<path d="M303.155 122.786L297.113 79.6984C296.986 78.9115 296.589 78.1935 295.989 77.6688C295.389 77.144 294.625 76.8454 293.828 76.8248H288.032V125.659H300.692C301.055 125.67 301.416 125.6 301.748 125.453C302.08 125.307 302.375 125.087 302.611 124.812C302.847 124.536 303.019 124.211 303.113 123.861C303.207 123.51 303.222 123.143 303.155 122.786Z" fill="#5552FF"/>
<path d="M298.196 125.659H246.767C245.972 125.636 245.209 125.336 244.61 124.812C244.011 124.288 243.612 123.571 243.483 122.786L237.44 79.6984C237.374 79.3415 237.388 78.9743 237.483 78.6237C237.577 78.273 237.748 77.948 237.984 77.6724C238.221 77.3968 238.516 77.1775 238.848 77.0309C239.18 76.8842 239.541 76.8138 239.903 76.8249H291.332C292.129 76.8455 292.894 77.144 293.493 77.6688C294.093 78.1936 294.49 78.9116 294.617 79.6984L300.676 122.786C300.739 123.144 300.722 123.511 300.626 123.862C300.53 124.212 300.357 124.537 300.119 124.812C299.882 125.087 299.586 125.306 299.253 125.453C298.921 125.599 298.56 125.67 298.196 125.659Z" fill="#263238"/>
<path opacity="0.7" d="M298.196 125.659H246.767C245.972 125.636 245.209 125.336 244.61 124.812C244.011 124.288 243.612 123.571 243.483 122.786L237.44 79.6984C237.374 79.3415 237.388 78.9743 237.483 78.6237C237.577 78.273 237.748 77.948 237.984 77.6724C238.221 77.3968 238.516 77.1775 238.848 77.0309C239.18 76.8842 239.541 76.8138 239.903 76.8249H291.332C292.129 76.8455 292.894 77.144 293.493 77.6688C294.093 78.1936 294.49 78.9116 294.617 79.6984L300.676 122.786C300.739 123.144 300.722 123.511 300.626 123.862C300.53 124.212 300.357 124.537 300.119 124.812C299.882 125.087 299.586 125.306 299.253 125.453C298.921 125.599 298.56 125.67 298.196 125.659Z" fill="white"/>
<path opacity="0.7" d="M271.562 100.06C271.621 100.386 271.606 100.721 271.519 101.04C271.433 101.359 271.276 101.656 271.061 101.907C270.845 102.159 270.577 102.359 270.275 102.494C269.972 102.629 269.644 102.695 269.313 102.687C268.584 102.67 267.884 102.397 267.335 101.917C266.786 101.437 266.423 100.78 266.308 100.06C266.249 99.7335 266.263 99.3979 266.351 99.078C266.439 98.758 266.597 98.4618 266.815 98.2112C267.032 97.9607 267.303 97.7621 267.608 97.6302C267.912 97.4983 268.242 97.4364 268.574 97.4491C269.298 97.47 269.991 97.7418 270.537 98.2181C271.082 98.6945 271.445 99.3456 271.562 100.06Z" fill="white"/>
<path d="M117.209 113.18C111.035 149.223 154.073 130.323 171.233 130.75C172.356 130.774 173.467 130.991 174.517 131.39L179.804 154.264L174.665 177.942L162.661 196.908H87.8824L33.8754 160.372L20.1643 117.498L24.0231 48.056L25.6652 36.9065C25.6652 36.9065 27.3072 50.634 65.0744 47.2021C102.842 43.7702 132.398 31.6191 140.937 43.7702C151.331 58.3516 121.298 89.3371 117.209 113.18Z" fill="#5552FF"/>
<path opacity="0.2" d="M173.302 172.162V185.66L151.758 194.346L109.328 192.097L98.1619 177.942L102.891 170.553H130.215L173.302 172.162Z" fill="#121212"/>
<path d="M104.648 216.301H91.6755V275.349H104.648V216.301Z" fill="#263238"/>
<path opacity="0.5" d="M104.648 216.301H91.6755V275.349H104.648V216.301Z" fill="white"/>
<path d="M108.014 269.979H88.3259L48.1285 277.582V284.281H56.4045L88.3259 278.255H108.014L139.936 284.281H148.211V277.582L108.014 269.979Z" fill="#263238"/>
<path opacity="0.3" d="M108.014 269.979H88.3259L48.1285 277.582V284.281H56.4045L88.3259 278.255H108.014L139.936 284.281H148.211V277.582L108.014 269.979Z" fill="white"/>
<path d="M139.935 287.204H148.146C148.681 287.204 149.195 286.991 149.574 286.613C149.953 286.234 150.165 285.72 150.165 285.184C150.165 284.649 149.953 284.135 149.574 283.756C149.195 283.378 148.681 283.165 148.146 283.165H139.935C139.4 283.165 138.886 283.378 138.507 283.756C138.129 284.135 137.916 284.649 137.916 285.184C137.916 285.72 138.129 286.234 138.507 286.613C138.886 286.991 139.4 287.204 139.935 287.204Z" fill="#5552FF"/>
<path d="M48.1285 287.204H56.3387C56.8744 287.204 57.3881 286.991 57.7669 286.613C58.1457 286.234 58.3585 285.72 58.3585 285.184C58.3585 284.649 58.1457 284.135 57.7669 283.756C57.3881 283.378 56.8744 283.165 56.3387 283.165H48.1285C47.5928 283.165 47.0791 283.378 46.7003 283.756C46.3215 284.135 46.1088 284.649 46.1088 285.184C46.1088 285.72 46.3215 286.234 46.7003 286.613C47.0791 286.991 47.5928 287.204 48.1285 287.204Z" fill="#5552FF"/>
<path opacity="0.2" d="M104.648 216.301H91.6755V229.667H104.648V216.301Z" fill="#121212"/>
<path d="M168.294 180.537H90.674V163.804H168.294C170.512 163.804 172.639 164.684 174.209 166.251C175.78 167.818 176.664 169.944 176.668 172.162C176.668 174.383 175.786 176.513 174.215 178.084C172.645 179.654 170.515 180.537 168.294 180.537Z" fill="#5552FF"/>
<path opacity="0.1" d="M168.294 180.537H90.674V163.804H168.294C170.512 163.804 172.639 164.684 174.209 166.251C175.78 167.818 176.664 169.944 176.668 172.162C176.668 174.383 175.786 176.513 174.215 178.084C172.645 179.654 170.515 180.537 168.294 180.537Z" fill="#121212"/>
<path d="M103.252 59.5339C103.252 59.5339 113.105 87.4488 121.315 88.0399C129.525 88.631 139.377 73.7212 139.377 73.7212L143.433 63.1793L151.643 62.4896V75.7245L143.253 79.9282C143.253 79.9282 130.428 100.996 120.477 100.47C110.527 99.9448 100.477 84.5423 98.441 76.6933C97.308 72.3419 98.0469 63.3928 103.252 59.5339Z" fill="#FFC3BD"/>
<path d="M153.368 82.4898L156.307 58.1546L145.042 57.3829L144.698 81.8987L153.368 82.4898Z" fill="#263238"/>
<path opacity="0.5" d="M153.368 82.4898L156.307 58.1546L145.042 57.3829L144.698 81.8987L153.368 82.4898Z" fill="white"/>
<path d="M156.501 54.662L145.245 53.9045L145.009 57.4106L156.265 58.1681L156.501 54.662Z" fill="#5552FF"/>
<path d="M145.31 53.1846L155.31 53.8846C155.48 53.8965 155.638 53.9754 155.749 54.1039C155.861 54.2324 155.917 54.4 155.905 54.5699L155.781 56.3433L144.5 55.5536L144.623 53.7966C144.627 53.711 144.648 53.627 144.685 53.5496C144.722 53.4721 144.773 53.4029 144.837 53.3458C144.901 53.2888 144.976 53.2451 145.057 53.2174C145.138 53.1898 145.224 53.1786 145.31 53.1846Z" fill="#263238"/>
<path d="M100.641 84.0827C100.641 84.0827 89.9843 66.4799 96.7989 58.1383C103.613 49.7967 114.008 77.2682 114.008 77.2682L100.641 84.0827Z" fill="#5552FF"/>
<path opacity="0.3" d="M100.641 84.0827C100.641 84.0827 89.9843 66.4799 96.7989 58.1383C103.613 49.7967 114.008 77.2682 114.008 77.2682L100.641 84.0827Z" fill="white"/>
<path d="M98.5723 82.8347L100.592 85.8068L115.535 78.0891L114.139 74.9692L98.5723 82.8347Z" fill="#5552FF"/>
<path opacity="0.1" d="M98.5723 82.8347L100.592 85.8068L115.535 78.0891L114.139 74.9692L98.5723 82.8347Z" fill="white"/>
<path d="M47.2417 151.358C47.2417 151.358 33.8918 104.625 49.557 58.1384C49.557 58.1384 69.8691 48.6802 98.8185 55.6261C99.6075 55.8121 100.351 56.1541 101.006 56.6319C101.661 57.1098 102.213 57.7139 102.631 58.4086C103.049 59.1034 103.323 59.8746 103.439 60.677C103.554 61.4795 103.507 62.2968 103.301 63.0809C100.411 74.3618 95.9285 101.242 106.75 135.216C88.4904 145.28 68.0833 150.815 47.2417 151.358Z" fill="#5552FF"/>
<path opacity="0.5" d="M47.2417 151.358C47.2417 151.358 33.8918 104.625 49.557 58.1384C49.557 58.1384 69.8691 48.6802 98.8185 55.6261C99.6075 55.8121 100.351 56.1541 101.006 56.6319C101.661 57.1098 102.213 57.7139 102.631 58.4086C103.049 59.1034 103.323 59.8746 103.439 60.677C103.554 61.4795 103.507 62.2968 103.301 63.0809C100.411 74.3618 95.9285 101.242 106.75 135.216C88.4904 145.28 68.0833 150.815 47.2417 151.358Z" fill="white"/>
<path d="M72.6608 53.2942L82.5131 61.7837L88.1946 56.7425C86.0435 55.1005 86.5525 51.5208 87.8333 47.6128L73.9251 36.6274C74.5984 41.7835 75.0582 48.8607 72.6608 53.2942Z" fill="#FFC3BD"/>
<path d="M144.073 163L162.152 170.356L160.116 178.008L140.806 174.034L144.073 163Z" fill="#FFC3BD"/>
<path d="M82.316 136.891C82.316 136.891 168.868 106.907 176.011 134.461C183.154 162.014 117.554 181.013 83.1863 179.863C48.8182 178.714 82.316 136.891 82.316 136.891Z" fill="#263238"/>
<path opacity="0.3" d="M82.316 136.891C82.316 136.891 168.868 106.907 176.011 134.461C183.154 162.014 117.554 181.013 83.1863 179.863C48.8182 178.714 82.316 136.891 82.316 136.891Z" fill="#121212"/>
<path opacity="0.7" d="M146.668 139.666L104.615 166.464L111.314 177.466C111.314 177.466 107.259 178.812 101.643 165.364L127.636 148.188C127.636 148.188 119.426 147.367 119.705 146.103C120.05 144.017 137.916 140.027 146.06 138.32C146.229 138.283 146.406 138.306 146.56 138.383C146.714 138.461 146.837 138.59 146.908 138.747C146.98 138.905 146.994 139.082 146.951 139.249C146.907 139.416 146.807 139.564 146.668 139.666Z" fill="#121212"/>
<path opacity="0.7" d="M103.137 165.282L110.412 177.63C101.46 179.268 92.3676 180.016 83.2684 179.863C80.2656 179.845 77.2903 179.289 74.4835 178.221L71.9219 173.295L77.4392 161.686L103.137 165.282Z" fill="#121212"/>
<path d="M103.876 167.17L95.6986 174.034L99.4589 179.863L111.906 177.909L103.876 167.17Z" fill="#FFC3BD"/>
<path d="M114.09 178.123L105.551 164.658L101.692 167.417L109.081 179.042L114.09 178.123Z" fill="#263238"/>
<path opacity="0.3" d="M114.09 178.123L105.551 164.658L101.692 167.417L109.081 179.042L114.09 178.123Z" fill="white"/>
<path d="M51.8888 165.578C47.2418 157.729 38.2598 133.919 59.8527 129.814C81.4457 125.709 152.415 165.594 152.415 165.594L149.131 175.972L81.9383 164.888C81.9383 164.888 100.625 181.801 80.1813 179.666C63.9579 178.008 56.4208 173.246 51.8888 165.578Z" fill="#263238"/>
<path d="M150.674 163L146.471 176.563L150.674 177.138L154.451 165.43L150.674 163Z" fill="#263238"/>
<path opacity="0.3" d="M150.674 163L146.471 176.563L150.674 177.138L154.451 165.43L150.674 163Z" fill="white"/>
<path d="M101.856 179.568L98.9171 170.586C98.8592 170.423 98.7485 170.285 98.6027 170.192C98.4568 170.1 98.2842 170.059 98.1125 170.077L90.2963 170.848C90.13 170.863 89.9683 170.91 89.8203 170.987C89.6723 171.065 89.5411 171.17 89.4343 171.299C89.3274 171.427 89.247 171.575 89.1977 171.734C89.1484 171.894 89.1311 172.062 89.1469 172.228C89.1405 172.315 89.1405 172.403 89.1469 172.49C90.2635 175.692 91.3965 178.517 92.7102 182.54C94.3522 187.285 93.3013 186.267 95.0583 191.883C96.1256 195.266 100.149 194.625 99.8695 193.131C98.5394 186.333 100.296 185.003 101.791 181.719C102.082 181.035 102.106 180.268 101.856 179.568Z" fill="#263238"/>
<path d="M160.543 169.863L157.505 179.075C157.453 179.245 157.459 179.427 157.521 179.594C157.584 179.76 157.699 179.901 157.85 179.995L164.796 184.133C164.943 184.222 165.105 184.281 165.275 184.308C165.444 184.334 165.617 184.326 165.784 184.285C165.95 184.243 166.107 184.169 166.244 184.067C166.382 183.965 166.498 183.837 166.586 183.689L166.701 183.443C167.735 180.159 168.524 177.088 169.903 172.95C171.545 168.024 171.676 169.502 173.663 163.804C174.846 160.356 171.118 158.435 170.379 159.83C167.325 166.267 165.075 166.284 161.808 168.041C161.178 168.474 160.729 169.122 160.543 169.863Z" fill="#263238"/>
<path d="M148.688 139.256H109.738C108.867 139.256 108.032 138.91 107.416 138.294C106.8 137.678 106.454 136.842 106.454 135.971H152.054C152.054 136.41 151.966 136.844 151.796 137.247C151.626 137.651 151.377 138.017 151.063 138.323C150.749 138.629 150.378 138.869 149.97 139.03C149.562 139.19 149.126 139.266 148.688 139.256Z" fill="#263238"/>
<path opacity="0.2" d="M148.688 139.256H109.738C108.867 139.256 108.032 138.91 107.416 138.294C106.8 137.678 106.454 136.842 106.454 135.971H152.054C152.054 136.41 151.966 136.844 151.796 137.247C151.626 137.651 151.377 138.017 151.063 138.323C150.749 138.629 150.378 138.869 149.97 139.03C149.562 139.19 149.126 139.266 148.688 139.256Z" fill="white"/>
<path d="M120.018 139.256H91.725C90.854 139.256 90.0187 138.91 89.4028 138.294C88.7869 137.678 88.4409 136.842 88.4409 135.971H123.384C123.384 136.41 123.296 136.844 123.126 137.247C122.956 137.651 122.707 138.017 122.393 138.323C122.079 138.629 121.707 138.869 121.3 139.03C120.892 139.19 120.456 139.266 120.018 139.256Z" fill="#263238"/>
<path opacity="0.5" d="M120.018 139.256H91.725C90.854 139.256 90.0187 138.91 89.4028 138.294C88.7869 137.678 88.4409 136.842 88.4409 135.971H123.384C123.384 136.41 123.296 136.844 123.126 137.247C122.956 137.651 122.707 138.017 122.393 138.323C122.079 138.629 121.707 138.869 121.3 139.03C120.892 139.19 120.456 139.266 120.018 139.256Z" fill="white"/>
<path d="M148.95 138.237H123.334C123.209 138.237 123.085 138.206 122.973 138.148C122.862 138.09 122.766 138.005 122.694 137.903C122.622 137.8 122.575 137.681 122.558 137.557C122.541 137.432 122.554 137.305 122.595 137.187L133.991 104.608C134.147 104.171 134.434 103.793 134.814 103.525C135.193 103.258 135.645 103.114 136.11 103.114H161.742C161.868 103.115 161.991 103.145 162.103 103.204C162.214 103.262 162.31 103.346 162.383 103.449C162.455 103.552 162.502 103.67 162.519 103.795C162.536 103.92 162.523 104.046 162.481 104.165L151.085 136.743C150.926 137.182 150.636 137.56 150.254 137.828C149.872 138.095 149.417 138.238 148.95 138.237Z" fill="#263238"/>
<path opacity="0.5" d="M148.95 138.237H123.334C123.209 138.237 123.085 138.206 122.973 138.148C122.862 138.09 122.766 138.005 122.694 137.903C122.622 137.8 122.575 137.681 122.558 137.557C122.541 137.432 122.554 137.305 122.595 137.187L133.991 104.608C134.147 104.171 134.434 103.793 134.814 103.525C135.193 103.258 135.645 103.114 136.11 103.114H161.742C161.868 103.115 161.991 103.145 162.103 103.204C162.214 103.262 162.31 103.346 162.383 103.449C162.455 103.552 162.502 103.67 162.519 103.795C162.536 103.92 162.523 104.046 162.481 104.165L151.085 136.743C150.926 137.182 150.636 137.56 150.254 137.828C149.872 138.095 149.417 138.238 148.95 138.237Z" fill="white"/>
<path d="M149.968 138.237H124.32C124.194 138.237 124.07 138.206 123.959 138.148C123.847 138.09 123.751 138.005 123.679 137.903C123.607 137.8 123.56 137.681 123.543 137.557C123.526 137.432 123.539 137.305 123.581 137.187L134.976 104.608C135.132 104.171 135.419 103.793 135.799 103.525C136.178 103.258 136.631 103.114 137.095 103.114H162.743C162.869 103.115 162.993 103.145 163.104 103.204C163.216 103.262 163.312 103.346 163.384 103.449C163.456 103.552 163.503 103.67 163.52 103.795C163.537 103.92 163.524 104.046 163.482 104.165L152.087 136.743C151.931 137.18 151.644 137.559 151.264 137.826C150.885 138.094 150.432 138.237 149.968 138.237Z" fill="#263238"/>
<path opacity="0.7" d="M149.968 138.237H124.32C124.194 138.237 124.07 138.206 123.959 138.148C123.847 138.09 123.751 138.005 123.679 137.903C123.607 137.8 123.56 137.681 123.543 137.557C123.526 137.432 123.539 137.305 123.581 137.187L134.976 104.608C135.132 104.171 135.419 103.793 135.799 103.525C136.178 103.258 136.631 103.114 137.095 103.114H162.743C162.869 103.115 162.993 103.145 163.104 103.204C163.216 103.262 163.312 103.346 163.384 103.449C163.456 103.552 163.503 103.67 163.52 103.795C163.537 103.92 163.524 104.046 163.482 104.165L152.087 136.743C151.931 137.18 151.644 137.559 151.264 137.826C150.885 138.094 150.432 138.237 149.968 138.237Z" fill="white"/>
<path d="M145.666 120.684C145.387 121.932 144.533 122.933 143.729 122.933C142.924 122.933 142.497 121.932 142.76 120.684C143.022 119.436 143.893 118.418 144.697 118.418C145.502 118.418 145.978 119.436 145.666 120.684Z" fill="white"/>
<path d="M60.0498 72.1616C60.0498 72.1616 66.306 102.966 70.5261 108.073C74.7462 113.18 93.1207 126.924 93.1207 126.924L104.057 124.642L111.889 131.21L106.766 135.249L100.707 132.967C97.4004 133.552 94.0484 133.843 90.6905 133.837C85.0418 133.837 62.1024 120.339 57.5539 112.753C53.0054 105.167 46.6343 76.6279 46.6343 76.6279L60.0498 72.1616Z" fill="#FFC3BD"/>
<path d="M69.0317 53.5079L72.9398 51.2418L82.4637 61.7838C82.4637 61.7838 77.2256 59.6491 75.7477 60.5194C74.2699 61.3897 75.3536 64.6738 73.8101 64.7066C70.3782 64.7559 69.0317 53.5079 69.0317 53.5079Z" fill="#5552FF"/>
<path d="M82.4639 61.7836L87.39 51.9313L91.4623 54.1152C91.4623 54.1152 95.239 63.6555 92.349 64.6572C90.592 65.2647 89.9188 60.8147 88.1782 60.1579C86.8317 59.6981 82.4639 61.7836 82.4639 61.7836Z" fill="#5552FF"/>
<g opacity="0.2">
<path d="M69.0317 53.5079L72.9398 51.2418L82.4637 61.7838C82.4637 61.7838 77.2256 59.6491 75.7477 60.5194C74.2699 61.3897 75.3536 64.6738 73.8101 64.7066C70.3782 64.7559 69.0317 53.5079 69.0317 53.5079Z" fill="white"/>
<path d="M82.4639 61.7838L87.39 51.9315L91.4623 54.1154C91.4623 54.1154 95.239 63.6558 92.349 64.6574C90.592 65.265 89.9188 60.815 88.1782 60.1582C86.8317 59.6984 82.4639 61.7838 82.4639 61.7838Z" fill="white"/>
</g>
<path d="M47.2419 87.4818C47.2419 87.4818 40.0004 65.5604 49.5571 58.1383C59.1139 50.7163 63.5638 83.4259 63.5638 83.4259L47.2419 87.4818Z" fill="#5552FF"/>
<path opacity="0.3" d="M47.2419 87.4818C47.2419 87.4818 40.0004 65.5604 49.5571 58.1383C59.1139 50.7163 63.5638 83.4259 63.5638 83.4259L47.2419 87.4818Z" fill="white"/>
<path d="M45.3041 85.6098L46.7655 89.3701L65.0415 84.6574L64.3026 80.8971L45.3041 85.6098Z" fill="#5552FF"/>
<path opacity="0.1" d="M45.3041 85.6098L46.7655 89.3701L65.0415 84.6574L64.3026 80.8971L45.3041 85.6098Z" fill="white"/>
<path opacity="0.1" d="M74.1222 38.4501C74.1222 37.8261 73.9744 37.2186 73.8923 36.6274L87.8005 47.6128C87.2971 49.1493 86.9558 50.7343 86.7824 52.3419C78.3423 52.4076 75.1896 43.1135 74.1222 38.4501Z" fill="#121212"/>
<path d="M76.5196 20.601C73.6131 30.4533 72.1681 34.542 75.2388 41.1595C79.8365 51.2252 92.5295 52.6538 98.2275 43.8853C103.383 35.987 107.357 21.2743 99.2948 14.0328C97.5332 12.4287 95.3903 11.3023 93.0702 10.7607C90.7501 10.2192 88.33 10.2806 86.0403 10.939C83.7506 11.5974 81.6675 12.831 79.9895 14.5223C78.3115 16.2136 77.0943 18.3062 76.4539 20.601H76.5196Z" fill="#FFC3BD"/>
<path d="M87.5706 30.4533C87.2914 31.2251 87.4721 32.0133 87.9975 32.1939C88.523 32.3745 89.147 31.8983 89.4261 31.1266C89.7053 30.3548 89.5246 29.4845 89.0156 29.3696C88.5066 29.2546 87.8662 29.6487 87.5706 30.4533Z" fill="#263238"/>
<path d="M96.4047 33.6555C96.1092 34.4437 96.3062 35.2976 96.7988 35.4125C97.2914 35.5275 97.9647 35.117 98.2438 34.3288C98.523 33.5406 98.3424 32.6867 97.8333 32.5718C97.3243 32.4568 96.7003 32.933 96.4047 33.6555Z" fill="#263238"/>
<path d="M93.4492 33.8851C93.9422 35.8552 94.6989 37.7498 95.6988 39.5174C95.2426 39.7682 94.7363 39.9145 94.2166 39.9458C93.697 39.977 93.1768 39.8924 92.6938 39.698L93.4492 33.8851Z" fill="#ED893E"/>
<path d="M87.2256 26.1018C87.2984 26.1773 87.3935 26.2276 87.4968 26.2453C87.6002 26.263 87.7065 26.2472 87.8003 26.2004C88.5625 25.9476 89.3688 25.8551 90.1684 25.9285C90.9681 26.002 91.7439 26.2399 92.4473 26.6273C92.5031 26.6587 92.5647 26.6785 92.6283 26.6856C92.6919 26.6926 92.7563 26.6868 92.8176 26.6684C92.8789 26.65 92.9359 26.6194 92.9851 26.5785C93.0344 26.5376 93.0748 26.4872 93.1041 26.4302C93.1361 26.3754 93.1569 26.3148 93.1651 26.2519C93.1733 26.1889 93.1689 26.125 93.1521 26.0638C93.1353 26.0026 93.1064 25.9454 93.0671 25.8956C93.0279 25.8457 92.979 25.8042 92.9235 25.7734C92.0824 25.3125 91.1543 25.032 90.1987 24.9501C89.243 24.8681 88.2808 24.9863 87.3734 25.2972C87.2559 25.354 87.1657 25.455 87.1226 25.5781C87.0795 25.7013 87.087 25.8364 87.1435 25.9541C87.1567 26.0099 87.1852 26.0611 87.2256 26.1018Z" fill="#263238"/>
<path d="M101.61 31.9641C101.686 32.0043 101.771 32.0254 101.856 32.0254C101.942 32.0254 102.027 32.0043 102.103 31.9641C102.216 31.9073 102.304 31.8101 102.35 31.6916C102.396 31.5731 102.395 31.4419 102.349 31.3237C102.056 30.5993 101.595 29.955 101.004 29.4439C100.413 28.9328 99.709 28.5697 98.95 28.3844C98.8308 28.3842 98.7153 28.4259 98.6236 28.5022C98.532 28.5784 98.47 28.6844 98.4485 28.8017C98.427 28.9189 98.4474 29.04 98.506 29.1438C98.5646 29.2476 98.6578 29.3275 98.7693 29.3696C99.3684 29.5182 99.9236 29.8071 100.389 30.2125C100.854 30.618 101.217 31.1283 101.446 31.7013C101.479 31.8005 101.536 31.8905 101.61 31.9641Z" fill="#263238"/>
<path d="M74.5984 26.3646C75.1109 26.3478 75.6128 26.2152 76.0668 25.9769C76.5207 25.7386 76.9149 25.4006 77.2197 24.9884C77.5246 24.5761 77.7322 24.1003 77.8271 23.5964C77.9219 23.0925 77.9016 22.5738 77.7676 22.0789C77.7676 22.0789 83.8596 21.9147 84.1223 17.4483C84.1223 17.4483 89.4426 22.161 91.3145 18.4828C91.3145 18.4828 97.8827 24.3121 98.7037 20.4532C98.7037 20.4532 105.469 28.8605 105.124 23.7373C105.124 23.7373 112.76 22.9656 105.896 16.3646C105.896 16.3646 112.169 10.8801 102.037 8.64692C102.037 8.64692 102.924 2.07872 95.7973 5.00157C95.7973 5.00157 94.1552 -2.07567 87.9811 2.04587C87.9811 2.04587 84.697 -2.88027 80.986 3.68792C80.986 3.68792 75.6001 0.617292 73.8923 7.56316C73.8923 7.56316 64.155 8.74543 68.1616 15.1494C68.1616 15.1494 71.1665 36.6439 73.8923 36.6439C75.7479 36.6275 74.5984 26.3646 74.5984 26.3646Z" fill="#263238"/>
<path d="M71.2485 27.3334C71.3129 29.3106 72.1571 31.1819 73.5967 32.5387C75.5014 34.3286 77.6854 32.9 78.1451 30.4697C78.6049 28.0395 78.1452 24.6897 75.6657 23.9015C75.2479 23.7507 74.8039 23.6861 74.3605 23.7118C73.9171 23.7374 73.4835 23.8527 73.086 24.0507C72.6884 24.2487 72.3352 24.5253 72.0476 24.8638C71.76 25.2022 71.544 25.5955 71.4127 26.0198C71.2694 26.442 71.2135 26.8889 71.2485 27.3334Z" fill="#FFC3BD"/>
<path d="M89.7379 42.3417C90.0807 42.4458 90.4325 42.5173 90.7888 42.5551C90.8431 42.5649 90.8991 42.5533 90.945 42.5227C90.9909 42.492 91.0232 42.4449 91.0351 42.391C91.0373 42.3629 91.034 42.3347 91.0253 42.3079C91.0166 42.2812 91.0027 42.2564 90.9844 42.235C90.9661 42.2136 90.9437 42.1961 90.9186 42.1834C90.8935 42.1708 90.8661 42.1631 90.838 42.161C89.9355 42.065 89.0683 41.7578 88.3067 41.2643C87.545 40.7707 86.9102 40.1048 86.4538 39.3203C86.4416 39.2938 86.4241 39.27 86.4023 39.2505C86.3806 39.231 86.355 39.2162 86.3273 39.207C86.2996 39.1977 86.2703 39.1943 86.2412 39.1969C86.2122 39.1994 86.1839 39.2079 86.1582 39.2218C86.1089 39.2465 86.0711 39.2895 86.0527 39.3415C86.0343 39.3936 86.0368 39.4507 86.0597 39.5009C86.4513 40.1966 86.9787 40.8066 87.6105 41.2946C88.2424 41.7826 88.9658 42.1386 89.7379 42.3417Z" fill="#263238"/>
<path d="M19.2284 37.8591C19.2284 37.8591 -15.7309 217.516 99.8859 220.816C205.338 223.805 181.758 137.646 174.911 131.653C168.064 125.659 193.762 186.941 151.331 187.811C100.165 188.846 90.8874 140.192 73.7444 139.798C56.6014 139.403 30.7227 162.08 28.0954 120.93C25.4682 79.7806 39.0151 9.94426 19.2284 37.8591Z" fill="#5552FF"/>
<path opacity="0.5" d="M19.2284 37.8591C19.2284 37.8591 -15.7309 217.516 99.8859 220.816C205.338 223.805 181.758 137.646 174.911 131.653C168.064 125.659 193.762 186.941 151.331 187.811C100.165 188.846 90.8874 140.192 73.7444 139.798C56.6014 139.403 30.7227 162.08 28.0954 120.93C25.4682 79.7806 39.0151 9.94426 19.2284 37.8591Z" fill="white"/>
</svg>
