<svg width="311" height="272" viewBox="0 0 311 272" fill="none" xmlns="http://www.w3.org/2000/svg">
<path d="M7.53106 100.98C29.4615 184.133 127.844 215.833 175.817 129.794C200.542 85.4386 289.908 168.759 284.098 104.133C276.088 15.0403 176.19 84.4715 127.235 70.9097C93.5776 61.6502 93.7071 1.18914 42.14 11.1797C1.37073 19.0762 -1.60663 66.4094 7.53106 100.98Z" fill="#5552FF"/>
<path opacity="0.9" d="M7.53106 100.98C29.4615 184.133 127.844 215.833 175.817 129.794C200.542 85.4386 289.908 168.759 284.098 104.133C276.088 15.0403 176.19 84.4715 127.235 70.9097C93.5776 61.6502 93.7071 1.18914 42.14 11.1797C1.37073 19.0762 -1.60663 66.4094 7.53106 100.98Z" fill="white"/>
<path d="M147.642 271.482C229.183 271.482 295.284 267.623 295.284 262.862C295.284 258.101 229.183 254.242 147.642 254.242C66.1017 254.242 0 258.101 0 262.862C0 267.623 66.1017 271.482 147.642 271.482Z" fill="#F5F5F5"/>
<path d="M197.762 48.4919V131.561H124.181V28.8839H178.147L197.762 48.4919Z" fill="#5552FF"/>
<path opacity="0.8" d="M197.762 48.4919V131.561H124.181V28.8839H178.147L197.762 48.4919Z" fill="white"/>
<path opacity="0.2" d="M197.762 84.365H124.181V89.3831H197.762V84.365Z" fill="#5552FF"/>
<path d="M197.762 48.4919H178.147V28.8839L197.762 48.4919Z" fill="#5552FF"/>
<path d="M177.012 197.566H123.534C123.534 197.566 126.892 241.602 117.054 259.451H183.485C173.654 241.602 177.012 197.566 177.012 197.566Z" fill="#5552FF"/>
<path opacity="0.2" d="M178.055 240.452C175.23 220.874 177.012 197.566 177.012 197.566H123.534C123.534 197.566 125.133 218.552 122.887 237.421L178.055 240.452Z" fill="black"/>
<path d="M191.206 257.905H109.34C108.614 257.907 107.918 258.196 107.404 258.71C106.89 259.224 106.601 259.92 106.599 260.646H193.947C193.945 259.92 193.656 259.224 193.142 258.71C192.629 258.196 191.933 257.907 191.206 257.905Z" fill="#5552FF"/>
<path d="M268.359 173.427H267.574V178.788H268.359V173.427Z" fill="#5552FF"/>
<path d="M268.359 153.225H267.574V168.592H268.359V153.225Z" fill="#5552FF"/>
<path d="M260.226 88.1343H40.32C37.3467 88.1343 34.9364 90.5446 34.9364 93.5179V226.692C34.9364 229.665 37.3467 232.076 40.32 232.076H260.226C263.199 232.076 265.61 229.665 265.61 226.692V93.5179C265.61 90.5446 263.199 88.1343 260.226 88.1343Z" fill="#5552FF"/>
<path d="M258.102 91.5914H42.4369C40.1701 91.5914 38.3325 93.429 38.3325 95.6958V193.461C38.3325 195.728 40.1701 197.566 42.4369 197.566H258.102C260.368 197.566 262.206 195.728 262.206 193.461V95.6958C262.206 93.429 260.368 91.5914 258.102 91.5914Z" fill="white"/>
<path opacity="0.9" d="M34.944 201V226.677C34.948 228.103 35.5165 229.47 36.5252 230.479C37.534 231.488 38.901 232.056 40.3276 232.06H260.226C261.653 232.056 263.02 231.488 264.028 230.479C265.037 229.47 265.606 228.103 265.61 226.677V201H34.944Z" fill="white"/>
<path opacity="0.5" d="M150.269 221.735C153.133 221.735 155.455 219.413 155.455 216.549C155.455 213.685 153.133 211.364 150.269 211.364C147.405 211.364 145.084 213.685 145.084 216.549C145.084 219.413 147.405 221.735 150.269 221.735Z" fill="#5552FF"/>
<path opacity="0.4" d="M96.1436 72.425V147.392H171.111L96.1436 72.425ZM112.614 112.204L131.331 130.944H112.614V112.204Z" fill="#5552FF"/>
<path d="M182.053 159.347V174.775C182.059 177.27 183.052 179.661 184.816 181.426C186.579 183.191 188.97 184.186 191.465 184.194H245.872C248.368 184.186 250.759 183.191 252.524 181.426C254.289 179.662 255.284 177.27 255.292 174.775V120.375C255.284 117.88 254.288 115.49 252.523 113.726C250.758 111.963 248.367 110.969 245.872 110.963H191.465C188.971 110.969 186.58 111.963 184.816 113.727C183.053 115.49 182.059 117.881 182.053 120.375V137.287" fill="white"/>
<path d="M245.872 184.583H242.826V183.821H245.956V184.583H245.872ZM239.72 184.583H236.582V183.821H239.72V184.583ZM233.437 184.583H230.3V183.821H233.437V184.583ZM227.163 184.583H224.018V183.821H227.155L227.163 184.583ZM220.888 184.583H217.751V183.821H220.888V184.583ZM214.614 184.583H211.469V183.821H214.614V184.583ZM208.332 184.583H205.194V183.821H208.332V184.583ZM202.057 184.583H198.92V183.821H202.057V184.583ZM195.783 184.583H192.638V183.821H195.783V184.583ZM189.44 184.369C188.364 184.143 187.334 183.736 186.394 183.166L186.805 182.496C187.661 183.02 188.601 183.394 189.584 183.6L189.44 184.369ZM249.2 183.996L248.933 183.235C249.877 182.889 250.757 182.39 251.538 181.757L252.033 182.367C251.185 183.066 250.224 183.617 249.192 183.996H249.2ZM183.949 181.049C183.248 180.211 182.692 179.261 182.304 178.239L183.066 177.965C183.428 178.904 183.943 179.776 184.589 180.547L183.949 181.049ZM254.188 179.96L253.525 179.542C254.059 178.691 254.446 177.757 254.667 176.777L255.429 176.953C255.186 178.019 254.764 179.036 254.18 179.96H254.188ZM181.672 175.049C181.672 174.957 181.672 174.866 181.672 174.775V171.904H182.434V175.026L181.672 175.049ZM255.68 173.747H254.919V170.609H255.68V173.747ZM182.449 168.759H181.688V165.622H182.449V168.759ZM255.673 167.495H254.911V164.358H255.673V167.495ZM182.442 162.507H181.68V159.347H182.442V162.507ZM255.673 161.213H254.911V158.053H255.673V161.213ZM255.673 154.938H254.911V151.801H255.673V154.938ZM255.673 148.664H254.911V145.527H255.673V148.664ZM255.673 142.389H254.911V139.244H255.673V142.389ZM182.442 136.846H181.68V133.701H182.442V136.846ZM255.673 136.084H254.911V132.947H255.673V136.084ZM182.442 130.541H181.68V127.403H182.442V130.541ZM255.673 129.779H254.911V126.642H255.673V129.779ZM182.442 124.236H181.68V121.098H182.442V124.236ZM255.673 123.474H254.911V120.329H255.673V123.474ZM182.731 118.053L181.969 117.855C182.243 116.795 182.697 115.791 183.31 114.885L183.957 115.326C183.391 116.178 182.976 117.121 182.731 118.113V118.053ZM254.393 117.382C254.068 116.431 253.581 115.542 252.954 114.755L253.571 114.268C254.25 115.126 254.78 116.091 255.14 117.124L254.393 117.382ZM186.013 113.141L185.533 112.517C186.402 111.854 187.375 111.339 188.412 110.994L188.655 111.755C187.701 112.089 186.808 112.578 186.013 113.202V113.141ZM250.738 112.737C249.895 112.189 248.966 111.788 247.989 111.55L248.18 110.788C249.256 111.063 250.279 111.518 251.203 112.136L250.738 112.737ZM244.966 111.291H241.837V110.529H244.974L244.966 111.291ZM238.692 111.291H235.554V110.529H238.692V111.291ZM232.417 111.291H229.272V110.529H232.417V111.291ZM226.135 111.291H223.028V110.529H226.165L226.135 111.291ZM219.86 111.291H216.723V110.529H219.86V111.291ZM213.586 111.291H210.441V110.529H213.586V111.291ZM207.304 111.291H204.166V110.529H207.304V111.291ZM201.029 111.291H197.899V110.529H201.037L201.029 111.291ZM194.755 111.291H191.617V110.529H194.755V111.291Z" fill="#5552FF"/>
<path d="M182.183 149.121V139.556C181.024 142.021 180.411 144.707 180.386 147.43L181.673 148.717V149.638L179.761 151.55C179.768 151.424 179.749 151.299 179.706 151.181C179.663 151.063 179.596 150.956 179.51 150.864C179.053 150.4 178.101 150.605 177.393 151.314C176.685 152.022 176.479 152.966 176.944 153.43C177.408 153.895 178.353 153.689 179.061 152.981L181.673 150.369V154.55C181.673 155.555 182.198 156.37 182.845 156.37C183.492 156.37 184.025 155.555 184.025 154.55C184.025 153.545 183.5 152.738 182.845 152.738C182.72 152.742 182.598 152.771 182.485 152.825C182.372 152.879 182.272 152.955 182.19 153.05V149.874L183.173 148.892H184.954C186.862 146.944 188.325 144.606 189.242 142.039L182.183 149.121ZM178.817 152.745C178.314 153.255 177.629 153.4 177.294 153.073C176.959 152.745 177.111 152.06 177.621 151.55C178.132 151.039 178.809 150.895 179.144 151.222C179.479 151.55 179.335 152.265 178.817 152.745ZM182.838 153.225C183.31 153.225 183.69 153.804 183.69 154.527C183.69 155.25 183.31 155.837 182.838 155.837C182.365 155.837 181.992 155.25 181.992 154.527C181.992 153.804 182.373 153.225 182.838 153.225Z" fill="#5552FF"/>
<path d="M152.691 166.68C151.828 165.809 151.344 164.632 151.344 163.406C151.344 162.18 151.828 161.003 152.691 160.132L155.63 157.192C156.501 156.325 157.679 155.838 158.908 155.838C160.137 155.838 161.316 156.325 162.186 157.192C163.053 158.062 163.54 159.239 163.54 160.467C163.54 161.694 163.053 162.872 162.186 163.741L159.247 166.68C158.376 167.547 157.198 168.034 155.969 168.034C154.74 168.034 153.561 167.547 152.691 166.68Z" fill="#263238"/>
<path d="M137.827 187.103L155.858 169.071L150.307 163.52L132.276 181.552C132.064 181.762 131.924 182.033 131.875 182.326C131.826 182.62 131.87 182.922 132.001 183.189C132.101 183.382 132.153 183.596 132.153 183.813C132.153 184.031 132.101 184.245 132.001 184.438C131.778 184.846 131.692 185.317 131.758 185.778C131.824 186.239 132.038 186.667 132.367 186.996C132.698 187.325 133.126 187.539 133.588 187.607C134.051 187.674 134.522 187.591 134.933 187.37C135.126 187.27 135.34 187.218 135.558 187.218C135.775 187.218 135.989 187.27 136.182 187.37C136.449 187.505 136.752 187.552 137.048 187.504C137.343 187.456 137.616 187.316 137.827 187.103Z" fill="white"/>
<path d="M133.936 188.413C133.425 188.413 132.923 188.281 132.479 188.03C132.034 187.778 131.663 187.415 131.401 186.977C131.14 186.538 130.996 186.039 130.985 185.529C130.974 185.018 131.096 184.514 131.339 184.065C131.382 183.984 131.404 183.893 131.404 183.802C131.404 183.71 131.382 183.62 131.339 183.539C131.135 183.125 131.065 182.656 131.141 182.2C131.216 181.744 131.431 181.323 131.758 180.996L149.79 162.964C149.861 162.888 149.947 162.827 150.042 162.786C150.138 162.745 150.241 162.723 150.345 162.723C150.45 162.723 150.553 162.745 150.648 162.786C150.744 162.827 150.83 162.888 150.901 162.964L156.445 168.515C156.521 168.587 156.582 168.673 156.623 168.768C156.664 168.864 156.686 168.967 156.686 169.071C156.686 169.175 156.664 169.279 156.623 169.374C156.582 169.47 156.521 169.556 156.445 169.627L138.413 187.659C138.088 187.985 137.668 188.202 137.213 188.277C136.758 188.352 136.291 188.282 135.877 188.078C135.796 188.037 135.706 188.015 135.615 188.015C135.523 188.015 135.434 188.037 135.352 188.078C134.916 188.308 134.429 188.424 133.936 188.413ZM150.33 164.632L132.854 182.108C132.752 182.203 132.684 182.329 132.662 182.467C132.64 182.605 132.665 182.747 132.733 182.869C132.89 183.174 132.972 183.512 132.972 183.855C132.972 184.198 132.89 184.537 132.733 184.841C132.593 185.102 132.541 185.401 132.584 185.694C132.627 185.986 132.764 186.257 132.973 186.466C133.182 186.676 133.453 186.812 133.746 186.855C134.038 186.899 134.337 186.847 134.598 186.707C134.903 186.549 135.241 186.467 135.584 186.467C135.927 186.467 136.266 186.549 136.57 186.707C136.693 186.772 136.834 186.796 136.971 186.774C137.109 186.752 137.235 186.685 137.332 186.585L154.846 169.109L150.33 164.632Z" fill="#5552FF"/>
<path d="M148.838 160.551C149.266 160.125 149.845 159.886 150.448 159.886C151.052 159.886 151.631 160.125 152.059 160.551L158.828 167.32C159.251 167.748 159.489 168.325 159.489 168.927C159.489 169.528 159.251 170.106 158.828 170.533C158.4 170.957 157.823 171.194 157.221 171.194C156.62 171.194 156.042 170.957 155.615 170.533L148.838 163.764C148.414 163.336 148.177 162.759 148.177 162.157C148.177 161.556 148.414 160.978 148.838 160.551Z" fill="#263238"/>
<path d="M235.687 88.2477L223.341 75.9012C222.814 75.3748 221.961 75.3748 221.435 75.9012L215.824 81.5117C215.298 82.0381 215.298 82.8915 215.824 83.4178L228.17 95.7643C228.697 96.2907 229.55 96.2907 230.077 95.7643L235.687 90.1538C236.213 89.6274 236.213 88.774 235.687 88.2477Z" fill="#263238"/>
<path d="M255.711 55.8856L231.145 80.4508L227.003 76.3008C230.59 72.7142 228.526 64.3456 228.526 64.3456L235.341 57.5304C246.367 56.0075 269.608 39.5063 269.608 39.5063L270.369 40.2678L255.772 54.7967C255.695 54.8635 255.632 54.9449 255.588 55.0362C255.543 55.1276 255.517 55.2269 255.511 55.3284C255.506 55.4298 255.52 55.5314 255.555 55.6271C255.589 55.7229 255.642 55.8107 255.711 55.8856Z" fill="#5552FF"/>
<path d="M254.058 76.2703L247.243 83.1235C247.243 83.1235 238.867 81.0371 235.288 84.6465L231.145 80.5041L255.711 55.9389C255.787 56.0063 255.876 56.0576 255.973 56.09C256.069 56.1223 256.171 56.1349 256.273 56.1271C256.374 56.1193 256.473 56.0912 256.564 56.0445C256.654 55.9978 256.734 55.9334 256.799 55.8552L271.359 41.2958L272.12 42.0573C272.12 42.0573 255.604 65.2517 254.058 76.2703Z" fill="#5552FF"/>
<path opacity="0.2" d="M254.058 76.2703L247.243 83.1235C247.243 83.1235 238.867 81.0371 235.288 84.6465L231.145 80.5041L255.711 55.9389C255.787 56.0063 255.876 56.0576 255.973 56.09C256.069 56.1223 256.171 56.1349 256.273 56.1271C256.374 56.1193 256.473 56.0912 256.564 56.0445C256.654 55.9978 256.734 55.9334 256.799 55.8552L271.359 41.2958L272.12 42.0573C272.12 42.0573 255.604 65.2517 254.058 76.2703Z" fill="white"/>
<path d="M274.808 90.5023L274.367 90.0606C277.921 86.5893 280.751 82.4471 282.693 77.8741C284.635 73.3011 285.65 68.3881 285.679 63.42C285.709 58.4518 284.752 53.5272 282.864 48.9315C280.976 44.3358 278.195 40.1605 274.682 36.6474C271.169 33.1343 266.994 30.3534 262.398 28.4657C257.803 26.578 252.878 25.6211 247.91 25.6504C242.942 25.6798 238.029 26.6948 233.456 28.6367C228.883 30.5786 224.74 33.4087 221.269 36.9631L220.827 36.5214C224.357 32.911 228.568 30.0367 233.216 28.065C237.865 26.0933 242.858 25.0633 247.907 25.0348C252.956 25.0063 257.961 25.9797 262.631 27.8988C267.302 29.8178 271.545 32.6444 275.115 36.2147C278.685 39.785 281.512 44.0282 283.431 48.6985C285.35 53.3688 286.323 58.3734 286.295 63.4225C286.266 68.4717 285.236 73.465 283.265 78.1133C281.293 82.7616 278.419 86.9725 274.808 90.5023Z" fill="#5552FF"/>
<path d="M240.913 2.59399L240.471 3.03552L308.321 70.8848L308.762 70.4432L240.913 2.59399Z" fill="#5552FF"/>
<path d="M277.418 36.7362L274.618 33.9363L271.818 36.7362L274.618 39.5361L277.418 36.7362Z" fill="#5552FF"/>
<path d="M274.618 40.047L271.313 36.7422L274.618 33.4374L277.93 36.7422L274.618 40.047ZM272.333 36.7422L274.618 39.0266L276.902 36.7422L274.618 34.4578L272.333 36.7422Z" fill="#5552FF"/>
<path d="M223.874 36.7386L221.074 33.9387L218.274 36.7386L221.074 39.5385L223.874 36.7386Z" fill="white"/>
<path d="M221.079 40.047L217.774 36.7422L221.079 33.4374L224.384 36.7422L221.079 40.047ZM218.794 36.7422L221.079 39.0266L223.363 36.7422L221.079 34.4578L218.794 36.7422Z" fill="#5552FF"/>
<path d="M277.54 90.3942L274.74 87.5942L271.94 90.3942L274.74 93.1941L277.54 90.3942Z" fill="white"/>
<path d="M274.74 93.7005L271.435 90.3957L274.74 87.0909L278.045 90.3957L274.74 93.7005ZM272.455 90.3957L274.74 92.6802L277.024 90.3957L274.74 88.1113L272.455 90.3957Z" fill="#5552FF"/>
<path d="M310.065 72.1814C309.788 72.4579 309.435 72.6462 309.051 72.7223C308.667 72.7984 308.269 72.759 307.907 72.6091C307.546 72.4591 307.237 72.2054 307.019 71.8798C306.802 71.5543 306.686 71.1717 306.686 70.7803C306.686 70.3888 306.802 70.0062 307.019 69.6807C307.237 69.3551 307.546 69.1014 307.907 68.9514C308.269 68.8015 308.667 68.7621 309.051 68.8382C309.435 68.9143 309.788 69.1026 310.065 69.3791C310.435 69.7515 310.642 70.2552 310.642 70.7803C310.642 71.3053 310.435 71.809 310.065 72.1814Z" fill="white"/>
<path d="M308.664 73.118C308.123 73.1182 307.598 72.931 307.18 72.5881C306.762 72.2452 306.476 71.7678 306.37 71.2374C306.264 70.707 306.345 70.1563 306.6 69.6792C306.855 69.2021 307.267 68.8281 307.767 68.6209C308.266 68.4137 308.822 68.3861 309.34 68.5429C309.858 68.6997 310.305 69.0311 310.606 69.4807C310.906 69.9302 311.042 70.4702 310.989 71.0084C310.936 71.5467 310.698 72.05 310.316 72.4326C310.1 72.6504 309.842 72.8231 309.558 72.9408C309.275 73.0584 308.971 73.1186 308.664 73.118ZM308.664 69.1583C308.288 69.1597 307.925 69.291 307.636 69.53C307.347 69.7691 307.15 70.1009 307.078 70.4691C307.006 70.8373 307.064 71.2191 307.241 71.5494C307.419 71.8797 307.706 72.1381 308.053 72.2806C308.4 72.4231 308.786 72.4409 309.145 72.3309C309.504 72.221 309.813 71.99 310.021 71.6775C310.228 71.365 310.321 70.9902 310.283 70.6169C310.245 70.2436 310.079 69.895 309.813 69.6304C309.507 69.328 309.094 69.1584 308.664 69.1583Z" fill="#5552FF"/>
<path d="M242.065 4.2121C241.788 4.48973 241.436 4.67903 241.051 4.75603C240.667 4.83303 240.269 4.79426 239.906 4.64463C239.544 4.49501 239.235 4.24125 239.017 3.91551C238.799 3.58976 238.682 3.20669 238.682 2.8148C238.682 2.4229 238.799 2.03983 239.017 1.71408C239.235 1.38834 239.544 1.13458 239.906 0.984956C240.269 0.835328 240.667 0.796553 241.051 0.873552C241.436 0.950551 241.788 1.13986 242.065 1.41749C242.435 1.78856 242.642 2.29101 242.642 2.8148C242.642 3.33858 242.435 3.84103 242.065 4.2121Z" fill="white"/>
<path d="M240.694 5.14872C240.232 5.14872 239.78 5.01161 239.396 4.75474C239.011 4.49787 238.711 4.13277 238.535 3.7056C238.358 3.27844 238.311 2.8084 238.401 2.35493C238.492 1.90145 238.714 1.48491 239.041 1.15797C239.368 0.831035 239.785 0.608387 240.238 0.518185C240.692 0.427984 241.162 0.474282 241.589 0.651219C242.016 0.828156 242.381 1.12779 242.638 1.51222C242.895 1.89666 243.032 2.34864 243.032 2.811C243.035 3.11836 242.976 3.42314 242.858 3.70707C242.74 3.991 242.566 4.24824 242.347 4.46339C242.132 4.68292 241.874 4.85677 241.59 4.97453C241.306 5.09228 241.002 5.15153 240.694 5.14872ZM240.694 1.18905C240.482 1.18902 240.271 1.23144 240.075 1.31381C239.879 1.39619 239.701 1.51687 239.552 1.66879C239.293 1.9797 239.159 2.37634 239.177 2.78077C239.196 3.1852 239.365 3.56818 239.651 3.85444C239.937 4.14071 240.32 4.30958 240.725 4.32785C241.129 4.34612 241.526 4.21249 241.837 3.95321C241.988 3.80263 242.109 3.62352 242.191 3.42619C242.274 3.22886 242.316 3.0172 242.316 2.80338C242.312 2.37314 242.139 1.96176 241.834 1.65823C241.529 1.3547 241.117 1.18342 240.687 1.18144L240.694 1.18905Z" fill="#5552FF"/>
<path d="M86.0844 42.9253H55.7473V167.419H86.0844V42.9253Z" fill="#5552FF"/>
<path opacity="0.7" d="M86.0844 42.9253H55.7473V167.419H86.0844V42.9253Z" fill="white"/>
<path opacity="0.3" d="M83.823 48.8573H58.0166V60.7135H83.823V48.8573Z" fill="#263238"/>
<path opacity="0.416667" d="M83.823 63.1959H58.0166V75.0521H83.823V63.1959Z" fill="#263238"/>
<path opacity="0.533333" d="M83.823 77.5344H58.0166V89.3906H83.823V77.5344Z" fill="#263238"/>
<path opacity="0.65" d="M83.823 91.8807H58.0166V103.737H83.823V91.8807Z" fill="#263238"/>
<path opacity="0.766667" d="M83.823 106.219H58.0166V118.075H83.823V106.219Z" fill="#263238"/>
<path opacity="0.883333" d="M83.823 120.558H58.0166V132.414H83.823V120.558Z" fill="#263238"/>
<path d="M83.823 134.904H58.0166V146.76H83.823V134.904Z" fill="#263238"/>
<path d="M64.6937 50.3309L34.8083 55.5468L56.2124 178.186L86.0978 172.97L64.6937 50.3309Z" fill="#5552FF"/>
<path opacity="0.8" d="M64.6937 50.3309L34.8083 55.5468L56.2124 178.186L86.0978 172.97L64.6937 50.3309Z" fill="white"/>
<path d="M63.4842 56.5573L38.0621 60.9941L40.1006 72.6738L65.5226 68.2369L63.4842 56.5573Z" fill="#5552FF"/>
<path d="M65.9533 70.6875L40.5312 75.1244L42.5697 86.804L67.9917 82.3671L65.9533 70.6875Z" fill="#5552FF"/>
<path d="M68.4213 84.818L42.9993 89.2549L45.0377 100.934L70.4598 96.4976L68.4213 84.818Z" fill="#5552FF"/>
<path d="M70.8818 98.9422L45.4597 103.379L47.4981 115.059L72.9202 110.622L70.8818 98.9422Z" fill="#5552FF"/>
<path d="M73.351 113.072L47.929 117.509L49.9674 129.189L75.3894 124.752L73.351 113.072Z" fill="#5552FF"/>
<path d="M76.0322 128.316L50.4839 132.703L52.4994 144.441L78.0477 140.054L76.0322 128.316Z" fill="#5552FF"/>
<path d="M78.2795 141.319L52.8574 145.756L54.8958 157.436L80.3179 152.999L78.2795 141.319Z" fill="#5552FF"/>
<path opacity="0.05" d="M63.4842 56.5573L38.0621 60.9941L40.1006 72.6738L65.5226 68.2369L63.4842 56.5573Z" fill="black"/>
<path opacity="0.1" d="M65.9533 70.6875L40.5312 75.1244L42.5697 86.804L67.9917 82.3671L65.9533 70.6875Z" fill="black"/>
<path opacity="0.2" d="M68.4213 84.818L42.9993 89.2549L45.0377 100.934L70.4598 96.4976L68.4213 84.818Z" fill="black"/>
<path opacity="0.3" d="M70.8818 98.9422L45.4597 103.379L47.4981 115.059L72.9202 110.622L70.8818 98.9422Z" fill="black"/>
<path opacity="0.4" d="M73.351 113.072L47.929 117.509L49.9674 129.189L75.3894 124.752L73.351 113.072Z" fill="black"/>
<path opacity="0.5" d="M76.0322 128.316L50.4839 132.703L52.4994 144.441L78.0477 140.054L76.0322 128.316Z" fill="black"/>
<path opacity="0.6" d="M78.2795 141.319L52.8574 145.756L54.8958 157.436L80.3179 152.999L78.2795 141.319Z" fill="black"/>
<path d="M43.7218 61.4757L15.1962 71.8019L57.5712 188.862L86.0968 178.535L43.7218 61.4757Z" fill="#5552FF"/>
<path opacity="0.9" d="M43.7218 61.4757L15.1962 71.8019L57.5712 188.862L86.0968 178.535L43.7218 61.4757Z" fill="white"/>
<path d="M43.6112 67.8157L19.3458 76.5996L23.3814 87.7478L47.6468 78.9638L43.6112 67.8157Z" fill="#5552FF"/>
<path d="M48.4962 81.3021L24.2308 90.0861L28.2664 101.234L52.5318 92.4503L48.4962 81.3021Z" fill="#5552FF"/>
<path d="M53.3667 94.7908L29.1013 103.575L33.1369 114.723L57.4023 105.939L53.3667 94.7908Z" fill="#5552FF"/>
<path d="M58.2517 108.277L33.9863 117.061L38.0219 128.209L62.2873 119.425L58.2517 108.277Z" fill="#5552FF"/>
<path d="M63.1369 121.756L38.8715 130.54L42.9071 141.688L67.1725 132.904L63.1369 121.756Z" fill="#5552FF"/>
<path d="M68.0143 135.242L43.7489 144.026L47.7845 155.174L72.0499 146.39L68.0143 135.242Z" fill="#5552FF"/>
<path d="M72.8996 148.728L48.6342 157.512L52.6697 168.66L76.9352 159.876L72.8996 148.728Z" fill="#5552FF"/>
<path opacity="0.6" d="M43.6112 67.8157L19.3458 76.5996L23.3814 87.7478L47.6468 78.9638L43.6112 67.8157Z" fill="white"/>
<path opacity="0.5" d="M48.4962 81.3021L24.2308 90.0861L28.2664 101.234L52.5318 92.4503L48.4962 81.3021Z" fill="white"/>
<path opacity="0.4" d="M53.3667 94.7908L29.1013 103.575L33.1369 114.723L57.4023 105.939L53.3667 94.7908Z" fill="white"/>
<path opacity="0.3" d="M58.2517 108.277L33.9863 117.061L38.0219 128.209L62.2873 119.425L58.2517 108.277Z" fill="white"/>
<path opacity="0.2" d="M63.1369 121.756L38.8715 130.54L42.9071 141.688L67.1725 132.904L63.1369 121.756Z" fill="white"/>
<path opacity="0.1" d="M68.0143 135.242L43.7489 144.026L47.7845 155.174L72.0499 146.39L68.0143 135.242Z" fill="white"/>
</svg>
