<svg width="311" height="298" viewBox="0 0 311 298" fill="none" xmlns="http://www.w3.org/2000/svg">
<path d="M206.936 14.9402C173.432 1.04418 132.6 -4.31582 101.992 18.9402C73.3919 40.6682 78.6239 70.9402 61.4399 98.2042C45.1679 123.988 14.7439 131.436 33.0079 167.588C45.4959 192.308 85.3919 209.588 109.4 219.756C178.264 248.932 230.464 226.348 267.216 162.764C294.8 115.02 257.432 35.8922 206.936 14.9402Z" fill="#D4D4FF"/>
<path opacity="0.8" d="M206.936 14.9402C173.432 1.04418 132.6 -4.31582 101.992 18.9402C73.3919 40.6682 78.6239 70.9402 61.4399 98.2042C45.1679 123.988 14.7439 131.436 33.0079 167.588C45.4959 192.308 85.3919 209.588 109.4 219.756C178.264 248.932 230.464 226.348 267.216 162.764C294.8 115.02 257.432 35.8922 206.936 14.9402Z" fill="#D4D4FF"/>
<path d="M155.216 290.796C240.882 290.796 310.328 286.742 310.328 281.74C310.328 276.739 240.882 272.684 155.216 272.684C69.55 272.684 0.104004 276.739 0.104004 281.74C0.104004 286.742 69.55 290.796 155.216 290.796Z" fill="#F5F5F5"/>
<path d="M73.5697 39.015C76.7377 35.8471 76.7377 30.7108 73.5697 27.5429C70.4018 24.375 65.2656 24.3749 62.0976 27.5429C58.9297 30.7108 58.9297 35.8471 62.0976 39.015C65.2656 42.1829 70.4018 42.1829 73.5697 39.015Z" fill="#5552FF"/>
<path opacity="0.1" d="M73.5697 39.015C76.7377 35.8471 76.7377 30.7108 73.5697 27.5429C70.4018 24.375 65.2656 24.3749 62.0976 27.5429C58.9297 30.7108 58.9297 35.8471 62.0976 39.015C65.2656 42.1829 70.4018 42.1829 73.5697 39.015Z" fill="white"/>
<path d="M82.3892 156.295C86.7421 155.235 89.4112 150.847 88.3509 146.494C87.2906 142.141 82.9024 139.472 78.5495 140.532C74.1967 141.593 71.5275 145.981 72.5878 150.334C73.6481 154.687 78.0364 157.356 82.3892 156.295Z" fill="#5552FF"/>
<path opacity="0.2" d="M82.3892 156.295C86.7421 155.235 89.4112 150.847 88.3509 146.494C87.2906 142.141 82.9024 139.472 78.5495 140.532C74.1967 141.593 71.5275 145.981 72.5878 150.334C73.6481 154.687 78.0364 157.356 82.3892 156.295Z" fill="#5552FF"/>
<g opacity="0.1">
<path d="M82.3892 156.295C86.7421 155.235 89.4112 150.847 88.3509 146.494C87.2906 142.141 82.9024 139.472 78.5495 140.532C74.1967 141.593 71.5275 145.981 72.5878 150.334C73.6481 154.687 78.0364 157.356 82.3892 156.295Z" fill="white"/>
<path opacity="0.2" d="M82.3892 156.295C86.7421 155.235 89.4112 150.847 88.3509 146.494C87.2906 142.141 82.9024 139.472 78.5495 140.532C74.1967 141.593 71.5275 145.981 72.5878 150.334C73.6481 154.687 78.0364 157.356 82.3892 156.295Z" fill="white"/>
</g>
<path d="M205.022 40.4494C208.98 36.491 208.98 30.0732 205.022 26.1149C201.063 22.1565 194.646 22.1565 190.687 26.1149C186.729 30.0732 186.729 36.491 190.687 40.4493C194.646 44.4077 201.063 44.4077 205.022 40.4494Z" fill="#5552FF"/>
<path opacity="0.2" d="M205.022 40.4494C208.98 36.491 208.98 30.0732 205.022 26.1149C201.063 22.1565 194.646 22.1565 190.687 26.1149C186.729 30.0732 186.729 36.491 190.687 40.4493C194.646 44.4077 201.063 44.4077 205.022 40.4494Z" fill="#5552FF"/>
<g opacity="0.1">
<path d="M205.022 40.4493C208.98 36.491 208.98 30.0732 205.022 26.1148C201.063 22.1565 194.646 22.1565 190.687 26.1148C186.729 30.0732 186.729 36.491 190.687 40.4493C194.646 44.4077 201.063 44.4077 205.022 40.4493Z" fill="white"/>
<path opacity="0.2" d="M205.022 40.4493C208.98 36.491 208.98 30.0732 205.022 26.1148C201.063 22.1565 194.646 22.1565 190.687 26.1148C186.729 30.0732 186.729 36.491 190.687 40.4493C194.646 44.4077 201.063 44.4077 205.022 40.4493Z" fill="white"/>
</g>
<path d="M240.968 43.4122C246.009 43.4122 250.096 39.3254 250.096 34.2842C250.096 29.2429 246.009 25.1562 240.968 25.1562C235.927 25.1562 231.84 29.2429 231.84 34.2842C231.84 39.3254 235.927 43.4122 240.968 43.4122Z" fill="#5552FF"/>
<path opacity="0.2" d="M240.968 43.4122C246.009 43.4122 250.096 39.3254 250.096 34.2842C250.096 29.2429 246.009 25.1562 240.968 25.1562C235.927 25.1562 231.84 29.2429 231.84 34.2842C231.84 39.3254 235.927 43.4122 240.968 43.4122Z" fill="#5552FF"/>
<g opacity="0.3">
<path d="M240.968 43.4122C246.009 43.4122 250.096 39.3254 250.096 34.2842C250.096 29.2429 246.009 25.1562 240.968 25.1562C235.927 25.1562 231.84 29.2429 231.84 34.2842C231.84 39.3254 235.927 43.4122 240.968 43.4122Z" fill="white"/>
<path opacity="0.2" d="M240.968 43.4122C246.009 43.4122 250.096 39.3254 250.096 34.2842C250.096 29.2429 246.009 25.1562 240.968 25.1562C235.927 25.1562 231.84 29.2429 231.84 34.2842C231.84 39.3254 235.927 43.4122 240.968 43.4122Z" fill="white"/>
</g>
<path d="M90.3101 71.6269C96.78 67.9976 99.0828 59.8106 95.4535 53.3408C91.8243 46.8709 83.6373 44.5681 77.1674 48.1973C70.6975 51.8266 68.3947 60.0135 72.024 66.4834C75.6532 72.9533 83.8402 75.2561 90.3101 71.6269Z" fill="#5552FF"/>
<path opacity="0.2" d="M90.3101 71.6269C96.78 67.9976 99.0828 59.8106 95.4535 53.3408C91.8243 46.8709 83.6373 44.5681 77.1674 48.1973C70.6975 51.8266 68.3947 60.0135 72.024 66.4834C75.6532 72.9533 83.8402 75.2561 90.3101 71.6269Z" fill="#5552FF"/>
<g opacity="0.3">
<path d="M90.3101 71.6268C96.78 67.9976 99.0828 59.8106 95.4535 53.3407C91.8243 46.8708 83.6373 44.568 77.1674 48.1973C70.6975 51.8265 68.3947 60.0135 72.024 66.4834C75.6532 72.9533 83.8402 75.2561 90.3101 71.6268Z" fill="white"/>
<path opacity="0.2" d="M90.3101 71.6268C96.78 67.9976 99.0828 59.8106 95.4535 53.3407C91.8243 46.8708 83.6373 44.568 77.1674 48.1973C70.6975 51.8265 68.3947 60.0135 72.024 66.4834C75.6532 72.9533 83.8402 75.2561 90.3101 71.6268Z" fill="white"/>
</g>
<path d="M134.24 12.7852C135.351 8.44485 132.732 4.02616 128.392 2.91578C124.052 1.80541 119.633 4.42382 118.522 8.76417C117.412 13.1045 120.031 17.5232 124.371 18.6336C128.711 19.744 133.13 17.1256 134.24 12.7852Z" fill="#5552FF"/>
<path opacity="0.2" d="M134.24 12.7852C135.351 8.44485 132.732 4.02616 128.392 2.91578C124.052 1.80541 119.633 4.42382 118.522 8.76417C117.412 13.1045 120.031 17.5232 124.371 18.6336C128.711 19.744 133.13 17.1256 134.24 12.7852Z" fill="#5552FF"/>
<g opacity="0.3">
<path d="M134.24 12.7852C135.35 8.44482 132.732 4.02613 128.392 2.91575C124.051 1.80538 119.633 4.42379 118.522 8.76414C117.412 13.1045 120.03 17.5232 124.371 18.6336C128.711 19.7439 133.13 17.1255 134.24 12.7852Z" fill="white"/>
<path opacity="0.2" d="M134.24 12.7852C135.35 8.44482 132.732 4.02613 128.392 2.91575C124.051 1.80538 119.633 4.42379 118.522 8.76414C117.412 13.1045 120.03 17.5232 124.371 18.6336C128.711 19.7439 133.13 17.1255 134.24 12.7852Z" fill="white"/>
</g>
<path d="M79.8095 109.683C85.055 104.438 85.055 95.9333 79.8095 90.6877C74.564 85.4422 66.0593 85.4422 60.8138 90.6878C55.5683 95.9333 55.5683 104.438 60.8138 109.683C66.0593 114.929 74.564 114.929 79.8095 109.683Z" fill="#5552FF"/>
<path opacity="0.1" d="M79.8095 109.683C85.055 104.438 85.055 95.9333 79.8095 90.6877C74.564 85.4422 66.0593 85.4422 60.8138 90.6878C55.5683 95.9333 55.5683 104.438 60.8138 109.683C66.0593 114.929 74.564 114.929 79.8095 109.683Z" fill="white"/>
<path d="M178.016 21.8602C182.496 21.8602 186.128 18.2283 186.128 13.7482C186.128 9.26802 182.496 5.63615 178.016 5.63615C173.536 5.63615 169.904 9.26802 169.904 13.7482C169.904 18.2283 173.536 21.8602 178.016 21.8602Z" fill="#5552FF"/>
<path opacity="0.1" d="M178.016 21.8602C182.496 21.8602 186.128 18.2283 186.128 13.7482C186.128 9.26802 182.496 5.63615 178.016 5.63615C173.536 5.63615 169.904 9.26802 169.904 13.7482C169.904 18.2283 173.536 21.8602 178.016 21.8602Z" fill="white"/>
<path d="M166.764 30.375C168.533 23.1708 164.128 15.8962 156.924 14.1267C149.72 12.3572 142.445 16.7629 140.675 23.967C138.906 31.1712 143.312 38.4458 150.516 40.2153C157.72 41.9848 164.994 37.5791 166.764 30.375Z" fill="#5552FF"/>
<path opacity="0.1" d="M166.764 30.375C168.533 23.1708 164.128 15.8962 156.924 14.1267C149.72 12.3572 142.445 16.7629 140.675 23.967C138.906 31.1712 143.312 38.4458 150.516 40.2153C157.72 41.9848 164.994 37.5791 166.764 30.375Z" fill="white"/>
<path d="M63.6873 144.265C65.38 137.042 60.8971 129.815 53.6745 128.122C46.452 126.43 39.2247 130.912 37.532 138.135C35.8393 145.358 40.3221 152.585 47.5447 154.278C54.7673 155.97 61.9946 151.487 63.6873 144.265Z" fill="#5552FF"/>
<path opacity="0.4" d="M63.6873 144.265C65.38 137.042 60.8971 129.815 53.6745 128.122C46.452 126.43 39.2247 130.912 37.532 138.135C35.8393 145.358 40.3221 152.585 47.5447 154.278C54.7673 155.97 61.9946 151.487 63.6873 144.265Z" fill="black"/>
<path d="M226.581 19.5995C227.606 15.2381 224.901 10.8718 220.539 9.84728C216.178 8.82272 211.812 11.5278 210.787 15.8892C209.763 20.2506 212.468 24.6168 216.829 25.6413C221.191 26.6659 225.557 23.9609 226.581 19.5995Z" fill="#5552FF"/>
<path opacity="0.4" d="M226.581 19.5995C227.606 15.2381 224.901 10.8718 220.539 9.84728C216.178 8.82272 211.812 11.5278 210.787 15.8892C209.763 20.2506 212.468 24.6168 216.829 25.6413C221.191 26.6659 225.557 23.9609 226.581 19.5995Z" fill="black"/>
<path d="M55.2485 74.0993C59.2069 70.141 59.2069 63.7232 55.2485 59.7649C51.2902 55.8065 44.8724 55.8065 40.9141 59.7649C36.9557 63.7232 36.9557 70.141 40.9141 74.0993C44.8724 78.0577 51.2902 78.0577 55.2485 74.0993Z" fill="#5552FF"/>
<path opacity="0.4" d="M55.2485 74.0993C59.2069 70.141 59.2069 63.7232 55.2485 59.7649C51.2902 55.8065 44.8724 55.8065 40.9141 59.7649C36.9557 63.7232 36.9557 70.141 40.9141 74.0993C44.8724 78.0577 51.2902 78.0577 55.2485 74.0993Z" fill="black"/>
<path d="M57.0397 142.908C57.8263 142.121 58.3685 141.124 58.6011 140.036C58.8337 138.948 58.7468 137.816 58.3508 136.777C57.9548 135.737 57.2666 134.834 56.3692 134.177C55.4717 133.52 54.4034 133.136 53.2927 133.072C52.1821 133.008 51.0767 133.266 50.1096 133.816C49.1426 134.366 48.3551 135.184 47.8422 136.171C47.3293 137.158 47.1129 138.272 47.2189 139.38C47.3249 140.487 47.7489 141.54 48.4397 142.412C48.0477 142.716 47.6397 143.028 47.2957 143.348C46.7597 143.804 46.2317 144.276 45.6957 144.748C45.1597 145.22 44.6637 145.708 44.1597 146.204L43.3597 146.94C43.2252 147.061 43.1164 147.208 43.0397 147.372C42.9962 147.46 42.9665 147.555 42.9517 147.652C42.9344 147.766 42.9344 147.882 42.9517 147.996C42.9713 148.202 43.0618 148.394 43.2078 148.54C43.3538 148.686 43.5462 148.777 43.7517 148.796C43.8687 148.809 43.9868 148.809 44.1037 148.796C44.1998 148.773 44.2935 148.74 44.3837 148.7C44.5441 148.621 44.688 148.513 44.8077 148.38L45.5517 147.628C46.0397 147.124 46.5197 146.604 46.9997 146.092C47.4797 145.58 47.9437 145.036 48.3997 144.492C48.7197 144.116 49.0317 143.74 49.3357 143.356C50.4484 144.246 51.8512 144.693 53.2737 144.61C54.6962 144.528 56.0377 143.921 57.0397 142.908ZM49.7437 142.052C49.0991 141.417 48.658 140.605 48.4765 139.718C48.2949 138.832 48.3812 137.912 48.7243 137.074C49.0674 136.237 49.6518 135.521 50.4032 135.017C51.1546 134.513 52.0389 134.244 52.9437 134.244C53.8485 134.244 54.7329 134.513 55.4843 135.017C56.2356 135.521 56.8201 136.237 57.1632 137.074C57.5063 137.912 57.5925 138.832 57.411 139.718C57.2295 140.605 56.7883 141.417 56.1437 142.052C55.2916 142.894 54.1418 143.367 52.9437 143.367C51.7456 143.367 50.5958 142.894 49.7437 142.052Z" fill="white"/>
<path d="M245.064 35.5962C245.584 35.0758 245.943 34.4159 246.097 33.6961C246.252 32.9764 246.194 32.2274 245.932 31.5395C245.67 30.8516 245.215 30.2541 244.621 29.8191C244.027 29.3841 243.321 29.1301 242.586 29.0877C241.851 29.0453 241.119 29.2164 240.48 29.5803C239.84 29.9441 239.319 30.4853 238.979 31.1386C238.64 31.7918 238.497 32.5292 238.567 33.2619C238.638 33.9946 238.919 34.6914 239.376 35.2682C239.12 35.4682 238.872 35.6682 238.624 35.8842C238.376 36.1002 237.912 36.4922 237.568 36.8042L236.552 37.7642C236.384 37.9242 236.224 38.0922 236.056 38.2602C235.967 38.3371 235.896 38.4327 235.848 38.5402C235.784 38.6691 235.757 38.8128 235.768 38.9562C235.779 39.0947 235.839 39.2247 235.937 39.323C236.035 39.4212 236.165 39.4812 236.304 39.4922C236.381 39.5047 236.459 39.5047 236.536 39.4922L236.72 39.4282C236.826 39.3775 236.921 39.3069 237 39.2202L237.488 38.7162C237.816 38.3882 238.136 38.0442 238.448 37.7002C238.76 37.3562 239.072 37.0122 239.376 36.6522C239.68 36.2922 239.792 36.1562 239.992 35.9002C240.728 36.4794 241.651 36.7684 242.586 36.7124C243.52 36.6563 244.402 36.2592 245.064 35.5962ZM240.264 35.0202C239.845 34.5989 239.559 34.0629 239.445 33.4798C239.33 32.8967 239.39 32.2926 239.618 31.7438C239.846 31.195 240.232 30.7261 240.726 30.3962C241.22 30.0663 241.801 29.8902 242.396 29.8902C242.99 29.8902 243.571 30.0663 244.065 30.3962C244.56 30.7261 244.945 31.195 245.173 31.7438C245.402 32.2926 245.462 32.8967 245.347 33.4798C245.232 34.0629 244.947 34.5989 244.528 35.0202C244.248 35.3058 243.914 35.5328 243.545 35.6877C243.176 35.8426 242.78 35.9224 242.38 35.9224C241.98 35.9224 241.584 35.8426 241.215 35.6877C240.846 35.5328 240.512 35.3058 240.232 35.0202H240.264Z" fill="white"/>
<path d="M71.6399 34.4922C72.1241 34.0076 72.4579 33.3933 72.601 32.7233C72.744 32.0534 72.6903 31.3563 72.4463 30.7162C72.2023 30.0761 71.7783 29.5202 71.2256 29.1155C70.6728 28.7108 70.0148 28.4746 69.3309 28.4353C68.6469 28.3961 67.9662 28.5554 67.3708 28.8942C66.7753 29.233 66.2906 29.7367 65.9749 30.3447C65.6592 30.9527 65.5261 31.639 65.5916 32.321C65.657 33.0029 65.9183 33.6513 66.3439 34.1882C66.1039 34.3722 65.8719 34.5642 65.6399 34.7642C65.4079 34.9642 64.9839 35.3322 64.6639 35.6282C64.3439 35.9242 64.0239 36.2202 63.7119 36.5162C63.5599 36.6682 63.4079 36.8282 63.2479 36.9802C63.1691 37.0533 63.104 37.14 63.0559 37.2362C63.0289 37.2919 63.0101 37.3511 62.9999 37.4122C62.987 37.4836 62.987 37.5567 62.9999 37.6282C63.0075 37.7572 63.0622 37.879 63.1536 37.9704C63.2451 38.0619 63.3668 38.1166 63.4959 38.1242C63.5673 38.1371 63.6405 38.1371 63.7119 38.1242C63.7729 38.114 63.8322 38.0951 63.8879 38.0682C63.9841 38.0201 64.0708 37.955 64.1439 37.8762L64.6079 37.4122C64.9039 37.1002 65.2079 36.7802 65.4959 36.4602C65.7839 36.1402 66.0799 35.8122 66.3599 35.4842C66.6399 35.1562 66.7519 35.0202 66.9359 34.7802C67.619 35.3171 68.4755 35.5845 69.3427 35.5314C70.2099 35.4783 71.0274 35.1084 71.6399 34.4922ZM67.1439 33.9642C66.7553 33.5698 66.4919 33.0695 66.3869 32.5259C66.2819 31.9823 66.3399 31.4198 66.5536 30.9091C66.7673 30.3984 67.1273 29.9623 67.5881 29.6556C68.049 29.3488 68.5903 29.1852 69.1439 29.1852C69.6975 29.1852 70.2388 29.3488 70.6997 29.6556C71.1606 29.9623 71.5205 30.3984 71.7342 30.9091C71.9479 31.4198 72.0059 31.9823 71.9009 32.5259C71.7959 33.0695 71.5325 33.5698 71.1439 33.9642C70.8827 34.2293 70.5713 34.4398 70.2279 34.5835C69.8846 34.7272 69.5161 34.8012 69.1439 34.8012C68.7717 34.8012 68.4032 34.7272 68.0599 34.5835C67.7165 34.4398 67.4052 34.2293 67.1439 33.9642Z" fill="white"/>
<path d="M74.8159 96.2442C74.8304 96.1565 74.8166 96.0665 74.7762 95.9873C74.7359 95.9082 74.6713 95.844 74.5919 95.8042C73.7041 95.4281 72.748 95.2401 71.7839 95.2522C70.131 95.2564 68.5471 95.9154 67.3791 97.085C66.211 98.2545 65.554 99.8392 65.5519 101.492C65.5519 103.788 67.0879 104.988 68.6079 104.988C69.241 104.999 69.8678 104.86 70.4366 104.582C71.0054 104.304 71.5001 103.895 71.8799 103.388C71.9759 103.735 72.1543 104.053 72.3999 104.316C72.6089 104.527 72.8584 104.693 73.1334 104.804C73.4085 104.916 73.7032 104.97 73.9999 104.964C76.3999 104.964 78.7999 102.812 78.7999 98.7082C78.8458 97.705 78.6814 96.7033 78.3172 95.7675C77.953 94.8316 77.3971 93.9823 76.6851 93.2741C75.9731 92.5659 75.1209 92.0145 74.1831 91.6552C73.2454 91.296 72.2428 91.1369 71.2399 91.1882C65.8879 91.1882 61.8479 95.4282 61.8479 101.044C61.8479 105.732 65.1519 109.132 69.7119 109.132C71.2976 109.182 72.8698 108.827 74.2799 108.1C74.3657 108.054 74.4317 107.978 74.4656 107.887C74.4995 107.796 74.4989 107.695 74.4639 107.604L74.0719 106.548C74.0523 106.494 74.0216 106.445 73.9816 106.403C73.9416 106.362 73.8933 106.33 73.8399 106.308C73.7876 106.283 73.7301 106.269 73.6719 106.269C73.6137 106.269 73.5562 106.283 73.5039 106.308C72.4148 106.862 71.2054 107.137 69.9839 107.108C66.4319 107.108 64.0479 104.596 64.0479 100.86C64.0479 96.3482 66.9919 93.0842 71.0399 93.0842C74.4719 93.0842 76.6399 95.2762 76.6399 98.8122C76.7251 100.124 76.2977 101.417 75.4479 102.42C75.1722 102.715 74.7949 102.896 74.3919 102.924C74.3309 102.928 74.2698 102.917 74.2141 102.892C74.1583 102.867 74.1095 102.828 74.0719 102.78C73.9359 102.604 73.7439 102.1 74.0319 100.636L74.8159 96.2442ZM71.4879 97.3562C71.7563 97.3536 72.0243 97.3778 72.2879 97.4282L71.8399 99.8282C71.5919 101.22 70.3919 102.844 69.2239 102.844C68.0559 102.844 68.0159 101.94 68.0159 101.388C68.0159 99.2042 69.6159 97.3562 71.4879 97.3562Z" fill="white"/>
<path d="M180.744 11.3642C180.756 11.3112 180.749 11.2558 180.724 11.2076C180.699 11.1593 180.658 11.1213 180.608 11.1002C180.072 10.8706 179.495 10.7562 178.912 10.7642C177.911 10.7663 176.952 11.1648 176.244 11.8725C175.537 12.5802 175.138 13.5394 175.136 14.5402C175.109 14.8024 175.137 15.0673 175.217 15.3184C175.297 15.5696 175.428 15.8017 175.601 16.0003C175.774 16.199 175.986 16.3601 176.224 16.4736C176.462 16.5871 176.721 16.6506 176.984 16.6602C177.367 16.6712 177.746 16.5906 178.091 16.425C178.437 16.2594 178.737 16.0136 178.968 15.7082C179.026 15.9172 179.133 16.1092 179.28 16.2682C179.407 16.3969 179.559 16.4982 179.727 16.5656C179.895 16.633 180.075 16.6652 180.256 16.6602C181.696 16.6602 183.152 15.3562 183.152 12.8682C183.177 12.2609 183.075 11.6551 182.854 11.0893C182.632 10.5235 182.294 10.0102 181.863 9.58193C181.432 9.15369 180.916 8.81998 180.349 8.60205C179.781 8.38413 179.175 8.28677 178.568 8.31618C177.797 8.31751 177.035 8.47492 176.327 8.7789C175.619 9.08288 174.98 9.52713 174.449 10.0849C173.917 10.6426 173.504 11.3022 173.235 12.0239C172.965 12.7457 172.844 13.5145 172.88 14.2842C172.854 14.9191 172.957 15.5527 173.184 16.1462C173.411 16.7397 173.757 17.2806 174.201 17.7359C174.644 18.1912 175.175 18.5513 175.763 18.7941C176.35 19.0369 176.981 19.1574 177.616 19.1482C178.577 19.1813 179.53 18.9664 180.384 18.5242C180.437 18.4982 180.478 18.4536 180.5 18.399C180.522 18.3445 180.524 18.2836 180.504 18.2282L180.264 17.5882C180.252 17.5548 180.234 17.5245 180.209 17.4995C180.184 17.4746 180.153 17.4556 180.12 17.4442C180.089 17.4287 180.055 17.4206 180.02 17.4206C179.985 17.4206 179.951 17.4287 179.92 17.4442C179.259 17.7793 178.525 17.9468 177.784 17.9322C177.292 17.9474 176.801 17.8584 176.346 17.671C175.89 17.4836 175.479 17.202 175.14 16.8447C174.801 16.4874 174.541 16.0625 174.378 15.5978C174.214 15.1331 174.151 14.6391 174.192 14.1482C174.192 11.4202 175.976 9.44418 178.424 9.44418C178.881 9.41851 179.339 9.49131 179.765 9.65766C180.192 9.82401 180.578 10.08 180.898 10.4084C181.217 10.7368 181.462 11.1299 181.616 11.5612C181.77 11.9924 181.83 12.4518 181.792 12.9082C181.844 13.7019 181.586 14.4849 181.072 15.0922C180.991 15.1826 180.892 15.2561 180.782 15.3083C180.672 15.3604 180.553 15.3903 180.432 15.3962C180.396 15.3994 180.359 15.3937 180.326 15.3798C180.293 15.3659 180.263 15.344 180.24 15.3162C180.152 15.2122 180.04 14.9002 180.24 14.0122L180.744 11.3642ZM178.736 12.0362C178.892 12.0359 179.047 12.052 179.2 12.0842L178.928 13.5482C178.776 14.3962 178.056 15.3802 177.328 15.3802C176.6 15.3802 176.584 14.8202 176.584 14.4922C176.551 13.8828 176.757 13.2847 177.159 12.8257C177.562 12.3667 178.127 12.0833 178.736 12.0362Z" fill="white"/>
<path d="M241.133 61.8967C242.85 54.6798 238.391 47.4377 231.174 45.721C223.957 44.0044 216.715 48.4632 214.998 55.6801C213.282 62.8971 217.741 70.1392 224.958 71.8558C232.174 73.5725 239.417 69.1136 241.133 61.8967Z" fill="#5552FF"/>
<path opacity="0.5" d="M241.133 61.8967C242.85 54.6798 238.391 47.4377 231.174 45.721C223.957 44.0044 216.715 48.4632 214.998 55.6801C213.282 62.8971 217.741 70.1392 224.958 71.8558C232.174 73.5725 239.417 69.1136 241.133 61.8967Z" fill="black"/>
<path d="M232.576 54.8522C232.595 54.7643 232.583 54.6726 232.542 54.5925C232.501 54.5124 232.434 54.4487 232.352 54.4122C231.464 54.0352 230.508 53.8472 229.544 53.8602C227.889 53.8623 226.304 54.5204 225.134 55.6902C223.964 56.8599 223.306 58.4459 223.304 60.1002C223.304 62.4042 224.848 63.6042 226.368 63.6042C227.002 63.6168 227.631 63.4782 228.201 63.2C228.771 62.9218 229.267 62.5119 229.648 62.0042C229.738 62.3515 229.914 62.6706 230.16 62.9322C230.369 63.1429 230.618 63.3089 230.893 63.4203C231.168 63.5317 231.463 63.5861 231.76 63.5802C234.16 63.5802 236.56 61.4282 236.56 57.3162C236.607 56.3116 236.443 55.3084 236.079 54.371C235.715 53.4336 235.158 52.5829 234.445 51.8737C233.732 51.1645 232.879 50.6125 231.939 50.2533C231 49.8941 229.996 49.7357 228.992 49.7882C223.632 49.7882 219.592 54.0362 219.592 59.6602C219.592 64.3482 222.896 67.7482 227.464 67.7482C229.049 67.7982 230.622 67.443 232.032 66.7162C232.12 66.6743 232.188 66.6006 232.224 66.51C232.26 66.4195 232.26 66.3187 232.224 66.2282L231.832 65.1642C231.812 65.1099 231.78 65.0609 231.738 65.0207C231.697 64.9806 231.647 64.9503 231.592 64.9322C231.539 64.9083 231.482 64.896 231.424 64.896C231.366 64.896 231.309 64.9083 231.256 64.9322C230.165 65.4879 228.952 65.7628 227.728 65.7322C224.184 65.7322 221.792 63.2202 221.792 59.4762C221.792 54.9642 224.736 51.6922 228.792 51.6922C232.224 51.6922 234.392 53.8922 234.392 57.4282C234.473 58.7418 234.046 60.0365 233.2 61.0442C232.925 61.3439 232.542 61.5222 232.136 61.5402C232.075 61.5449 232.015 61.5351 231.959 61.5114C231.903 61.4877 231.854 61.4509 231.816 61.4042C231.68 61.2282 231.488 60.7162 231.816 59.2522L232.576 54.8522ZM229.248 55.9482C229.516 55.9456 229.784 55.9698 230.048 56.0202L229.6 58.4202C229.352 59.8202 228.152 61.4442 226.984 61.4442C225.816 61.4442 225.752 60.5242 225.752 59.9722C225.728 57.8122 227.344 55.9482 229.248 55.9482Z" fill="white"/>
<path d="M92.1119 59.9482C92.1119 59.9482 92.1119 59.9482 92.1119 59.9002C92.1154 59.4689 92.0833 59.0381 92.0159 58.6122C91.6993 56.683 90.7184 54.9251 89.243 53.6425C87.7676 52.3599 85.8903 51.6332 83.9359 51.5882H83.5199C83.1474 51.5994 82.776 51.6341 82.4079 51.6922C80.4561 52.0117 78.6806 53.0122 77.3962 54.5162C76.1119 56.0202 75.4018 57.9304 75.3919 59.9082C75.3919 59.9082 75.3919 59.9082 75.3919 59.9482C75.3919 59.9882 75.3919 59.9482 75.3919 60.0042C75.3883 60.4354 75.4204 60.8662 75.4879 61.2922C75.8092 63.2488 76.813 65.0286 78.3213 66.3157C79.8296 67.6029 81.745 68.3145 83.7279 68.3242H83.7679C85.9817 68.3115 88.1007 67.4237 89.6624 65.8545C91.2241 64.2853 92.1018 62.1621 92.1039 59.9482H92.1119ZM89.9119 63.2602H88.4479C88.6719 62.3993 88.8033 61.517 88.8399 60.6282H90.7119C90.619 61.5391 90.3471 62.4226 89.9119 63.2282V63.2602ZM77.5679 56.6442H79.0319C78.8145 57.5061 78.6858 58.388 78.6479 59.2762H76.8159C76.8841 58.3465 77.1399 57.4403 77.5679 56.6122V56.6442ZM87.4479 58.7802C87.4479 58.9482 87.4479 59.1082 87.4479 59.2762H84.3919V56.6442H86.9999C87.2177 57.3291 87.3677 58.0339 87.4479 58.7482V58.7802ZM84.4239 55.2842V53.0682C84.6227 53.1384 84.8111 53.2352 84.9839 53.3562C85.6475 53.8598 86.1731 54.523 86.5119 55.2842H84.4239ZM83.0639 53.0682V55.2842H80.9679C81.3518 54.2934 82.1024 53.4884 83.0639 53.0362V53.0682ZM83.0639 56.6442V59.2762H80.0159C80.0647 58.3847 80.215 57.5016 80.4639 56.6442H83.0639ZM76.8239 61.0762C76.8 60.9278 76.7839 60.7782 76.7759 60.6282H78.6479C78.6479 60.8362 78.6479 61.0362 78.6879 61.2442C78.7484 61.9248 78.8662 62.5992 79.0399 63.2602H77.5679C77.1932 62.5695 76.9389 61.8202 76.8159 61.0442L76.8239 61.0762ZM80.0239 61.1242C80.0239 60.9562 80.0239 60.7962 80.0239 60.6282H83.0799V63.2602H80.4719C80.2472 62.5547 80.0944 61.8283 80.0159 61.0922L80.0239 61.1242ZM83.0479 64.6202V66.8282C82.8486 66.7625 82.6599 66.6682 82.4879 66.5482C81.824 66.0448 81.2983 65.3815 80.9599 64.6202H83.0479ZM84.4079 66.8282V64.5882H86.5039C86.1166 65.5619 85.3728 66.3515 84.4239 66.7962L84.4079 66.8282ZM84.4079 63.2602V60.6282H87.4559C87.4136 61.5198 87.2659 62.4033 87.0159 63.2602H84.4079ZM88.8239 59.2602C88.8239 59.0522 88.8239 58.8442 88.7839 58.6442C88.7201 57.9639 88.6024 57.2898 88.4319 56.6282H89.9039C90.27 57.3104 90.5214 58.0483 90.6479 58.8122C90.6479 58.9642 90.6479 59.1082 90.6959 59.2602H88.8239ZM88.9519 55.2602H88.0159C87.8254 54.7857 87.5952 54.328 87.3279 53.8922C87.5039 54.0042 87.6879 54.1162 87.8559 54.2442C88.2625 54.5383 88.6354 54.8763 88.9679 55.2522L88.9519 55.2602ZM80.1519 53.9002C79.8861 54.3341 79.656 54.789 79.4639 55.2602H78.4959C78.9812 54.7227 79.5449 54.2615 80.1679 53.8922L80.1519 53.9002ZM78.5039 64.5962H79.4719C79.6618 65.0724 79.8948 65.5303 80.1679 65.9642C79.5513 65.5926 78.9955 65.1285 78.5199 64.5882L78.5039 64.5962ZM87.3039 65.9562C87.5696 65.5222 87.7997 65.0674 87.9919 64.5962H88.9519C88.478 65.1254 87.928 65.581 87.3199 65.9482L87.3039 65.9562Z" fill="white"/>
<path d="M225.352 17.7082C225.346 17.4405 225.324 17.1734 225.288 16.9082C225.086 15.6615 224.454 14.5249 223.501 13.6962C222.548 12.8675 221.334 12.399 220.072 12.3722H219.8C219.561 12.378 219.324 12.3993 219.088 12.4362C217.828 12.6423 216.682 13.2882 215.853 14.2592C215.024 15.2302 214.566 16.4635 214.56 17.7402C214.559 18.0081 214.581 18.2757 214.624 18.5402C214.815 19.8154 215.455 20.9805 216.429 21.8254C217.403 22.6703 218.646 23.1395 219.936 23.1482C220.223 23.148 220.509 23.124 220.792 23.0762C222.051 22.8704 223.197 22.226 224.027 21.2568C224.857 20.2877 225.318 19.0562 225.328 17.7802L225.352 17.7082ZM223.936 19.8442H222.992C223.134 19.2864 223.217 18.7153 223.24 18.1402H224.448C224.394 18.7368 224.22 19.3164 223.936 19.8442ZM215.936 15.5722H216.88C216.742 16.128 216.659 16.6961 216.632 17.2682H215.456C215.511 16.6742 215.685 16.0974 215.968 15.5722H215.936ZM222.336 16.9482C222.336 17.0602 222.336 17.1642 222.336 17.2682H220.368V15.5722H222.048C222.191 16.0201 222.29 16.4809 222.344 16.9482H222.336ZM220.384 14.6922V13.2602C220.512 13.3085 220.633 13.3731 220.744 13.4522C221.172 13.7751 221.511 14.2019 221.728 14.6922H220.384ZM219.504 13.2682V14.6922H218.152C218.406 14.0608 218.893 13.551 219.512 13.2682H219.504ZM219.504 15.5722V17.2682H217.536C217.567 16.6937 217.663 16.1246 217.824 15.5722H219.504ZM215.504 18.4282C215.504 18.3322 215.504 18.2362 215.504 18.1402H216.712V18.5402C216.755 18.9803 216.832 19.4163 216.944 19.8442H215.992C215.744 19.4044 215.574 18.9255 215.488 18.4282H215.504ZM217.584 18.4282C217.584 18.3242 217.584 18.2202 217.584 18.1082H219.552V19.8122H217.872C217.725 19.373 217.623 18.92 217.568 18.4602L217.584 18.4282ZM219.512 20.7482V22.1802C219.386 22.1317 219.265 22.07 219.152 21.9962C218.724 21.6695 218.386 21.2403 218.168 20.7482H219.512ZM220.392 22.1802V20.7482H221.744C221.485 21.3682 221.002 21.8681 220.392 22.1482V22.1802ZM220.392 19.8762V18.1402H222.36C222.332 18.717 222.238 19.2887 222.08 19.8442L220.392 19.8762ZM223.216 17.2682V16.8682C223.172 16.4313 223.098 15.9982 222.992 15.5722H223.936C224.177 16.0097 224.34 16.4863 224.416 16.9802C224.416 17.0762 224.416 17.1722 224.416 17.2682H223.216ZM223.304 14.6922H222.672C222.551 14.3866 222.404 14.0921 222.232 13.8122L222.576 14.0362C222.849 14.2277 223.101 14.4476 223.328 14.6922H223.304ZM217.616 13.8202C217.441 14.0972 217.291 14.389 217.168 14.6922H216.544C216.854 14.348 217.216 14.0538 217.616 13.8202ZM216.584 20.7482H217.208C217.331 21.0565 217.481 21.3536 217.656 21.6362C217.255 21.3968 216.894 21.0973 216.584 20.7482ZM222.264 21.6282C222.434 21.3473 222.581 21.053 222.704 20.7482H223.328C223.018 21.0829 222.659 21.3688 222.264 21.5962V21.6282Z" fill="white"/>
<path d="M278.233 102.183C279.949 94.966 275.49 87.7238 268.273 86.0072C261.057 84.2905 253.814 88.7494 252.098 95.9663C250.381 103.183 254.84 110.425 262.057 112.142C269.274 113.859 276.516 109.4 278.233 102.183Z" fill="#5552FF"/>
<path d="M271.496 93.1322H258.848C258.211 93.1322 257.601 93.385 257.151 93.8351C256.701 94.2852 256.448 94.8957 256.448 95.5322V102.06C256.448 102.697 256.701 103.307 257.151 103.757C257.601 104.207 258.211 104.46 258.848 104.46H268.128L268.064 106.74L270.408 104.46H271.496C272.132 104.46 272.743 104.207 273.193 103.757C273.643 103.307 273.896 102.697 273.896 102.06V95.5482C273.898 95.2317 273.837 94.9179 273.718 94.6248C273.598 94.3318 273.422 94.0653 273.198 93.8408C272.975 93.6162 272.71 93.438 272.418 93.3164C272.126 93.1948 271.812 93.1322 271.496 93.1322ZM258.56 95.9482C258.562 95.7692 258.634 95.5983 258.762 95.4725C258.889 95.3467 259.061 95.2762 259.24 95.2762H262.144C262.322 95.2762 262.493 95.347 262.619 95.473C262.745 95.599 262.816 95.7699 262.816 95.9482C262.816 96.1264 262.745 96.2973 262.619 96.4233C262.493 96.5494 262.322 96.6202 262.144 96.6202H259.216C259.041 96.614 258.875 96.5408 258.753 96.4156C258.631 96.2905 258.562 96.1231 258.56 95.9482ZM270.776 102.268H265.744C265.65 102.278 265.555 102.269 265.465 102.24C265.375 102.211 265.292 102.164 265.222 102.101C265.152 102.038 265.095 101.96 265.057 101.874C265.018 101.788 264.999 101.695 264.999 101.6C264.999 101.506 265.018 101.412 265.057 101.326C265.095 101.24 265.152 101.163 265.222 101.1C265.292 101.037 265.375 100.989 265.465 100.96C265.555 100.932 265.65 100.922 265.744 100.932H270.776C270.87 100.922 270.965 100.932 271.054 100.96C271.144 100.989 271.227 101.037 271.298 101.1C271.368 101.163 271.424 101.24 271.463 101.326C271.501 101.412 271.521 101.506 271.521 101.6C271.521 101.695 271.501 101.788 271.463 101.874C271.424 101.96 271.368 102.038 271.298 102.101C271.227 102.164 271.144 102.211 271.054 102.24C270.965 102.269 270.87 102.278 270.776 102.268ZM270.776 99.4442H259.912C259.747 99.4261 259.595 99.348 259.485 99.2247C259.374 99.1015 259.313 98.9417 259.313 98.7762C259.313 98.6106 259.374 98.4509 259.485 98.3276C259.595 98.2044 259.747 98.1262 259.912 98.1082H270.776C270.87 98.0979 270.965 98.1075 271.054 98.1364C271.144 98.1653 271.227 98.2128 271.298 98.2758C271.368 98.3388 271.424 98.4159 271.463 98.5022C271.501 98.5884 271.521 98.6818 271.521 98.7762C271.521 98.8706 271.501 98.964 271.463 99.0502C271.424 99.1364 271.368 99.2135 271.298 99.2766C271.227 99.3396 271.144 99.3871 271.054 99.416C270.965 99.4449 270.87 99.4545 270.776 99.4442ZM270.776 96.6202H264.376C264.198 96.6202 264.027 96.5494 263.901 96.4233C263.775 96.2973 263.704 96.1264 263.704 95.9482C263.704 95.7699 263.775 95.599 263.901 95.473C264.027 95.347 264.198 95.2762 264.376 95.2762H270.776C270.954 95.2762 271.125 95.347 271.251 95.473C271.377 95.599 271.448 95.7699 271.448 95.9482C271.448 96.1264 271.377 96.2973 271.251 96.4233C271.125 96.5494 270.954 96.6202 270.776 96.6202Z" fill="white"/>
<path d="M52.6159 62.8762H43.5439C43.0841 62.8783 42.6438 63.0618 42.3187 63.387C41.9935 63.7121 41.81 64.1524 41.8079 64.6122V69.3002C41.81 69.7599 41.9935 70.2003 42.3187 70.5254C42.6438 70.8505 43.0841 71.0341 43.5439 71.0362H50.1999L50.1519 72.6362L51.8319 71.0362H52.6319C53.0916 71.0341 53.532 70.8505 53.8571 70.5254C54.1822 70.2003 54.3658 69.7599 54.3679 69.3002V64.6122C54.3668 64.3832 54.3207 64.1566 54.232 63.9454C54.1434 63.7342 54.0141 63.5425 53.8514 63.3813C53.6887 63.2201 53.4959 63.0925 53.2839 63.0059C53.0719 62.9192 52.8449 62.8751 52.6159 62.8762ZM43.3359 64.8762C43.3359 64.7468 43.3873 64.6226 43.4788 64.5311C43.5703 64.4396 43.6944 64.3882 43.8239 64.3882H45.9119C46.0295 64.4033 46.1376 64.4608 46.216 64.5499C46.2943 64.639 46.3375 64.7535 46.3375 64.8722C46.3375 64.9908 46.2943 65.1054 46.216 65.1944C46.1376 65.2835 46.0295 65.341 45.9119 65.3562H43.8239C43.6958 65.3562 43.5729 65.3059 43.4816 65.2161C43.3903 65.1263 43.338 65.0042 43.3359 64.8762ZM52.1359 69.4042H48.5199C48.4522 69.413 48.3834 69.4072 48.3181 69.3873C48.2528 69.3674 48.1925 69.3338 48.1412 69.2888C48.0899 69.2437 48.0489 69.1883 48.0207 69.1261C47.9926 69.0639 47.978 68.9964 47.978 68.9282C47.978 68.8599 47.9926 68.7925 48.0207 68.7303C48.0489 68.6681 48.0899 68.6126 48.1412 68.5676C48.1925 68.5225 48.2528 68.4889 48.3181 68.469C48.3834 68.4491 48.4522 68.4434 48.5199 68.4522H52.1359C52.2036 68.4434 52.2723 68.4491 52.3376 68.469C52.4029 68.4889 52.4632 68.5225 52.5145 68.5676C52.5658 68.6126 52.6069 68.6681 52.635 68.7303C52.6631 68.7925 52.6777 68.8599 52.6777 68.9282C52.6777 68.9964 52.6631 69.0639 52.635 69.1261C52.6069 69.1883 52.5658 69.2437 52.5145 69.2888C52.4632 69.3338 52.4029 69.3674 52.3376 69.3873C52.2723 69.4072 52.2036 69.413 52.1359 69.4042ZM52.1359 67.3802H44.3439C44.2166 67.3802 44.0945 67.3296 44.0044 67.2396C43.9144 67.1496 43.8639 67.0275 43.8639 66.9002C43.8639 66.7729 43.9144 66.6508 44.0044 66.5608C44.0945 66.4707 44.2166 66.4202 44.3439 66.4202H52.1359C52.2632 66.4202 52.3853 66.4707 52.4753 66.5608C52.5653 66.6508 52.6159 66.7729 52.6159 66.9002C52.6159 67.0275 52.5653 67.1496 52.4753 67.2396C52.3853 67.3296 52.2632 67.3802 52.1359 67.3802ZM52.1359 65.3562H47.5199C47.4022 65.341 47.2941 65.2835 47.2158 65.1944C47.1374 65.1054 47.0942 64.9908 47.0942 64.8722C47.0942 64.7535 47.1374 64.639 47.2158 64.5499C47.2941 64.4608 47.4022 64.4033 47.5199 64.3882H52.1359C52.2535 64.4033 52.3616 64.4608 52.44 64.5499C52.5183 64.639 52.5615 64.7535 52.5615 64.8722C52.5615 64.9908 52.5183 65.1054 52.44 65.1944C52.3616 65.2835 52.2535 65.341 52.1359 65.3562Z" fill="white"/>
<path d="M130.056 7.35617H122.704C122.334 7.35821 121.979 7.50502 121.716 7.76518C121.453 8.02534 121.302 8.37818 121.296 8.74817V12.5402C121.298 12.9129 121.447 13.2699 121.711 13.5335C121.974 13.7971 122.331 13.9461 122.704 13.9482H128.096V15.2762L129.464 13.9482H130.096C130.469 13.9461 130.826 13.7971 131.089 13.5335C131.353 13.2699 131.502 12.9129 131.504 12.5402V8.74817C131.501 8.56152 131.461 8.37734 131.386 8.2062C131.312 8.03507 131.204 7.88036 131.069 7.75099C130.935 7.62163 130.776 7.52014 130.602 7.45238C130.428 7.38462 130.243 7.35193 130.056 7.35617ZM122.536 8.95617C122.536 8.85221 122.577 8.7525 122.651 8.67899C122.724 8.60547 122.824 8.56417 122.928 8.56417H124.624C124.675 8.56416 124.726 8.57435 124.773 8.59415C124.82 8.61394 124.863 8.64295 124.898 8.67946C124.934 8.71596 124.962 8.75925 124.981 8.80676C125 8.85428 125.009 8.90507 125.008 8.95617C125.008 9.05876 124.968 9.15728 124.896 9.23057C124.824 9.30386 124.726 9.34608 124.624 9.34817H122.928C122.827 9.34634 122.731 9.30661 122.658 9.23691C122.586 9.16721 122.542 9.07267 122.536 8.97217V8.95617ZM129.616 12.6442H126.688C126.582 12.6442 126.48 12.602 126.405 12.527C126.33 12.452 126.288 12.3503 126.288 12.2442C126.288 12.1381 126.33 12.0363 126.405 11.9613C126.48 11.8863 126.582 11.8442 126.688 11.8442H129.616C129.722 11.8442 129.824 11.8863 129.899 11.9613C129.974 12.0363 130.016 12.1381 130.016 12.2442C130.016 12.3503 129.974 12.452 129.899 12.527C129.824 12.602 129.722 12.6442 129.616 12.6442ZM129.616 11.0042H123.296C123.193 11.0021 123.096 10.9599 123.024 10.8866C122.952 10.8133 122.912 10.7148 122.912 10.6122C122.912 10.5617 122.922 10.5118 122.941 10.4652C122.96 10.4186 122.989 10.3763 123.024 10.3406C123.06 10.305 123.102 10.2767 123.149 10.2574C123.196 10.2381 123.245 10.2282 123.296 10.2282H129.616C129.667 10.2271 129.717 10.2363 129.764 10.2552C129.811 10.2741 129.854 10.3023 129.89 10.3382C129.926 10.3741 129.954 10.4169 129.973 10.4639C129.992 10.511 130.001 10.5614 130 10.6122C130.001 10.6633 129.992 10.7141 129.973 10.7616C129.954 10.8091 129.926 10.8524 129.89 10.8889C129.855 10.9254 129.812 10.9544 129.765 10.9742C129.718 10.994 129.667 11.0042 129.616 11.0042ZM129.616 9.40417H125.872C125.769 9.40208 125.672 9.35985 125.6 9.28657C125.528 9.21328 125.488 9.11476 125.488 9.01217C125.487 8.96107 125.496 8.91028 125.515 8.86276C125.534 8.81525 125.562 8.77196 125.597 8.73546C125.633 8.69895 125.676 8.66994 125.723 8.65015C125.77 8.63035 125.821 8.62015 125.872 8.62017H129.616C129.667 8.62015 129.718 8.63035 129.765 8.65015C129.812 8.66994 129.855 8.69895 129.89 8.73546C129.926 8.77196 129.954 8.81525 129.973 8.86276C129.992 8.91028 130.001 8.96107 130 9.01217C129.99 9.10769 129.946 9.1963 129.875 9.26118C129.804 9.32607 129.712 9.36271 129.616 9.36417V9.40417Z" fill="white"/>
<path d="M118.413 40.4424C122.371 36.4841 122.371 30.0663 118.413 26.108C114.454 22.1496 108.036 22.1496 104.078 26.108C100.12 30.0663 100.12 36.4841 104.078 40.4424C108.036 44.4008 114.454 44.4008 118.413 40.4424Z" fill="#5552FF"/>
<path opacity="0.4" d="M118.413 40.4424C122.371 36.4841 122.371 30.0663 118.413 26.108C114.454 22.1496 108.036 22.1496 104.078 26.108C100.12 30.0663 100.12 36.4841 104.078 40.4424C108.036 44.4008 114.454 44.4008 118.413 40.4424Z" fill="black"/>
<path d="M112.816 31.5962C110.416 30.8682 108.92 28.2522 108.92 28.2522C108.92 28.2522 108.12 28.2042 108.12 28.8922C108.109 29.3542 108.192 29.8137 108.364 30.2427C108.536 30.6717 108.793 31.0614 109.12 31.3882L107.968 31.3242C107.556 31.3024 107.143 31.3456 106.744 31.4522L106.36 31.5562C106.041 31.6444 105.769 31.8533 105.602 32.1386C105.435 32.4238 105.385 32.763 105.464 33.0842L106.016 35.3242C106.178 36.0017 106.589 36.5936 107.167 36.9831C107.744 37.3727 108.447 37.5315 109.136 37.4282C110.312 37.2602 112.144 36.9882 112.456 36.9322L113.296 36.8602L113.584 31.8282L112.816 31.5962Z" fill="white"/>
<path d="M116.592 30.9002H113.352C113.1 30.9002 112.896 31.1043 112.896 31.3562V37.0842C112.896 37.336 113.1 37.5402 113.352 37.5402H116.592C116.844 37.5402 117.048 37.336 117.048 37.0842V31.3562C117.048 31.1043 116.844 30.9002 116.592 30.9002Z" fill="#5552FF"/>
<path opacity="0.4" d="M116.592 30.9002H113.352C113.1 30.9002 112.896 31.1043 112.896 31.3562V37.0842C112.896 37.336 113.1 37.5402 113.352 37.5402H116.592C116.844 37.5402 117.048 37.336 117.048 37.0842V31.3562C117.048 31.1043 116.844 30.9002 116.592 30.9002Z" fill="white"/>
<path d="M159.264 21.7642H148.192C147.658 21.7683 147.148 21.9821 146.771 22.3593C146.394 22.7364 146.18 23.2468 146.176 23.7802V30.5802C146.178 31.1142 146.391 31.6257 146.769 32.0034C147.146 32.381 147.658 32.5941 148.192 32.5962H159.264C159.798 32.5962 160.311 32.3838 160.689 32.0057C161.067 31.6276 161.28 31.1148 161.28 30.5802V23.7802C161.278 23.2461 161.065 22.7346 160.687 22.357C160.309 21.9793 159.798 21.7663 159.264 21.7642ZM151.968 30.0282V24.3402L156.888 27.1482L151.968 30.0282Z" fill="white"/>
<path d="M263.528 77.0602C268.008 77.0602 271.64 73.4283 271.64 68.9482C271.64 64.468 268.008 60.8362 263.528 60.8362C259.048 60.8362 255.416 64.468 255.416 68.9482C255.416 73.4283 259.048 77.0602 263.528 77.0602Z" fill="#5552FF"/>
<path opacity="0.2" d="M263.528 77.0602C268.008 77.0602 271.64 73.4283 271.64 68.9482C271.64 64.468 268.008 60.8362 263.528 60.8362C259.048 60.8362 255.416 64.468 255.416 68.9482C255.416 73.4283 259.048 77.0602 263.528 77.0602Z" fill="black"/>
<path d="M267.04 65.6602H260.32C259.996 65.6623 259.686 65.7919 259.457 66.021C259.227 66.2501 259.098 66.5602 259.096 66.8842V71.0122C259.098 71.3361 259.227 71.6463 259.457 71.8753C259.686 72.1044 259.996 72.2341 260.32 72.2362H267.04C267.364 72.2341 267.674 72.1044 267.903 71.8753C268.132 71.6463 268.262 71.3361 268.264 71.0122V66.8842C268.262 66.5602 268.132 66.2501 267.903 66.021C267.674 65.7919 267.364 65.6623 267.04 65.6602ZM262.608 70.6762V67.2282L265.592 68.9482L262.608 70.6762Z" fill="white"/>
<path d="M83.8398 145.116H77.1198C76.7966 145.118 76.4873 145.248 76.2595 145.478C76.0317 145.707 75.9038 146.017 75.9038 146.34V150.468C75.9038 150.628 75.9353 150.786 75.9964 150.934C76.0575 151.081 76.147 151.215 76.26 151.328C76.3729 151.441 76.5069 151.531 76.6545 151.592C76.802 151.653 76.9601 151.684 77.1198 151.684H83.8398C84.1631 151.684 84.4732 151.556 84.7025 151.329C84.9318 151.101 85.0617 150.791 85.0638 150.468V146.348C85.0638 146.023 84.9351 145.711 84.7058 145.48C84.4765 145.249 84.1652 145.118 83.8398 145.116ZM79.4078 150.132V146.676L82.3998 148.404L79.4078 150.132Z" fill="white"/>
<path d="M240.087 110.646C244.045 106.688 244.045 100.27 240.087 96.3118C236.128 92.3534 229.711 92.3534 225.752 96.3118C221.794 100.27 221.794 106.688 225.752 110.646C229.711 114.605 236.128 114.605 240.087 110.646Z" fill="#5552FF"/>
<path opacity="0.2" d="M240.087 110.646C244.045 106.688 244.045 100.27 240.087 96.3118C236.128 92.3534 229.711 92.3534 225.752 96.3118C221.794 100.27 221.794 106.688 225.752 110.646C229.711 114.605 236.128 114.605 240.087 110.646Z" fill="white"/>
<path d="M232.92 97.3482C231.438 97.3563 230.01 97.9067 228.907 98.8955C227.803 99.8843 227.099 101.243 226.929 102.715C226.759 104.187 227.133 105.671 227.982 106.885C228.831 108.1 230.095 108.962 231.536 109.308L232.92 111.068L234.304 109.308C235.758 108.976 237.039 108.119 237.9 106.901C238.762 105.683 239.143 104.19 238.972 102.708C238.8 101.226 238.088 99.8595 236.971 98.8704C235.854 97.8813 234.412 97.3393 232.92 97.3482ZM232.92 105.932C232.42 105.932 231.931 105.784 231.515 105.506C231.1 105.228 230.776 104.834 230.584 104.372C230.393 103.91 230.343 103.401 230.44 102.911C230.538 102.421 230.779 101.97 231.132 101.617C231.486 101.263 231.936 101.022 232.427 100.925C232.917 100.827 233.425 100.877 233.887 101.069C234.349 101.26 234.744 101.584 235.022 102C235.3 102.415 235.448 102.904 235.448 103.404C235.449 103.736 235.384 104.066 235.258 104.373C235.131 104.68 234.945 104.959 234.71 105.194C234.475 105.429 234.196 105.615 233.889 105.742C233.581 105.869 233.252 105.933 232.92 105.932Z" fill="white"/>
<path d="M197.856 27.1482C196.342 27.1097 194.868 27.6392 193.725 28.6324C192.581 29.6257 191.851 31.0109 191.678 32.5154C191.504 34.02 191.9 35.535 192.787 36.7625C193.674 37.9899 194.989 38.841 196.472 39.1482L197.856 40.9082L199.216 39.1482C200.715 38.8613 202.05 38.0189 202.955 36.7896C203.86 35.5603 204.267 34.0347 204.095 32.5181C203.923 31.0015 203.185 29.6058 202.028 28.6101C200.871 27.6144 199.381 27.0923 197.856 27.1482ZM197.856 35.7322C197.356 35.7322 196.867 35.5839 196.451 35.3061C196.036 35.0283 195.712 34.6335 195.52 34.1716C195.329 33.7097 195.279 33.2014 195.376 32.711C195.474 32.2206 195.715 31.7701 196.068 31.4166C196.422 31.0631 196.872 30.8223 197.363 30.7247C197.853 30.6272 198.361 30.6773 198.823 30.8686C199.285 31.0599 199.68 31.384 199.958 31.7997C200.236 32.2154 200.384 32.7042 200.384 33.2042C200.389 33.5391 200.328 33.8718 200.203 34.1827C200.078 34.4936 199.893 34.7765 199.657 35.0148C199.422 35.2532 199.141 35.4423 198.832 35.5709C198.523 35.6996 198.191 35.7653 197.856 35.7642V35.7322Z" fill="white"/>
<path d="M269.016 116.812C225.24 114.628 197.216 130.524 180.312 147.804C200.464 101.724 247.552 72.0922 247.552 72.0922C208.616 82.2042 186.352 104.004 173.776 125.092C188.12 73.8122 224.648 32.3882 224.648 32.3882C191.048 53.9882 174.816 81.6922 166.968 105.684C170.344 51.9962 184.768 27.1482 184.768 27.1482C184.768 27.1482 157.864 36.3802 155.264 114.772C152.672 36.4122 125.768 27.1482 125.768 27.1482C125.768 27.1482 140.168 51.9482 143.56 105.652C135.712 81.6522 119.456 53.9322 85.8877 32.3562C85.8877 32.3562 122.408 73.7802 136.76 125.06C124.184 103.972 101.92 82.1722 62.9837 72.0602C62.9837 72.0602 110.072 101.66 130.184 147.772C113.28 130.492 85.2557 114.596 41.4797 116.78C41.4797 116.78 143.424 135.772 138.376 219.652C136.776 246.708 130.648 264.452 126.048 281.708H181.312C182.912 263.404 176.256 237.708 172.68 218.756C161.232 137.772 269.016 116.812 269.016 116.812Z" fill="#5552FF"/>
<path opacity="0.5" d="M269.016 116.812C225.24 114.628 197.216 130.524 180.312 147.804C200.464 101.724 247.552 72.0922 247.552 72.0922C208.616 82.2042 186.352 104.004 173.776 125.092C188.12 73.8122 224.648 32.3882 224.648 32.3882C191.048 53.9882 174.816 81.6922 166.968 105.684C170.344 51.9962 184.768 27.1482 184.768 27.1482C184.768 27.1482 157.864 36.3802 155.264 114.772C152.672 36.4122 125.768 27.1482 125.768 27.1482C125.768 27.1482 140.168 51.9482 143.56 105.652C135.712 81.6522 119.456 53.9322 85.8877 32.3562C85.8877 32.3562 122.408 73.7802 136.76 125.06C124.184 103.972 101.92 82.1722 62.9837 72.0602C62.9837 72.0602 110.072 101.66 130.184 147.772C113.28 130.492 85.2557 114.596 41.4797 116.78C41.4797 116.78 143.424 135.772 138.376 219.652C136.776 246.708 130.648 264.452 126.048 281.708H181.312C182.912 263.404 176.256 237.708 172.68 218.756C161.232 137.772 269.016 116.812 269.016 116.812Z" fill="white"/>
<path d="M263.895 154.541C269.14 149.296 269.14 140.791 263.895 135.546C258.649 130.3 250.145 130.3 244.899 135.546C239.654 140.791 239.654 149.296 244.899 154.541C250.145 159.787 258.649 159.787 263.895 154.541Z" fill="#5552FF"/>
<path opacity="0.5" d="M263.895 154.541C269.14 149.296 269.14 140.791 263.895 135.546C258.649 130.3 250.145 130.3 244.899 135.546C239.654 140.791 239.654 149.296 244.899 154.541C250.145 159.787 258.649 159.787 263.895 154.541Z" fill="white"/>
<path d="M256.552 142.66C253.288 141.66 251.264 138.108 251.264 138.108C251.264 138.108 250.232 138.052 250.184 138.988C250.17 139.611 250.283 140.229 250.515 140.807C250.748 141.384 251.095 141.909 251.536 142.348L249.936 142.26C249.375 142.227 248.813 142.286 248.272 142.436L247.752 142.572C247.321 142.694 246.954 142.978 246.728 143.364C246.501 143.75 246.432 144.209 246.536 144.644L247.288 147.692C247.509 148.611 248.067 149.413 248.85 149.941C249.633 150.47 250.585 150.686 251.52 150.548C253.12 150.316 255.608 149.956 256.04 149.876L257.176 149.78L257.568 142.94L256.552 142.66Z" fill="white"/>
<path d="M261.656 141.716H257.264C256.919 141.716 256.64 141.996 256.64 142.34V150.108C256.64 150.453 256.919 150.732 257.264 150.732H261.656C262.001 150.732 262.28 150.453 262.28 150.108V142.34C262.28 141.996 262.001 141.716 261.656 141.716Z" fill="#5552FF"/>
<path opacity="0.3" d="M261.656 141.716H257.264C256.919 141.716 256.64 141.996 256.64 142.34V150.108C256.64 150.453 256.919 150.732 257.264 150.732H261.656C262.001 150.732 262.28 150.453 262.28 150.108V142.34C262.28 141.996 262.001 141.716 261.656 141.716Z" fill="black"/>
<path d="M48.1988 104.716C49.4923 99.2691 46.1257 93.8053 40.6792 92.5118C35.2328 91.2183 29.7689 94.5849 28.4754 100.031C27.1819 105.478 30.5485 110.942 35.995 112.235C41.4415 113.529 46.9053 110.162 48.1988 104.716Z" fill="#5552FF"/>
<path opacity="0.1" d="M48.1988 104.716C49.4923 99.2691 46.1257 93.8053 40.6792 92.5118C35.2328 91.2183 29.7689 94.5849 28.4754 100.031C27.1819 105.478 30.5485 110.942 35.995 112.235C41.4415 113.529 46.9053 110.162 48.1988 104.716Z" fill="white"/>
<path d="M39.5279 100.668C37.1279 99.9322 35.6399 97.3162 35.6399 97.3162C35.6399 97.3162 34.8399 97.2762 34.8399 97.9642C34.8281 98.4263 34.9107 98.8861 35.0827 99.3152C35.2546 99.7444 35.5123 100.134 35.8399 100.46L34.6879 100.396C34.2756 100.37 33.8619 100.413 33.4639 100.524L33.0799 100.628C32.7619 100.715 32.4902 100.922 32.3228 101.206C32.1554 101.49 32.1056 101.828 32.1839 102.148L32.7359 104.396C32.8217 104.751 32.9769 105.086 33.1924 105.381C33.4079 105.677 33.6796 105.926 33.9919 106.116C34.5501 106.456 35.2089 106.592 35.8559 106.5C37.0319 106.324 38.8639 106.06 39.1759 106.004L39.9759 105.932L40.2559 100.892L39.5279 100.668Z" fill="white"/>
<path d="M43.2959 99.9722H40.0559C39.804 99.9722 39.5999 100.176 39.5999 100.428V106.156C39.5999 106.408 39.804 106.612 40.0559 106.612H43.2959C43.5477 106.612 43.7518 106.408 43.7518 106.156V100.428C43.7518 100.176 43.5477 99.9722 43.2959 99.9722Z" fill="#5552FF"/>
<path opacity="0.4" d="M43.2959 99.9722H40.0559C39.804 99.9722 39.5999 100.176 39.5999 100.428V106.156C39.5999 106.408 39.804 106.612 40.0559 106.612H43.2959C43.5477 106.612 43.7518 106.408 43.7518 106.156V100.428C43.7518 100.176 43.5477 99.9722 43.2959 99.9722Z" fill="black"/>
<path d="M121.152 220.684C121.024 221.356 120.92 221.836 120.792 222.396L120.384 223.996C120.104 225.052 119.808 226.084 119.496 227.116C118.848 229.164 118.144 231.188 117.36 233.172C116.576 235.156 115.76 237.108 114.888 239.044C114.456 240.012 113.992 240.972 113.528 241.924L113.176 242.636L112.984 243.036C112.88 243.236 112.784 243.436 112.672 243.612C112.259 244.323 111.753 244.977 111.168 245.556C110.162 246.533 109.006 247.343 107.744 247.956C106.648 248.496 105.508 248.943 104.336 249.292C102.172 249.923 99.9549 250.354 97.7122 250.58C93.4279 251.028 89.1085 251.028 84.8242 250.58L84.8962 246.54C86.8482 246.332 88.8962 246.108 90.8642 245.74C92.8322 245.372 94.8082 245.068 96.7122 244.628C98.5579 244.208 100.369 243.646 102.128 242.948C103.561 242.448 104.861 241.627 105.928 240.548C106.069 240.387 106.184 240.207 106.272 240.012L106.712 238.884C107.08 237.948 107.432 237.004 107.792 236.06C108.512 234.18 109.168 232.276 109.816 230.38C110.464 228.484 111.072 226.58 111.632 224.676C111.928 223.732 112.2 222.78 112.432 221.836L112.8 220.42L113.12 219.116L121.152 220.684Z" fill="#E4897B"/>
<path d="M115.696 210.644C112.496 211.444 110.224 224.716 110.224 224.716L119.096 230.748C119.096 230.748 127.608 217.38 125.128 213.844C122.552 210.156 120.4 209.452 115.696 210.644Z" fill="#5552FF"/>
<path opacity="0.6" d="M115.696 210.644C112.496 211.444 110.224 224.716 110.224 224.716L119.096 230.748C119.096 230.748 127.608 217.38 125.128 213.844C122.552 210.156 120.4 209.452 115.696 210.644Z" fill="black"/>
<path opacity="0.4" d="M115.408 215.46L122.296 217.06L122.96 223.796C121.791 226.178 120.502 228.498 119.096 230.748L113.712 227.092C113.944 223.996 114.528 217.548 115.408 215.46Z" fill="black"/>
<path d="M120.064 229.548C120.025 229.559 119.984 229.559 119.944 229.548L110.488 223.148C110.442 223.116 110.411 223.067 110.4 223.012C110.39 222.956 110.401 222.899 110.432 222.852C110.463 222.807 110.511 222.775 110.565 222.765C110.619 222.754 110.675 222.766 110.72 222.796L120.184 229.196C120.23 229.229 120.262 229.278 120.272 229.333C120.283 229.388 120.271 229.445 120.24 229.492C120.217 229.514 120.189 229.53 120.159 229.54C120.128 229.55 120.096 229.552 120.064 229.548Z" fill="white"/>
<path d="M115.696 210.644C115.696 210.644 112.016 211.948 119.432 257.796H151.16C150.624 244.884 150.608 236.916 156.76 210.42C152.319 209.502 147.816 208.908 143.288 208.644C138.494 208.3 133.682 208.3 128.888 208.644C122.712 209.212 115.696 210.644 115.696 210.644Z" fill="#5552FF"/>
<path opacity="0.6" d="M115.696 210.644C115.696 210.644 112.016 211.948 119.432 257.796H151.16C150.624 244.884 150.608 236.916 156.76 210.42C152.319 209.502 147.816 208.908 143.288 208.644C138.494 208.3 133.682 208.3 128.888 208.644C122.712 209.212 115.696 210.644 115.696 210.644Z" fill="black"/>
<path d="M170.336 266.732C169.536 256.468 154.936 256.956 145.088 258.22L143.752 258.404C143.464 257.78 142.76 257.484 141.592 257.652C133.544 257.452 122.672 257.796 122.672 257.796C117.552 256.716 107.664 256.004 100.152 255.964C93.0243 255.916 83.0803 255.964 77.8723 257.452C73.3123 258.772 68.6643 259.708 67.8163 263.852C66.9683 267.996 67.9203 277.9 76.1203 279.852C85.2163 282.036 96.2403 282.796 105.944 284.516C105.944 284.516 106.952 281.052 108.552 276.364L108.744 276.444H108.816C111.548 276.858 114.317 276.965 117.072 276.764C117.931 276.704 118.782 276.966 119.459 277.498C120.136 278.03 120.592 278.795 120.736 279.644C121.424 283.772 125.576 288.612 144.832 288.044C164.088 287.476 171.168 276.996 170.336 266.732Z" fill="#5552FF"/>
<path opacity="0.2" d="M170.336 266.732C169.536 256.468 154.936 256.956 145.088 258.22L143.752 258.404C143.464 257.78 142.76 257.484 141.592 257.652C133.544 257.452 122.672 257.796 122.672 257.796C117.552 256.716 107.664 256.004 100.152 255.964C93.0243 255.916 83.0803 255.964 77.8723 257.452C73.3123 258.772 68.6643 259.708 67.8163 263.852C66.9683 267.996 67.9203 277.9 76.1203 279.852C85.2163 282.036 96.2403 282.796 105.944 284.516C105.944 284.516 106.952 281.052 108.552 276.364L108.744 276.444H108.816C111.548 276.858 114.317 276.965 117.072 276.764C117.931 276.704 118.782 276.966 119.459 277.498C120.136 278.03 120.592 278.795 120.736 279.644C121.424 283.772 125.576 288.612 144.832 288.044C164.088 287.476 171.168 276.996 170.336 266.732Z" fill="black"/>
<path d="M151.632 255.948L151.888 258.788C152 259.012 151.736 259.236 151.368 259.236H119.272C118.992 259.236 118.752 259.092 118.736 258.916L118.448 256.076C118.448 255.876 118.672 255.708 118.992 255.708H151.12C151.219 255.7 151.318 255.718 151.408 255.76C151.498 255.802 151.575 255.867 151.632 255.948Z" fill="#5552FF"/>
<path opacity="0.7" d="M151.632 255.948L151.888 258.788C152 259.012 151.736 259.236 151.368 259.236H119.272C118.992 259.236 118.752 259.092 118.736 258.916L118.448 256.076C118.448 255.876 118.672 255.708 118.992 255.708H151.12C151.219 255.7 151.318 255.718 151.408 255.76C151.498 255.802 151.575 255.867 151.632 255.948Z" fill="white"/>
<path d="M147.32 259.524H148.176C148.352 259.524 148.48 259.436 148.472 259.332L148.064 255.636C148.064 255.532 147.904 255.444 147.736 255.444H146.872C146.704 255.444 146.568 255.532 146.584 255.636L146.984 259.332C147 259.436 147.144 259.524 147.32 259.524Z" fill="#5552FF"/>
<path d="M121.696 259.524H122.552C122.728 259.524 122.856 259.436 122.84 259.332L122.44 255.636C122.44 255.532 122.28 255.444 122.104 255.444H121.248C121.072 255.444 120.944 255.532 120.952 255.636L121.36 259.332C121.368 259.436 121.52 259.524 121.696 259.524Z" fill="#5552FF"/>
<path d="M134.504 259.524H135.368C135.536 259.524 135.664 259.436 135.656 259.332L135.256 255.636C135.256 255.532 135.088 255.444 134.92 255.444H134.056C133.888 255.444 133.76 255.532 133.768 255.636L134.176 259.332C134.184 259.436 134.336 259.524 134.504 259.524Z" fill="#5552FF"/>
<g opacity="0.6">
<path d="M147.32 259.524H148.176C148.352 259.524 148.48 259.436 148.472 259.332L148.064 255.636C148.064 255.532 147.904 255.444 147.736 255.444H146.872C146.704 255.444 146.568 255.532 146.584 255.636L146.984 259.332C147 259.436 147.144 259.524 147.32 259.524Z" fill="black"/>
<path d="M121.696 259.524H122.552C122.728 259.524 122.856 259.436 122.84 259.332L122.44 255.636C122.44 255.532 122.28 255.444 122.104 255.444H121.248C121.072 255.444 120.944 255.532 120.952 255.636L121.36 259.332C121.368 259.436 121.52 259.524 121.696 259.524Z" fill="black"/>
<path d="M134.504 259.524H135.368C135.536 259.524 135.664 259.436 135.656 259.332L135.256 255.636C135.256 255.532 135.088 255.444 134.92 255.444H134.056C133.888 255.444 133.76 255.532 133.768 255.636L134.176 259.332C134.184 259.436 134.336 259.524 134.504 259.524Z" fill="black"/>
</g>
<path d="M86.0484 246.5L80.5044 240.9L79.7764 248.812C79.7764 248.812 83.9364 251.62 86.8084 250.108L86.0484 246.5Z" fill="#E4897B"/>
<path d="M73.9924 240.044L73.7444 246.7L79.7764 248.796L80.5044 240.884L73.9924 240.044Z" fill="#E4897B"/>
<path opacity="0.6" d="M149.32 222.724L153.408 226.204C152.536 230.844 151.952 234.708 151.576 238.14C150.808 234.692 148.864 225.356 149.32 222.724Z" fill="black"/>
<path d="M152.545 200.692C150.065 196.364 147.617 191.132 149.945 183.82C152.617 175.42 151.161 171.268 149.473 169.26C147.945 167.444 145.537 166.628 142.673 166.932C141.898 166.941 141.134 167.119 140.435 167.453C139.736 167.788 139.118 168.271 138.625 168.868C138.625 168.868 126.256 169.924 118.336 179.068C120.896 186.516 117.233 195.572 112.521 199.012C127.537 211.74 143.633 207.756 148.897 205.412C151.425 204.276 152.321 202.7 151.769 200.156L152.201 200.916C152.216 200.947 152.241 200.973 152.27 200.991C152.3 201.01 152.334 201.02 152.369 201.02C152.403 201.028 152.438 201.028 152.473 201.02C152.504 201.008 152.532 200.989 152.553 200.964C152.575 200.939 152.591 200.908 152.598 200.876C152.605 200.843 152.604 200.809 152.594 200.777C152.585 200.745 152.568 200.716 152.545 200.692ZM149.169 169.492C149.997 170.538 150.547 171.776 150.769 173.092C150.286 171.789 149.533 170.603 148.56 169.612C147.587 168.62 146.414 167.846 145.121 167.34C146.697 167.548 148.14 168.335 149.169 169.548V169.492ZM148.969 183.228C149.667 182.008 150.23 180.715 150.649 179.372C150.379 180.829 150.016 182.267 149.561 183.676C148.462 186.91 148.309 190.39 149.121 193.708C147.777 190.348 147.113 186.564 148.969 183.252V183.228Z" fill="#5552FF"/>
<path d="M145.696 191.028C145.696 191.296 145.59 191.552 145.401 191.741C145.212 191.93 144.956 192.036 144.688 192.036C144.421 192.036 144.165 191.93 143.976 191.741C143.787 191.552 143.68 191.296 143.68 191.028C143.68 190.761 143.787 190.505 143.976 190.315C144.165 190.126 144.421 190.02 144.688 190.02C144.956 190.02 145.212 190.126 145.401 190.315C145.59 190.505 145.696 190.761 145.696 191.028Z" fill="white"/>
<path d="M133.432 216.084C131.92 216.084 127.328 216.084 125.76 212.828C125.481 212.209 125.33 211.54 125.315 210.861C125.3 210.182 125.421 209.507 125.672 208.876C125.692 208.824 125.732 208.781 125.782 208.757C125.833 208.733 125.891 208.73 125.944 208.748C125.997 208.768 126.039 208.808 126.063 208.858C126.087 208.909 126.09 208.967 126.072 209.02C125.841 209.598 125.727 210.216 125.738 210.839C125.749 211.461 125.884 212.075 126.136 212.644C127.592 215.668 131.984 215.668 133.432 215.668C143.704 215.668 145.48 209.508 145.552 209.268L145.68 208.78C145.695 208.727 145.73 208.681 145.778 208.653C145.826 208.625 145.882 208.616 145.936 208.628C145.964 208.635 145.99 208.647 146.013 208.664C146.036 208.681 146.056 208.702 146.07 208.727C146.084 208.752 146.093 208.779 146.096 208.808C146.099 208.836 146.097 208.865 146.088 208.892L145.96 209.372C145.88 209.636 144.016 216.084 133.432 216.084Z" fill="white"/>
<path d="M141.88 192.42C140.976 197.06 140.064 205.548 143.312 208.644C143.312 208.644 142.04 213.348 133.432 213.348C125.144 213.348 128.904 208.644 128.904 208.644C134.072 207.412 133.936 203.572 133.04 199.972L141.88 192.42Z" fill="#E4897B"/>
<path d="M138.28 195.5L133.04 199.948C133.262 200.784 133.412 201.638 133.488 202.5C135.464 202.22 138.176 200.052 138.384 197.98C138.498 197.154 138.463 196.314 138.28 195.5Z" fill="#CE6F64"/>
<path d="M142.416 180.204C143.312 187.908 143.856 191.148 140.712 195.748C135.976 202.668 126.312 202.076 123.112 194.804C120.248 188.252 119.264 176.756 126.184 172.404C127.703 171.427 129.447 170.855 131.25 170.743C133.052 170.631 134.854 170.983 136.481 171.765C138.109 172.547 139.51 173.734 140.549 175.211C141.588 176.689 142.231 178.408 142.416 180.204Z" fill="#E4897B"/>
<path d="M135.064 173.604C133.312 176.98 120.536 181.036 114.44 180.66C115.326 180.211 116.136 179.625 116.84 178.924C116.84 176.292 116.84 170.548 120.776 167.276C123.099 165.28 125.887 163.9 128.883 163.264C131.879 162.628 134.987 162.756 137.92 163.636C139.081 163.975 140.141 164.594 141.007 165.437C141.873 166.281 142.519 167.325 142.888 168.476L143.32 169.804L135.064 173.604Z" fill="#5552FF"/>
<path d="M137.784 171.012L134.416 172.916C134.416 172.916 132.192 184.812 143.096 184.508C143.056 184.508 142.952 172.748 137.784 171.012Z" fill="#5552FF"/>
<path d="M145.68 185.636C145.525 187.124 144.81 188.496 143.68 189.476C142.168 190.756 140.664 189.62 140.48 187.78C140.296 186.116 140.848 183.452 142.664 182.884C144.48 182.316 145.848 183.82 145.68 185.636Z" fill="#E4897B"/>
<path d="M107.048 283.348L109.304 274.868C109.339 274.721 109.426 274.591 109.55 274.504C109.674 274.417 109.826 274.378 109.976 274.396L116.944 275.196C117.123 275.221 117.295 275.284 117.447 275.381C117.599 275.479 117.728 275.608 117.826 275.76C117.923 275.912 117.986 276.083 118.011 276.262C118.035 276.441 118.021 276.623 117.968 276.796C117.128 279.74 116.576 281.116 115.568 284.844C114.96 287.14 113.968 291.948 113.096 295.116C112.224 298.284 109.096 297.62 109.096 296.228C109.4 289.972 108.296 287.18 107.12 284.74C106.933 284.299 106.907 283.806 107.048 283.348Z" fill="#5552FF"/>
<path d="M124.256 285.108L126.512 276.628C126.554 276.483 126.541 276.327 126.476 276.19C126.412 276.053 126.299 275.944 126.16 275.884L119.704 273.132C119.54 273.069 119.364 273.041 119.188 273.05C119.012 273.06 118.84 273.106 118.683 273.186C118.526 273.266 118.388 273.378 118.277 273.514C118.167 273.651 118.086 273.81 118.04 273.98C117.304 276.956 117.096 278.428 116.104 282.156C115.496 284.452 113.992 289.132 113.144 292.3C112.296 295.468 115.392 296.476 116.024 295.228C118.872 289.628 121.248 287.788 123.456 286.244C123.845 285.968 124.128 285.567 124.256 285.108Z" fill="#5552FF"/>
<path d="M131.256 184.404C131.368 185.028 131.128 185.588 130.72 185.66C130.312 185.732 129.92 185.284 129.784 184.668C129.648 184.052 129.912 183.484 130.32 183.412C130.728 183.34 131.144 183.78 131.256 184.404Z" fill="#5552FF"/>
<path d="M124.24 185.66C124.352 186.276 124.112 186.836 123.712 186.916C123.312 186.996 122.912 186.54 122.776 185.924C122.64 185.308 122.904 184.74 123.304 184.668C123.704 184.596 124.136 185.036 124.24 185.66Z" fill="#5552FF"/>
<path d="M123.496 184.668L121.896 184.508C121.896 184.508 122.896 185.548 123.496 184.668Z" fill="#5552FF"/>
<path d="M126.288 186.396C125.999 187.907 125.503 189.372 124.816 190.748C125.175 190.914 125.565 191 125.96 191C126.356 191 126.746 190.914 127.104 190.748L126.288 186.396Z" fill="#DE5753"/>
<path d="M130.264 192.476C130.235 192.482 130.204 192.475 130.179 192.458C130.155 192.44 130.138 192.414 130.132 192.384C130.127 192.355 130.134 192.324 130.151 192.299C130.168 192.274 130.195 192.258 130.224 192.252C131.44 191.759 132.428 190.829 132.992 189.644C132.998 189.63 133.006 189.616 133.016 189.605C133.027 189.594 133.04 189.585 133.054 189.579C133.069 189.573 133.084 189.57 133.1 189.57C133.115 189.57 133.13 189.574 133.144 189.58C133.159 189.586 133.173 189.595 133.184 189.607C133.195 189.618 133.204 189.632 133.21 189.647C133.216 189.662 133.219 189.678 133.219 189.694C133.218 189.71 133.215 189.726 133.208 189.74C132.624 190.989 131.585 191.967 130.304 192.476H130.264Z" fill="#5552FF"/>
<path d="M132.112 180.428C132.055 180.426 131.999 180.406 131.952 180.372C131.592 180.045 131.158 179.809 130.688 179.684C130.217 179.558 129.724 179.548 129.248 179.652C129.188 179.67 129.123 179.663 129.068 179.633C129.012 179.603 128.971 179.552 128.952 179.492C128.937 179.432 128.945 179.368 128.974 179.313C129.004 179.258 129.053 179.216 129.112 179.196C129.663 179.07 130.237 179.076 130.785 179.215C131.333 179.354 131.84 179.622 132.264 179.996C132.308 180.04 132.332 180.099 132.332 180.16C132.332 180.222 132.308 180.281 132.264 180.324C132.247 180.351 132.225 180.374 132.199 180.392C132.173 180.41 132.143 180.422 132.112 180.428Z" fill="#5552FF"/>
<path d="M120.24 183.148C120.191 183.146 120.144 183.129 120.104 183.1C120.054 183.063 120.021 183.009 120.01 182.948C120 182.886 120.013 182.824 120.048 182.772C120.359 182.297 120.779 181.904 121.273 181.625C121.767 181.347 122.321 181.192 122.888 181.172C122.951 181.174 123.01 181.2 123.053 181.245C123.096 181.29 123.12 181.35 123.12 181.412C123.111 181.473 123.082 181.53 123.037 181.572C122.992 181.614 122.934 181.639 122.872 181.644C122.392 181.667 121.924 181.804 121.507 182.043C121.09 182.283 120.735 182.617 120.472 183.02C120.45 183.061 120.416 183.095 120.375 183.118C120.334 183.14 120.287 183.151 120.24 183.148Z" fill="#5552FF"/>
<path d="M130.504 183.412L128.904 183.252C128.904 183.252 129.912 184.276 130.504 183.412Z" fill="#5552FF"/>
<path d="M159.776 219.148C160.576 221.484 161.272 223.78 161.96 226.116C162.648 228.452 163.216 230.812 163.776 233.196C164.336 235.58 164.816 237.996 165.176 240.508C165.36 241.756 165.504 243.028 165.576 244.372C165.576 245.044 165.624 245.732 165.576 246.452V247.004V247.308L165.536 247.724C165.476 248.268 165.36 248.804 165.192 249.324C164.605 251.005 163.607 252.512 162.288 253.708C161.245 254.679 160.106 255.542 158.888 256.284C156.673 257.598 154.34 258.705 151.92 259.588C147.302 261.297 142.531 262.559 137.672 263.356L136.704 259.436C141.07 257.88 145.343 256.077 149.504 254.036C151.461 253.068 153.334 251.939 155.104 250.66C155.887 250.107 156.609 249.471 157.256 248.764C157.696 248.315 158.02 247.766 158.2 247.164C158.2 246.437 158.152 245.71 158.056 244.988C157.928 243.956 157.736 242.868 157.52 241.788C157.096 239.596 156.528 237.356 155.92 235.124C155.312 232.892 154.68 230.644 154.016 228.412C153.352 226.18 152.656 223.908 151.984 221.732L159.776 219.148Z" fill="#E4897B"/>
<path d="M138.304 259.668L130.888 257.796L134.416 264.908C134.416 264.908 139.424 265.124 141.08 262.332L138.304 259.668Z" fill="#E4897B"/>
<path d="M124.904 260.5L128.184 266.292L134.424 264.908L130.888 257.796L124.904 260.5Z" fill="#E4897B"/>
<path d="M107.024 284.86L109.952 273.876L106.096 272.284L100.664 284.076L107.024 284.86Z" fill="#5552FF"/>
<path opacity="0.7" d="M107.024 284.86L109.952 273.876L106.096 272.284L100.664 284.076L107.024 284.86Z" fill="white"/>
<path d="M123.896 285.004L125.736 274.716L130.232 274.548L129.88 287.644L123.896 285.004Z" fill="#5552FF"/>
<path opacity="0.7" d="M123.896 285.004L125.736 274.716L130.232 274.548L129.88 287.644L123.896 285.004Z" fill="white"/>
<path d="M106.112 288.356C105.978 288.356 105.844 288.329 105.72 288.276C105.632 288.247 105.552 288.196 105.489 288.127C105.426 288.059 105.382 287.975 105.36 287.884C105.112 286.852 107.432 284.276 107.696 283.98C107.718 283.967 107.743 283.96 107.768 283.96C107.794 283.96 107.819 283.967 107.84 283.98C107.867 283.991 107.889 284.01 107.904 284.034C107.918 284.059 107.924 284.088 107.92 284.116C107.84 285.388 107.568 287.62 106.632 288.228C106.475 288.32 106.294 288.365 106.112 288.356ZM107.632 284.452C106.832 285.364 105.448 287.148 105.616 287.828C105.628 287.877 105.653 287.923 105.688 287.959C105.724 287.996 105.768 288.022 105.816 288.036C105.925 288.082 106.043 288.1 106.16 288.089C106.278 288.078 106.39 288.038 106.488 287.972C107.056 287.604 107.472 286.3 107.632 284.452Z" fill="#5552FF"/>
<path d="M104.712 285.972C104.603 285.976 104.494 285.957 104.392 285.916C104.216 285.836 104.016 285.636 104.096 285.164C104.122 284.988 104.184 284.82 104.279 284.669C104.374 284.519 104.5 284.391 104.648 284.292C105.672 283.564 107.728 283.924 107.848 283.94C107.871 283.945 107.891 283.956 107.908 283.971C107.925 283.987 107.938 284.006 107.944 284.028C107.954 284.048 107.959 284.07 107.959 284.092C107.959 284.114 107.954 284.136 107.944 284.156C107.328 284.844 105.616 285.972 104.712 285.972ZM106.56 284.1C105.947 284.064 105.336 284.206 104.8 284.508C104.681 284.586 104.579 284.689 104.502 284.809C104.425 284.928 104.374 285.063 104.352 285.204C104.296 285.58 104.448 285.652 104.496 285.676C105.032 285.916 106.744 284.98 107.528 284.164C107.207 284.125 106.884 284.103 106.56 284.1Z" fill="#5552FF"/>
<path d="M123.064 290.052H122.952C122.794 290.032 122.644 289.973 122.514 289.881C122.384 289.789 122.279 289.667 122.208 289.524C121.696 288.532 122.568 286.46 123.128 285.316C123.139 285.292 123.156 285.272 123.178 285.258C123.2 285.244 123.226 285.236 123.252 285.236C123.278 285.236 123.304 285.244 123.326 285.258C123.348 285.272 123.365 285.292 123.376 285.316C123.464 285.7 124.176 289.092 123.456 289.86C123.409 289.919 123.349 289.966 123.281 289.999C123.214 290.032 123.14 290.051 123.064 290.052ZM123.2 285.772C122.776 286.7 122.016 288.572 122.44 289.396C122.493 289.502 122.571 289.593 122.667 289.661C122.763 289.73 122.875 289.773 122.992 289.788C123.042 289.8 123.095 289.798 123.144 289.783C123.193 289.767 123.238 289.739 123.272 289.7C123.752 289.196 123.432 286.964 123.216 285.772H123.2Z" fill="#5552FF"/>
<path d="M125.336 288.652H125.288C124.416 288.564 123.288 286.38 123.12 285.388C123.115 285.366 123.117 285.342 123.125 285.321C123.134 285.299 123.149 285.281 123.168 285.268C123.187 285.256 123.21 285.25 123.232 285.25C123.255 285.25 123.277 285.256 123.296 285.268C123.376 285.268 125.344 286.004 125.872 287.14C125.948 287.301 125.99 287.475 125.997 287.652C126.004 287.829 125.975 288.006 125.912 288.172C125.76 288.556 125.528 288.652 125.336 288.652ZM123.424 285.548C123.712 286.644 124.728 288.3 125.312 288.356C125.368 288.356 125.536 288.356 125.664 288.028C125.719 287.902 125.747 287.766 125.747 287.628C125.747 287.491 125.719 287.355 125.664 287.228C125.248 286.404 123.952 285.796 123.424 285.548Z" fill="#5552FF"/>
<path d="M156.816 210.42C160.016 211.388 164.816 223.86 164.816 223.86L152.488 232.66C152.488 232.66 146.944 221.996 148.28 217.884C149.68 213.62 153.152 209.316 156.816 210.42Z" fill="#5552FF"/>
<path opacity="0.6" d="M156.816 210.42C160.016 211.388 164.816 223.86 164.816 223.86L152.488 232.66C152.488 232.66 146.944 221.996 148.28 217.884C149.68 213.62 153.152 209.316 156.816 210.42Z" fill="black"/>
<path d="M151.752 231.372C151.708 231.371 151.666 231.356 151.631 231.329C151.595 231.303 151.569 231.266 151.555 231.225C151.541 231.183 151.54 231.138 151.553 231.096C151.565 231.053 151.59 231.016 151.624 230.988L164.056 222.1C164.078 222.084 164.103 222.072 164.13 222.065C164.156 222.058 164.184 222.057 164.211 222.062C164.238 222.066 164.264 222.076 164.287 222.091C164.309 222.106 164.329 222.125 164.344 222.148C164.361 222.171 164.373 222.196 164.38 222.223C164.387 222.251 164.388 222.279 164.383 222.306C164.379 222.334 164.369 222.361 164.354 222.384C164.339 222.408 164.319 222.428 164.296 222.444L151.872 231.332C151.838 231.359 151.796 231.373 151.752 231.372Z" fill="white"/>
<path d="M62.5842 235.868H118.264L126.336 268.748H70.6562L62.5842 235.868Z" fill="#5552FF"/>
<path d="M90.7922 262.62L124.848 270.564L146.704 264.436L146.48 262.62H90.7922Z" fill="#5552FF"/>
<path d="M60.8723 235.868H116.552L124.616 268.748H68.9443L60.8723 235.868Z" fill="#5552FF"/>
<path opacity="0.5" d="M60.8723 235.868H116.552L124.616 268.748H68.9443L60.8723 235.868Z" fill="white"/>
<path d="M68.9443 268.748L69.1683 270.564H124.848L124.624 268.748H68.9443Z" fill="#5552FF"/>
<path opacity="0.5" d="M68.9443 268.748L69.1683 270.564H124.848L124.624 268.748H68.9443Z" fill="white"/>
</svg>
