<svg width="783" height="860" viewBox="0 0 783 860" fill="none" xmlns="http://www.w3.org/2000/svg">
<path d="M289.85 17.2024C144.773 66.5142 -16.3708 252.051 38.7771 444.12C94.2884 637.163 352.103 719.658 402.245 475.973C411.51 430.961 394.493 372.647 420.049 334.285C445.604 295.923 506.323 299.724 544.798 292.907C623.523 278.869 676.47 225.875 635.634 127.109C580.325 -7.02596 393.888 -18.1425 289.85 17.2024Z" fill="#D4D4FF"/>
<path opacity="0.8" d="M289.85 17.2024C144.773 66.5142 -16.3708 252.051 38.7771 444.12C94.2884 637.163 352.103 719.658 402.245 475.973C411.51 430.961 394.493 372.647 420.049 334.285C445.604 295.923 506.323 299.724 544.798 292.907C623.523 278.869 676.47 225.875 635.634 127.109C580.325 -7.02596 393.888 -18.1425 289.85 17.2024Z" fill="#D4D4FF"/>
<path d="M391.385 859.256C607.54 859.256 782.769 847.218 782.769 832.368C782.769 817.517 607.54 805.479 391.385 805.479C175.229 805.479 0 817.517 0 832.368C0 847.218 175.229 859.256 391.385 859.256Z" fill="#F5F5F5"/>
<path d="M425.922 810.42C425.29 810.418 424.677 810.16 424.188 809.688C423.699 809.216 423.363 808.56 423.238 807.831L384.885 585.595H318.089L279.736 807.831C279.553 808.622 279.121 809.303 278.528 809.733C277.934 810.164 277.224 810.313 276.541 810.149C275.857 809.986 275.252 809.523 274.849 808.854C274.445 808.185 274.273 807.361 274.367 806.548L313.164 581.723C313.293 580.996 313.63 580.342 314.118 579.871C314.607 579.4 315.217 579.14 315.849 579.134H387.105C387.737 579.136 388.35 579.394 388.839 579.866C389.328 580.338 389.664 580.994 389.79 581.723L428.607 806.548C428.75 807.386 428.605 808.256 428.204 808.968C427.803 809.68 427.179 810.177 426.467 810.348L425.922 810.42Z" fill="#5552FF"/>
<path d="M318.715 810.42C318.084 810.414 317.473 810.154 316.985 809.683C316.496 809.212 316.16 808.558 316.031 807.831L277.677 585.595H210.882L172.529 807.831C172.478 808.268 172.352 808.689 172.157 809.067C171.963 809.446 171.705 809.773 171.399 810.029C171.092 810.284 170.745 810.464 170.377 810.555C170.01 810.647 169.631 810.649 169.263 810.561C168.895 810.473 168.546 810.297 168.238 810.044C167.93 809.791 167.669 809.467 167.472 809.09C167.275 808.714 167.146 808.295 167.092 807.857C167.038 807.42 167.061 806.974 167.159 806.548L205.977 581.723C206.103 580.994 206.438 580.338 206.927 579.866C207.417 579.394 208.029 579.136 208.662 579.134H279.918C280.548 579.137 281.158 579.396 281.644 579.868C282.129 580.34 282.461 580.996 282.583 581.723L321.4 806.548C321.543 807.386 321.398 808.256 320.997 808.968C320.596 809.68 319.972 810.177 319.26 810.348L318.715 810.42Z" fill="#5552FF"/>
<path d="M333.714 582.388H210.983C199.718 582.391 188.901 577.196 180.855 567.918C172.808 558.641 168.174 546.021 167.947 532.767L163.385 313.287C163.299 308.381 164.046 303.504 165.581 298.942C167.117 294.38 169.411 290.224 172.328 286.718C175.245 283.212 178.728 280.426 182.572 278.524C186.416 276.621 190.543 275.64 194.713 275.638H271.662C279.363 275.644 286.793 278.983 292.537 285.019C298.281 291.055 301.937 299.367 302.809 308.37L333.714 582.388Z" fill="#5552FF"/>
<path d="M266.777 554.597H386.883C391.343 554.597 395.62 556.681 398.773 560.392C401.926 564.103 403.698 569.136 403.698 574.383V575.072C403.698 576.962 403.06 578.774 401.924 580.111C400.788 581.447 399.248 582.198 397.642 582.198H266.777V554.597Z" fill="#5552FF"/>
<g opacity="0.3">
<path d="M425.922 810.42C425.29 810.418 424.677 810.159 424.188 809.688C423.699 809.216 423.363 808.56 423.238 807.83L384.885 585.595H318.089L279.736 807.83C279.553 808.622 279.121 809.302 278.528 809.733C277.934 810.164 277.224 810.313 276.541 810.149C275.857 809.986 275.252 809.523 274.849 808.854C274.445 808.185 274.273 807.361 274.367 806.548L313.164 581.723C313.293 580.995 313.63 580.342 314.118 579.871C314.607 579.4 315.217 579.14 315.849 579.134H387.105C387.737 579.135 388.35 579.394 388.839 579.866C389.328 580.337 389.664 580.993 389.79 581.723L428.607 806.548C428.75 807.385 428.605 808.256 428.204 808.968C427.803 809.68 427.179 810.177 426.467 810.348L425.922 810.42Z" fill="black"/>
<path d="M318.715 810.42C318.084 810.414 317.473 810.153 316.985 809.682C316.496 809.211 316.16 808.558 316.031 807.83L277.677 585.595H210.882L172.529 807.83C172.478 808.268 172.352 808.689 172.157 809.067C171.963 809.445 171.705 809.772 171.399 810.028C171.092 810.284 170.745 810.464 170.377 810.555C170.01 810.647 169.631 810.648 169.263 810.561C168.895 810.473 168.546 810.297 168.238 810.044C167.93 809.791 167.669 809.467 167.472 809.09C167.275 808.714 167.146 808.295 167.092 807.857C167.038 807.42 167.061 806.974 167.159 806.548L205.977 581.723C206.103 580.993 206.438 580.337 206.927 579.866C207.417 579.394 208.029 579.135 208.662 579.134H279.918C280.548 579.136 281.158 579.396 281.644 579.868C282.129 580.34 282.461 580.995 282.583 581.723L321.4 806.548C321.543 807.385 321.398 808.256 320.997 808.968C320.596 809.68 319.972 810.177 319.26 810.348L318.715 810.42Z" fill="black"/>
<path d="M333.714 582.388H210.983C199.718 582.391 188.901 577.196 180.855 567.918C172.808 558.641 168.174 546.021 167.947 532.767L163.385 313.287C163.299 308.381 164.046 303.504 165.581 298.942C167.117 294.38 169.411 290.224 172.328 286.718C175.245 283.212 178.728 280.426 182.572 278.524C186.416 276.621 190.543 275.64 194.713 275.638H271.662C279.363 275.644 286.793 278.983 292.537 285.019C298.281 291.055 301.937 299.367 302.809 308.37L333.714 582.388Z" fill="black"/>
<path d="M266.777 554.597H386.883C391.343 554.597 395.62 556.681 398.773 560.392C401.926 564.103 403.698 569.136 403.698 574.383V575.072C403.698 576.962 403.06 578.774 401.924 580.111C400.788 581.447 399.248 582.198 397.642 582.198H266.777V554.597Z" fill="black"/>
</g>
<path d="M299.559 263.524C299.559 263.524 316.717 289.89 305.614 342.385C294.512 394.88 237.225 366.376 233.753 319.059C229.715 263.286 282.925 301.743 292.292 252.146L299.559 263.524Z" fill="#5552FF"/>
<path d="M287.104 247.87C279.656 254.046 276.709 263.025 284.944 271.814C293.18 280.603 304.928 280.317 308.481 276.707C312.034 273.096 311.327 254.759 311.327 254.759L287.104 247.87Z" fill="#5552FF"/>
<path opacity="0.8" d="M287.104 247.87C279.656 254.046 276.709 263.025 284.944 271.814C293.18 280.603 304.928 280.317 308.481 276.707C312.034 273.096 311.327 254.759 311.327 254.759L287.104 247.87Z" fill="white"/>
<path d="M381.171 364.713C381.372 365.782 381.716 367.445 382.039 368.846L383.007 373.312C383.694 376.305 384.441 379.298 385.228 382.29C386.722 388.324 388.377 394.333 390.113 400.343C391.849 406.353 393.625 412.22 395.563 418.3C396.512 421.27 397.461 424.262 398.47 427.232L399.641 430.795C399.875 431.404 400.18 431.972 400.549 432.481C403.423 435.901 406.923 438.501 410.783 440.082C415.498 442.315 420.358 444.094 425.317 445.403C430.444 446.804 435.713 447.968 441.042 448.942C446.371 449.916 451.841 450.7 457.09 451.318L457.271 464.097C445.756 465.498 434.148 465.498 422.632 464.097C416.614 463.367 410.662 462.007 404.849 460.035C401.7 458.916 398.635 457.494 395.684 455.783C392.287 453.841 389.179 451.266 386.479 448.158C384.913 446.322 383.555 444.254 382.442 442.006C382.139 441.436 381.877 440.795 381.594 440.201L381.07 438.918L380.141 436.543C378.89 433.526 377.638 430.51 376.487 427.445C374.146 421.317 371.865 415.141 369.826 408.847C367.787 402.552 365.789 396.21 364.093 389.844C363.266 386.566 362.458 383.312 361.711 379.963L360.601 374.951C360.278 373.145 359.975 371.649 359.652 369.511L381.171 364.713Z" fill="#E58A7B"/>
<path d="M374.307 337.729C382.967 340.318 389.003 382.219 389.003 382.219L365.163 401.222C365.163 401.222 342.292 358.941 349.014 347.753C355.898 336.257 361.671 334.024 374.307 337.729Z" fill="#5552FF"/>
<path opacity="0.5" d="M374.307 337.729C382.967 340.318 389.003 382.219 389.003 382.219L365.163 401.222C365.163 401.222 342.292 358.941 349.014 347.753C355.898 336.257 361.671 334.024 374.307 337.729Z" fill="white"/>
<path opacity="0.2" d="M371.199 348.276L350.468 367.611C354.505 379.356 359.416 390.659 365.143 401.388L381.675 388.157L371.199 348.276Z" fill="#5552FF"/>
<path d="M374.307 337.729C374.307 337.729 384.4 341.862 364.214 486.829H278.989C280.423 445.997 280.463 420.818 263.89 336.993C275.824 334.1 287.92 332.227 300.084 331.387C312.98 330.305 325.925 330.305 338.82 331.387C355.454 333.264 374.307 337.729 374.307 337.729Z" fill="#5552FF"/>
<path opacity="0.5" d="M374.307 337.729C374.307 337.729 384.4 341.862 364.214 486.829H278.989C280.423 445.997 280.463 420.818 263.89 336.993C275.824 334.1 287.92 332.227 300.084 331.387C312.98 330.305 325.925 330.305 338.82 331.387C355.454 333.264 374.307 337.729 374.307 337.729Z" fill="white"/>
<path d="M453.961 451.199L468.838 433.431L470.856 458.467C470.856 458.467 459.693 467.351 451.982 462.576L453.961 451.199Z" fill="#E58A7B"/>
<path d="M486.4 430.795L487.066 451.84L470.836 458.467L468.878 433.431L486.4 430.795Z" fill="#E58A7B"/>
<path d="M460.945 787.379H481.939L485.168 730.157H464.175L460.945 787.379Z" fill="#E58A7B"/>
<path d="M379.697 787.379H400.69L407.432 730.157H386.439L379.697 787.379Z" fill="#E58A7B"/>
<path d="M402.002 784.505H378.405C377.999 784.495 377.603 784.661 377.294 784.972C376.985 785.283 376.784 785.717 376.73 786.191L374.045 808.163C373.997 808.718 374.048 809.279 374.196 809.809C374.344 810.339 374.584 810.827 374.902 811.241C375.219 811.655 375.607 811.986 376.04 812.213C376.473 812.439 376.942 812.557 377.416 812.557C385.632 812.391 389.528 811.821 399.964 811.821C406.342 811.821 422.713 812.605 431.534 812.605C440.356 812.605 440.82 802.343 437.146 801.417C420.695 797.236 411.046 791.512 405.495 786.025C404.521 785.046 403.283 784.507 402.002 784.505Z" fill="#5552FF"/>
<path d="M483.574 784.505H460.017C459.611 784.5 459.218 784.668 458.91 784.978C458.602 785.288 458.4 785.719 458.341 786.191L455.657 808.163C455.609 808.718 455.66 809.279 455.808 809.809C455.955 810.339 456.195 810.827 456.513 811.241C456.831 811.655 457.219 811.986 457.652 812.213C458.085 812.44 458.554 812.557 459.028 812.557C467.243 812.391 471.139 811.821 481.575 811.821C487.974 811.821 501.156 812.605 509.977 812.605C518.798 812.605 519.262 802.343 515.589 801.417C499.137 797.236 492.657 791.512 487.126 786.025C486.133 785.038 484.874 784.499 483.574 784.505Z" fill="#5552FF"/>
<path d="M357.573 230.174C365.123 230.744 368.958 275.306 346.814 272.716C324.67 270.127 357.573 230.174 357.573 230.174Z" fill="#5552FF"/>
<path d="M485.168 730.157L483.493 759.659H462.5L464.155 730.157H485.168Z" fill="#CF6F64"/>
<path d="M386.439 730.157H407.452L403.96 759.659H382.947L386.439 730.157Z" fill="#CF6F64"/>
<path opacity="0.2" d="M272.409 383.597C274.427 395.758 275.86 406.257 276.951 415.711L281.936 370.319L272.409 383.597Z" fill="#5552FF"/>
<path d="M303.919 280.175C306.362 294.831 308.804 321.696 300.084 331.482C300.084 331.482 303.495 346.352 326.648 346.352C352.103 346.352 338.76 331.482 338.76 331.482C324.852 327.587 325.215 315.449 327.637 304.071L303.919 280.175Z" fill="#E58A7B"/>
<path d="M322.046 349.535L329.797 346.257L328.768 343.763L322.046 349.535Z" fill="#5552FF"/>
<path d="M337.084 347.634L329.797 346.257L331.372 343.478L337.084 347.634Z" fill="#5552FF"/>
<path d="M302.91 324.57L297.641 330.603C297.483 330.794 297.395 331.05 297.395 331.316C297.395 331.582 297.483 331.838 297.641 332.028L319.846 361.791C320.902 354.723 324.118 348.353 328.889 343.881C310.52 335.71 305.736 327.254 304.101 324.879C304.063 324.741 303.995 324.617 303.903 324.519C303.812 324.421 303.701 324.354 303.58 324.322C303.46 324.291 303.335 324.298 303.217 324.341C303.099 324.384 302.993 324.463 302.91 324.57Z" fill="#5552FF"/>
<path d="M334.642 329.13L341.182 331.221C341.378 331.285 341.556 331.409 341.697 331.58C341.839 331.751 341.94 331.963 341.99 332.195C343.837 341.957 343.489 352.117 340.98 361.672C340.052 357.634 336.943 347.967 331.372 343.477C337.428 338.561 334.985 332.218 334.117 329.819C334.089 329.73 334.082 329.633 334.097 329.54C334.112 329.446 334.149 329.359 334.203 329.288C334.257 329.217 334.326 329.165 334.404 329.137C334.481 329.11 334.563 329.107 334.642 329.13Z" fill="#5552FF"/>
<path d="M313.628 289.914L327.759 304.047C327.171 306.695 326.773 309.397 326.568 312.123C321.259 311.221 313.972 304.38 313.406 297.871C313.061 295.225 313.136 292.527 313.628 289.914Z" fill="#CF6F64"/>
<path d="M302.567 241.552C300.165 265.899 298.691 276.161 307.169 290.698C319.886 312.574 345.845 310.722 354.384 287.705C362.075 266.992 364.699 230.697 346.128 216.825C342.043 213.757 337.359 211.968 332.521 211.63C327.683 211.292 322.852 212.415 318.487 214.893C314.122 217.371 310.368 221.121 307.581 225.787C304.795 230.453 303.069 235.88 302.567 241.552Z" fill="#E58A7B"/>
<path d="M349.882 201.338C315.667 185.447 289.97 203.381 284.662 228.868C276.325 268.441 302.95 271.22 302.95 271.22L306.281 261.101C311.065 264.498 324.448 263.001 320.411 233.618C318.029 216.991 335.914 240.151 358.603 237.562C364.638 236.873 372.894 212.027 349.882 201.338Z" fill="#5552FF"/>
<path d="M361.529 211.124C357.028 202.977 347.823 195.993 328.748 192.692C328.748 192.692 338.659 195.328 341.868 203.856C345.078 212.383 366.96 220.934 361.529 211.124Z" fill="#5552FF"/>
<path d="M295.986 262.621C295.846 264.963 296.101 267.314 296.735 269.539C297.368 271.765 298.369 273.821 299.68 275.591C303.212 280.341 307.855 277.42 309.309 271.719C310.601 266.564 310.338 257.918 305.615 255.305C300.891 252.692 296.369 256.826 295.986 262.621Z" fill="#E58A7B"/>
<path d="M364.275 486.924C364.275 486.924 505.052 502.339 503.679 577.661C502.246 656.047 487.994 753.958 487.994 753.958H458.907C458.907 753.958 456.424 671.107 455.576 593.932C455.152 553.742 319.119 545.689 319.119 545.689L301.557 486.924H364.275Z" fill="#5552FF"/>
<path d="M341.748 486.924C341.748 486.924 432.725 522.435 435.027 566.378C439.246 647.282 409.027 754.029 409.027 754.029H380.383C380.383 754.029 382.018 683.245 385.43 609.942C389.75 517.827 251.638 608.659 278.99 486.995L341.748 486.924Z" fill="#5552FF"/>
<path d="M332.502 254.83C332.2 256.778 332.846 258.56 333.936 258.797C335.026 259.035 336.136 257.609 336.439 255.662C336.741 253.714 336.096 251.909 335.005 251.695C333.915 251.481 332.846 252.859 332.502 254.83Z" fill="#5552FF"/>
<path d="M351.336 258.797C351.033 260.745 351.679 262.526 352.769 262.764C353.859 263.001 354.99 261.576 355.292 259.628C355.595 257.681 354.949 255.875 353.859 255.662C352.769 255.448 351.639 256.826 351.336 258.797Z" fill="#5552FF"/>
<path d="M353.354 255.662L357.573 255.139C357.573 255.139 355.05 258.393 353.354 255.662Z" fill="#5552FF"/>
<path d="M345.845 261.101C346.653 265.888 348.011 270.523 349.882 274.878C348.931 275.387 347.899 275.651 346.854 275.651C345.81 275.651 344.777 275.387 343.826 274.878L345.845 261.101Z" fill="#DF5753"/>
<path d="M336.883 281.22C334.667 280.807 332.566 279.785 330.75 278.237C328.933 276.689 327.452 274.66 326.426 272.313C326.392 272.221 326.39 272.118 326.42 272.024C326.45 271.931 326.511 271.855 326.588 271.814C326.668 271.781 326.756 271.785 326.835 271.824C326.913 271.864 326.976 271.936 327.012 272.028C327.982 274.246 329.38 276.166 331.094 277.634C332.808 279.102 334.791 280.078 336.883 280.484C336.966 280.507 337.04 280.566 337.089 280.649C337.137 280.733 337.157 280.835 337.145 280.935C337.13 281.008 337.097 281.073 337.05 281.124C337.004 281.175 336.945 281.208 336.883 281.22Z" fill="#5552FF"/>
<path d="M328.081 246.065C327.994 246.069 327.907 246.05 327.826 246.009C327.746 245.967 327.675 245.906 327.617 245.828C327.556 245.761 327.507 245.68 327.474 245.59C327.441 245.5 327.423 245.403 327.423 245.305C327.423 245.207 327.441 245.11 327.474 245.02C327.507 244.93 327.556 244.849 327.617 244.783C328.704 243.532 330.031 242.608 331.486 242.087C332.94 241.566 334.479 241.464 335.974 241.79C336.132 241.845 336.266 241.969 336.349 242.137C336.431 242.305 336.456 242.504 336.418 242.692C336.399 242.788 336.364 242.878 336.315 242.958C336.266 243.038 336.204 243.105 336.133 243.156C336.061 243.207 335.982 243.24 335.899 243.255C335.816 243.269 335.732 243.263 335.651 243.239C334.361 242.97 333.036 243.07 331.786 243.529C330.535 243.987 329.397 244.792 328.465 245.875C328.357 245.984 328.223 246.05 328.081 246.065Z" fill="#5552FF"/>
<path d="M361.63 249.961C361.505 249.966 361.382 249.926 361.277 249.845C361.172 249.764 361.091 249.647 361.045 249.509C360.552 248.084 359.779 246.815 358.79 245.808C357.8 244.801 356.623 244.083 355.353 243.714C355.188 243.679 355.041 243.57 354.944 243.411C354.846 243.251 354.804 243.053 354.828 242.859C354.857 242.66 354.953 242.484 355.093 242.368C355.233 242.252 355.406 242.206 355.575 242.241C357.053 242.644 358.428 243.461 359.58 244.623C360.733 245.786 361.63 247.258 362.196 248.916C362.264 249.099 362.268 249.306 362.208 249.492C362.148 249.679 362.027 249.83 361.873 249.913L361.63 249.961Z" fill="#5552FF"/>
<path d="M276.627 372.837C274.791 379.963 272.812 387.089 271.056 394.405C269.3 401.721 267.443 408.847 265.848 416.091C264.253 423.336 262.74 430.51 261.609 437.469C261.064 440.985 260.559 444.477 260.277 447.755C260.115 449.393 260.035 450.937 260.014 452.363C260.014 452.695 260.014 452.363 259.813 451.816C259.566 451.173 259.224 450.585 258.803 450.082C257.774 449.037 257.39 449.227 257.855 449.393C258.7 449.636 259.569 449.74 260.438 449.702C263.156 449.592 265.859 449.187 268.513 448.491C274.525 446.932 280.451 444.941 286.256 442.529C298.186 437.778 310.298 431.982 322.086 426.068L327.294 437.256C316.11 445.883 304.42 453.567 292.312 460.249C286.042 463.729 279.574 466.689 272.954 469.109C269.268 470.43 265.482 471.329 261.65 471.793C259.256 472.082 256.841 472.01 254.463 471.579C252.885 471.301 251.345 470.782 249.881 470.035C247.989 469.072 246.275 467.685 244.835 465.95C242.035 462.478 240.431 457.907 240.333 453.123C240.232 450.747 240.212 448.372 240.333 446.234C240.474 441.84 240.818 437.683 241.282 433.621C242.251 425.498 243.502 417.659 245.037 409.868C246.571 402.077 248.206 394.547 250.002 386.994C251.799 379.44 253.737 372.029 256.058 364.475L276.627 372.837Z" fill="#E58A7B"/>
<path d="M409.189 788.662C407.329 788.608 405.48 788.305 403.678 787.759C403.611 787.744 403.549 787.705 403.5 787.648C403.451 787.591 403.418 787.518 403.405 787.439C403.392 787.36 403.4 787.278 403.427 787.204C403.454 787.129 403.499 787.066 403.557 787.023C404.263 786.476 410.561 781.678 412.963 782.937C413.215 783.071 413.431 783.283 413.588 783.551C413.744 783.819 413.836 784.133 413.852 784.457C413.952 784.984 413.934 785.533 413.8 786.05C413.665 786.566 413.419 787.032 413.085 787.403C411.953 788.349 410.573 788.795 409.189 788.662ZM404.647 787.189C408.543 788.139 411.47 788.02 412.6 786.785C412.846 786.504 413.027 786.153 413.126 785.767C413.225 785.38 413.238 784.97 413.165 784.576C413.158 784.389 413.107 784.208 413.018 784.054C412.929 783.899 412.805 783.775 412.661 783.697C411.127 782.89 406.867 785.574 404.647 787.189Z" fill="#5552FF"/>
<path d="M403.758 787.783H403.577C403.52 787.744 403.474 787.689 403.442 787.622C403.41 787.555 403.394 787.479 403.395 787.403C403.395 787.118 403.395 780.087 405.656 777.759C405.921 777.46 406.241 777.238 406.591 777.11C406.942 776.982 407.313 776.952 407.675 777.022C408.038 777.019 408.392 777.164 408.675 777.432C408.959 777.7 409.154 778.076 409.229 778.495C409.653 781.06 406.14 786.31 403.94 787.783H403.758ZM407.311 777.759C406.867 777.762 406.441 777.966 406.12 778.329C404.526 779.992 404.203 784.695 404.102 786.571C406.12 784.861 408.825 780.538 408.482 778.614C408.482 778.305 408.28 777.901 407.553 777.783L407.311 777.759Z" fill="#5552FF"/>
<path d="M491.466 788.662C489.248 788.604 487.039 788.31 484.866 787.783C484.795 787.761 484.73 787.717 484.68 787.653C484.63 787.59 484.596 787.511 484.583 787.426C484.572 787.339 484.586 787.25 484.623 787.173C484.659 787.095 484.716 787.034 484.785 786.999C485.713 786.429 494.01 781.441 496.533 783.056C496.752 783.199 496.937 783.404 497.071 783.653C497.206 783.902 497.284 784.187 497.3 784.481C497.357 784.976 497.31 785.48 497.162 785.948C497.014 786.416 496.77 786.834 496.452 787.165C494.984 788.319 493.225 788.847 491.466 788.662ZM486.037 787.189C488.741 787.735 494.111 788.519 495.968 786.571C496.2 786.316 496.377 786.001 496.486 785.65C496.595 785.299 496.632 784.923 496.594 784.552C496.592 784.391 496.554 784.233 496.483 784.096C496.412 783.958 496.311 783.845 496.19 783.768C494.535 782.723 488.963 785.502 486.037 787.189Z" fill="#5552FF"/>
<path d="M484.946 787.783C484.881 787.807 484.81 787.807 484.744 787.783C484.695 787.737 484.656 787.68 484.628 787.614C484.6 787.548 484.584 787.476 484.583 787.403C484.583 787.118 485.088 780.538 487.671 777.901C488.033 777.538 488.455 777.267 488.91 777.103C489.365 776.94 489.843 776.888 490.316 776.951C491.608 777.094 491.971 777.854 492.072 778.448C492.435 781.179 487.55 786.405 485.088 787.712L484.946 787.783ZM489.932 777.759C489.269 777.756 488.628 778.044 488.136 778.567C486.238 780.419 485.572 784.861 485.37 786.643C488.015 784.909 491.628 780.443 491.426 778.614C491.426 778.424 491.426 777.901 490.316 777.783L489.932 777.759Z" fill="#5552FF"/>
<path d="M321.602 426.448L341.505 420.509L332.018 443.004C332.018 443.004 318.554 443.693 314.113 434.856L321.602 426.448Z" fill="#E58A7B"/>
<path d="M357.593 429.037L348.792 447.374L332.018 443.004L341.505 420.509L357.593 429.037Z" fill="#E58A7B"/>
<path d="M334.501 251.695L338.72 251.172C338.72 251.172 336.116 254.426 334.501 251.695Z" fill="#5552FF"/>
<path d="M277.718 481.033L277.031 490.012C276.749 490.724 277.435 491.437 278.424 491.437H364.699C365.466 491.437 366.092 490.985 366.152 490.415L366.919 481.437C366.919 480.819 366.293 480.296 365.466 480.296H279.11C278.844 480.27 278.577 480.324 278.333 480.453C278.089 480.581 277.878 480.781 277.718 481.033Z" fill="#5552FF"/>
<path d="M289.325 492.411H287.003C286.539 492.411 286.196 492.126 286.216 491.793L287.306 480.106C287.306 479.774 287.75 479.489 288.214 479.489H290.455C290.919 479.489 291.262 479.774 291.242 480.106L290.152 491.793C290.172 492.126 289.769 492.411 289.325 492.411Z" fill="#5552FF"/>
<path d="M358.199 492.411H355.877C355.413 492.411 355.07 492.126 355.09 491.793L356.18 480.106C356.18 479.774 356.624 479.489 357.089 479.489H359.39C359.854 479.489 360.197 479.774 360.177 480.106L359.087 491.793C359.087 492.126 358.643 492.411 358.199 492.411Z" fill="#5552FF"/>
<path d="M323.762 492.411H321.44C320.976 492.411 320.633 492.126 320.653 491.793L321.743 480.106C321.743 479.774 322.187 479.489 322.652 479.489H324.953C325.417 479.489 325.76 479.774 325.74 480.106L324.65 491.793C324.61 492.126 324.226 492.411 323.762 492.411Z" fill="#5552FF"/>
<path d="M263.89 337.088C255.332 340.152 245.077 374.761 245.077 374.761L272.631 406.424C272.631 406.424 290.314 373.763 286.761 360.77C282.986 347.231 273.64 333.62 263.89 337.088Z" fill="#5552FF"/>
<path opacity="0.5" d="M263.89 337.088C255.332 340.152 245.077 374.761 245.077 374.761L272.631 406.424C272.631 406.424 290.314 373.763 286.761 360.77C282.986 347.231 273.64 333.62 263.89 337.088Z" fill="white"/>
<path d="M721.747 462.244H561.148V829.826H721.747V462.244Z" fill="#5552FF"/>
<path opacity="0.6" d="M721.747 462.244H561.148V829.826H721.747V462.244Z" fill="white"/>
<path d="M410.622 462.244H250.023V829.826H410.622V462.244Z" fill="#5552FF"/>
<path opacity="0.6" d="M410.622 462.244H250.023V829.826H410.622V462.244Z" fill="white"/>
<path d="M727.763 462.244H714.521V829.826H727.763V462.244Z" fill="#5552FF"/>
<path opacity="0.3" d="M727.763 462.244H714.521V829.826H727.763V462.244Z" fill="black"/>
<path d="M412.539 489.822L731.86 489.822V462.244L412.539 462.244V489.822Z" fill="#5552FF"/>
<path opacity="0.3" d="M412.539 489.822L731.86 489.822V462.244L412.539 462.244V489.822Z" fill="black"/>
<path d="M416.657 462.244H403.416V829.826H416.657V462.244Z" fill="#5552FF"/>
<path opacity="0.3" d="M416.657 462.244H403.416V829.826H416.657V462.244Z" fill="black"/>
<path d="M411.772 550.179H721.142V470.771L411.772 470.771V550.179Z" fill="#5552FF"/>
<path opacity="0.3" d="M411.772 550.179H721.142V470.771L411.772 470.771V550.179Z" fill="black"/>
<path d="M721.828 840.515H632.667C626.613 840.509 620.81 837.677 616.529 832.64C612.249 827.603 609.842 820.773 609.837 813.65V482.624C609.837 476.325 607.71 470.283 603.924 465.828C600.139 461.374 595.004 458.871 589.651 458.871H562.965V456.496H589.63C595.519 456.496 601.167 459.249 605.331 464.149C609.496 469.049 611.835 475.695 611.835 482.624V813.65C611.84 820.143 614.035 826.369 617.936 830.96C621.838 835.551 627.129 838.134 632.647 838.14H721.828C723.346 838.143 724.826 837.583 726.057 836.538C727.288 835.494 728.207 834.018 728.684 832.323C729.16 830.627 729.17 828.798 728.711 827.096C728.252 825.393 727.348 823.905 726.128 822.843L727.319 820.942C728.876 822.303 730.03 824.206 730.616 826.382C731.201 828.557 731.189 830.895 730.581 833.063C729.973 835.23 728.8 837.117 727.229 838.455C725.657 839.793 723.768 840.514 721.828 840.515Z" fill="#5552FF"/>
<path opacity="0.3" d="M721.828 840.515H632.667C626.613 840.509 620.81 837.677 616.529 832.64C612.249 827.603 609.842 820.773 609.837 813.65V482.624C609.837 476.325 607.71 470.283 603.924 465.828C600.139 461.374 595.004 458.871 589.651 458.871H562.965V456.496H589.63C595.519 456.496 601.167 459.249 605.331 464.149C609.496 469.049 611.835 475.695 611.835 482.624V813.65C611.84 820.143 614.035 826.369 617.936 830.96C621.838 835.551 627.129 838.134 632.647 838.14H721.828C723.346 838.143 724.826 837.583 726.057 836.538C727.288 835.494 728.207 834.018 728.684 832.323C729.16 830.627 729.17 828.798 728.711 827.096C728.252 825.393 727.348 823.905 726.128 822.843L727.319 820.942C728.876 822.303 730.03 824.206 730.616 826.382C731.201 828.557 731.189 830.895 730.581 833.063C729.973 835.23 728.8 837.117 727.229 838.455C725.657 839.793 723.768 840.514 721.828 840.515Z" fill="black"/>
<path d="M734.828 570.702H732.809V616.617H734.828V570.702Z" fill="#5552FF"/>
<path opacity="0.3" d="M734.828 570.702H732.809V616.617H734.828V570.702Z" fill="black"/>
<path d="M734.828 543.599H732.809V555.666H734.828V543.599Z" fill="#5552FF"/>
<path opacity="0.3" d="M734.828 543.599H732.809V555.666H734.828V543.599Z" fill="black"/>
<path d="M586.986 352.504H437.328L415.648 456.496H565.286L586.986 352.504Z" fill="#5552FF"/>
<path opacity="0.4" d="M586.986 352.504H437.328L415.648 456.496H565.286L586.986 352.504Z" fill="white"/>
<path d="M420.23 456.496L419.625 462.244H360.904L361.509 456.496H420.23Z" fill="#5552FF"/>
<path opacity="0.4" d="M420.23 456.496L419.625 462.244H360.904L361.509 456.496H420.23Z" fill="white"/>
<path d="M569.888 456.496L569.283 462.244H419.625L420.23 456.496H569.888Z" fill="#5552FF"/>
<path opacity="0.5" d="M569.888 456.496L569.283 462.244H419.625L420.23 456.496H569.888Z" fill="black"/>
<path d="M591.588 352.504H441.93L420.25 456.496H569.888L591.588 352.504Z" fill="#5552FF"/>
<path opacity="0.5" d="M591.588 352.504H441.93L420.25 456.496H569.888L591.588 352.504Z" fill="black"/>
<path d="M649.38 436.044C649.38 436.044 627.357 391.364 657.838 355.806C657.838 355.806 665.811 361.934 665.69 370.058C665.569 378.181 657.152 380.366 658.948 387.207C660.745 394.048 668.718 400.818 663.49 406.495C658.262 412.172 664.338 417.208 663.975 424.144C663.611 431.08 649.38 436.044 649.38 436.044Z" fill="#5552FF"/>
<path d="M651.056 440.13C651.056 440.13 659.978 389.559 621.464 367.16C621.464 367.16 615.529 375.925 617.85 383.787C620.172 391.649 628.71 390.39 628.831 397.587C628.953 404.785 623.22 414.096 629.699 417.54C636.179 420.985 631.718 428.039 633.959 434.5C636.199 440.961 651.056 440.13 651.056 440.13Z" fill="#5552FF"/>
<path opacity="0.5" d="M651.056 440.13C651.056 440.13 659.978 389.559 621.464 367.16C621.464 367.16 615.529 375.925 617.85 383.787C620.172 391.649 628.71 390.39 628.831 397.587C628.953 404.785 623.22 414.096 629.699 417.54C636.179 420.985 631.718 428.039 633.959 434.5C636.199 440.961 651.056 440.13 651.056 440.13Z" fill="black"/>
<path d="M617.305 428.918C617.305 428.918 618.052 462.173 646.13 462.173C674.209 462.173 674.936 428.918 674.936 428.918H617.305Z" fill="#5552FF"/>
<path opacity="0.5" d="M617.305 428.918C617.305 428.918 618.052 462.173 646.13 462.173C674.209 462.173 674.936 428.918 674.936 428.918H617.305Z" fill="black"/>
<path d="M466.375 211.029L442.394 174.568L418.414 211.029H429.697V258.227H455.091V211.029H466.375Z" fill="#5552FF"/>
<path d="M536.723 253.904C536.723 236.265 542.678 219.348 553.278 206.875C563.877 194.402 578.254 187.395 593.244 187.395V204.711C587.757 204.708 582.324 205.977 577.255 208.445C572.185 210.913 567.579 214.533 563.699 219.097C559.818 223.661 556.74 229.08 554.64 235.044C552.54 241.008 551.459 247.4 551.459 253.856L536.723 253.904Z" fill="#5552FF"/>
<path d="M536.723 253.904H551.459C551.459 266.944 555.861 279.451 563.697 288.672C571.534 297.893 582.162 303.073 593.244 303.073C600.576 303.089 607.779 300.81 614.116 296.47L621.504 311.601C612.912 317.438 603.165 320.511 593.243 320.511C583.321 320.511 573.575 317.438 564.982 311.6C556.39 305.762 549.255 297.366 544.294 287.255C539.334 277.144 536.723 265.674 536.723 253.999V253.904Z" fill="#5552FF"/>
<path opacity="0.5" d="M536.723 253.904H551.459C551.459 266.944 555.861 279.451 563.697 288.672C571.534 297.893 582.162 303.073 593.244 303.073C600.576 303.089 607.779 300.81 614.116 296.47L621.504 311.601C612.912 317.438 603.165 320.511 593.243 320.511C583.321 320.511 573.575 317.438 564.982 311.6C556.39 305.762 549.255 297.366 544.294 287.255C539.334 277.144 536.723 265.674 536.723 253.999V253.904Z" fill="white"/>
<path d="M593.244 204.711V187.347C605.726 187.291 617.872 192.098 627.788 201.019C637.704 209.94 644.832 222.472 648.059 236.661C651.286 250.849 650.431 265.896 645.627 279.452C640.823 293.009 632.341 304.313 621.504 311.601L614.136 296.565C622.162 291.188 628.447 282.833 632.008 272.806C635.569 262.78 636.205 251.647 633.818 241.149C631.43 230.651 626.153 221.381 618.811 214.788C611.47 208.195 602.479 204.651 593.244 204.711Z" fill="#5552FF"/>
<path opacity="0.7" d="M593.244 204.711V187.347C605.726 187.291 617.872 192.098 627.788 201.019C637.704 209.94 644.832 222.472 648.059 236.661C651.286 250.849 650.431 265.896 645.627 279.452C640.823 293.009 632.341 304.313 621.504 311.601L614.136 296.565C622.162 291.188 628.447 282.833 632.008 272.806C635.569 262.78 636.205 251.647 633.818 241.149C631.43 230.651 626.153 221.381 618.811 214.788C611.47 208.195 602.479 204.651 593.244 204.711Z" fill="black"/>
<path d="M540.175 90.6951H488.681C486.845 90.6951 485.083 91.5535 483.785 93.0814C482.487 94.6094 481.757 96.6817 481.757 98.8425V210.887C481.773 213.035 482.51 215.089 483.806 216.602C485.103 218.114 486.855 218.963 488.681 218.963H554.588C556.421 218.957 558.177 218.095 559.471 216.568C560.765 215.041 561.491 212.972 561.491 210.816V115.802L540.175 90.6951Z" fill="#5552FF"/>
<path d="M537.147 207.823H494.333C493.53 207.823 492.76 207.447 492.192 206.779C491.624 206.111 491.305 205.205 491.305 204.26C491.31 203.319 491.632 202.419 492.199 201.755C492.766 201.092 493.533 200.72 494.333 200.72H537.167C537.967 200.72 538.734 201.092 539.301 201.755C539.868 202.419 540.19 203.319 540.195 204.26C540.19 205.207 539.866 206.113 539.295 206.78C538.724 207.448 537.952 207.823 537.147 207.823Z" fill="#5552FF"/>
<path d="M516.961 109.056H494.333C493.533 109.056 492.766 108.684 492.199 108.021C491.632 107.358 491.31 106.458 491.305 105.517C491.305 104.572 491.624 103.666 492.192 102.998C492.76 102.329 493.53 101.954 494.333 101.954H516.981C517.784 101.954 518.555 102.329 519.122 102.998C519.69 103.666 520.009 104.572 520.009 105.517C520.007 105.985 519.926 106.448 519.771 106.879C519.616 107.31 519.391 107.701 519.108 108.03C518.825 108.358 518.49 108.618 518.121 108.794C517.753 108.97 517.359 109.059 516.961 109.056Z" fill="#5552FF"/>
<path d="M531.758 123.166H494.333C493.533 123.166 492.766 122.794 492.199 122.131C491.632 121.468 491.31 120.567 491.305 119.627C491.305 118.682 491.624 117.775 492.192 117.107C492.76 116.439 493.53 116.064 494.333 116.064H531.778C532.577 116.07 533.342 116.448 533.906 117.116C534.469 117.783 534.785 118.686 534.785 119.627C534.785 120.093 534.707 120.556 534.555 120.987C534.402 121.417 534.179 121.809 533.897 122.138C533.616 122.467 533.282 122.727 532.915 122.903C532.547 123.08 532.154 123.169 531.758 123.166Z" fill="#5552FF"/>
<path d="M548.956 137.275H494.333C493.533 137.275 492.766 136.903 492.199 136.24C491.632 135.577 491.31 134.677 491.305 133.736C491.305 132.791 491.624 131.885 492.192 131.217C492.76 130.548 493.53 130.173 494.333 130.173H548.976C549.779 130.173 550.549 130.548 551.117 131.217C551.685 131.885 552.004 132.791 552.004 133.736C552.001 134.204 551.92 134.667 551.766 135.098C551.611 135.529 551.386 135.92 551.103 136.248C550.82 136.577 550.485 136.837 550.116 137.013C549.748 137.189 549.354 137.278 548.956 137.275Z" fill="#5552FF"/>
<path d="M548.956 151.385H517.183C516.384 151.385 515.616 151.013 515.049 150.35C514.482 149.686 514.161 148.786 514.155 147.845C514.155 146.9 514.474 145.994 515.042 145.326C515.61 144.658 516.38 144.282 517.183 144.282H548.956C549.759 144.282 550.529 144.658 551.097 145.326C551.665 145.994 551.984 146.9 551.984 147.845C551.978 148.786 551.657 149.686 551.09 150.35C550.522 151.013 549.755 151.385 548.956 151.385Z" fill="#5552FF"/>
<path d="M502.609 151.385H494.333C493.533 151.385 492.766 151.013 492.199 150.35C491.632 149.686 491.31 148.786 491.305 147.845C491.305 146.9 491.624 145.994 492.192 145.326C492.76 144.658 493.53 144.282 494.333 144.282H502.629C503.432 144.282 504.202 144.658 504.77 145.326C505.338 145.994 505.657 146.9 505.657 147.845C505.654 148.313 505.574 148.776 505.419 149.207C505.264 149.638 505.039 150.029 504.756 150.358C504.473 150.687 504.138 150.946 503.769 151.123C503.401 151.299 503.007 151.388 502.609 151.385Z" fill="#5552FF"/>
<path d="M548.956 165.494H494.333C493.53 165.494 492.76 165.119 492.192 164.451C491.624 163.782 491.305 162.876 491.305 161.931C491.31 160.99 491.632 160.09 492.199 159.427C492.766 158.764 493.533 158.392 494.333 158.392H548.976C549.776 158.392 550.543 158.764 551.11 159.427C551.677 160.09 551.999 160.99 552.004 161.931C552.004 162.401 551.925 162.866 551.772 163.3C551.618 163.734 551.393 164.128 551.11 164.459C550.827 164.79 550.49 165.052 550.121 165.23C549.751 165.407 549.355 165.497 548.956 165.494Z" fill="#5552FF"/>
<path d="M527.862 179.604H494.333C493.53 179.604 492.76 179.228 492.192 178.56C491.624 177.892 491.305 176.986 491.305 176.041C491.31 175.1 491.632 174.2 492.199 173.536C492.766 172.873 493.533 172.501 494.333 172.501H527.882C528.681 172.501 529.449 172.873 530.016 173.536C530.583 174.2 530.904 175.1 530.91 176.041C530.91 176.51 530.831 176.976 530.677 177.41C530.524 177.843 530.299 178.237 530.016 178.568C529.732 178.9 529.396 179.162 529.027 179.339C528.657 179.517 528.261 179.607 527.862 179.604Z" fill="#5552FF"/>
<path d="M548.956 179.604H539.993C539.194 179.597 538.429 179.219 537.865 178.552C537.302 177.884 536.986 176.981 536.986 176.041C536.986 175.102 537.302 174.202 537.867 173.538C538.431 172.874 539.196 172.501 539.993 172.501H548.956C549.755 172.501 550.522 172.873 551.09 173.536C551.657 174.2 551.978 175.1 551.984 176.041C551.984 176.986 551.665 177.892 551.097 178.56C550.529 179.228 549.759 179.604 548.956 179.604Z" fill="#5552FF"/>
<path d="M548.956 193.713H494.333C493.53 193.713 492.76 193.338 492.192 192.669C491.624 192.001 491.305 191.095 491.305 190.15C491.31 189.209 491.632 188.309 492.199 187.646C492.766 186.983 493.533 186.611 494.333 186.611H548.976C549.776 186.611 550.543 186.983 551.11 187.646C551.677 188.309 551.999 189.209 552.004 190.15C552.004 190.62 551.925 191.085 551.772 191.519C551.618 191.953 551.393 192.347 551.11 192.678C550.827 193.009 550.49 193.271 550.121 193.449C549.751 193.626 549.355 193.716 548.956 193.713Z" fill="#5552FF"/>
<g opacity="0.5">
<path d="M537.147 207.823H494.333C493.53 207.823 492.76 207.447 492.192 206.779C491.624 206.111 491.305 205.205 491.305 204.26C491.31 203.319 491.632 202.419 492.199 201.755C492.766 201.092 493.533 200.72 494.333 200.72H537.167C537.967 200.72 538.734 201.092 539.301 201.755C539.868 202.419 540.19 203.319 540.195 204.26C540.19 205.207 539.866 206.113 539.295 206.78C538.724 207.448 537.952 207.823 537.147 207.823Z" fill="white"/>
</g>
<g opacity="0.5">
<path d="M516.961 109.056H494.333C493.533 109.056 492.766 108.684 492.199 108.021C491.632 107.358 491.31 106.458 491.305 105.517C491.305 104.572 491.624 103.666 492.192 102.998C492.76 102.329 493.53 101.954 494.333 101.954H516.981C517.784 101.954 518.555 102.329 519.122 102.998C519.69 103.666 520.009 104.572 520.009 105.517C520.007 105.985 519.926 106.448 519.771 106.879C519.616 107.31 519.391 107.701 519.108 108.03C518.825 108.358 518.49 108.618 518.121 108.794C517.753 108.97 517.359 109.059 516.961 109.056Z" fill="white"/>
</g>
<g opacity="0.5">
<path d="M531.758 123.166H494.333C493.533 123.166 492.766 122.794 492.199 122.131C491.632 121.468 491.31 120.567 491.305 119.627C491.305 118.682 491.624 117.775 492.192 117.107C492.76 116.439 493.53 116.064 494.333 116.064H531.778C532.577 116.07 533.342 116.448 533.906 117.116C534.469 117.783 534.785 118.686 534.785 119.627C534.785 120.093 534.707 120.556 534.555 120.987C534.402 121.417 534.179 121.809 533.897 122.138C533.616 122.467 533.282 122.727 532.915 122.903C532.547 123.08 532.154 123.169 531.758 123.166Z" fill="white"/>
</g>
<g opacity="0.5">
<path d="M548.956 137.275H494.333C493.533 137.275 492.766 136.903 492.199 136.24C491.632 135.577 491.31 134.677 491.305 133.736C491.305 132.791 491.624 131.885 492.192 131.217C492.76 130.548 493.53 130.173 494.333 130.173H548.976C549.779 130.173 550.549 130.548 551.117 131.217C551.685 131.885 552.004 132.791 552.004 133.736C552.001 134.204 551.92 134.667 551.766 135.098C551.611 135.529 551.386 135.92 551.103 136.248C550.82 136.577 550.485 136.837 550.116 137.013C549.748 137.189 549.354 137.278 548.956 137.275Z" fill="white"/>
</g>
<g opacity="0.5">
<path d="M548.956 151.385H517.183C516.384 151.385 515.616 151.013 515.049 150.35C514.482 149.686 514.161 148.786 514.155 147.845C514.155 146.9 514.474 145.994 515.042 145.326C515.61 144.658 516.38 144.282 517.183 144.282H548.956C549.759 144.282 550.529 144.658 551.097 145.326C551.665 145.994 551.984 146.9 551.984 147.845C551.978 148.786 551.657 149.686 551.09 150.35C550.522 151.013 549.755 151.385 548.956 151.385Z" fill="white"/>
</g>
<g opacity="0.5">
<path d="M502.609 151.385H494.333C493.533 151.385 492.766 151.013 492.199 150.35C491.632 149.686 491.31 148.786 491.305 147.845C491.305 146.9 491.624 145.994 492.192 145.326C492.76 144.658 493.53 144.282 494.333 144.282H502.629C503.432 144.282 504.202 144.658 504.77 145.326C505.338 145.994 505.657 146.9 505.657 147.845C505.654 148.313 505.574 148.776 505.419 149.207C505.264 149.638 505.039 150.029 504.756 150.358C504.473 150.687 504.138 150.946 503.769 151.123C503.401 151.299 503.007 151.388 502.609 151.385Z" fill="white"/>
</g>
<g opacity="0.5">
<path d="M548.956 165.494H494.333C493.53 165.494 492.76 165.119 492.192 164.451C491.624 163.782 491.305 162.876 491.305 161.931C491.31 160.99 491.632 160.09 492.199 159.427C492.766 158.764 493.533 158.392 494.333 158.392H548.976C549.776 158.392 550.543 158.764 551.11 159.427C551.677 160.09 551.999 160.99 552.004 161.931C552.004 162.401 551.925 162.866 551.772 163.3C551.618 163.734 551.393 164.128 551.11 164.459C550.827 164.79 550.49 165.052 550.121 165.23C549.751 165.407 549.355 165.497 548.956 165.494Z" fill="white"/>
</g>
<g opacity="0.5">
<path d="M527.862 179.604H494.333C493.53 179.604 492.76 179.228 492.192 178.56C491.624 177.892 491.305 176.986 491.305 176.041C491.31 175.1 491.632 174.2 492.199 173.536C492.766 172.873 493.533 172.501 494.333 172.501H527.882C528.681 172.501 529.449 172.873 530.016 173.536C530.583 174.2 530.904 175.1 530.91 176.041C530.91 176.51 530.831 176.976 530.677 177.41C530.524 177.843 530.299 178.237 530.016 178.568C529.732 178.9 529.396 179.162 529.027 179.339C528.657 179.517 528.261 179.607 527.862 179.604Z" fill="white"/>
</g>
<g opacity="0.5">
<path d="M548.956 179.604H539.993C539.194 179.597 538.429 179.219 537.865 178.552C537.302 177.884 536.986 176.981 536.986 176.041C536.986 175.102 537.302 174.202 537.867 173.538C538.431 172.874 539.196 172.501 539.993 172.501H548.956C549.755 172.501 550.522 172.873 551.09 173.536C551.657 174.2 551.978 175.1 551.984 176.041C551.984 176.986 551.665 177.892 551.097 178.56C550.529 179.228 549.759 179.604 548.956 179.604Z" fill="white"/>
</g>
<g opacity="0.5">
<path d="M548.956 193.713H494.333C493.53 193.713 492.76 193.338 492.192 192.669C491.624 192.001 491.305 191.095 491.305 190.15C491.31 189.209 491.632 188.309 492.199 187.646C492.766 186.983 493.533 186.611 494.333 186.611H548.976C549.776 186.611 550.543 186.983 551.11 187.646C551.677 188.309 551.999 189.209 552.004 190.15C552.004 190.62 551.925 191.085 551.772 191.519C551.618 191.953 551.393 192.347 551.11 192.678C550.827 193.009 550.49 193.271 550.121 193.449C549.751 193.626 549.355 193.716 548.956 193.713Z" fill="white"/>
</g>
<path d="M540.175 90.6951V107.655C540.172 108.726 540.35 109.787 540.697 110.777C541.044 111.766 541.554 112.666 542.197 113.423C542.841 114.18 543.605 114.78 544.446 115.189C545.287 115.597 546.189 115.805 547.099 115.802H561.491L540.175 90.6951Z" fill="#5552FF"/>
<path opacity="0.5" d="M540.175 90.6951V107.655C540.172 108.726 540.35 109.787 540.697 110.777C541.044 111.766 541.554 112.666 542.197 113.423C542.841 114.18 543.605 114.78 544.446 115.189C545.287 115.597 546.189 115.805 547.099 115.802H561.491L540.175 90.6951Z" fill="white"/>
</svg>
