<svg width="422" height="381" viewBox="0 0 422 381" fill="none" xmlns="http://www.w3.org/2000/svg">
<path d="M209.447 40.1112C153.463 59.0085 29.9389 -17.3316 11.1721 75.2078C-4.2548 151.156 73.3799 227.366 174.362 253.291C246.045 271.699 343.306 240.084 359.897 150.797C370.276 94.9537 328.347 31.1901 295.242 18.4831C253.868 2.62107 245.958 27.8067 209.447 40.1112Z" fill="#D4D4FF"/>
<path opacity="0.9" d="M209.447 40.1112C153.463 59.0085 29.9389 -17.3316 11.1721 75.2078C-4.2548 151.156 73.3799 227.366 174.362 253.291C246.045 271.699 343.306 240.084 359.897 150.797C370.276 94.9537 328.347 31.1901 295.242 18.4831C253.868 2.62107 245.958 27.8067 209.447 40.1112Z" fill="#D4D4FF"/>
<path d="M210.939 380.905C327.437 380.905 421.878 375.391 421.878 368.59C421.878 361.788 327.437 356.275 210.939 356.275C94.4406 356.275 0 361.788 0 368.59C0 375.391 94.4406 380.905 210.939 380.905Z" fill="#F5F5F5"/>
<path d="M141.91 55.3096C141.914 53.2833 141.75 51.2601 141.42 49.2607C139.962 40.424 135.436 32.384 128.637 26.554C121.838 20.7241 113.201 17.4773 104.246 17.3844H103.919C97.9109 17.388 91.9896 18.8204 86.6438 21.5632C81.2981 24.306 76.6813 28.2808 73.1743 33.1594C72.5977 33.9536 72.0863 34.7695 71.5641 35.5855C71.5216 35.6393 71.4851 35.6977 71.4553 35.7595C67.884 41.6662 66.0024 48.4399 66.0157 55.3423V55.4184C66.0381 63.4407 68.6024 71.2494 73.3402 77.7233C78.078 84.1971 84.7456 89.0028 92.3854 91.4503C100.025 93.8978 108.244 93.8611 115.862 91.3455C123.48 88.8299 130.104 83.9649 134.784 77.449C135.35 76.6548 135.872 75.8498 136.383 75.0229C136.426 74.9691 136.462 74.9107 136.492 74.8489C140.059 68.9573 141.933 62.1968 141.91 55.3096ZM67.6367 54.4502C67.7625 48.2385 69.4981 42.1657 72.6738 36.8257H84.5432C82.7294 42.5269 81.7796 48.4676 81.7254 54.4502H67.6367ZM86.2077 36.8257H103.136V54.4502H83.3573C83.3933 48.4635 84.3548 42.5185 86.2077 36.8257ZM104.768 35.1938V18.9619C107.121 19.1752 109.374 20.0127 111.295 21.388C115.332 24.1513 118.715 29.0035 121.087 35.1938H104.768ZM121.674 36.8257C123.02 40.9012 123.896 45.117 124.285 49.3913C124.448 51.0885 124.525 52.7748 124.546 54.4502H104.768V36.8257H121.674ZM100.742 19.4188C101.523 19.1969 102.326 19.0583 103.136 19.0054V35.2264H86.8169C89.8631 27.0234 94.8023 21.0616 100.742 19.3862V19.4188ZM103.136 56.1147V73.7392H86.2403C84.8942 69.6537 84.0253 65.4262 83.6511 61.1409C83.4987 59.4438 83.4117 57.7575 83.3899 56.0821L103.136 56.1147ZM103.136 75.3711V91.603C100.783 91.3882 98.5302 90.5508 96.6083 89.1769C92.583 86.4136 89.1995 81.5614 86.8169 75.3711H103.136ZM107.161 91.1787C106.38 91.4016 105.578 91.5402 104.768 91.5921V75.3384H121.087C118.041 83.5088 113.101 89.4815 107.161 91.1461V91.1787ZM104.768 73.7718V56.0929H124.546C124.516 62.08 123.554 68.0259 121.696 73.7174L104.768 73.7718ZM126.178 56.0929H140.321C140.19 62.3038 138.455 68.375 135.284 73.7174H123.361C125.174 68.0162 126.124 62.0755 126.178 56.0929ZM140.321 54.461H126.178C126.178 52.7421 126.069 51.0014 125.906 49.2499C125.535 45.0331 124.699 40.8701 123.415 36.8366H135.262C137.552 40.7239 139.098 45.0035 139.821 49.4566C140.08 51.1096 140.233 52.7776 140.278 54.4502L140.321 54.461ZM125.232 25.8158C128.788 28.3772 131.854 31.5575 134.283 35.2047H122.817C120.38 28.4704 116.713 23.1395 112.22 20.0498L111.872 19.8213C116.669 20.8956 121.199 22.9312 125.188 25.805L125.232 25.8158ZM95.9991 19.8431C91.4189 22.8567 87.6546 28.3398 85.1198 35.2047H73.6965L74.4907 34.0406C79.6572 26.8283 87.2981 21.7706 95.9555 19.8322L95.9991 19.8431ZM67.7129 56.0929H81.8016C81.8016 57.8119 81.9104 59.5526 82.0736 61.3041C82.4502 65.5202 83.2856 69.6826 84.5649 73.7174H72.6521C70.3579 69.8323 68.8118 65.5518 68.0936 61.0974C67.8228 59.4422 67.6701 57.7698 67.6367 56.0929H67.7129ZM73.74 75.3493H85.1198C87.5567 82.0836 91.223 87.4145 95.7162 90.5042L96.0752 90.7327C86.9339 88.6565 78.9387 83.1498 73.74 75.3493ZM111.937 90.7C116.507 87.6973 120.271 82.2033 122.817 75.3384H134.218C133.957 75.7301 133.696 76.1217 133.424 76.5025C128.253 83.7181 120.603 88.7732 111.937 90.7Z" fill="#5552FF"/>
<path opacity="0.8" d="M141.91 55.3096C141.914 53.2833 141.75 51.2601 141.42 49.2607C139.962 40.424 135.436 32.384 128.637 26.554C121.838 20.7241 113.201 17.4773 104.246 17.3844H103.919C97.9109 17.388 91.9896 18.8204 86.6438 21.5632C81.2981 24.306 76.6813 28.2808 73.1743 33.1594C72.5977 33.9536 72.0863 34.7695 71.5641 35.5855C71.5216 35.6393 71.4851 35.6977 71.4553 35.7595C67.884 41.6662 66.0024 48.4399 66.0157 55.3423V55.4184C66.0381 63.4407 68.6024 71.2494 73.3402 77.7233C78.078 84.1971 84.7456 89.0028 92.3854 91.4503C100.025 93.8978 108.244 93.8611 115.862 91.3455C123.48 88.8299 130.104 83.9649 134.784 77.449C135.35 76.6548 135.872 75.8498 136.383 75.0229C136.426 74.9691 136.462 74.9107 136.492 74.8489C140.059 68.9573 141.933 62.1968 141.91 55.3096ZM67.6367 54.4502C67.7625 48.2385 69.4981 42.1657 72.6738 36.8257H84.5432C82.7294 42.5269 81.7796 48.4676 81.7254 54.4502H67.6367ZM86.2077 36.8257H103.136V54.4502H83.3573C83.3933 48.4635 84.3548 42.5185 86.2077 36.8257ZM104.768 35.1938V18.9619C107.121 19.1752 109.374 20.0127 111.295 21.388C115.332 24.1513 118.715 29.0035 121.087 35.1938H104.768ZM121.674 36.8257C123.02 40.9012 123.896 45.117 124.285 49.3913C124.448 51.0885 124.525 52.7748 124.546 54.4502H104.768V36.8257H121.674ZM100.742 19.4188C101.523 19.1969 102.326 19.0583 103.136 19.0054V35.2264H86.8169C89.8631 27.0234 94.8023 21.0616 100.742 19.3862V19.4188ZM103.136 56.1147V73.7392H86.2403C84.8942 69.6537 84.0253 65.4262 83.6511 61.1409C83.4987 59.4438 83.4117 57.7575 83.3899 56.0821L103.136 56.1147ZM103.136 75.3711V91.603C100.783 91.3882 98.5302 90.5508 96.6083 89.1769C92.583 86.4136 89.1995 81.5614 86.8169 75.3711H103.136ZM107.161 91.1787C106.38 91.4016 105.578 91.5402 104.768 91.5921V75.3384H121.087C118.041 83.5088 113.101 89.4815 107.161 91.1461V91.1787ZM104.768 73.7718V56.0929H124.546C124.516 62.08 123.554 68.0259 121.696 73.7174L104.768 73.7718ZM126.178 56.0929H140.321C140.19 62.3038 138.455 68.375 135.284 73.7174H123.361C125.174 68.0162 126.124 62.0755 126.178 56.0929ZM140.321 54.461H126.178C126.178 52.7421 126.069 51.0014 125.906 49.2499C125.535 45.0331 124.699 40.8701 123.415 36.8366H135.262C137.552 40.7239 139.098 45.0035 139.821 49.4566C140.08 51.1096 140.233 52.7776 140.278 54.4502L140.321 54.461ZM125.232 25.8158C128.788 28.3772 131.854 31.5575 134.283 35.2047H122.817C120.38 28.4704 116.713 23.1395 112.22 20.0498L111.872 19.8213C116.669 20.8956 121.199 22.9312 125.188 25.805L125.232 25.8158ZM95.9991 19.8431C91.4189 22.8567 87.6546 28.3398 85.1198 35.2047H73.6965L74.4907 34.0406C79.6572 26.8283 87.2981 21.7706 95.9555 19.8322L95.9991 19.8431ZM67.7129 56.0929H81.8016C81.8016 57.8119 81.9104 59.5526 82.0736 61.3041C82.4502 65.5202 83.2856 69.6826 84.5649 73.7174H72.6521C70.3579 69.8323 68.8118 65.5518 68.0936 61.0974C67.8228 59.4422 67.6701 57.7698 67.6367 56.0929H67.7129ZM73.74 75.3493H85.1198C87.5567 82.0836 91.223 87.4145 95.7162 90.5042L96.0752 90.7327C86.9339 88.6565 78.9387 83.1498 73.74 75.3493ZM111.937 90.7C116.507 87.6973 120.271 82.2033 122.817 75.3384H134.218C133.957 75.7301 133.696 76.1217 133.424 76.5025C128.253 83.7181 120.603 88.7732 111.937 90.7Z" fill="white"/>
<path d="M389.676 73.3908H47.6304V156.269H389.676V73.3908Z" fill="#5552FF"/>
<path opacity="0.6" d="M389.676 73.3908H47.6304V156.269H389.676V73.3908Z" fill="white"/>
<path d="M381.962 81.1044H39.9165V163.983H381.962V81.1044Z" fill="#5552FF"/>
<path opacity="0.3" d="M381.962 81.1044H39.9165V163.983H381.962V81.1044Z" fill="black"/>
<path d="M374.248 88.8178H32.2031V171.696H374.248V88.8178Z" fill="#5552FF"/>
<path opacity="0.1" d="M374.248 88.8178H32.2031V171.696H374.248V88.8178Z" fill="white"/>
<path d="M357.93 155.377V105.137L48.5222 105.137V155.377L357.93 155.377Z" fill="#5552FF"/>
<path opacity="0.9" d="M357.93 155.377V105.137L48.5222 105.137V155.377L357.93 155.377Z" fill="white"/>
<path d="M305.884 105.137V155.377H307.701V105.137H305.884Z" fill="#5552FF"/>
<path opacity="0.6" d="M305.884 105.137V155.377H307.701V105.137H305.884Z" fill="white"/>
<path d="M56.2361 112.067V148.447H58.0529V112.067H56.2361Z" fill="#5552FF"/>
<path opacity="0.6" d="M56.2361 112.067V148.447H58.0529V112.067H56.2361Z" fill="white"/>
<path d="M331.079 136.6C329.759 136.599 328.459 136.273 327.295 135.65C326.131 135.028 325.138 134.127 324.405 133.03C323.672 131.932 323.221 130.67 323.092 129.356C322.963 128.043 323.159 126.717 323.665 125.498C324.17 124.278 324.968 123.202 325.988 122.364C327.009 121.527 328.22 120.954 329.515 120.696C330.81 120.438 332.148 120.504 333.411 120.887C334.675 121.27 335.824 121.958 336.758 122.892C337.881 124.015 338.647 125.445 338.957 127.003C339.267 128.561 339.108 130.176 338.5 131.644C337.892 133.111 336.862 134.365 335.541 135.248C334.22 136.13 332.667 136.6 331.079 136.6ZM331.079 122.728C329.724 122.729 328.412 123.199 327.365 124.059C326.319 124.918 325.603 126.114 325.339 127.443C325.076 128.772 325.281 130.15 325.921 131.344C326.56 132.539 327.594 133.474 328.845 133.991C330.097 134.508 331.49 134.575 332.785 134.181C334.081 133.786 335.2 132.954 335.951 131.827C336.702 130.7 337.039 129.348 336.905 128C336.77 126.652 336.172 125.393 335.213 124.437C334.676 123.882 334.033 123.441 333.324 123.138C332.614 122.836 331.85 122.678 331.079 122.674V122.728Z" fill="#5552FF"/>
<path d="M341.491 140.016C341.347 140.015 341.205 139.986 341.072 139.93C340.94 139.874 340.82 139.792 340.719 139.689L335.225 134.195C335.111 134.098 335.018 133.978 334.953 133.843C334.888 133.708 334.851 133.561 334.845 133.411C334.84 133.261 334.865 133.112 334.919 132.972C334.974 132.833 335.057 132.706 335.163 132.6C335.269 132.494 335.396 132.411 335.536 132.356C335.675 132.301 335.825 132.276 335.974 132.282C336.124 132.288 336.271 132.324 336.406 132.39C336.541 132.455 336.661 132.548 336.759 132.661L342.253 138.155C342.455 138.359 342.569 138.635 342.569 138.922C342.569 139.21 342.455 139.486 342.253 139.689C342.052 139.894 341.778 140.012 341.491 140.016Z" fill="#5552FF"/>
<g opacity="0.6">
<path d="M331.079 136.6C329.759 136.599 328.459 136.273 327.295 135.65C326.131 135.028 325.138 134.127 324.405 133.03C323.672 131.932 323.221 130.67 323.092 129.356C322.963 128.043 323.159 126.717 323.665 125.498C324.17 124.278 324.968 123.202 325.988 122.364C327.009 121.527 328.22 120.954 329.515 120.696C330.81 120.438 332.148 120.504 333.411 120.887C334.675 121.27 335.824 121.958 336.758 122.892C337.881 124.015 338.647 125.445 338.957 127.003C339.267 128.561 339.108 130.176 338.5 131.644C337.892 133.111 336.862 134.365 335.541 135.248C334.22 136.13 332.667 136.6 331.079 136.6ZM331.079 122.728C329.724 122.729 328.412 123.199 327.365 124.059C326.319 124.918 325.603 126.114 325.339 127.443C325.076 128.772 325.281 130.15 325.921 131.344C326.56 132.539 327.594 133.474 328.845 133.991C330.097 134.508 331.49 134.575 332.785 134.181C334.081 133.786 335.2 132.954 335.951 131.827C336.702 130.7 337.039 129.348 336.905 128C336.77 126.652 336.172 125.393 335.213 124.437C334.676 123.882 334.033 123.441 333.324 123.138C332.614 122.836 331.85 122.678 331.079 122.674V122.728Z" fill="white"/>
<path d="M341.492 140.015C341.348 140.015 341.206 139.986 341.073 139.93C340.94 139.874 340.82 139.792 340.72 139.689L335.225 134.195C335.112 134.097 335.019 133.977 334.954 133.842C334.888 133.707 334.852 133.56 334.846 133.411C334.84 133.261 334.865 133.111 334.92 132.972C334.975 132.832 335.058 132.705 335.164 132.599C335.27 132.493 335.397 132.41 335.536 132.356C335.676 132.301 335.825 132.276 335.975 132.282C336.125 132.287 336.272 132.324 336.407 132.389C336.542 132.455 336.662 132.547 336.759 132.661L342.254 138.155C342.456 138.359 342.57 138.635 342.57 138.922C342.57 139.209 342.456 139.485 342.254 139.689C342.053 139.894 341.779 140.011 341.492 140.015Z" fill="white"/>
</g>
<path d="M257.275 23.2917H223.07V24.1403H257.275V23.2917Z" fill="#5552FF"/>
<path d="M257.275 26.8926H223.07V27.7412H257.275V26.8926Z" fill="#5552FF"/>
<path d="M257.275 30.5044H223.07V31.353H257.275V30.5044Z" fill="#5552FF"/>
<path d="M257.275 34.1057H223.07V34.9543H257.275V34.1057Z" fill="#5552FF"/>
<path d="M257.275 37.7066H223.07V38.5552H257.275V37.7066Z" fill="#5552FF"/>
<path d="M245.373 41.3188H223.07V42.1674H245.373V41.3188Z" fill="#5552FF"/>
<g opacity="0.5">
<path d="M257.275 23.2915H223.07V24.1401H257.275V23.2915Z" fill="white"/>
<path d="M257.275 26.8925H223.07V27.7411H257.275V26.8925Z" fill="white"/>
<path d="M257.275 30.5043H223.07V31.3529H257.275V30.5043Z" fill="white"/>
<path d="M257.275 34.1056H223.07V34.9542H257.275V34.1056Z" fill="white"/>
<path d="M257.275 37.7065H223.07V38.5551H257.275V37.7065Z" fill="white"/>
<path d="M245.373 41.3186H223.07V42.1672H245.373V41.3186Z" fill="white"/>
</g>
<path d="M51.3949 178.855H14.9492V179.399H51.3949V178.855Z" fill="#5552FF"/>
<path d="M51.3949 181.161H14.9492V181.705H51.3949V181.161Z" fill="#5552FF"/>
<path d="M51.3949 183.468H14.9492V184.012H51.3949V183.468Z" fill="#5552FF"/>
<path d="M51.3949 185.774H14.9492V186.318H51.3949V185.774Z" fill="#5552FF"/>
<path d="M51.3949 188.081H14.9492V188.625H51.3949V188.081Z" fill="#5552FF"/>
<path d="M37.861 190.398H14.9492V190.942H37.861V190.398Z" fill="#5552FF"/>
<g opacity="0.4">
<path d="M51.3949 178.855H14.9492V179.399H51.3949V178.855Z" fill="white"/>
<path d="M51.3951 181.161H14.9495V181.705H51.3951V181.161Z" fill="white"/>
<path d="M51.3951 183.468H14.9495V184.011H51.3951V183.468Z" fill="white"/>
<path d="M51.3951 185.774H14.9495V186.318H51.3951V185.774Z" fill="white"/>
<path d="M51.3951 188.081H14.9495V188.625H51.3951V188.081Z" fill="white"/>
<path d="M37.8613 190.398H14.9495V190.942H37.8613V190.398Z" fill="white"/>
</g>
<path d="M171.175 28.6333C169.352 28.6333 167.603 29.3577 166.313 30.6471C165.024 31.9366 164.3 33.6855 164.3 35.509V58.1924C164.3 60.0159 165.024 61.7648 166.313 63.0542C167.603 64.3437 169.352 65.0681 171.175 65.0681C172.999 65.0681 174.748 64.3437 176.037 63.0542C177.327 61.7648 178.051 60.0159 178.051 58.1924V35.509C178.051 33.6855 177.327 31.9366 176.037 30.6471C174.748 29.3577 172.999 28.6333 171.175 28.6333Z" fill="#5552FF"/>
<path opacity="0.2" d="M171.175 28.6333C169.352 28.6333 167.603 29.3577 166.313 30.6471C165.024 31.9366 164.3 33.6855 164.3 35.509V58.1924C164.3 60.0159 165.024 61.7648 166.313 63.0542C167.603 64.3437 169.352 65.0681 171.175 65.0681C172.999 65.0681 174.748 64.3437 176.037 63.0542C177.327 61.7648 178.051 60.0159 178.051 58.1924V35.509C178.051 33.6855 177.327 31.9366 176.037 30.6471C174.748 29.3577 172.999 28.6333 171.175 28.6333Z" fill="white"/>
<path d="M188.408 15.1104C186.59 15.1191 184.849 15.8473 183.567 17.1358C182.285 18.4243 181.565 20.1682 181.565 21.9862V58.1925C181.565 60.016 182.289 61.7649 183.579 63.0543C184.868 64.3438 186.617 65.0682 188.44 65.0682C190.264 65.0682 192.013 64.3438 193.302 63.0543C194.592 61.7649 195.316 60.016 195.316 58.1925V21.9862C195.316 21.0805 195.137 20.1837 194.79 19.3474C194.442 18.511 193.933 17.7516 193.291 17.1127C192.649 16.4738 191.887 15.968 191.049 15.6244C190.211 15.2808 189.313 15.1061 188.408 15.1104Z" fill="#5552FF"/>
<path opacity="0.3" d="M188.408 15.1104C186.59 15.1191 184.849 15.8473 183.567 17.1358C182.285 18.4243 181.565 20.1682 181.565 21.9862V58.1925C181.565 60.016 182.289 61.7649 183.579 63.0543C184.868 64.3438 186.617 65.0682 188.44 65.0682C190.264 65.0682 192.013 64.3438 193.302 63.0543C194.592 61.7649 195.316 60.016 195.316 58.1925V21.9862C195.316 21.0805 195.137 20.1837 194.79 19.3474C194.442 18.511 193.933 17.7516 193.291 17.1127C192.649 16.4738 191.887 15.968 191.049 15.6244C190.211 15.2808 189.313 15.1061 188.408 15.1104Z" fill="black"/>
<path d="M205.631 42.1563C203.807 42.1563 202.058 42.8807 200.769 44.1702C199.479 45.4596 198.755 47.2085 198.755 49.032V58.1924C198.755 60.0159 199.479 61.7648 200.769 63.0543C202.058 64.3437 203.807 65.0681 205.631 65.0681C206.534 65.0696 207.43 64.8928 208.265 64.5479C209.101 64.203 209.86 63.6967 210.5 63.0581C211.139 62.4195 211.647 61.6611 211.993 60.8261C212.339 59.9912 212.517 59.0962 212.517 58.1924V49.032C212.517 48.1282 212.339 47.2332 211.993 46.3983C211.647 45.5634 211.139 44.8049 210.5 44.1663C209.86 43.5277 209.101 43.0215 208.265 42.6766C207.43 42.3317 206.534 42.1549 205.631 42.1563Z" fill="#5552FF"/>
<path opacity="0.6" d="M205.631 42.1563C203.807 42.1563 202.058 42.8807 200.769 44.1702C199.479 45.4596 198.755 47.2085 198.755 49.032V58.1924C198.755 60.0159 199.479 61.7648 200.769 63.0543C202.058 64.3437 203.807 65.0681 205.631 65.0681C206.534 65.0696 207.43 64.8928 208.265 64.5479C209.101 64.203 209.86 63.6967 210.5 63.0581C211.139 62.4195 211.647 61.6611 211.993 60.8261C212.339 59.9912 212.517 59.0962 212.517 58.1924V49.032C212.517 48.1282 212.339 47.2332 211.993 46.3983C211.647 45.5634 211.139 44.8049 210.5 44.1663C209.86 43.5277 209.101 43.0215 208.265 42.6766C207.43 42.3317 206.534 42.1549 205.631 42.1563Z" fill="white"/>
<path d="M350.858 197.665H378.655L331.199 148.447L350.858 197.665Z" fill="#5552FF"/>
<g opacity="0.1">
<path d="M350.858 197.665H378.655L331.199 148.447L350.858 197.665Z" fill="black"/>
</g>
<g style="mix-blend-mode:multiply">
<path d="M324.138 171.685L331.199 148.447L335.203 171.685H324.138Z" fill="#5552FF"/>
</g>
<path d="M331.199 148.447V217.313L336.117 212.407L350.858 197.665L331.199 148.447Z" fill="#5552FF"/>
<path opacity="0.3" d="M331.199 148.447V217.313L336.117 212.407L350.858 197.665L331.199 148.447Z" fill="white"/>
<path d="M380.353 0.727768H319.429C316.342 0.739213 313.383 1.97013 311.199 4.15247C309.015 6.33481 307.781 9.2918 307.767 12.3795V43.8425C307.781 46.9283 309.013 49.8836 311.195 52.0657C313.377 54.2477 316.333 55.4799 319.418 55.4942H364.121L363.795 66.4932L375.077 55.4942H380.332C383.419 55.4827 386.377 54.2518 388.562 52.0695C390.746 49.8872 391.98 46.9302 391.994 43.8425V12.3795C391.98 9.29555 390.749 6.34182 388.57 4.1601C386.39 1.97837 383.437 0.744932 380.353 0.727768ZM318.058 14.1311C318.058 13.2655 318.402 12.4353 319.014 11.8232C319.626 11.2111 320.457 10.8673 321.322 10.8673H335.346C336.211 10.8673 337.041 11.2111 337.653 11.8232C338.266 12.4353 338.609 13.2655 338.609 14.1311C338.609 14.9967 338.266 15.8268 337.653 16.4389C337.041 17.051 336.211 17.3949 335.346 17.3949H321.311C320.448 17.392 319.62 17.0469 319.011 16.4351C318.401 15.8233 318.058 14.9948 318.058 14.1311ZM376.894 44.5931H352.655C352.185 44.6753 351.704 44.6538 351.244 44.5302C350.784 44.4065 350.357 44.1837 349.992 43.8773C349.627 43.571 349.334 43.1885 349.133 42.7568C348.932 42.3251 348.828 41.8546 348.828 41.3783C348.828 40.902 348.932 40.4315 349.133 39.9998C349.334 39.5681 349.627 39.1856 349.992 38.8793C350.357 38.5729 350.784 38.3501 351.244 38.2264C351.704 38.1028 352.185 38.0813 352.655 38.1635H376.894C377.363 38.0813 377.844 38.1028 378.304 38.2264C378.764 38.3501 379.192 38.5729 379.556 38.8793C379.921 39.1856 380.214 39.5681 380.415 39.9998C380.616 40.4315 380.721 40.902 380.721 41.3783C380.721 41.8546 380.616 42.3251 380.415 42.7568C380.214 43.1885 379.921 43.571 379.556 43.8773C379.192 44.1837 378.764 44.4065 378.304 44.5302C377.844 44.6538 377.363 44.6753 376.894 44.5931ZM376.894 30.9831H324.575C324.106 31.0653 323.625 31.0438 323.165 30.9202C322.705 30.7965 322.277 30.5737 321.913 30.2673C321.548 29.961 321.255 29.5785 321.054 29.1468C320.852 28.7151 320.748 28.2446 320.748 27.7683C320.748 27.292 320.852 26.8215 321.054 26.3898C321.255 25.958 321.548 25.5756 321.913 25.2692C322.277 24.9629 322.705 24.7401 323.165 24.6164C323.625 24.4928 324.106 24.4713 324.575 24.5535H376.894C377.363 24.4713 377.844 24.4928 378.304 24.6164C378.764 24.7401 379.192 24.9629 379.556 25.2692C379.921 25.5756 380.214 25.958 380.415 26.3898C380.616 26.8215 380.721 27.292 380.721 27.7683C380.721 28.2446 380.616 28.7151 380.415 29.1468C380.214 29.5785 379.921 29.961 379.556 30.2673C379.192 30.5737 378.764 30.7965 378.304 30.9202C377.844 31.0438 377.363 31.0653 376.894 30.9831ZM376.894 17.3731H345.92C345.055 17.3731 344.225 17.0292 343.612 16.4172C343 15.8051 342.657 14.9749 342.657 14.1093C342.657 13.2437 343 12.4135 343.612 11.8015C344.225 11.1894 345.055 10.8455 345.92 10.8455H376.894C377.759 10.8455 378.589 11.1894 379.202 11.8015C379.814 12.4135 380.158 13.2437 380.158 14.1093C380.158 14.9749 379.814 15.8051 379.202 16.4172C378.589 17.0292 377.759 17.3731 376.894 17.3731Z" fill="#5552FF"/>
<path d="M285.07 100.458C282.468 93.3104 278.495 86.7396 273.375 81.1147H186.873C181.753 86.7396 177.78 93.3104 175.178 100.458L187.145 160.033C196.301 169.958 208.609 176.407 221.98 178.285C235.351 180.163 248.96 177.354 260.495 170.336C272.03 163.318 280.78 152.522 285.257 139.784C289.735 127.046 289.665 113.15 285.059 100.458H285.07Z" fill="#5552FF"/>
<path opacity="0.1" d="M285.07 100.458C282.468 93.3104 278.495 86.7396 273.375 81.1147H186.873C181.753 86.7396 177.78 93.3104 175.178 100.458L187.145 160.033C196.301 169.958 208.609 176.407 221.98 178.285C235.351 180.163 248.96 177.354 260.495 170.336C272.03 163.318 280.78 152.522 285.257 139.784C289.735 127.046 289.665 113.15 285.059 100.458H285.07Z" fill="white"/>
<path d="M288.519 123.12C287.901 136.857 282.444 149.933 273.114 160.033H187.167C179.912 152.149 174.959 142.425 172.849 131.92C170.739 121.415 171.552 110.533 175.2 100.458H285.081C287.72 107.709 288.889 115.413 288.519 123.12Z" fill="#5552FF"/>
<path opacity="0.9" d="M288.519 123.12C287.901 136.857 282.444 149.933 273.114 160.033H187.167C179.912 152.149 174.959 142.425 172.849 131.92C170.739 121.415 171.552 110.533 175.2 100.458H285.081C287.72 107.709 288.889 115.413 288.519 123.12Z" fill="white"/>
<path opacity="0.3" d="M288.52 123.12C287.843 137.575 281.816 151.263 271.611 161.524C261.406 171.784 247.75 177.884 233.298 178.638C218.846 179.392 204.63 174.746 193.413 165.603C182.195 156.461 174.777 143.475 172.599 129.168C170.422 114.861 173.641 100.256 181.632 88.1901C189.622 76.1244 201.812 67.4601 215.834 63.8809C229.856 60.3017 244.708 62.0631 257.503 68.8229C270.299 75.5828 280.125 86.8582 285.071 100.458C287.71 107.709 288.882 115.412 288.52 123.12Z" fill="white"/>
<path opacity="0.4" d="M263.073 72.1504L179.02 148.806C178.599 148.03 178.186 147.247 177.78 146.456C175.21 141.311 173.424 135.811 172.481 130.137L245.079 63.9256C251.503 65.6186 257.589 68.4005 263.073 72.1504Z" fill="white"/>
<path opacity="0.4" d="M285.559 101.862L206.586 173.926C198.394 170.312 191.143 164.862 185.393 157.999L271.688 79.2979C277.976 85.6592 282.722 93.3784 285.559 101.862Z" fill="white"/>
<path d="M288.498 86.7177C281.831 75.1577 271.885 65.835 259.918 59.9292C247.952 54.0233 234.502 51.7998 221.272 53.5399C208.041 55.2799 195.624 60.9054 185.591 69.7046C175.558 78.5037 168.361 90.081 164.91 102.972C161.459 115.862 161.909 129.487 166.203 142.122C170.498 154.757 178.443 165.834 189.035 173.952C199.626 182.069 212.388 186.863 225.704 187.726C239.021 188.589 252.295 185.483 263.845 178.8C279.316 169.85 290.602 155.125 295.224 137.86C299.846 120.594 297.427 102.201 288.498 86.7177ZM184.057 147.033C178.796 137.923 176.356 127.457 177.043 116.96C177.731 106.463 181.516 96.4058 187.919 88.0597C194.322 79.7136 203.057 73.4536 213.018 70.0715C222.979 66.6893 233.719 66.3369 243.88 69.0586C254.042 71.7804 263.168 77.4541 270.105 85.3625C277.041 93.2708 281.477 103.058 282.852 113.488C284.226 123.917 282.477 134.52 277.825 143.955C273.174 153.391 265.829 161.235 256.719 166.496C250.671 169.989 243.994 172.256 237.07 173.169C230.145 174.081 223.108 173.621 216.362 171.813C209.615 170.006 203.291 166.887 197.75 162.635C192.209 158.383 187.559 153.082 184.067 147.033H184.057Z" fill="#5552FF"/>
<path opacity="0.1" d="M288.498 86.7177C281.831 75.1577 271.885 65.835 259.918 59.9292C247.952 54.0233 234.502 51.7998 221.272 53.5399C208.041 55.2799 195.624 60.9054 185.591 69.7046C175.558 78.5037 168.361 90.081 164.91 102.972C161.459 115.862 161.909 129.487 166.203 142.122C170.498 154.757 178.443 165.834 189.035 173.952C199.626 182.069 212.388 186.863 225.704 187.726C239.021 188.589 252.295 185.483 263.845 178.8C279.316 169.85 290.602 155.125 295.224 137.86C299.846 120.594 297.427 102.201 288.498 86.7177ZM184.057 147.033C178.796 137.923 176.356 127.457 177.043 116.96C177.731 106.463 181.516 96.4058 187.919 88.0597C194.322 79.7136 203.057 73.4536 213.018 70.0715C222.979 66.6893 233.719 66.3369 243.88 69.0586C254.042 71.7804 263.168 77.4541 270.105 85.3625C277.041 93.2708 281.477 103.058 282.852 113.488C284.226 123.917 282.477 134.52 277.825 143.955C273.174 153.391 265.829 161.235 256.719 166.496C250.671 169.989 243.994 172.256 237.07 173.169C230.145 174.081 223.108 173.621 216.362 171.813C209.615 170.006 203.291 166.887 197.75 162.635C192.209 158.383 187.559 153.082 184.067 147.033H184.057Z" fill="black"/>
<path d="M75.0136 189.788L83.3472 191.725L76.4388 196.882C76.4388 196.882 71.4887 194.641 71.2603 191.127L75.0136 189.788Z" fill="#E4897B"/>
<path d="M87.8066 197.273L81.8012 201.277L76.4377 196.882L83.3461 191.736L87.8066 197.273Z" fill="#E4897B"/>
<path d="M182.076 155.943C173.22 162.47 164.136 168.671 155.008 174.731C145.881 180.791 136.633 186.698 127.342 192.497C118.051 198.296 108.673 203.975 99.2628 209.491C94.563 212.297 89.8196 215.017 85.1197 217.781C82.7851 219.267 80.2397 220.393 77.5695 221.121C76.1448 221.499 74.6879 221.743 73.2178 221.85C71.5856 221.983 69.943 221.899 68.333 221.599C67.1824 221.372 66.0879 220.919 65.1123 220.268C64.1367 219.617 63.299 218.78 62.6473 217.805C61.9955 216.83 61.5424 215.736 61.3139 214.586C61.0855 213.435 61.0861 212.251 61.3158 211.101C61.3903 210.731 61.4921 210.367 61.6204 210.013C62.1456 208.471 62.8776 207.007 63.7963 205.661C64.6158 204.451 65.5484 203.322 66.5814 202.289C68.5489 200.34 70.7968 198.698 73.2504 197.415C78.0047 194.706 82.7263 191.975 87.5132 189.288C97.0435 183.902 106.661 178.659 116.3 173.48C125.939 168.302 135.698 163.286 145.511 158.391C155.324 153.495 165.213 148.73 175.309 144.334C176.833 143.661 178.552 143.574 180.135 144.09C181.719 144.607 183.056 145.69 183.89 147.132C184.724 148.574 184.995 150.274 184.653 151.904C184.31 153.534 183.377 154.98 182.033 155.964L182.076 155.943Z" fill="#5552FF"/>
<path opacity="0.1" d="M182.076 155.943C173.22 162.47 164.136 168.671 155.008 174.731C145.881 180.791 136.633 186.698 127.342 192.497C118.051 198.296 108.673 203.975 99.2628 209.491C94.563 212.297 89.8196 215.017 85.1197 217.781C82.7851 219.267 80.2397 220.393 77.5695 221.121C76.1448 221.499 74.6879 221.743 73.2178 221.85C71.5856 221.983 69.943 221.899 68.333 221.599C67.1824 221.372 66.0879 220.919 65.1123 220.268C64.1367 219.617 63.299 218.78 62.6473 217.805C61.9955 216.83 61.5424 215.736 61.3139 214.586C61.0855 213.435 61.0861 212.251 61.3158 211.101C61.3903 210.731 61.4921 210.367 61.6204 210.013C62.1456 208.471 62.8776 207.007 63.7963 205.661C64.6158 204.451 65.5484 203.322 66.5814 202.289C68.5489 200.34 70.7968 198.698 73.2504 197.415C78.0047 194.706 82.7263 191.975 87.5132 189.288C97.0435 183.902 106.661 178.659 116.3 173.48C125.939 168.302 135.698 163.286 145.511 158.391C155.324 153.495 165.213 148.73 175.309 144.334C176.833 143.661 178.552 143.574 180.135 144.09C181.719 144.607 183.056 145.69 183.89 147.132C184.724 148.574 184.995 150.274 184.653 151.904C184.31 153.534 183.377 154.98 182.033 155.964L182.076 155.943Z" fill="black"/>
<path d="M87.0881 138.253C86.5441 139.134 85.924 140.201 85.3365 141.201C84.7491 142.202 84.1725 143.247 83.6285 144.302C82.5406 146.38 81.4526 148.491 80.3647 150.634C79.2768 152.777 78.3955 154.986 77.5034 157.161C77.0683 158.249 76.6113 159.337 76.2088 160.425L75.5996 162.09C75.4799 162.405 75.4581 162.536 75.382 162.764C75.3058 162.993 75.2732 163.21 75.2079 163.428C74.7833 165.578 74.5683 167.764 74.566 169.955C74.5116 172.295 74.566 174.677 74.6966 177.081C74.8271 179.486 74.9577 181.901 75.1753 184.316C75.3929 186.731 75.6104 189.19 75.8389 191.584L71.6395 192.443C70.8997 190.017 70.3231 187.602 69.7465 185.154C69.1699 182.706 68.7347 180.247 68.3104 177.745C67.8861 175.243 67.6033 172.73 67.4183 170.13C67.192 167.407 67.2613 164.667 67.625 161.959C67.6903 161.578 67.7447 161.219 67.8426 160.871C67.9405 160.523 68.0384 160.034 68.1255 159.783L68.6586 157.934C69.0067 156.704 69.4092 155.486 69.8227 154.278C70.6604 151.852 71.5742 149.47 72.5969 147.12C73.6195 144.77 74.7075 142.474 75.8607 140.211C76.459 139.124 77.09 137.959 77.7319 136.839C78.3738 135.718 79.0157 134.663 79.8207 133.477L87.0881 138.253Z" fill="#E4897B"/>
<path d="M82.4441 362.889C81.71 362.866 80.9805 362.764 80.2683 362.585C80.2301 362.578 80.195 362.56 80.1676 362.533C80.1403 362.506 80.1222 362.47 80.1159 362.432C80.109 362.393 80.1136 362.353 80.129 362.316C80.1444 362.279 80.1701 362.248 80.203 362.226C80.4967 362.03 83.0642 360.376 84.0542 360.822C84.1643 360.873 84.2587 360.952 84.3276 361.051C84.3966 361.151 84.4374 361.267 84.4459 361.388C84.497 361.582 84.4936 361.786 84.436 361.978C84.3784 362.17 84.2689 362.342 84.1195 362.476C83.6293 362.811 83.0342 362.958 82.4441 362.889ZM80.7796 362.302C82.2592 362.595 83.3689 362.541 83.7932 362.149C83.8864 362.06 83.9545 361.947 83.9908 361.823C84.0271 361.699 84.0302 361.568 83.9999 361.442C83.9985 361.387 83.9814 361.333 83.9506 361.286C83.9198 361.24 83.8765 361.204 83.8258 361.181C83.3145 360.953 81.824 361.671 80.7796 362.302Z" fill="#5552FF"/>
<path d="M80.2569 362.595C80.225 362.605 80.191 362.605 80.159 362.595C80.1277 362.579 80.1019 362.553 80.0845 362.522C80.0672 362.492 80.0591 362.456 80.0611 362.421C80.0611 362.323 80.0611 359.886 80.9858 359.07C81.1001 358.968 81.2347 358.89 81.381 358.843C81.5273 358.797 81.6818 358.781 81.8344 358.798C81.9948 358.8 82.1495 358.858 82.2724 358.961C82.3953 359.064 82.4789 359.206 82.5089 359.364C82.7048 360.311 81.1599 362.138 80.3331 362.628C80.3054 362.623 80.2793 362.612 80.2569 362.595ZM81.7039 359.157C81.5389 359.159 81.3802 359.221 81.2578 359.331C80.7229 360.119 80.4489 361.056 80.4745 362.008C81.2796 361.355 82.237 359.984 82.1173 359.408C82.1173 359.31 82.0411 359.201 81.7909 359.168L81.7039 359.157Z" fill="#5552FF"/>
<path d="M120.977 362.889C120.081 362.875 119.188 362.773 118.312 362.584C118.27 362.58 118.232 362.561 118.202 362.531C118.172 362.502 118.154 362.463 118.149 362.421C118.144 362.38 118.152 362.338 118.171 362.301C118.191 362.264 118.221 362.234 118.258 362.214C118.638 362.019 122.011 360.3 123.045 360.865C123.144 360.916 123.228 360.992 123.289 361.086C123.35 361.179 123.386 361.287 123.393 361.398C123.416 361.578 123.395 361.76 123.33 361.929C123.266 362.098 123.16 362.249 123.023 362.367C122.421 362.77 121.699 362.955 120.977 362.889ZM118.976 362.301C120.858 362.617 122.239 362.53 122.762 362.073C122.848 361.992 122.914 361.892 122.954 361.78C122.994 361.668 123.006 361.549 122.99 361.431C122.99 361.386 122.977 361.343 122.954 361.304C122.932 361.266 122.899 361.235 122.86 361.213C122.294 360.909 120.357 361.638 118.976 362.301Z" fill="#5552FF"/>
<path d="M118.345 362.595C118.328 362.603 118.309 362.606 118.29 362.606C118.272 362.606 118.253 362.603 118.236 362.595C118.205 362.58 118.179 362.554 118.164 362.523C118.148 362.491 118.143 362.456 118.149 362.421C118.149 362.323 118.356 360.039 119.411 359.157C119.714 358.904 120.105 358.779 120.499 358.809C121.054 358.864 121.206 359.147 121.25 359.375C121.402 360.332 119.411 362.16 118.399 362.639L118.345 362.595ZM120.368 359.157C120.113 359.16 119.866 359.252 119.672 359.419C119.048 360.155 118.668 361.068 118.584 362.03C119.607 361.409 120.967 359.973 120.869 359.397C120.869 359.397 120.869 359.201 120.477 359.168L120.368 359.157Z" fill="#5552FF"/>
<path d="M99.9694 105.583C100.633 110.663 102.145 120.966 98.468 124.077C98.468 124.077 99.556 129.256 108.825 129.854C119.073 130.518 114.047 125.089 114.047 125.089C108.542 123.392 108.956 119.247 110.185 115.417L99.9694 105.583Z" fill="#E4897B"/>
<path d="M118.976 95.258C118.911 95.2566 118.847 95.2378 118.791 95.2036C118.744 95.1797 118.702 95.1463 118.668 95.1056C118.633 95.0648 118.608 95.0176 118.593 94.9667C118.577 94.9158 118.573 94.8624 118.579 94.8096C118.585 94.7568 118.601 94.7058 118.628 94.6597C118.91 94.0842 119.328 93.5857 119.845 93.2067C120.363 92.8278 120.964 92.5798 121.598 92.4838C121.695 92.4876 121.788 92.5265 121.859 92.5934C121.93 92.6603 121.974 92.7506 121.983 92.8476C121.992 92.9446 121.966 93.0417 121.909 93.1208C121.853 93.2 121.769 93.2558 121.674 93.278C121.178 93.3647 120.709 93.5649 120.303 93.8631C119.897 94.1613 119.566 94.5494 119.335 94.9969C119.304 95.0687 119.254 95.1308 119.191 95.1767C119.128 95.2227 119.054 95.2507 118.976 95.258Z" fill="#5552FF"/>
<path d="M121.901 99.7185C122.651 101.213 123.603 102.596 124.73 103.831C124.407 104.112 124.026 104.319 123.615 104.437C123.203 104.556 122.771 104.583 122.347 104.516L121.901 99.7185Z" fill="#DE5753"/>
<path d="M121.185 98.6088C121.25 99.2942 121.664 99.8055 122.099 99.762C122.534 99.7185 122.86 99.1419 122.795 98.4565C122.73 97.7711 122.316 97.2598 121.87 97.3033C121.424 97.3468 121.12 97.9343 121.185 98.6088Z" fill="#5552FF"/>
<path d="M121.728 97.3576L123.316 96.7375C123.316 96.7375 122.555 98.0865 121.728 97.3576Z" fill="#5552FF"/>
<path d="M109.032 362.388H117.507L118.073 342.784H109.598L109.032 362.388Z" fill="#E4897B"/>
<path d="M70.553 362.388H79.028L81.7478 342.784H73.2837L70.553 362.388Z" fill="#E4897B"/>
<path d="M79.5489 361.409H70.0296C69.8664 361.408 69.7081 361.465 69.5841 361.571C69.4601 361.677 69.3787 361.825 69.355 361.986L68.2671 369.514C68.2457 369.705 68.2646 369.897 68.3226 370.079C68.3806 370.261 68.4764 370.429 68.6037 370.572C68.731 370.715 68.8869 370.829 69.0614 370.907C69.2359 370.986 69.4249 371.026 69.6161 371.027C72.8799 370.972 74.5336 370.776 78.7221 370.776C81.2896 370.776 85.0539 371.038 88.6114 371.038C92.1689 371.038 92.3539 367.524 90.8743 367.208C84.2379 365.783 83.1935 363.814 80.9524 361.932C80.5611 361.597 80.0638 361.412 79.5489 361.409Z" fill="#5552FF"/>
<path d="M117.79 361.409H108.281C108.117 361.405 107.958 361.462 107.833 361.568C107.709 361.675 107.628 361.824 107.607 361.986L106.519 369.514C106.499 369.705 106.519 369.898 106.579 370.08C106.638 370.262 106.735 370.43 106.863 370.572C106.991 370.715 107.148 370.829 107.323 370.907C107.498 370.985 107.687 371.026 107.879 371.027C111.142 370.972 112.796 370.776 116.974 370.776C119.552 370.776 124.872 371.037 128.43 371.037C131.987 371.037 132.172 367.523 130.693 367.208C124.056 365.783 121.445 363.814 119.204 361.932C118.81 361.594 118.308 361.409 117.79 361.409Z" fill="#5552FF"/>
<path d="M118.062 342.784L117.779 352.891H109.304L109.597 342.784H118.062Z" fill="#CE6F64"/>
<path d="M73.2714 342.784H81.7463L80.3429 352.891H71.8679L73.2714 342.784Z" fill="#CE6F64"/>
<path d="M90.7006 139.559C89.0922 142.072 87.2293 144.412 85.1413 146.543L84.173 145.901L73.446 138.775C73.446 138.775 79.2991 125.72 83.7052 125.057C87.9155 124.382 90.9835 128.734 92.4087 133.39C92.9526 135.076 92.0497 137.361 90.7006 139.559Z" fill="#5552FF"/>
<path opacity="0.6" d="M90.7006 139.559C89.0922 142.072 87.2293 144.412 85.1413 146.543L84.173 145.901L73.446 138.775C73.446 138.775 79.2991 125.72 83.7052 125.057C87.9155 124.382 90.9835 128.734 92.4087 133.39C92.9526 135.076 92.0497 137.361 90.7006 139.559Z" fill="white"/>
<path d="M90.7007 139.559C89.0923 142.071 87.2293 144.412 85.1414 146.543L84.1731 145.901C84.6518 141.985 86.1749 138.101 87.9156 136.871C88.9818 136.98 89.9282 138.112 90.7007 139.559Z" fill="#5552FF"/>
<path opacity="0.4" d="M90.7007 139.559C89.0923 142.071 87.2293 144.412 85.1414 146.543L84.1731 145.901C84.6518 141.985 86.1749 138.101 87.9156 136.871C88.9818 136.98 89.9282 138.112 90.7007 139.559Z" fill="white"/>
<path d="M127.396 146.075C126.885 149.339 126.221 153.179 125.329 157.738C124.241 163.569 122.718 170.565 120.793 178.931L86.4684 176.755C87.948 162.818 88.5246 154.202 83.7051 125.1C88.5779 124.419 93.4939 124.096 98.4139 124.132C103.624 124.097 108.831 124.436 113.993 125.143C120.651 126.231 128.136 128.233 128.136 128.233C128.136 128.233 130.051 128.984 127.396 146.075Z" fill="#5552FF"/>
<path opacity="0.6" d="M127.396 146.075C126.885 149.339 126.221 153.179 125.329 157.738C124.241 163.569 122.718 170.565 120.793 178.931L86.4684 176.755C87.948 162.818 88.5246 154.202 83.7051 125.1C88.5779 124.419 93.4939 124.096 98.4139 124.132C103.624 124.097 108.831 124.436 113.993 125.143C120.651 126.231 128.136 128.233 128.136 128.233C128.136 128.233 130.051 128.984 127.396 146.075Z" fill="white"/>
<path d="M127.397 146.075C126.885 149.339 126.222 153.179 125.33 157.738C123.442 153.723 121.874 149.565 120.641 145.303H127.016L127.397 146.075Z" fill="#5552FF"/>
<path opacity="0.4" d="M127.397 146.075C126.885 149.339 126.222 153.179 125.33 157.738C123.442 153.723 121.874 149.565 120.641 145.303H127.016L127.397 146.075Z" fill="white"/>
<path d="M98.0988 98.4348C99.3934 106.736 99.7742 110.282 104.398 114.166C111.35 120.019 121.261 116.603 122.468 108.074C123.556 100.404 121.25 88.1104 112.753 85.5646C110.884 84.9912 108.9 84.9056 106.988 85.316C105.077 85.7263 103.302 86.619 101.833 87.909C100.364 89.1991 99.2501 90.8436 98.5964 92.686C97.9427 94.5284 97.7714 96.5075 98.0988 98.4348Z" fill="#E4897B"/>
<path d="M111.72 178.343C111.72 178.343 111.176 193.455 109.87 212.515C108.782 228.508 107.14 247.264 104.844 262.212L104.779 262.625C100.656 289.084 82.3893 350.922 82.3893 350.922H70.8354C70.8354 350.922 80.3548 291.194 82.4437 264.975C87.7419 198.753 74.4691 191.257 86.469 176.657L111.72 178.343Z" fill="#5552FF"/>
<path opacity="0.3" d="M111.72 178.343C111.72 178.343 111.176 193.455 109.87 212.515C108.782 228.508 107.14 247.264 104.844 262.212L104.779 262.625C100.656 289.084 82.3893 350.922 82.3893 350.922H70.8354C70.8354 350.922 80.3548 291.194 82.4437 264.975C87.7419 198.753 74.4691 191.257 86.469 176.657L111.72 178.343Z" fill="black"/>
<path d="M109.87 212.515C108.782 228.508 107.139 247.264 104.844 262.212C100.938 242.792 94.5192 214.43 103.136 195.848C105.192 201.124 107.585 207.086 109.87 212.515Z" fill="#5552FF"/>
<path opacity="0.4" d="M109.87 212.515C108.782 228.508 107.139 247.264 104.844 262.212C100.938 242.792 94.5192 214.43 103.136 195.848C105.192 201.124 107.585 207.086 109.87 212.515Z" fill="black"/>
<path d="M120.794 178.942C120.794 178.942 130.585 236.972 129.998 262.799C129.421 289.671 119.575 350.922 119.575 350.922H108.13C108.13 350.922 109.936 291.227 108.925 264.845C107.837 236.08 95.6519 177.299 95.6519 177.299L120.794 178.942Z" fill="#5552FF"/>
<path opacity="0.3" d="M120.794 178.942C120.794 178.942 130.585 236.972 129.998 262.799C129.421 289.671 119.575 350.922 119.575 350.922H108.13C108.13 350.922 109.936 291.227 108.925 264.845C107.837 236.08 95.6519 177.299 95.6519 177.299L120.794 178.942Z" fill="black"/>
<path d="M106.171 351.466H121.522L122.719 346.32L105.627 346.439L106.171 351.466Z" fill="#5552FF"/>
<path d="M69.1602 351.466H84.5109L85.7076 346.32L69.2689 346.439L69.1602 351.466Z" fill="#5552FF"/>
<path d="M86.0762 174.677L84.3355 177.658C84.1941 177.886 84.4661 178.147 84.8577 178.169L120.857 180.508C121.162 180.508 121.434 180.399 121.467 180.204L121.978 177.147C121.978 176.94 121.749 176.744 121.412 176.722L86.5984 174.459C86.5007 174.455 86.4032 174.472 86.313 174.51C86.2227 174.547 86.1418 174.604 86.0762 174.677Z" fill="#5552FF"/>
<path d="M90.4945 178.855L89.5698 178.789C89.3848 178.789 89.2434 178.67 89.2652 178.561L89.9614 174.59C89.9614 174.481 90.1464 174.394 90.3313 174.405L91.2669 174.459C91.4519 174.459 91.5824 174.579 91.5716 174.699L90.8753 178.659C90.8535 178.778 90.6795 178.865 90.4945 178.855Z" fill="#5552FF"/>
<path opacity="0.3" d="M90.4945 178.855L89.5698 178.789C89.3848 178.789 89.2434 178.67 89.2652 178.561L89.9614 174.59C89.9614 174.481 90.1464 174.394 90.3313 174.405L91.2669 174.459C91.4519 174.459 91.5824 174.579 91.5716 174.699L90.8753 178.659C90.8535 178.778 90.6795 178.865 90.4945 178.855Z" fill="black"/>
<path d="M113.025 180.312L112.1 180.258C111.915 180.258 111.774 180.138 111.795 180.019L112.492 176.059C112.492 175.939 112.677 175.863 112.872 175.874L113.797 175.928C113.982 175.928 114.124 176.048 114.102 176.167L113.406 180.127C113.416 180.247 113.242 180.323 113.025 180.312Z" fill="#5552FF"/>
<path opacity="0.3" d="M113.025 180.312L112.1 180.258C111.915 180.258 111.774 180.138 111.795 180.019L112.492 176.059C112.492 175.939 112.677 175.863 112.872 175.874L113.797 175.928C113.982 175.928 114.124 176.048 114.102 176.167L113.406 180.127C113.416 180.247 113.242 180.323 113.025 180.312Z" fill="black"/>
<path d="M130.083 136.937C131.389 141.288 132.629 145.694 133.837 150.09L137.481 163.243L137.938 164.875L138.058 165.277L138.112 165.484V165.593C138.151 165.737 138.198 165.878 138.254 166.017C138.521 166.678 138.888 167.295 139.342 167.845C140.641 169.216 142.146 170.376 143.802 171.283C147.597 173.337 151.612 174.957 155.769 176.113L155.138 180.356C150.26 180.105 145.454 179.065 140.908 177.277C138.393 176.291 136.075 174.862 134.065 173.056C132.914 171.989 131.957 170.73 131.237 169.335C131.042 168.958 130.871 168.569 130.725 168.171L130.606 167.877L130.529 167.671L130.388 167.268L129.811 165.625C128.288 161.274 126.874 156.922 125.536 152.505C124.198 148.088 122.881 143.736 121.685 139.297L130.083 136.937Z" fill="#E4897B"/>
<path d="M128.136 128.19C132.487 129.615 137.057 143.845 137.057 143.845L121.347 150.612C121.347 150.612 114.819 134.641 117.713 131.029C120.607 127.417 123.142 126.558 128.136 128.19Z" fill="#5552FF"/>
<path opacity="0.6" d="M128.136 128.19C132.487 129.615 137.057 143.845 137.057 143.845L121.347 150.612C121.347 150.612 114.819 134.641 117.713 131.029C120.607 127.417 123.142 126.558 128.136 128.19Z" fill="white"/>
<path d="M119.737 85.0855C116.963 81.6585 95.5303 79.2107 94.388 88.5451C86.7725 93.876 93.9964 107.649 95.0843 111.152C89.8296 112.61 72.9014 118.398 85.2929 129.647C97.6844 140.896 116.266 138.982 119.9 127.341C122.446 119.203 114.362 105.582 114.536 100.817C114.711 96.0518 124.491 90.9059 119.737 85.0855Z" fill="#5552FF"/>
<path d="M96.5859 112.872C96.5461 112.873 96.5066 112.865 96.4707 112.848C96.4347 112.831 96.4034 112.805 96.3792 112.774C94.41 110.38 87.5561 97.8037 89.9604 91.8201C90.3332 90.8917 90.9654 90.0903 91.7815 89.5116C92.5975 88.9328 93.5629 88.6012 94.5623 88.5563C94.5975 88.5518 94.6332 88.5545 94.6673 88.5642C94.7014 88.5739 94.7332 88.5905 94.7606 88.6129C94.7881 88.6352 94.8108 88.663 94.8272 88.6944C94.8436 88.7259 94.8534 88.7603 94.8561 88.7957C94.8654 88.8662 94.8467 88.9377 94.804 88.9946C94.7613 89.0516 94.698 89.0895 94.6276 89.1003C93.729 89.1335 92.8588 89.4238 92.1202 89.9367C91.3817 90.4497 90.8057 91.1637 90.4608 91.9942C88.1435 97.782 94.8669 110.065 96.7926 112.415C96.827 112.453 96.8492 112.501 96.8566 112.552C96.864 112.603 96.8562 112.655 96.8341 112.701C96.812 112.748 96.7766 112.786 96.7325 112.813C96.6883 112.839 96.6373 112.852 96.5859 112.85V112.872Z" fill="#5552FF"/>
<path d="M112.84 100.306C113.083 101.895 113.848 103.357 115.016 104.462C116.561 105.942 118.018 104.93 118.16 103.048C118.29 101.361 117.638 98.5654 115.81 97.7821C113.982 96.9988 112.611 98.4239 112.84 100.306Z" fill="#E4897B"/>
<path d="M150.439 174.938L156.618 172.839L155.65 180.269C155.65 180.269 153.213 181.357 150.058 178.615L147.044 176.69L149.416 175.395C149.741 175.21 150.084 175.057 150.439 174.938Z" fill="#E4897B"/>
<path d="M160.938 172.817L159.045 179.312L155.651 180.258L156.619 172.838L160.938 172.817Z" fill="#E4897B"/>
</svg>
