<svg width="24" height="24" viewBox="0 0 24 24" fill="none" xmlns="http://www.w3.org/2000/svg">
<path d="M18.5556 15.891C18.278 16.3188 18.304 16.89 18.6647 17.2505L21.6067 20.1919C21.9973 20.5824 21.9971 21.2159 21.6065 21.6065V21.6065C21.2159 21.9971 20.5824 21.9973 20.1919 21.6067L17.2505 18.6647C16.89 18.304 16.3188 18.278 15.891 18.5556C14.4404 19.4972 12.7421 20.0025 11 20C6.032 20 2 15.968 2 11C2 6.032 6.032 2 11 2C15.968 2 20 6.032 20 11C20.0025 12.7421 19.4972 14.4404 18.5556 15.891ZM16.025 15.875C17.2941 14.5699 18.0029 12.8204 18 11C18 7.132 14.867 4 11 4C7.132 4 4 7.132 4 11C4 14.867 7.132 18 11 18C12.8204 18.0029 14.5699 17.2941 15.875 16.025L16.025 15.875Z" fill="#5552FF"/>
</svg>
