<svg width="24" height="14" viewBox="0 0 24 14" fill="none" xmlns="http://www.w3.org/2000/svg">
<path fill-rule="evenodd" clip-rule="evenodd" d="M24 1C24 1.55228 23.5523 2 23 2H1C0.447715 2 0 1.55228 0 1V1C0 0.447715 0.447716 0 1 0H23C23.5523 0 24 0.447715 24 1V1Z" fill="#5552FF"/>
<path fill-rule="evenodd" clip-rule="evenodd" d="M21 7C21 7.55228 20.5523 8 20 8H4C3.44772 8 3 7.55228 3 7V7C3 6.44772 3.44772 6 4 6H20C20.5523 6 21 6.44772 21 7V7Z" fill="#5552FF"/>
<path fill-rule="evenodd" clip-rule="evenodd" d="M16 13C16 13.5523 15.5523 14 15 14H9C8.44772 14 8 13.5523 8 13V13C8 12.4477 8.44772 12 9 12H15C15.5523 12 16 12.4477 16 13V13Z" fill="#5552FF"/>
</svg>
