<svg width="1762" height="1599" viewBox="0 0 1762 1599" fill="none" xmlns="http://www.w3.org/2000/svg">
<path d="M1572.04 185.11C1451 -72.5781 1021.2 -36.2486 855.331 145.009C689.464 326.267 635.577 442.408 485.923 374.778C336.27 307.148 145.561 325.183 134.766 540.255C123.972 755.328 298.943 1009.5 577.007 1084.72C855.071 1159.94 855.158 1426.17 1223.4 1372.45C1424.16 1343.15 1428.76 1125.95 1400.4 946.297C1372.05 766.643 1712.41 484.027 1572.04 185.11Z" fill="#C7C7FF"/>
<path opacity="0.9" d="M1572.04 185.11C1451 -72.5781 1021.2 -36.2486 855.331 145.009C689.464 326.267 635.577 442.408 485.923 374.778C336.27 307.148 145.561 325.183 134.766 540.255C123.972 755.328 298.943 1009.5 577.007 1084.72C855.071 1159.94 855.158 1426.17 1223.4 1372.45C1424.16 1343.15 1428.76 1125.95 1400.4 946.297C1372.05 766.643 1712.41 484.027 1572.04 185.11Z" fill="#C7C7FF"/>
<path d="M897.817 1598.15C1362.05 1598.15 1738.38 1576.18 1738.38 1549.07C1738.38 1521.97 1362.05 1500 897.817 1500C433.586 1500 57.252 1521.97 57.252 1549.07C57.252 1576.18 433.586 1598.15 897.817 1598.15Z" fill="#F5F5F5"/>
<path d="M1427.8 1478.67C1427.8 1478.67 1413.71 1477.93 1412.33 1439.65C1410.94 1401.37 1435.74 1390.84 1454.81 1395.56C1454.81 1395.56 1452.04 1368.12 1464.39 1369.16C1476.75 1370.2 1475.93 1388.45 1475.93 1388.45C1475.93 1388.45 1480.26 1349.43 1497.04 1349.43C1513.82 1349.43 1497.04 1395.43 1497.04 1395.43C1497.04 1395.43 1520.41 1384.2 1528.99 1395.43C1537.57 1406.66 1518.28 1419.79 1518.28 1419.79C1518.28 1419.79 1548.63 1429.68 1535.88 1461.07C1535.88 1461.07 1557 1464.36 1562.89 1478.41C1562.89 1478.41 1561.2 1450.01 1568.83 1451.92C1576.46 1453.83 1574.73 1478.71 1574.73 1478.71C1574.73 1478.71 1587.39 1451.4 1598.35 1461.02C1609.32 1470.65 1593.32 1493.84 1593.32 1493.84C1593.32 1493.84 1614.44 1483.61 1617.78 1497.18C1621.11 1510.75 1605.98 1515.82 1605.98 1515.82C1605.98 1515.82 1627.92 1510.75 1627.92 1535.94C1627.92 1535.94 1670.15 1531.9 1680.29 1554.54H1428.84L1427.8 1478.67Z" fill="#5552FF"/>
<path opacity="0.4" d="M1427.8 1478.67C1427.8 1478.67 1413.71 1477.93 1412.33 1439.65C1410.94 1401.37 1435.74 1390.84 1454.81 1395.56C1454.81 1395.56 1452.04 1368.12 1464.39 1369.16C1476.75 1370.2 1475.93 1388.45 1475.93 1388.45C1475.93 1388.45 1480.26 1349.43 1497.04 1349.43C1513.82 1349.43 1497.04 1395.43 1497.04 1395.43C1497.04 1395.43 1520.41 1384.2 1528.99 1395.43C1537.57 1406.66 1518.28 1419.79 1518.28 1419.79C1518.28 1419.79 1548.63 1429.68 1535.88 1461.07C1535.88 1461.07 1557 1464.36 1562.89 1478.41C1562.89 1478.41 1561.2 1450.01 1568.83 1451.92C1576.46 1453.83 1574.73 1478.71 1574.73 1478.71C1574.73 1478.71 1587.39 1451.4 1598.35 1461.02C1609.32 1470.65 1593.32 1493.84 1593.32 1493.84C1593.32 1493.84 1614.44 1483.61 1617.78 1497.18C1621.11 1510.75 1605.98 1515.82 1605.98 1515.82C1605.98 1515.82 1627.92 1510.75 1627.92 1535.94C1627.92 1535.94 1670.15 1531.9 1680.29 1554.54H1428.84L1427.8 1478.67Z" fill="white"/>
<path d="M1299.31 1084.16C1293.24 1183.87 1260.29 1552.37 1260.29 1552.37L1498.34 1554.58L1431.4 888.724L1538.22 856.123L1560.64 791.398L1650.85 740.371L1694.94 672.655L1677.91 668.319L1629.22 730.834L1572.43 743.189L1596.75 685.574H1569.78L1502.15 819.013L1432.79 833.233L1426.46 590.458C1356.75 623.016 1334.47 568.782 1334.47 568.782C1334.47 568.782 1316.43 948.811 1306.29 977.511C1296.01 971.793 1286.45 964.881 1277.8 956.918C1254.28 935.978 1233.84 911.807 1217.11 885.126L1212.77 877.973H1191.1L1299.31 1084.16Z" fill="#5552FF"/>
<g opacity="0.2">
<path d="M1299.31 1084.16C1293.24 1183.87 1260.29 1552.37 1260.29 1552.37L1498.34 1554.58L1431.4 888.724L1538.22 856.123L1560.64 791.398L1650.85 740.371L1694.94 672.655L1677.91 668.319L1629.22 730.834L1572.43 743.189L1596.75 685.574H1569.78L1502.15 819.013L1432.79 833.233L1426.46 590.458C1356.75 623.016 1334.47 568.782 1334.47 568.782C1334.47 568.782 1316.43 948.811 1306.29 977.511C1296.01 971.793 1286.45 964.881 1277.8 956.918C1254.28 935.978 1233.84 911.807 1217.11 885.126L1212.77 877.973H1191.1L1299.31 1084.16Z" fill="black"/>
</g>
<path opacity="0.1" d="M1550.23 773.406L1521.23 829.331L1430.49 852.308C1430.49 852.308 1430.8 838.045 1432.27 819.75L1432.66 833.45L1502.02 819.23L1569.78 685.79H1596.84L1572.52 743.406L1629.31 731.051L1677.99 668.536L1680.38 669.1L1642.88 725.848L1550.23 773.406Z" fill="black"/>
<path d="M1419.61 1225.31L1441.03 1554.06L1403.27 1553.71V1294.25L1419.61 1225.31Z" fill="#5552FF"/>
<path d="M1299.31 1084.16L1190.92 878.19H1212.6L1216.94 885.343C1233.67 912.024 1254.11 936.195 1277.63 957.135C1286.28 965.098 1295.84 972.01 1306.11 977.728C1316.26 949.028 1334.29 568.998 1334.29 568.998C1337.79 576.43 1342.88 583.002 1349.21 588.246C1355.53 593.49 1362.93 597.28 1370.88 599.345C1371.89 722.091 1372.92 844.837 1373.96 967.583C1381.63 950.242 1388.31 933.378 1388.96 915.213C1391.26 965.502 1394.34 1019.56 1394.12 1069.2L1352.41 1223.06L1344.35 1553.15L1260.42 1552.37C1260.42 1552.37 1293.24 1183.87 1299.31 1084.16Z" fill="#5552FF"/>
<path d="M1031.39 441.065C996.705 453.463 972.731 490.183 973.815 527.076C974.815 545.552 980.981 563.376 991.611 578.52C1002.24 593.665 1016.91 605.521 1033.94 612.741C1051.16 619.517 1069.82 621.803 1088.17 619.383C1106.51 616.964 1123.94 609.919 1138.81 598.912C1140.33 634.331 1164.52 672.828 1198.29 683.536C1215.35 688.645 1233.55 688.535 1250.55 683.22C1267.54 677.905 1282.56 667.628 1293.67 653.709C1384.71 710.892 1703.35 732.091 1759.37 488.579C1770.9 438.29 1742.89 385.053 1701.84 353.796C1660.78 322.538 1608.58 309.749 1557.39 303.463C1508.79 226.079 1401.01 183.81 1310.27 195.948C1219.54 208.087 1139.21 276.628 1112.72 364.07C1020.42 364.504 1030.04 447.264 1031.39 441.065Z" fill="#5552FF"/>
<g opacity="0.2">
<path d="M1031.39 441.065C996.705 453.463 972.731 490.183 973.815 527.076C974.815 545.552 980.981 563.376 991.611 578.52C1002.24 593.665 1016.91 605.521 1033.94 612.741C1051.16 619.517 1069.82 621.803 1088.17 619.383C1106.51 616.964 1123.94 609.919 1138.81 598.912C1140.33 634.331 1164.52 672.828 1198.29 683.536C1215.35 688.645 1233.55 688.535 1250.55 683.22C1267.54 677.905 1282.56 667.628 1293.67 653.709C1384.71 710.892 1703.35 732.091 1759.37 488.579C1770.9 438.29 1742.89 385.053 1701.84 353.796C1660.78 322.538 1608.58 309.749 1557.39 303.463C1508.79 226.079 1401.01 183.81 1310.27 195.948C1219.54 208.087 1139.21 276.628 1112.72 364.07C1020.42 364.504 1030.04 447.264 1031.39 441.065Z" fill="black"/>
</g>
<path d="M1143.8 920.068C1148.98 927.744 1156.24 933.784 1164.73 937.482C1173.22 941.181 1182.58 942.384 1191.73 940.951C1200.88 939.518 1209.43 935.508 1216.38 929.392C1223.33 923.275 1228.4 915.304 1230.98 906.412C1252.66 921.586 1285.87 917.857 1307.72 903.074C1318.74 895.615 1327.22 884.976 1332.05 872.574C1336.87 860.172 1337.8 846.596 1334.72 833.651C1331.64 820.707 1324.68 809.008 1314.79 800.112C1304.89 791.216 1292.52 785.545 1279.32 783.854C1278.27 771.776 1274.42 760.107 1268.08 749.775C1261.74 739.443 1253.07 730.732 1242.77 724.331C1231.99 717.718 1219.85 713.598 1207.27 712.27C1194.68 710.943 1181.96 712.442 1170.03 716.658C1156.06 714.379 1141.76 715.459 1128.29 719.809C1114.83 724.159 1102.59 731.653 1092.6 741.672C1077.99 755.848 1068.28 775.964 1069.97 796.253C1071.66 816.542 1086.49 836.007 1106.47 839.866C1102.9 847.216 1100.87 855.221 1100.51 863.386C1100.16 871.551 1101.48 879.702 1104.39 887.337C1110.85 902.424 1128.28 914.302 1143.8 920.068Z" fill="#5552FF"/>
<path opacity="0.2" d="M1143.8 920.068C1148.98 927.744 1156.24 933.784 1164.73 937.482C1173.22 941.181 1182.58 942.384 1191.73 940.951C1200.88 939.518 1209.43 935.508 1216.38 929.392C1223.33 923.275 1228.4 915.304 1230.98 906.412C1252.66 921.586 1285.87 917.857 1307.72 903.074C1318.74 895.615 1327.22 884.976 1332.05 872.574C1336.87 860.172 1337.8 846.596 1334.72 833.651C1331.64 820.707 1324.68 809.008 1314.79 800.112C1304.89 791.216 1292.52 785.545 1279.32 783.854C1278.27 771.776 1274.42 760.107 1268.08 749.775C1261.74 739.443 1253.07 730.732 1242.77 724.331C1231.99 717.718 1219.85 713.598 1207.27 712.27C1194.68 710.943 1181.96 712.442 1170.03 716.658C1156.06 714.379 1141.76 715.459 1128.29 719.809C1114.83 724.159 1102.59 731.653 1092.6 741.672C1077.99 755.848 1068.28 775.964 1069.97 796.253C1071.66 816.542 1086.49 836.007 1106.47 839.866C1102.9 847.216 1100.87 855.221 1100.51 863.386C1100.16 871.551 1101.48 879.702 1104.39 887.337C1110.85 902.424 1128.28 914.302 1143.8 920.068Z" fill="black"/>
<path d="M1602.56 551.917C1593.81 548.898 1584.38 548.434 1575.37 550.579C1566.37 552.724 1558.16 557.39 1551.71 564.031C1545.26 570.672 1540.84 579.012 1538.95 588.076C1537.07 597.141 1537.81 606.553 1541.09 615.212C1514.73 616.036 1490.32 639.056 1481.74 663.984C1477.4 676.549 1476.99 690.138 1480.56 702.942C1484.13 715.747 1491.52 727.16 1501.73 735.664C1511.95 744.168 1524.52 749.361 1537.76 750.55C1551 751.739 1564.28 748.869 1575.85 742.322C1583.96 751.347 1594.06 758.357 1605.35 762.797C1616.63 767.237 1628.8 768.985 1640.88 767.9C1653.49 766.703 1665.66 762.712 1676.53 756.218C1687.4 749.724 1696.68 740.889 1703.7 730.357C1716.24 723.815 1727.04 714.384 1735.21 702.843C1743.38 691.302 1748.69 677.982 1750.7 663.984C1753.86 643.912 1749.57 621.975 1736 606.758C1722.43 591.542 1698.93 585.082 1680.64 593.753C1679.06 585.764 1675.86 578.183 1671.25 571.474C1666.63 564.764 1660.7 559.068 1653.8 554.735C1639.54 546.281 1618.43 547.235 1602.56 551.917Z" fill="#5552FF"/>
<path opacity="0.1" d="M1602.56 551.917C1593.81 548.898 1584.38 548.434 1575.37 550.579C1566.37 552.724 1558.16 557.39 1551.71 564.031C1545.26 570.672 1540.84 579.012 1538.95 588.076C1537.07 597.141 1537.81 606.553 1541.09 615.212C1514.73 616.036 1490.32 639.056 1481.74 663.984C1477.4 676.549 1476.99 690.138 1480.56 702.942C1484.13 715.747 1491.52 727.16 1501.73 735.664C1511.95 744.168 1524.52 749.361 1537.76 750.55C1551 751.739 1564.28 748.869 1575.85 742.322C1583.96 751.347 1594.06 758.357 1605.35 762.797C1616.63 767.237 1628.8 768.985 1640.88 767.9C1653.49 766.703 1665.66 762.712 1676.53 756.218C1687.4 749.724 1696.68 740.889 1703.7 730.357C1716.24 723.815 1727.04 714.384 1735.21 702.843C1743.38 691.302 1748.69 677.982 1750.7 663.984C1753.86 643.912 1749.57 621.975 1736 606.758C1722.43 591.542 1698.93 585.082 1680.64 593.753C1679.06 585.764 1675.86 578.183 1671.25 571.474C1666.63 564.764 1660.7 559.068 1653.8 554.735C1639.54 546.281 1618.43 547.235 1602.56 551.917Z" fill="black"/>
<path d="M1441.68 1544.95C1441.68 1544.95 1354.23 1488.29 1370.84 1478.67C1387.44 1469.04 1445.71 1525.71 1445.71 1525.71C1445.71 1525.71 1381.29 1431.46 1397.2 1412.55C1413.11 1393.65 1455.98 1489.38 1455.98 1489.38C1455.98 1489.38 1426.85 1379.95 1447.31 1367.99C1467.78 1356.02 1475.36 1477.63 1475.36 1477.63C1475.36 1477.63 1483.38 1345.84 1521.1 1347.57C1558.82 1349.3 1503.76 1477.63 1503.76 1477.63C1503.76 1477.63 1556.95 1401.37 1575.81 1423C1594.67 1444.64 1515.77 1505.37 1515.77 1505.37C1515.77 1505.37 1574.77 1477.67 1578.71 1498.22C1582.66 1518.77 1513.69 1540.66 1513.69 1540.66C1513.69 1540.66 1535.84 1547.03 1541 1554.49H1423.17C1423.17 1554.49 1421.26 1548.9 1441.68 1544.95Z" fill="#5552FF"/>
<path opacity="0.6" d="M1441.68 1544.95C1441.68 1544.95 1354.23 1488.29 1370.84 1478.67C1387.44 1469.04 1445.71 1525.71 1445.71 1525.71C1445.71 1525.71 1381.29 1431.46 1397.2 1412.55C1413.11 1393.65 1455.98 1489.38 1455.98 1489.38C1455.98 1489.38 1426.85 1379.95 1447.31 1367.99C1467.78 1356.02 1475.36 1477.63 1475.36 1477.63C1475.36 1477.63 1483.38 1345.84 1521.1 1347.57C1558.82 1349.3 1503.76 1477.63 1503.76 1477.63C1503.76 1477.63 1556.95 1401.37 1575.81 1423C1594.67 1444.64 1515.77 1505.37 1515.77 1505.37C1515.77 1505.37 1574.77 1477.67 1578.71 1498.22C1582.66 1518.77 1513.69 1540.66 1513.69 1540.66C1513.69 1540.66 1535.84 1547.03 1541 1554.49H1423.17C1423.17 1554.49 1421.26 1548.9 1441.68 1544.95Z" fill="white"/>
<path d="M311.125 1325.33C310.822 1323.77 281.515 1171.73 252.902 1151.48C225.113 1131.89 200.879 1158.81 200.012 1160.16L196.761 1157.34C197.021 1156.99 224.463 1126.34 255.374 1148.19C285.46 1169.39 314.16 1318.39 315.374 1324.72L311.125 1325.33Z" fill="#5552FF"/>
<path d="M300.243 1337.86C300.243 1336.82 289.405 1232.29 255.72 1200.21C247.57 1192.45 239.593 1189.42 232.006 1191.2C213.971 1195.31 202.83 1224.49 202.743 1224.79L198.668 1223.28C199.145 1221.98 210.72 1191.63 231.009 1186.95C240.113 1184.87 249.434 1188.25 258.711 1197.05C293.394 1230.26 304.145 1333.09 304.579 1337.42L300.243 1337.86Z" fill="#5552FF"/>
<path d="M280.041 1168.13C280.041 1168.13 299.637 1164.19 303.408 1181.14C307.18 1198.09 270.807 1251.85 270.807 1251.85C270.807 1251.85 237.772 1245.47 237.772 1202.03C237.772 1158.59 273.538 1158.46 280.041 1168.13Z" fill="#5552FF"/>
<path opacity="0.2" d="M280.041 1168.13C280.041 1168.13 299.637 1164.19 303.408 1181.14C307.18 1198.09 270.807 1251.85 270.807 1251.85C270.807 1251.85 237.772 1245.47 237.772 1202.03C237.772 1158.59 273.538 1158.46 280.041 1168.13Z" fill="white"/>
<path d="M229.448 1200.91C229.448 1200.91 237.339 1192.24 226.977 1190.11C216.616 1187.99 168.798 1196.88 175.778 1244.56C175.778 1244.56 233.177 1245.04 237.252 1225.79C241.327 1206.54 229.448 1200.91 229.448 1200.91Z" fill="#5552FF"/>
<path opacity="0.2" d="M229.448 1200.91C229.448 1200.91 237.339 1192.24 226.977 1190.11C216.616 1187.99 168.798 1196.88 175.778 1244.56C175.778 1244.56 233.177 1245.04 237.252 1225.79C241.327 1206.54 229.448 1200.91 229.448 1200.91Z" fill="white"/>
<path d="M303.148 1119.19C303.148 1119.19 300.937 1110.52 308.654 1112.77C316.371 1115.03 345.72 1138.18 323.784 1167.92C323.784 1167.92 284.767 1147.54 289.102 1133.23C293.437 1118.93 303.148 1119.19 303.148 1119.19Z" fill="#5552FF"/>
<path opacity="0.2" d="M303.148 1119.19C303.148 1119.19 300.937 1110.52 308.654 1112.77C316.371 1115.03 345.72 1138.18 323.784 1167.92C323.784 1167.92 284.767 1147.54 289.102 1133.23C293.437 1118.93 303.148 1119.19 303.148 1119.19Z" fill="white"/>
<path d="M1024.32 1356.5L1019.99 1355.33C1020.51 1353.55 1070.53 1175.5 1161.01 1127.55L1163.05 1131.37C1074.35 1178.49 1024.8 1354.72 1024.32 1356.5Z" fill="#5552FF"/>
<path d="M1025.14 1336.38L1021.2 1334.56C1022.11 1332.7 1108.42 1144.03 1078.68 1084.11L1082.54 1082.21C1113.24 1143.94 1028.74 1328.58 1025.14 1336.38Z" fill="#5552FF"/>
<path d="M1021.76 1350.04L1017.43 1348.78C1020.38 1338.99 1089.7 1108.74 1134.05 1080.43L1136.39 1084.07C1093.56 1111.51 1022.46 1347.66 1021.76 1350.04Z" fill="#5552FF"/>
<path d="M1094.29 1091.53C1094.29 1091.53 1107.3 1094.95 1109.16 1087.19C1111.03 1079.43 1071.23 1041.63 1031.13 1062.4C1031.13 1062.4 1037.2 1099.94 1062.86 1110.08C1088.53 1120.23 1094.29 1091.53 1094.29 1091.53Z" fill="#5552FF"/>
<path opacity="0.2" d="M1094.29 1091.53C1094.29 1091.53 1107.3 1094.95 1109.16 1087.19C1111.03 1079.43 1071.23 1041.63 1031.13 1062.4C1031.13 1062.4 1037.2 1099.94 1062.86 1110.08C1088.53 1120.23 1094.29 1091.53 1094.29 1091.53Z" fill="white"/>
<path d="M1124.51 1082.03C1124.51 1082.03 1111.16 1083.16 1110.68 1075.01C1110.2 1066.86 1155.98 1036.73 1191.71 1064.17C1191.71 1064.17 1179.13 1100.07 1152.08 1105.75C1125.03 1111.43 1124.51 1082.03 1124.51 1082.03Z" fill="#5552FF"/>
<path opacity="0.2" d="M1124.51 1082.03C1124.51 1082.03 1111.16 1083.16 1110.68 1075.01C1110.2 1066.86 1155.98 1036.73 1191.71 1064.17C1191.71 1064.17 1179.13 1100.07 1152.08 1105.75C1125.03 1111.43 1124.51 1082.03 1124.51 1082.03Z" fill="white"/>
<path d="M1166.86 1118.06C1166.86 1118.06 1160.97 1107.87 1171.5 1108.05C1182.04 1108.22 1227.08 1126.6 1210.3 1171.73C1210.3 1171.73 1153.95 1160.24 1153.95 1140.6C1153.95 1120.96 1166.86 1118.06 1166.86 1118.06Z" fill="#5552FF"/>
<path opacity="0.2" d="M1166.86 1118.06C1166.86 1118.06 1160.97 1107.87 1171.5 1108.05C1182.04 1108.22 1227.08 1126.6 1210.3 1171.73C1210.3 1171.73 1153.95 1160.24 1153.95 1140.6C1153.95 1120.96 1166.86 1118.06 1166.86 1118.06Z" fill="white"/>
<path d="M1125.03 1143.55C1125.03 1143.55 1127.5 1134.88 1133.05 1140.78C1138.6 1146.67 1152.43 1181.27 1118.61 1196.09C1118.61 1196.09 1094.98 1158.99 1105.82 1148.41C1116.66 1137.83 1125.03 1143.55 1125.03 1143.55Z" fill="#5552FF"/>
<path opacity="0.2" d="M1125.03 1143.55C1125.03 1143.55 1127.5 1134.88 1133.05 1140.78C1138.6 1146.67 1152.43 1181.27 1118.61 1196.09C1118.61 1196.09 1094.98 1158.99 1105.82 1148.41C1116.66 1137.83 1125.03 1143.55 1125.03 1143.55Z" fill="white"/>
<path d="M212.541 1146.5C212.541 1146.5 216.876 1138.52 208.769 1138.91C200.662 1139.3 166.587 1154.39 180.503 1188.59C180.503 1188.59 223.336 1178.49 222.859 1163.45C222.382 1148.41 212.541 1146.5 212.541 1146.5Z" fill="#5552FF"/>
<path opacity="0.2" d="M212.541 1146.5C212.541 1146.5 216.876 1138.52 208.769 1138.91C200.662 1139.3 166.587 1154.39 180.503 1188.59C180.503 1188.59 223.336 1178.49 222.859 1163.45C222.382 1148.41 212.541 1146.5 212.541 1146.5Z" fill="white"/>
<path d="M974.465 1441.95C974.465 1441.95 945.852 1440.82 943.034 1383.12C940.216 1325.42 990.722 1310.03 1029.35 1317.09C1029.35 1317.09 1023.67 1275.99 1048.81 1277.51C1073.96 1279.03 1072.22 1306.47 1072.22 1306.47C1072.22 1306.47 1080.9 1248.2 1115.1 1248.16C1149.31 1248.12 1115.1 1317.09 1115.1 1317.09C1115.1 1317.09 1162.57 1300.27 1180.13 1317.09C1197.69 1333.91 1158.45 1353.6 1158.45 1353.6C1158.45 1353.6 1219.97 1368.38 1194.26 1415.46C1194.26 1415.46 1237.14 1420.4 1249.15 1441.47C1249.15 1441.47 1245.72 1398.94 1261.16 1401.8C1276.59 1404.66 1273.12 1441.95 1273.12 1441.95C1273.12 1441.95 1298.87 1400.98 1321.16 1415.46C1343.44 1429.94 1310.88 1464.62 1310.88 1464.62C1310.88 1464.62 1353.76 1449.27 1360.61 1469.61C1367.46 1489.94 1336.59 1497.57 1336.59 1497.57C1336.59 1497.57 1381.2 1489.94 1381.2 1527.7C1381.2 1527.7 1466.95 1521.63 1487.54 1555.53H976.199L974.465 1441.95Z" fill="#5552FF"/>
<path opacity="0.4" d="M974.465 1441.95C974.465 1441.95 945.852 1440.82 943.034 1383.12C940.216 1325.42 990.722 1310.03 1029.35 1317.09C1029.35 1317.09 1023.67 1275.99 1048.81 1277.51C1073.96 1279.03 1072.22 1306.47 1072.22 1306.47C1072.22 1306.47 1080.9 1248.2 1115.1 1248.16C1149.31 1248.12 1115.1 1317.09 1115.1 1317.09C1115.1 1317.09 1162.57 1300.27 1180.13 1317.09C1197.69 1333.91 1158.45 1353.6 1158.45 1353.6C1158.45 1353.6 1219.97 1368.38 1194.26 1415.46C1194.26 1415.46 1237.14 1420.4 1249.15 1441.47C1249.15 1441.47 1245.72 1398.94 1261.16 1401.8C1276.59 1404.66 1273.12 1441.95 1273.12 1441.95C1273.12 1441.95 1298.87 1400.98 1321.16 1415.46C1343.44 1429.94 1310.88 1464.62 1310.88 1464.62C1310.88 1464.62 1353.76 1449.27 1360.61 1469.61C1367.46 1489.94 1336.59 1497.57 1336.59 1497.57C1336.59 1497.57 1381.2 1489.94 1381.2 1527.7C1381.2 1527.7 1466.95 1521.63 1487.54 1555.53H976.199L974.465 1441.95Z" fill="white"/>
<path d="M377.845 1441.95C377.845 1441.95 398.958 1440.82 401.039 1383.12C403.12 1325.42 365.966 1310.03 337.354 1317.09C337.354 1317.09 341.689 1275.99 323.004 1277.51C304.319 1279.03 305.663 1306.47 305.663 1306.47C305.663 1306.47 299.333 1248.2 274.015 1248.16C248.697 1248.12 274.015 1317.09 274.015 1317.09C274.015 1317.09 239.03 1300.27 226.327 1317.09C213.625 1333.91 242.411 1353.6 242.411 1353.6C242.411 1353.6 197.021 1368.38 216.009 1415.46C216.009 1415.46 184.362 1420.4 175.518 1441.47C175.518 1441.47 178.033 1398.94 166.848 1401.8C155.663 1404.66 158.177 1441.95 158.177 1441.95C158.177 1441.95 139.232 1400.98 122.758 1415.46C106.284 1429.94 130.345 1464.62 130.345 1464.62C130.345 1464.62 98.7405 1449.27 93.6682 1469.61C88.5959 1489.94 111.399 1497.57 111.399 1497.57C111.399 1497.57 78.4947 1489.94 78.4947 1527.7C78.4947 1527.7 15.2432 1521.63 0.0263672 1555.53H377.195L377.845 1441.95Z" fill="#5552FF"/>
<path opacity="0.4" d="M377.845 1441.95C377.845 1441.95 398.958 1440.82 401.039 1383.12C403.12 1325.42 365.966 1310.03 337.354 1317.09C337.354 1317.09 341.689 1275.99 323.004 1277.51C304.319 1279.03 305.663 1306.47 305.663 1306.47C305.663 1306.47 299.333 1248.2 274.015 1248.16C248.697 1248.12 274.015 1317.09 274.015 1317.09C274.015 1317.09 239.03 1300.27 226.327 1317.09C213.625 1333.91 242.411 1353.6 242.411 1353.6C242.411 1353.6 197.021 1368.38 216.009 1415.46C216.009 1415.46 184.362 1420.4 175.518 1441.47C175.518 1441.47 178.033 1398.94 166.848 1401.8C155.663 1404.66 158.177 1441.95 158.177 1441.95C158.177 1441.95 139.232 1400.98 122.758 1415.46C106.284 1429.94 130.345 1464.62 130.345 1464.62C130.345 1464.62 98.7405 1449.27 93.6682 1469.61C88.5959 1489.94 111.399 1497.57 111.399 1497.57C111.399 1497.57 78.4947 1489.94 78.4947 1527.7C78.4947 1527.7 15.2432 1521.63 0.0263672 1555.53H377.195L377.845 1441.95Z" fill="white"/>
<path d="M189.608 1545.91C189.608 1545.91 277.007 1489.25 260.533 1479.71C244.059 1470.17 185.533 1526.7 185.533 1526.7C185.533 1526.7 249.955 1432.45 234.045 1413.55C218.134 1394.65 175.258 1490.37 175.258 1490.37C175.258 1490.37 204.391 1380.95 183.929 1368.99C163.466 1357.02 155.793 1478.67 155.793 1478.67C155.793 1478.67 147.816 1346.83 110.056 1348.61C72.2957 1350.39 127.397 1478.67 127.397 1478.67C127.397 1478.67 74.1165 1402.32 55.2147 1424C36.3129 1445.68 115.215 1506.37 115.215 1506.37C115.215 1506.37 56.2118 1478.67 52.4401 1499.3C48.6685 1519.94 117.469 1541.75 117.469 1541.75C117.469 1541.75 95.2726 1548.12 90.157 1555.53H208.12C208.12 1555.53 209.984 1549.9 189.608 1545.91Z" fill="#5552FF"/>
<path opacity="0.6" d="M189.608 1545.91C189.608 1545.91 277.007 1489.25 260.533 1479.71C244.059 1470.17 185.533 1526.7 185.533 1526.7C185.533 1526.7 249.955 1432.45 234.045 1413.55C218.134 1394.65 175.258 1490.37 175.258 1490.37C175.258 1490.37 204.391 1380.95 183.929 1368.99C163.466 1357.02 155.793 1478.67 155.793 1478.67C155.793 1478.67 147.816 1346.83 110.056 1348.61C72.2957 1350.39 127.397 1478.67 127.397 1478.67C127.397 1478.67 74.1165 1402.32 55.2147 1424C36.3129 1445.68 115.215 1506.37 115.215 1506.37C115.215 1506.37 56.2118 1478.67 52.4401 1499.3C48.6685 1519.94 117.469 1541.75 117.469 1541.75C117.469 1541.75 95.2726 1548.12 90.157 1555.53H208.12C208.12 1555.53 209.984 1549.9 189.608 1545.91Z" fill="white"/>
<path d="M233.351 1555.53C233.351 1555.53 333.929 1185.43 352.224 1171.73C370.518 1158.03 474.868 1119.4 474.868 1119.4C474.868 1119.4 728.698 1161.8 766.849 1157.6C804.999 1153.39 927.6 1129.81 945.202 1157.6C962.803 1185.39 1032.21 1352.38 1032.21 1352.38L1129.71 1393.52L1191.49 1555.53H233.351Z" fill="#5552FF"/>
<path opacity="0.6" d="M1191.49 1555.53H233.394C233.394 1555.53 333.495 1187.03 352.137 1171.77C358.645 1167.51 365.505 1163.81 372.642 1160.72C408.885 1143.85 474.781 1119.49 474.781 1119.49C474.781 1119.49 728.611 1161.89 766.762 1157.68C804.912 1153.48 927.514 1129.85 945.115 1157.68C948.843 1163.62 954.956 1175.85 962.239 1191.46C989.204 1248.9 1032.21 1352.34 1032.21 1352.34L1129.71 1393.52L1191.49 1555.53Z" fill="white"/>
<path opacity="0.1" d="M962.326 1191.37L924.479 1228.83L825.852 1205.55L714.262 1228.74L721.415 1271.88L680.794 1320.26L695.23 1271.88L663.713 1218.77C663.713 1218.77 535.302 1226.57 501.79 1218.77C480.764 1213.87 417.166 1182.92 372.859 1160.63C409.102 1143.77 474.998 1119.4 474.998 1119.4C474.998 1119.4 728.828 1161.8 766.979 1157.6C805.129 1153.39 927.73 1129.77 945.332 1157.6C948.93 1163.54 955.043 1175.76 962.326 1191.37Z" fill="black"/>
<path opacity="0.1" d="M1191.49 1555.53H233.394C233.394 1555.53 333.495 1187.03 352.137 1171.77L290.402 1458.94L321.269 1506.63L397.137 1449.06L455.619 1481.31L536.342 1465.01L544.362 1425.99L658.727 1350.78L586.935 1417.28L612.209 1493.15L722.108 1512.09H843.496L893.482 1478.67L876.747 1410.6L851.473 1371.15L979.58 1370.85L925.042 1404.62L945.158 1464.58L1006.85 1493.19L1078.55 1448.93L1107.77 1533.38L1191.49 1555.53Z" fill="black"/>
<path d="M1063.42 1555.53H1222.23C1222.23 1555.53 1190.62 1507.15 1177.14 1513.31C1159.58 1521.28 1146.58 1477.45 1127.15 1487.82C1120.3 1491.5 1123.69 1503.21 1119.35 1507.93C1112.24 1515.73 1103.18 1514.22 1094.6 1518.51C1077.73 1526.92 1071.75 1538.02 1063.42 1555.53Z" fill="#5552FF"/>
<path opacity="0.2" d="M1063.42 1555.53H1222.23C1222.23 1555.53 1190.62 1507.15 1177.14 1513.31C1159.58 1521.28 1146.58 1477.45 1127.15 1487.82C1120.3 1491.5 1123.69 1503.21 1119.35 1507.93C1112.24 1515.73 1103.18 1514.22 1094.6 1518.51C1077.73 1526.92 1071.75 1538.02 1063.42 1555.53Z" fill="black"/>
<path d="M1204.88 1542.05C1204.88 1542.05 1194.44 1481.57 1201.63 1472.69C1208.83 1463.8 1210.09 1505.68 1210.09 1505.68C1210.09 1505.68 1234.28 1418.28 1249.75 1417.84C1265.23 1417.41 1231.63 1493.67 1231.63 1493.67C1231.63 1493.67 1297.79 1385.55 1316.99 1395.6C1336.2 1405.66 1247.63 1501.51 1247.63 1501.51C1247.63 1501.51 1296.01 1459.85 1306.68 1471.64C1317.34 1483.44 1252.96 1519.33 1252.96 1519.33C1252.96 1519.33 1281.36 1512.96 1281.31 1522.41C1281.27 1531.86 1233.28 1547.43 1204.88 1542.05Z" fill="#5552FF"/>
<path opacity="0.2" d="M1204.88 1542.05C1204.88 1542.05 1194.44 1481.57 1201.63 1472.69C1208.83 1463.8 1210.09 1505.68 1210.09 1505.68C1210.09 1505.68 1234.28 1418.28 1249.75 1417.84C1265.23 1417.41 1231.63 1493.67 1231.63 1493.67C1231.63 1493.67 1297.79 1385.55 1316.99 1395.6C1336.2 1405.66 1247.63 1501.51 1247.63 1501.51C1247.63 1501.51 1296.01 1459.85 1306.68 1471.64C1317.34 1483.44 1252.96 1519.33 1252.96 1519.33C1252.96 1519.33 1281.36 1512.96 1281.31 1522.41C1281.27 1531.86 1233.28 1547.43 1204.88 1542.05Z" fill="white"/>
<path d="M1195.35 1533.42C1195.35 1533.42 1145.62 1524.4 1140.81 1516.34C1136 1508.28 1168.68 1519.12 1168.68 1519.12C1168.68 1519.12 1107.99 1475.76 1111.94 1463.62C1115.88 1451.49 1165.39 1499.22 1165.39 1499.22C1165.39 1499.22 1100.36 1417.54 1113.67 1405.49C1126.98 1393.44 1176.05 1488.99 1176.05 1488.99C1176.05 1488.99 1157.5 1439.78 1169.6 1434.84C1181.69 1429.9 1191.27 1489.9 1191.27 1489.9C1191.27 1489.9 1194.35 1466.14 1201.63 1468.83C1208.92 1471.51 1207.53 1512.96 1195.35 1533.42Z" fill="#5552FF"/>
<path opacity="0.2" d="M1195.35 1533.42C1195.35 1533.42 1145.62 1524.4 1140.81 1516.34C1136 1508.28 1168.68 1519.12 1168.68 1519.12C1168.68 1519.12 1107.99 1475.76 1111.94 1463.62C1115.88 1451.49 1165.39 1499.22 1165.39 1499.22C1165.39 1499.22 1100.36 1417.54 1113.67 1405.49C1126.98 1393.44 1176.05 1488.99 1176.05 1488.99C1176.05 1488.99 1157.5 1439.78 1169.6 1434.84C1181.69 1429.9 1191.27 1489.9 1191.27 1489.9C1191.27 1489.9 1194.35 1466.14 1201.63 1468.83C1208.92 1471.51 1207.53 1512.96 1195.35 1533.42Z" fill="white"/>
<path d="M1191.62 1526.79C1191.62 1526.79 1143.58 1478.71 1144.45 1466.1C1145.32 1453.48 1173.15 1490.55 1173.15 1490.55C1173.15 1490.55 1139.29 1395.99 1153.03 1385.72C1166.78 1375.44 1184.77 1466.1 1184.77 1466.1C1184.77 1466.1 1175.66 1325.98 1199.51 1323.03C1223.35 1320.08 1204.36 1463.06 1204.36 1463.06C1204.36 1463.06 1221.71 1394.52 1238.79 1398.34C1255.87 1402.15 1220.58 1475.81 1220.58 1475.81C1220.58 1475.81 1242.25 1451.92 1248.19 1460.5C1254.13 1469.09 1220.75 1513.35 1191.62 1526.79Z" fill="#5552FF"/>
<path opacity="0.1" d="M1191.62 1526.79C1191.62 1526.79 1143.58 1478.71 1144.45 1466.1C1145.32 1453.48 1173.15 1490.55 1173.15 1490.55C1173.15 1490.55 1139.29 1395.99 1153.03 1385.72C1166.78 1375.44 1184.77 1466.1 1184.77 1466.1C1184.77 1466.1 1175.66 1325.98 1199.51 1323.03C1223.35 1320.08 1204.36 1463.06 1204.36 1463.06C1204.36 1463.06 1221.71 1394.52 1238.79 1398.34C1255.87 1402.15 1220.58 1475.81 1220.58 1475.81C1220.58 1475.81 1242.25 1451.92 1248.19 1460.5C1254.13 1469.09 1220.75 1513.35 1191.62 1526.79Z" fill="white"/>
<path d="M1133.4 1555.53H1259.94C1259.94 1555.53 1234.75 1516.99 1224 1521.89C1210.04 1528.26 1199.68 1493.32 1184.2 1501.6C1178.74 1504.51 1181.39 1513.83 1177.96 1517.6C1172.28 1523.84 1164.96 1522.63 1158.24 1526.05C1144.93 1532.73 1140.03 1541.57 1133.4 1555.53Z" fill="#5552FF"/>
<path d="M342.903 1555.53H184.232C184.232 1555.53 215.88 1507.15 229.363 1513.31C246.704 1521.28 259.709 1477.45 279.305 1487.82C286.155 1491.5 282.816 1503.21 287.152 1507.93C294.262 1515.73 303.322 1514.22 311.906 1518.51C328.77 1526.92 334.753 1538.02 342.903 1555.53Z" fill="#5552FF"/>
<path opacity="0.2" d="M342.903 1555.53H184.232C184.232 1555.53 215.88 1507.15 229.363 1513.31C246.704 1521.28 259.709 1477.45 279.305 1487.82C286.155 1491.5 282.816 1503.21 287.152 1507.93C294.262 1515.73 303.322 1514.22 311.906 1518.51C328.77 1526.92 334.753 1538.02 342.903 1555.53Z" fill="black"/>
<path d="M201.617 1542.05C201.617 1542.05 212.021 1481.57 204.825 1472.69C197.628 1463.8 196.154 1505.68 196.154 1505.68C196.154 1505.68 172.18 1418.28 156.703 1417.97C141.226 1417.67 175.085 1493.8 175.085 1493.8C175.085 1493.8 108.798 1385.55 89.6799 1395.6C70.5613 1405.66 159.044 1501.51 159.044 1501.51C159.044 1501.51 110.619 1459.85 99.9544 1471.64C89.2897 1483.44 153.712 1519.33 153.712 1519.33C153.712 1519.33 125.316 1512.96 125.359 1522.41C125.402 1531.86 173.177 1547.43 201.617 1542.05Z" fill="#5552FF"/>
<path opacity="0.2" d="M201.617 1542.05C201.617 1542.05 212.021 1481.57 204.825 1472.69C197.628 1463.8 196.154 1505.68 196.154 1505.68C196.154 1505.68 172.18 1418.28 156.703 1417.97C141.226 1417.67 175.085 1493.8 175.085 1493.8C175.085 1493.8 108.798 1385.55 89.6799 1395.6C70.5613 1405.66 159.044 1501.51 159.044 1501.51C159.044 1501.51 110.619 1459.85 99.9544 1471.64C89.2897 1483.44 153.712 1519.33 153.712 1519.33C153.712 1519.33 125.316 1512.96 125.359 1522.41C125.402 1531.86 173.177 1547.43 201.617 1542.05Z" fill="white"/>
<path d="M250.344 1544.91C250.344 1544.91 288.191 1511.4 288.148 1501.99C288.105 1492.58 265.735 1518.86 265.735 1518.86C265.735 1518.86 295.214 1450.23 285.503 1441.99C275.792 1433.75 258.235 1500.34 258.235 1500.34C258.235 1500.34 271.24 1396.82 253.899 1393.39C236.558 1389.97 243.842 1497.09 243.842 1497.09C243.842 1497.09 234.174 1445.42 221.298 1447.5C208.422 1449.58 231.226 1505.81 231.226 1505.81C231.226 1505.81 216.269 1487.08 211.414 1493.19C206.558 1499.3 229.362 1533.68 250.344 1544.91Z" fill="#5552FF"/>
<path opacity="0.2" d="M250.344 1544.91C250.344 1544.91 288.191 1511.4 288.148 1501.99C288.105 1492.58 265.735 1518.86 265.735 1518.86C265.735 1518.86 295.214 1450.23 285.503 1441.99C275.792 1433.75 258.235 1500.34 258.235 1500.34C258.235 1500.34 271.24 1396.82 253.899 1393.39C236.558 1389.97 243.842 1497.09 243.842 1497.09C243.842 1497.09 234.174 1445.42 221.298 1447.5C208.422 1449.58 231.226 1505.81 231.226 1505.81C231.226 1505.81 216.269 1487.08 211.414 1493.19C206.558 1499.3 229.362 1533.68 250.344 1544.91Z" fill="white"/>
<path d="M273.105 1555.53H146.515C146.515 1555.53 171.746 1516.99 182.497 1521.89C196.457 1528.26 206.818 1493.32 222.295 1501.6C227.758 1504.51 225.07 1513.83 228.495 1517.6C234.174 1523.84 241.5 1522.63 248.263 1526.05C261.703 1532.73 266.472 1541.57 273.105 1555.53Z" fill="#5552FF"/>
<path d="M572.108 724.331C572.108 724.331 426.356 701.614 398.697 713.536C371.038 725.458 361.718 768.334 361.718 768.334C361.718 768.334 356.732 777.005 371.819 778.132C371.819 778.132 310.128 931.817 329.637 961.253C349.145 990.69 545.62 1002.48 572.412 988.045C599.204 973.609 662.802 735.299 572.108 724.331Z" fill="#5552FF"/>
<path d="M657.947 870.95C657.947 870.95 677.239 915.733 681.574 921.976C685.909 928.219 781.936 972.352 781.936 972.352C789.716 971.265 797.609 971.265 805.389 972.352C817.225 974.216 833.525 979.201 834.999 981.022C836.473 982.843 817.181 1010.89 817.181 1010.89C817.181 1010.89 778.814 1013.28 773.829 998.103C773.829 998.103 677.629 962.381 666.444 953.016C655.259 943.652 624.132 888.334 624.132 888.334L657.947 870.95Z" fill="#E4897B"/>
<path d="M630.331 772.886C648.366 783.637 676.589 899.389 682.658 913.132C688.727 926.875 762.427 960.3 762.427 960.3L729.739 991.6C729.739 991.6 655.042 958.435 645.765 949.158C636.487 939.88 599.204 843.681 599.204 843.681L630.331 772.886Z" fill="#5552FF"/>
<path d="M624.348 1037.42C624.348 1037.42 928.337 993.768 944.377 1060.44C961.328 1130.98 717.253 1178.54 571.544 1183.52C425.836 1188.51 383.697 1156.47 407.108 976.21L603.929 975.733L624.348 1037.42Z" fill="#5552FF"/>
<path opacity="0.2" d="M624.348 1037.42C624.348 1037.42 928.337 993.768 944.377 1060.44C961.328 1130.98 717.253 1178.54 571.544 1183.52C425.836 1188.51 383.697 1156.47 407.108 976.21L603.929 975.733L624.348 1037.42Z" fill="black"/>
<path d="M898.901 1140.78C898.744 1140.89 898.554 1140.96 898.359 1140.96C898.164 1140.96 897.974 1140.89 897.817 1140.78C897.674 1140.68 897.569 1140.54 897.522 1140.37C897.474 1140.2 897.487 1140.02 897.557 1139.87C898.034 1138.26 902.846 1124.22 907.745 1122.74C908.263 1122.62 908.803 1122.63 909.313 1122.79C909.823 1122.94 910.284 1123.22 910.65 1123.61C911.332 1124.17 911.852 1124.91 912.157 1125.74C912.461 1126.57 912.54 1127.46 912.384 1128.33C911.597 1130.96 910.004 1133.26 907.832 1134.92C905.059 1137.17 902.067 1139.13 898.901 1140.78ZM900.115 1138.09C904.663 1136.09 908.352 1132.54 910.519 1128.07C910.647 1127.48 910.6 1126.86 910.385 1126.29C910.17 1125.72 909.795 1125.23 909.306 1124.87C909.168 1124.7 908.983 1124.57 908.774 1124.51C908.565 1124.45 908.342 1124.45 908.135 1124.52C907.726 1124.69 907.346 1124.93 907.008 1125.21C903.958 1129.06 901.624 1133.42 900.115 1138.09Z" fill="#5552FF"/>
<path d="M898.64 1140.99C898.48 1141.04 898.308 1141.05 898.146 1141C897.985 1140.95 897.84 1140.86 897.73 1140.73C897.253 1140.3 890.533 1131.8 891.617 1126.08C891.913 1124.65 892.752 1123.39 893.958 1122.57C894.466 1122.07 895.13 1121.76 895.84 1121.68C896.55 1121.61 897.263 1121.79 897.86 1122.18C901.371 1124.69 900.938 1136.05 899.204 1140.39V1140.82L898.64 1140.99ZM894.782 1124.3C894.182 1124.84 893.772 1125.55 893.611 1126.34C892.918 1129.98 896.299 1135.44 897.947 1138.05C899.074 1133.19 898.727 1125.04 896.646 1123.78C896.429 1123.78 895.996 1123.31 894.955 1124.04L894.608 1124.3H894.782Z" fill="#5552FF"/>
<path d="M793.598 1176.5L857.326 1176.54L887.89 1176.59L891.531 1144.38L863.265 1140.6L794.161 1131.37L793.598 1176.5Z" fill="#E4897B"/>
<path d="M884.811 1140.52L877.051 1177.24C876.958 1177.72 876.961 1178.21 877.061 1178.69C877.162 1179.17 877.357 1179.63 877.635 1180.03C877.914 1180.44 878.27 1180.78 878.684 1181.05C879.097 1181.31 879.559 1181.49 880.043 1181.57L898.337 1184.87C898.337 1184.87 922.658 1191.07 929.508 1186.69C949.45 1173.94 968.525 1093.09 960.549 1086.98C957.601 1084.81 952.442 1088.1 949.884 1090.75C941.69 1099.12 924.219 1122.44 917.283 1129.38C909.219 1137.44 894.869 1137.66 888.583 1137.35C887.675 1137.32 886.787 1137.63 886.091 1138.21C885.395 1138.8 884.939 1139.62 884.811 1140.52Z" fill="#5552FF"/>
<path opacity="0.2" d="M793.598 1176.5L857.326 1176.54L863.265 1140.6L794.161 1131.37L793.598 1176.5Z" fill="black"/>
<path d="M552.946 1035.21V1043.28C552.955 1045.96 553.995 1048.54 555.851 1050.47C557.707 1052.41 560.237 1053.56 562.917 1053.68H859.406C862.166 1053.59 864.792 1052.47 866.772 1050.55C868.752 1048.63 869.944 1046.03 870.115 1043.28V1035.21H552.946Z" fill="#5552FF"/>
<path opacity="0.2" d="M552.946 1035.21V1043.28C552.955 1045.96 553.995 1048.54 555.851 1050.47C557.707 1052.41 560.237 1053.56 562.917 1053.68H859.406C862.166 1053.59 864.792 1052.47 866.772 1050.55C868.752 1048.63 869.944 1046.03 870.115 1043.28V1035.21H552.946Z" fill="white"/>
<path opacity="0.2" d="M663.713 1035.21V1043.28C663.732 1045.96 664.782 1048.54 666.645 1050.48C668.508 1052.41 671.043 1053.56 673.727 1053.68H859.537C862.296 1053.59 864.922 1052.47 866.902 1050.55C868.882 1048.63 870.074 1046.03 870.245 1043.28V1035.21H663.713Z" fill="white"/>
<path d="M673.597 1046.27H869.464C872.609 1046.11 875.638 1045.03 878.174 1043.17C880.711 1041.3 882.642 1038.73 883.727 1035.78L928.641 894.88C929.165 893.664 929.37 892.334 929.238 891.016C929.107 889.699 928.642 888.436 927.887 887.348C927.132 886.259 926.113 885.38 924.925 884.795C923.738 884.209 922.42 883.935 921.097 883.999H725.23C722.056 884.227 719.019 885.379 716.492 887.312C713.965 889.246 712.06 891.877 711.01 894.88L666.097 1035.6C665.573 1036.8 665.367 1038.12 665.499 1039.42C665.63 1040.73 666.095 1041.97 666.849 1043.04C667.602 1044.12 668.619 1044.97 669.801 1045.54C670.983 1046.1 672.29 1046.36 673.597 1046.27Z" fill="#5552FF"/>
<path opacity="0.2" d="M673.597 1046.27H869.464C872.609 1046.11 875.638 1045.03 878.174 1043.17C880.711 1041.3 882.642 1038.73 883.727 1035.78L928.641 894.88C929.165 893.664 929.37 892.334 929.238 891.016C929.107 889.699 928.642 888.436 927.887 887.348C927.132 886.259 926.113 885.38 924.925 884.795C923.738 884.209 922.42 883.935 921.097 883.999H725.23C722.056 884.227 719.019 885.379 716.492 887.312C713.965 889.246 712.06 891.877 711.01 894.88L666.097 1035.6C665.573 1036.8 665.367 1038.12 665.499 1039.42C665.63 1040.73 666.095 1041.97 666.849 1043.04C667.602 1044.12 668.619 1044.97 669.801 1045.54C670.983 1046.1 672.29 1046.36 673.597 1046.27Z" fill="white"/>
<path opacity="0.2" d="M681.053 1046.27H869.551C872.696 1046.11 875.725 1045.03 878.261 1043.17C880.798 1041.3 882.729 1038.73 883.814 1035.78L928.727 894.88C929.251 893.664 929.457 892.334 929.325 891.016C929.193 889.699 928.728 888.436 927.974 887.348C927.219 886.259 926.2 885.38 925.012 884.795C923.824 884.209 922.507 883.935 921.184 883.999H732.6C729.426 884.227 726.389 885.379 723.862 887.312C721.335 889.246 719.43 891.877 718.38 894.88L673.467 1035.6C672.939 1036.81 672.732 1038.13 672.868 1039.45C673.003 1040.76 673.476 1042.01 674.24 1043.08C675.004 1044.16 676.033 1045.02 677.227 1045.57C678.421 1046.13 679.739 1046.37 681.053 1046.27Z" fill="white"/>
<path opacity="0.2" d="M795.591 971.441C793.163 980.806 797.845 988.436 806.039 988.436C814.233 988.436 822.773 980.806 825.201 971.441C827.629 962.077 822.947 954.447 814.796 954.447C806.646 954.447 798.106 962.207 795.591 971.441Z" fill="white"/>
<path opacity="0.2" d="M884.811 1140.52L877.051 1177.24C876.958 1177.72 876.961 1178.21 877.061 1178.69C877.162 1179.17 877.357 1179.63 877.635 1180.03C877.914 1180.44 878.27 1180.78 878.684 1181.05C879.097 1181.31 879.559 1181.49 880.043 1181.57L898.337 1184.87C898.337 1184.87 922.658 1191.07 929.508 1186.69C949.45 1173.94 968.525 1093.09 960.549 1086.98C957.601 1084.81 952.442 1088.1 949.884 1090.75C941.69 1099.12 924.219 1122.44 917.283 1129.38C909.219 1137.44 894.869 1137.66 888.583 1137.35C887.675 1137.32 886.787 1137.63 886.091 1138.21C885.395 1138.8 884.939 1139.62 884.811 1140.52Z" fill="white"/>
<path d="M465.417 1001.74L403.943 1002.53L405.114 982.54L465.417 981.239V1001.74Z" fill="black"/>
<path d="M586.718 978.595L605.099 978.204L611.689 999.794L586.718 1000.14V978.595Z" fill="black"/>
<path d="M578.871 978.768V1000.23L474.868 1001.61V981.022L578.871 978.768Z" fill="black"/>
<path d="M518.958 996.499L518.654 988.132C518.535 985.982 519.262 983.87 520.68 982.25C522.098 980.629 524.094 979.628 526.241 979.462L545.056 978.681C546.104 978.642 547.148 978.818 548.125 979.199C549.101 979.579 549.99 980.155 550.735 980.892C552.312 982.457 553.227 984.568 553.293 986.788L553.597 995.112C553.705 997.266 552.968 999.378 551.543 1001C550.118 1002.62 548.117 1003.62 545.967 1003.78L527.195 1004.56H526.848C524.75 1004.49 522.762 1003.61 521.294 1002.11C519.826 1000.6 518.99 998.598 518.958 996.499ZM545.837 1000.27C547.083 1000.15 548.232 999.548 549.042 998.592C549.851 997.637 550.257 996.404 550.172 995.155L549.868 986.832C549.805 985.541 549.264 984.32 548.351 983.407C547.924 982.97 547.41 982.629 546.842 982.405C546.275 982.18 545.666 982.079 545.056 982.106L526.241 982.887C524.991 982.997 523.834 983.596 523.023 984.554C522.211 985.511 521.81 986.75 521.906 988.002L522.209 996.369C522.209 996.997 522.334 997.619 522.577 998.198C522.82 998.777 523.176 999.302 523.624 999.742C524.072 1000.18 524.603 1000.53 525.187 1000.76C525.77 1000.99 526.394 1001.11 527.021 1001.09L545.837 1000.27Z" fill="white"/>
<path d="M522.166 993.768H531.617C532.188 993.757 532.733 993.525 533.137 993.121C533.541 992.717 533.773 992.172 533.784 991.6C533.784 991.025 533.556 990.474 533.149 990.068C532.743 989.661 532.191 989.433 531.617 989.433H522.166C521.591 989.433 521.039 989.661 520.633 990.068C520.226 990.474 519.998 991.025 519.998 991.6C520.009 992.172 520.241 992.717 520.645 993.121C521.049 993.525 521.594 993.757 522.166 993.768Z" fill="white"/>
<path d="M630.331 772.886C630.331 772.886 606.617 922.843 616.545 976.644L397.224 983.017C397.224 983.017 423.235 828.117 457.701 769.678C457.701 769.505 514.97 673.868 630.331 772.886Z" fill="#5552FF"/>
<path opacity="0.6" d="M630.331 772.886C630.331 772.886 606.617 922.843 616.545 976.644L397.224 983.017C397.224 983.017 423.235 828.117 457.701 769.678C457.701 769.505 514.97 673.868 630.331 772.886Z" fill="white"/>
<path d="M501.66 739.504C501.66 739.504 538.033 775.054 559.059 769.244C580.085 763.435 587.975 752.727 587.975 752.727C587.975 752.727 571.068 745.314 572.932 741.282C573.149 740.848 573.669 740.025 574.406 738.811C580.692 729.273 602.975 698.84 602.975 698.84L555.287 672.004C555.287 672.004 551.386 681.238 546.617 692.25C540.157 706.903 532.094 724.634 529.276 727.929C524.334 733.739 501.66 739.504 501.66 739.504Z" fill="#E4897B"/>
<path opacity="0.2" d="M546.4 692.25C549.392 709.158 556.762 729.056 574.406 738.811C580.692 729.273 602.976 698.84 602.976 698.84L555.288 672.004C555.288 672.004 551.213 681.238 546.4 692.25Z" fill="black"/>
<path d="M536.819 659.302C534.158 667.712 532.856 676.493 532.961 685.314C533.871 696.065 521.906 699.663 520.389 693.16C520.389 693.16 520.605 708.984 530.88 706.6C530.88 706.6 530.88 717.568 540.071 717.741C547.887 706.958 551.939 693.902 551.603 680.588C550.172 659.736 536.819 659.302 536.819 659.302Z" fill="#5552FF"/>
<path d="M619.232 606.585C603.625 613.045 606.226 649.288 632.238 680.285C648.149 666.585 655.388 634.938 651.617 622.452C645.547 602.467 632.802 600.993 619.232 606.585Z" fill="#5552FF"/>
<path d="M642.036 694.808C640.634 698.95 638.984 703.003 637.094 706.947C621.704 738.291 577.44 744.403 557.845 713.406L557.628 713.103C544.622 692.207 549.521 672.741 554.94 638.97C556.13 631.12 559.301 623.703 564.154 617.42C569.008 611.138 575.383 606.196 582.678 603.063C589.973 599.93 597.946 598.708 605.844 599.514C613.742 600.32 621.305 603.127 627.816 607.669C653.351 625.66 651.834 665.978 642.036 694.808Z" fill="#E4897B"/>
<path d="M602.499 659.302C601.892 662.033 602.845 664.548 604.58 664.938C606.314 665.328 608.265 663.464 608.915 660.603C609.565 657.741 608.611 655.357 606.834 654.967C605.056 654.577 603.279 656.788 602.499 659.302Z" fill="#5552FF"/>
<path d="M633.365 666.368C632.759 669.056 633.712 671.571 635.49 671.961C637.267 672.351 639.175 670.53 639.825 667.626C640.475 664.721 639.478 662.38 637.701 661.99C635.923 661.6 633.886 663.637 633.365 666.368Z" fill="#5552FF"/>
<path d="M622.918 665.371C624.31 674.354 626.921 683.106 630.678 691.383C628.53 692.289 626.209 692.713 623.879 692.623C621.549 692.533 619.267 691.932 617.195 690.863L622.918 665.371Z" fill="#DE5753"/>
<path d="M596.256 647.814C595.901 647.768 595.569 647.617 595.302 647.38C595 647.065 594.831 646.646 594.831 646.209C594.831 645.773 595 645.354 595.302 645.039C597.236 643.313 599.56 642.081 602.073 641.447C604.587 640.813 607.217 640.796 609.738 641.397C609.938 641.448 610.126 641.537 610.291 641.661C610.455 641.784 610.594 641.939 610.699 642.116C610.804 642.294 610.872 642.49 610.901 642.694C610.93 642.898 610.917 643.106 610.865 643.305C610.735 643.718 610.451 644.065 610.072 644.275C609.692 644.485 609.247 644.541 608.828 644.432C606.833 643.983 604.76 644.021 602.784 644.541C600.807 645.062 598.984 646.05 597.469 647.423C597.303 647.566 597.11 647.674 596.902 647.741C596.693 647.808 596.474 647.832 596.256 647.814Z" fill="#5552FF"/>
<path d="M649.622 659.302C649.323 659.217 649.05 659.057 648.83 658.837C648.61 658.617 648.45 658.344 648.365 658.045C647.951 656.045 647.072 654.171 645.799 652.574C644.527 650.978 642.896 649.703 641.039 648.854C640.633 648.707 640.301 648.406 640.115 648.017C639.928 647.628 639.902 647.181 640.041 646.773C640.189 646.367 640.489 646.036 640.878 645.849C641.267 645.663 641.714 645.637 642.122 645.776C644.499 646.804 646.595 648.388 648.232 650.395C649.869 652.402 651 654.773 651.53 657.308C651.582 657.513 651.593 657.726 651.562 657.935C651.531 658.144 651.459 658.345 651.35 658.527C651.242 658.708 651.098 658.866 650.928 658.992C650.758 659.117 650.565 659.208 650.359 659.259C650.119 659.323 649.869 659.338 649.622 659.302Z" fill="#5552FF"/>
<path d="M610.779 707.51C606.179 707.059 601.795 705.335 598.12 702.533C594.444 699.73 591.622 695.96 589.969 691.643C589.889 691.339 589.929 691.015 590.083 690.739C590.237 690.464 590.491 690.26 590.793 690.169C591.103 690.087 591.433 690.126 591.715 690.279C591.998 690.432 592.21 690.688 592.31 690.993C592.31 691.47 595.865 702.481 611.169 705.126C611.479 705.189 611.754 705.367 611.939 705.624C612.124 705.881 612.205 706.199 612.166 706.513C612.113 706.829 611.937 707.11 611.677 707.297C611.418 707.484 611.095 707.56 610.779 707.51Z" fill="#5552FF"/>
<path d="M648.583 633.594C648.583 633.594 658.641 625.877 658.25 616.86C657.905 611.163 656.095 605.653 652.997 600.861C649.898 596.068 645.615 592.157 640.563 589.504C630.976 583.954 620.121 580.968 609.045 580.834C570.635 578.579 549.739 590.111 543.149 610.617C539.074 617.9 539.161 631.426 542.802 644.085C542.823 644.156 542.823 644.231 542.802 644.302C544.771 651.527 548.177 658.28 552.817 664.157C576.227 643.868 584.941 629.475 581.256 619.938C582.036 619.721 593.655 609.316 598.814 609.056C606.271 608.666 620.013 615.732 631.155 622.365C637.268 625.964 643.554 620.198 643.554 620.198L648.583 633.594Z" fill="#5552FF"/>
<path d="M533.005 662.207C533.246 666.462 534.323 670.628 536.175 674.466C538.028 678.305 540.618 681.74 543.799 684.577C552.47 692.033 561.574 685.53 563.265 674.909C564.826 665.328 562.224 649.851 551.646 646.47C541.068 643.088 532.398 651.672 533.005 662.207Z" fill="#E4897B"/>
<path d="M532.961 685.01C532.961 685.01 547.18 629.735 582.339 609.143C617.498 588.55 653.958 602.943 653.958 602.943C653.578 597.4 652.781 591.893 651.574 586.469C650.533 584.735 633.105 578.753 633.105 578.753C633.105 578.753 623.178 564.143 609.391 559.461C595.605 554.779 554.42 553.435 540.027 565.443C525.634 577.452 516.14 601.903 522.209 602.337C528.278 602.77 532.917 602.77 532.917 602.77C532.917 602.77 521.559 642.004 526.414 647.9C526.458 647.857 518.047 675.169 532.961 685.01Z" fill="#5552FF"/>
<path d="M603.496 1191.41C603.609 1191.26 603.761 1191.14 603.936 1191.06C604.111 1190.99 604.303 1190.96 604.493 1190.98C604.661 1191 604.816 1191.08 604.928 1191.21C605.04 1191.34 605.101 1191.5 605.1 1191.67C605.447 1193.32 607.701 1207.97 604.059 1211.57C603.661 1211.92 603.181 1212.15 602.665 1212.26C602.148 1212.37 601.614 1212.34 601.111 1212.18C600.244 1212 599.44 1211.59 598.785 1211C598.129 1210.4 597.645 1209.64 597.383 1208.8C596.861 1206.12 597.194 1203.34 598.337 1200.86C599.729 1197.55 601.457 1194.38 603.496 1191.41ZM603.496 1194.4C600.47 1198.31 598.933 1203.17 599.161 1208.1C599.322 1208.69 599.65 1209.21 600.104 1209.61C600.559 1210.01 601.119 1210.27 601.718 1210.36C601.912 1210.45 602.128 1210.47 602.338 1210.43C602.547 1210.39 602.739 1210.29 602.889 1210.14C603.199 1209.82 603.436 1209.44 603.583 1209.01C604.486 1204.19 604.5 1199.24 603.626 1194.4H603.496Z" fill="#5552FF"/>
<path d="M700.519 1119.66L640.085 1139.74L611.039 1149.4L617.759 1181.09L645.808 1175.76L714.262 1162.67L700.519 1119.66Z" fill="#E4897B"/>
<path d="M625.605 1182.74L621.27 1145.46C621.218 1144.95 621.062 1144.46 620.812 1144.01C620.562 1143.57 620.223 1143.18 619.817 1142.87C619.411 1142.56 618.945 1142.34 618.449 1142.22C617.953 1142.1 617.438 1142.08 616.935 1142.16L598.683 1144.85C598.683 1144.85 573.669 1146.67 568.553 1152.96C553.64 1171.38 560.966 1254.14 570.591 1257.27C574.102 1258.39 577.917 1253.62 579.521 1250.33C584.637 1239.79 593.871 1212.14 598.206 1203.38C603.322 1193.19 616.848 1188.42 622.917 1186.73C623.769 1186.5 624.508 1185.97 625.002 1185.24C625.495 1184.5 625.709 1183.62 625.605 1182.74Z" fill="#5552FF"/>
<path d="M603.626 1191.15C603.763 1191.05 603.93 1190.99 604.103 1190.99C604.275 1190.99 604.443 1191.05 604.58 1191.15C605.143 1191.15 615.071 1195.49 616.762 1201.25C617.002 1201.97 617.087 1202.72 617.012 1203.47C616.938 1204.22 616.704 1204.94 616.328 1205.59C616.106 1206.26 615.664 1206.83 615.073 1207.22C614.483 1207.6 613.779 1207.78 613.077 1207.71C608.742 1207.15 603.886 1196.88 603.409 1192.28V1191.8C603.393 1191.69 603.405 1191.57 603.442 1191.45C603.48 1191.34 603.543 1191.24 603.626 1191.15ZM614.811 1204.16C615.072 1203.4 615.072 1202.58 614.811 1201.82C613.771 1198.26 608.221 1195.01 605.403 1193.58C606.661 1198.39 610.693 1205.29 613.207 1205.59C613.467 1205.59 613.987 1205.59 614.551 1204.55L614.768 1204.16H614.811Z" fill="#5552FF"/>
<path opacity="0.2" d="M700.519 1119.66L640.085 1139.74L645.807 1175.76L714.261 1162.67L700.519 1119.66Z" fill="black"/>
<path d="M656.3 1181.36L673.554 1182.96L663.236 1123.35L643.424 1133.75L656.3 1181.36Z" fill="#5552FF"/>
<path opacity="0.6" d="M656.3 1181.36L673.554 1182.96L663.236 1123.35L643.424 1133.75L656.3 1181.36Z" fill="white"/>
<path opacity="0.2" d="M625.605 1182.74L621.27 1145.46C621.218 1144.95 621.062 1144.46 620.812 1144.01C620.562 1143.57 620.223 1143.18 619.817 1142.87C619.411 1142.56 618.945 1142.34 618.449 1142.22C617.953 1142.1 617.438 1142.08 616.935 1142.16L598.683 1144.85C598.683 1144.85 573.669 1146.67 568.553 1152.96C553.64 1171.38 560.966 1254.14 570.591 1257.27C574.102 1258.39 577.917 1253.62 579.521 1250.33C584.637 1239.79 593.871 1212.14 598.206 1203.38C603.322 1193.19 616.848 1188.42 622.917 1186.73C623.769 1186.5 624.508 1185.97 625.002 1185.24C625.495 1184.5 625.709 1183.62 625.605 1182.74Z" fill="white"/>
<path d="M851.516 1135.92C851.516 1135.92 568.683 1026.07 482.108 1044.4C395.532 1062.74 395.056 1108.09 438.755 1150.36C482.455 1192.63 548.264 1176.37 548.264 1176.37C548.264 1176.37 496.718 1145.5 500.316 1126.43C503.914 1107.35 536.689 1150.96 536.689 1150.96C536.689 1150.96 707.585 1192.76 848.828 1181.75L851.516 1135.92Z" fill="#5552FF"/>
<path d="M854.941 1131.33L839.074 1124.04L829.927 1183.57L852.037 1179.97L854.941 1131.33Z" fill="#5552FF"/>
<path opacity="0.6" d="M854.941 1131.33L839.074 1124.04L829.927 1183.57L852.037 1179.97L854.941 1131.33Z" fill="white"/>
<path d="M483.712 727.973C483.712 727.973 521.992 832.019 519.998 855.386C518.004 878.753 439.145 1053.81 439.145 1053.81L374.116 1079.82C374.116 1079.82 387.512 822.698 483.712 727.973Z" fill="#5552FF"/>
<path opacity="0.2" d="M483.712 727.973C483.712 727.973 521.992 832.019 519.998 855.386C518.004 878.753 439.145 1053.81 439.145 1053.81L374.116 1079.82C374.116 1079.82 387.512 822.698 483.712 727.973Z" fill="black"/>
<path d="M621.877 1030.01C621.877 1030.01 601.415 981.499 594.869 954.621C588.322 927.742 611.213 789.664 598.9 743.32L630.331 772.886L617.022 945.43L621.877 1030.01Z" fill="#5552FF"/>
<path opacity="0.2" d="M621.877 1030.01C621.877 1030.01 601.415 981.499 594.869 954.621C588.322 927.742 611.213 789.664 598.9 743.32L630.331 772.886L617.022 945.43L621.877 1030.01Z" fill="black"/>
<path d="M389.81 954.62C389.81 954.62 525.461 980.632 504.001 732.828L481.935 730.921C481.935 730.921 495.374 825.083 470.62 886.687C445.865 948.291 387.513 945.43 387.513 945.43L389.81 954.62Z" fill="#5552FF"/>
<path d="M519.218 844.505L473.698 738.811L459.955 756.976C459.955 756.976 457.527 731.354 465.504 723.897C473.481 716.441 495.851 725.762 504.522 727.973C513.192 730.184 519.218 844.505 519.218 844.505Z" fill="#5552FF"/>
<path d="M590.967 744.967C590.967 744.967 608.525 796.99 605.663 878.406C602.802 959.823 617.455 953.06 617.455 953.06L619.536 945.386C619.536 945.386 611.343 944.433 611.993 916.99C612.643 889.548 616.328 778.782 605.663 749.692L590.967 744.967Z" fill="#5552FF"/>
<path d="M600.158 841.383C600.158 841.383 604.493 763.348 582.557 740.502C582.557 740.502 598.987 734.345 605.664 740.502C612.34 746.658 613.987 806.094 600.895 844.548" fill="#5552FF"/>
<path d="M489.998 873.291C489.998 873.291 509.853 919.375 514.319 925.791C518.784 932.207 617.585 977.814 617.585 977.814C625.596 976.702 633.721 976.702 641.732 977.814C653.914 979.722 670.692 984.837 672.079 986.788C673.466 988.739 653.741 1017.53 653.741 1017.53C653.741 1017.53 614.247 1019.95 609.348 1004.52C609.348 1004.52 510.33 967.756 498.842 958.132C487.353 948.508 455.619 891.195 455.619 891.195L489.998 873.291Z" fill="#E4897B"/>
<path d="M465.417 769.895C486.573 769.895 516.27 899.042 521.776 916.557C527.281 934.071 615.027 971.441 615.027 971.441L587.151 1004.43C587.151 1004.43 492.296 970.184 481.154 954.447C470.013 938.71 436.241 849.1 434.68 828.377C433.119 807.655 451.284 769.851 465.417 769.895Z" fill="#5552FF"/>
</svg>
