<svg width="24" height="24" viewBox="0 0 24 24" fill="none" xmlns="http://www.w3.org/2000/svg">
<path d="M12 2.25C10.0716 2.25 8.18657 2.82183 6.58319 3.89317C4.97982 4.96452 3.73013 6.48726 2.99218 8.26884C2.25422 10.0504 2.06114 12.0108 2.43735 13.9021C2.81355 15.7934 3.74215 17.5307 5.10571 18.8943C6.46928 20.2579 8.20656 21.1865 10.0979 21.5627C11.9892 21.9389 13.9496 21.7458 15.7312 21.0078C17.5127 20.2699 19.0355 19.0202 20.1068 17.4168C21.1782 15.8134 21.75 13.9284 21.75 12C21.7473 9.41498 20.7192 6.93661 18.8913 5.10872C17.0634 3.28084 14.585 2.25273 12 2.25ZM20.2172 11.2669C19.9784 11.2556 19.7394 11.25 19.5 11.25C18.1088 11.2504 16.7237 11.4345 15.3806 11.7975C15.0532 10.8259 14.6309 9.88883 14.1197 9C15.4528 8.19611 16.6596 7.19938 17.7009 6.04219C19.1459 7.42075 20.0402 9.27769 20.2172 11.2669ZM16.5263 5.10562C15.5895 6.13498 14.5067 7.0213 13.3125 7.73625C12.3124 6.32852 11.0891 5.09352 9.69094 4.08C10.8379 3.74517 12.0439 3.66347 13.2256 3.84056C14.4072 4.01764 15.5363 4.44928 16.5347 5.10562H16.5263ZM8.02969 4.77C9.56212 5.73506 10.8981 6.98135 11.9672 8.44312C10.0962 9.30548 8.06021 9.75138 6 9.75C5.36416 9.74967 4.72903 9.70739 4.09875 9.62344C4.7259 7.55485 6.13652 5.8132 8.02969 4.77ZM3.75 12C3.74997 11.6981 3.76655 11.3964 3.79969 11.0963C4.52866 11.1986 5.26388 11.25 6 11.25C8.3527 11.2522 10.6759 10.7268 12.7988 9.7125C13.2664 10.5201 13.653 11.3721 13.9528 12.2559C13.1561 12.5552 12.3851 12.9189 11.6475 13.3434C9.58976 14.5322 7.82537 16.1681 6.48469 18.1303C5.62375 17.358 4.93524 16.4129 4.46405 15.3566C3.99285 14.3003 3.74955 13.1566 3.75 12ZM7.6875 19.0312C8.90472 17.231 10.5153 15.731 12.3975 14.6447C13.0268 14.2815 13.6835 13.9681 14.3616 13.7072C14.5936 14.737 14.7109 15.7894 14.7113 16.845C14.7118 17.8713 14.6021 18.8946 14.3841 19.8975C13.27 20.2341 12.0972 20.3309 10.943 20.1816C9.7888 20.0323 8.67929 19.6402 7.6875 19.0312ZM16.0369 19.1934C16.1526 18.4175 16.2109 17.6342 16.2113 16.8497C16.2111 15.6355 16.0711 14.4253 15.7941 13.2431C17.0024 12.917 18.2484 12.7512 19.5 12.75C19.7375 12.75 19.9753 12.7559 20.2134 12.7678C20.0879 14.0964 19.6424 15.3748 18.915 16.4936C18.1877 17.6125 17.2001 18.5385 16.0369 19.1925V19.1934Z" fill="#5552FF"/>
</svg>
