<svg width="1515" height="982" viewBox="0 0 1515 982" fill="none" xmlns="http://www.w3.org/2000/svg">
<path fill-rule="evenodd" clip-rule="evenodd" d="M1515 452.083H0V981.598H1515V452.083ZM73.5437 525.627V904.524H184.153V802.739H266.522C294.763 802.739 319.278 796.856 340.066 785.089C360.854 773.322 376.936 757.044 388.311 736.256C399.685 715.468 405.373 691.738 405.373 665.066C405.373 639.178 400.47 615.644 390.664 594.464C380.858 573.283 365.757 556.613 345.361 544.454C325.357 531.903 299.862 525.627 268.876 525.627H73.5437ZM241.223 718.017H184.153V610.349H244.165C260.639 610.349 272.798 615.252 280.643 625.058C288.487 634.864 292.41 648.2 292.41 665.066C292.41 680.755 288.095 693.503 279.466 703.308C271.229 713.114 258.482 718.017 241.223 718.017ZM434.942 525.627V904.524H722.057V819.802H545.552V758.025H700.288V672.126H545.552V610.349H722.057V525.627H434.942ZM757.27 904.524V525.627H1044.38V610.349H867.88V672.126H1022.62V758.025H867.88V819.802H1044.38V904.524H757.27ZM1079.6 525.627V904.524H1190.21V795.091L1229.04 751.553L1322.59 904.524H1440.26L1297.29 680.951L1430.84 525.627H1304.94L1190.21 659.182V525.627H1079.6Z" fill="#5552FF"/>
<path d="M106.508 379V82.3913H0V0H323.644V82.3913H217.136V379H106.508Z" fill="#5552FF"/>
<path d="M352.814 379V0H639.974V84.7454H463.441V146.539H618.202V232.461H463.441V294.255H639.974V379H352.814Z" fill="#5552FF"/>
<path d="M663.425 379L808.77 0H925.871L1071.22 379H955.881L924.105 298.374H809.947L778.76 379H663.425ZM824.658 218.925H909.394L867.026 107.697L824.658 218.925Z" fill="#5552FF"/>
<path d="M1112.5 379V0H1220.19L1314.34 192.443L1407.9 0H1515V379H1404.37V189.5L1343.76 314.264H1284.33L1223.13 189.5V379H1112.5Z" fill="#5552FF"/>
</svg>
