<svg width="1689" height="1593" viewBox="0 0 1689 1593" fill="none" xmlns="http://www.w3.org/2000/svg">
<path d="M1331.07 241.494C1065.54 42.0721 979.918 231.48 750.149 310.252C566.897 373.027 303.269 292.347 151.188 439.53C18.6587 567.723 53.2542 843.013 150.104 979.574C268.153 1145.92 482.749 1165.99 671.594 1086C815.481 1024.96 912.201 785.571 1072.43 792.897C1256.81 801.568 1265.31 1032.16 1457.88 1019.37C1959.04 986.034 1515.5 379.92 1331.07 241.494Z" fill="#5552FF"/>
<path opacity="0.9" d="M1331.07 241.494C1065.54 42.0721 979.918 231.48 750.149 310.252C566.897 373.027 303.269 292.347 151.188 439.53C18.6587 567.723 53.2542 843.013 150.104 979.574C268.153 1145.92 482.749 1165.99 671.594 1086C815.481 1024.96 912.201 785.571 1072.43 792.897C1256.81 801.568 1265.31 1032.16 1457.88 1019.37C1959.04 986.034 1515.5 379.92 1331.07 241.494Z" fill="#D4D4FF"/>
<path d="M840.843 1592.58C1305.07 1592.58 1681.41 1570.61 1681.41 1543.51C1681.41 1516.4 1305.07 1494.43 840.843 1494.43C376.611 1494.43 0.277344 1516.4 0.277344 1543.51C0.277344 1570.61 376.611 1592.58 840.843 1592.58Z" fill="#F5F5F5"/>
<path d="M811.016 877.999H546.175C542.44 877.999 539.412 881.027 539.412 884.762V995.224C539.412 998.959 542.44 1001.99 546.175 1001.99H811.016C814.751 1001.99 817.779 998.959 817.779 995.224V884.762C817.779 881.027 814.751 877.999 811.016 877.999Z" fill="#5552FF"/>
<path opacity="0.6" d="M811.016 877.999H546.175C542.44 877.999 539.412 881.027 539.412 884.762V995.224C539.412 998.959 542.44 1001.99 546.175 1001.99H811.016C814.751 1001.99 817.779 998.959 817.779 995.224V884.762C817.779 881.027 814.751 877.999 811.016 877.999Z" fill="white"/>
<path opacity="0.1" d="M810.973 877.999H546.044C544.251 877.999 542.53 878.711 541.262 879.98C539.994 881.248 539.281 882.968 539.281 884.762V920.181L677.143 947.32C677.987 947.492 678.857 947.492 679.701 947.32L817.606 920.181V884.762C817.606 882.99 816.911 881.29 815.671 880.025C814.431 878.76 812.744 878.033 810.973 877.999Z" fill="black"/>
<path d="M816.782 832.652H735.886V819.082C735.874 813.475 733.642 808.1 729.676 804.135C725.711 800.17 720.337 797.938 714.73 797.926H642.461C636.853 797.938 631.479 800.17 627.514 804.135C623.549 808.1 621.316 813.475 621.304 819.082V832.652H540.452C538.681 832.652 536.983 833.355 535.731 834.607C534.479 835.859 533.775 837.557 533.775 839.328V906.135C533.784 907.677 534.323 909.169 535.302 910.361C536.281 911.553 537.64 912.372 539.151 912.681L677.316 939.863C678.164 939.993 679.026 939.993 679.874 939.863L818.039 912.681C819.555 912.374 820.919 911.556 821.905 910.365C822.891 909.174 823.439 907.681 823.458 906.135V839.328C823.458 837.557 822.755 835.859 821.503 834.607C820.251 833.355 818.552 832.652 816.782 832.652ZM637.388 819.082C637.399 817.737 637.936 816.448 638.884 815.493C639.831 814.537 641.115 813.989 642.461 813.967H714.73C716.075 813.989 717.359 814.537 718.306 815.493C719.254 816.448 719.791 817.737 719.802 819.082V832.652H637.432L637.388 819.082Z" fill="#5552FF"/>
<path opacity="0.6" d="M816.782 832.652H735.886V819.082C735.874 813.475 733.642 808.1 729.676 804.135C725.711 800.17 720.337 797.938 714.73 797.926H642.461C636.853 797.938 631.479 800.17 627.514 804.135C623.549 808.1 621.316 813.475 621.304 819.082V832.652H540.452C538.681 832.652 536.983 833.355 535.731 834.607C534.479 835.859 533.775 837.557 533.775 839.328V906.135C533.784 907.677 534.323 909.169 535.302 910.361C536.281 911.553 537.64 912.372 539.151 912.681L677.316 939.863C678.164 939.993 679.026 939.993 679.874 939.863L818.039 912.681C819.555 912.374 820.919 911.556 821.905 910.365C822.891 909.174 823.439 907.681 823.458 906.135V839.328C823.458 837.557 822.755 835.859 821.503 834.607C820.251 833.355 818.552 832.652 816.782 832.652ZM637.388 819.082C637.399 817.737 637.936 816.448 638.884 815.493C639.831 814.537 641.115 813.989 642.461 813.967H714.73C716.075 813.989 717.359 814.537 718.306 815.493C719.254 816.448 719.791 817.737 719.802 819.082V832.652H637.432L637.388 819.082Z" fill="white"/>
<path d="M692.88 921.612H664.354C660.81 921.612 657.938 924.484 657.938 928.028V946.062C657.938 949.606 660.81 952.479 664.354 952.479H692.88C696.423 952.479 699.296 949.606 699.296 946.062V928.028C699.296 924.484 696.423 921.612 692.88 921.612Z" fill="#5552FF"/>
<path opacity="0.3" d="M692.88 921.612H664.354C660.81 921.612 657.938 924.484 657.938 928.028V946.062C657.938 949.606 660.81 952.479 664.354 952.479H692.88C696.423 952.479 699.296 949.606 699.296 946.062V928.028C699.296 924.484 696.423 921.612 692.88 921.612Z" fill="white"/>
<path d="M811.016 80.4826H546.175C542.44 80.4826 539.412 83.5105 539.412 87.2456V197.708C539.412 201.443 542.44 204.471 546.175 204.471H811.016C814.751 204.471 817.779 201.443 817.779 197.708V87.2456C817.779 83.5105 814.751 80.4826 811.016 80.4826Z" fill="#5552FF"/>
<path opacity="0.6" d="M811.016 80.4826H546.175C542.44 80.4826 539.412 83.5105 539.412 87.2456V197.708C539.412 201.443 542.44 204.471 546.175 204.471H811.016C814.751 204.471 817.779 201.443 817.779 197.708V87.2456C817.779 83.5105 814.751 80.4826 811.016 80.4826Z" fill="white"/>
<path opacity="0.1" d="M810.973 80.4826H546.044C544.251 80.4826 542.53 81.1951 541.262 82.4634C539.994 83.7317 539.281 85.4519 539.281 87.2456V122.665L677.143 149.804C677.987 149.976 678.857 149.976 679.701 149.804L817.606 122.665V87.2456C817.606 85.4742 816.911 83.7735 815.671 82.5088C814.431 81.2442 812.744 80.5166 810.973 80.4826Z" fill="black"/>
<path d="M816.782 35.1356H735.886V21.5663C735.874 15.9588 733.642 10.5844 729.676 6.61929C725.711 2.65423 720.337 0.421604 714.73 0.410149H642.461C636.853 0.421604 631.479 2.65423 627.514 6.61929C623.549 10.5844 621.316 15.9588 621.304 21.5663V35.1356H540.452C538.681 35.1356 536.983 35.839 535.731 37.0911C534.479 38.3432 533.775 40.0413 533.775 41.812V108.618C533.776 110.163 534.312 111.66 535.292 112.853C536.272 114.047 537.636 114.864 539.151 115.165L677.316 142.173C678.16 142.346 679.03 142.346 679.874 142.173L818.039 114.991C819.538 114.707 820.895 113.921 821.888 112.763C822.88 111.604 823.449 110.143 823.501 108.618V41.812C823.501 40.9316 823.327 40.0598 822.989 39.247C822.651 38.4341 822.155 37.6962 821.531 37.0757C820.906 36.4552 820.165 35.9643 819.35 35.6313C818.535 35.2984 817.662 35.1299 816.782 35.1356ZM637.388 21.5663C637.388 20.217 637.921 18.9223 638.871 17.9642C639.821 17.0061 641.111 16.4621 642.461 16.4506H714.73C716.071 16.462 717.355 17 718.304 17.9488C719.252 18.8976 719.79 20.1812 719.802 21.5229V35.0923H637.432L637.388 21.5663Z" fill="#5552FF"/>
<path opacity="0.6" d="M816.782 35.1356H735.886V21.5663C735.874 15.9588 733.642 10.5844 729.676 6.61929C725.711 2.65423 720.337 0.421604 714.73 0.410149H642.461C636.853 0.421604 631.479 2.65423 627.514 6.61929C623.549 10.5844 621.316 15.9588 621.304 21.5663V35.1356H540.452C538.681 35.1356 536.983 35.839 535.731 37.0911C534.479 38.3432 533.775 40.0413 533.775 41.812V108.618C533.776 110.163 534.312 111.66 535.292 112.853C536.272 114.047 537.636 114.864 539.151 115.165L677.316 142.173C678.16 142.346 679.03 142.346 679.874 142.173L818.039 114.991C819.538 114.707 820.895 113.921 821.888 112.763C822.88 111.604 823.449 110.143 823.501 108.618V41.812C823.501 40.9316 823.327 40.0598 822.989 39.247C822.651 38.4341 822.155 37.6962 821.531 37.0757C820.906 36.4552 820.165 35.9643 819.35 35.6313C818.535 35.2984 817.662 35.1299 816.782 35.1356ZM637.388 21.5663C637.388 20.217 637.921 18.9223 638.871 17.9642C639.821 17.0061 641.111 16.4621 642.461 16.4506H714.73C716.071 16.462 717.355 17 718.304 17.9488C719.252 18.8976 719.79 20.1812 719.802 21.5229V35.0923H637.432L637.388 21.5663Z" fill="white"/>
<path d="M692.88 124.139H664.354C660.81 124.139 657.938 127.011 657.938 130.555V148.59C657.938 152.133 660.81 155.006 664.354 155.006H692.88C696.423 155.006 699.296 152.133 699.296 148.59V130.555C699.296 127.011 696.423 124.139 692.88 124.139Z" fill="#5552FF"/>
<path opacity="0.3" d="M692.88 124.139H664.354C660.81 124.139 657.938 127.011 657.938 130.555V148.59C657.938 152.133 660.81 155.006 664.354 155.006H692.88C696.423 155.006 699.296 152.133 699.296 148.59V130.555C699.296 127.011 696.423 124.139 692.88 124.139Z" fill="white"/>
<path d="M398.472 877.999H133.63C129.895 877.999 126.867 881.027 126.867 884.762V995.224C126.867 998.959 129.895 1001.99 133.63 1001.99H398.472C402.207 1001.99 405.235 998.959 405.235 995.224V884.762C405.235 881.027 402.207 877.999 398.472 877.999Z" fill="#5552FF"/>
<path opacity="0.6" d="M398.472 877.999H133.63C129.895 877.999 126.867 881.027 126.867 884.762V995.224C126.867 998.959 129.895 1001.99 133.63 1001.99H398.472C402.207 1001.99 405.235 998.959 405.235 995.224V884.762C405.235 881.027 402.207 877.999 398.472 877.999Z" fill="white"/>
<path opacity="0.1" d="M398.645 877.999H133.63C131.837 877.999 130.116 878.711 128.848 879.98C127.58 881.248 126.867 882.968 126.867 884.762V920.181L264.729 947.32C265.587 947.492 266.471 947.492 267.33 947.32L405.235 920.181V884.762C405.235 882.998 404.547 881.303 403.316 880.04C402.085 878.776 400.409 878.044 398.645 877.999Z" fill="black"/>
<path d="M404.194 832.652H323.298V819.082C323.287 813.475 321.054 808.1 317.089 804.135C313.124 800.17 307.75 797.938 302.142 797.926H229.917C224.309 797.938 218.935 800.17 214.97 804.135C211.005 808.1 208.772 813.475 208.76 819.082V832.652H127.864C126.094 832.652 124.395 833.355 123.143 834.607C121.891 835.859 121.188 837.557 121.188 839.328V906.135C121.197 907.677 121.736 909.169 122.714 910.361C123.693 911.553 125.052 912.372 126.564 912.681L264.729 939.863C265.591 939.994 266.468 939.994 267.33 939.863L405.495 912.681C407.006 912.372 408.365 911.553 409.344 910.361C410.323 909.169 410.862 907.677 410.871 906.135V839.328C410.871 837.557 410.167 835.859 408.915 834.607C407.663 833.355 405.965 832.652 404.194 832.652ZM224.801 819.082C224.823 817.733 225.369 816.444 226.324 815.49C227.278 814.535 228.567 813.989 229.917 813.967H302.142C303.492 813.989 304.78 814.535 305.735 815.49C306.689 816.444 307.235 817.733 307.258 819.082V832.652H224.888L224.801 819.082Z" fill="#5552FF"/>
<path opacity="0.6" d="M404.194 832.652H323.298V819.082C323.287 813.475 321.054 808.1 317.089 804.135C313.124 800.17 307.75 797.938 302.142 797.926H229.917C224.309 797.938 218.935 800.17 214.97 804.135C211.005 808.1 208.772 813.475 208.76 819.082V832.652H127.864C126.094 832.652 124.395 833.355 123.143 834.607C121.891 835.859 121.188 837.557 121.188 839.328V906.135C121.197 907.677 121.736 909.169 122.714 910.361C123.693 911.553 125.052 912.372 126.564 912.681L264.729 939.863C265.591 939.994 266.468 939.994 267.33 939.863L405.495 912.681C407.006 912.372 408.365 911.553 409.344 910.361C410.323 909.169 410.862 907.677 410.871 906.135V839.328C410.871 837.557 410.167 835.859 408.915 834.607C407.663 833.355 405.965 832.652 404.194 832.652ZM224.801 819.082C224.823 817.733 225.369 816.444 226.324 815.49C227.278 814.535 228.567 813.989 229.917 813.967H302.142C303.492 813.989 304.78 814.535 305.735 815.49C306.689 816.444 307.235 817.733 307.258 819.082V832.652H224.888L224.801 819.082Z" fill="white"/>
<path d="M280.292 921.612H251.766C248.223 921.612 245.35 924.484 245.35 928.028V946.062C245.35 949.606 248.223 952.479 251.766 952.479H280.292C283.836 952.479 286.709 949.606 286.709 946.062V928.028C286.709 924.484 283.836 921.612 280.292 921.612Z" fill="#5552FF"/>
<path opacity="0.3" d="M280.292 921.612H251.766C248.223 921.612 245.35 924.484 245.35 928.028V946.062C245.35 949.606 248.223 952.479 251.766 952.479H280.292C283.836 952.479 286.709 949.606 286.709 946.062V928.028C286.709 924.484 283.836 921.612 280.292 921.612Z" fill="white"/>
<path d="M398.472 80.4826H133.63C129.895 80.4826 126.867 83.5105 126.867 87.2456V197.708C126.867 201.443 129.895 204.471 133.63 204.471H398.472C402.207 204.471 405.235 201.443 405.235 197.708V87.2456C405.235 83.5105 402.207 80.4826 398.472 80.4826Z" fill="#5552FF"/>
<path opacity="0.6" d="M398.472 80.4826H133.63C129.895 80.4826 126.867 83.5105 126.867 87.2456V197.708C126.867 201.443 129.895 204.471 133.63 204.471H398.472C402.207 204.471 405.235 201.443 405.235 197.708V87.2456C405.235 83.5105 402.207 80.4826 398.472 80.4826Z" fill="white"/>
<path opacity="0.1" d="M398.645 80.4826H133.63C131.837 80.4826 130.116 81.1951 128.848 82.4634C127.58 83.7317 126.867 85.4519 126.867 87.2456V122.665L264.729 149.804C265.587 149.978 266.472 149.978 267.33 149.804L405.235 122.665V87.2456C405.235 85.4816 404.547 83.7872 403.316 82.5237C402.085 81.2603 400.409 80.5278 398.645 80.4826Z" fill="black"/>
<path d="M404.194 35.1356H323.298V21.5663C323.287 15.9588 321.054 10.5844 317.089 6.61929C313.124 2.65423 307.75 0.421604 302.142 0.410149H229.917C224.309 0.421604 218.935 2.65423 214.97 6.61929C211.005 10.5844 208.772 15.9588 208.76 21.5663V35.1356H127.864C126.094 35.1356 124.395 35.839 123.143 37.0911C121.891 38.3432 121.188 40.0413 121.188 41.812V108.618C121.188 110.163 121.725 111.66 122.705 112.853C123.685 114.047 125.049 114.864 126.564 115.165L264.729 142.173C265.587 142.347 266.472 142.347 267.33 142.173L405.495 114.991C407.01 114.69 408.374 113.874 409.354 112.68C410.334 111.486 410.87 109.99 410.871 108.445V41.812C410.871 40.0413 410.167 38.3432 408.915 37.0911C407.663 35.839 405.965 35.1356 404.194 35.1356ZM224.801 21.5663C224.812 20.213 225.355 18.9184 226.312 17.9615C227.269 17.0046 228.563 16.462 229.917 16.4506H302.142C303.488 16.4618 304.776 16.9984 305.732 17.946C306.688 18.8936 307.235 20.1772 307.258 21.5229V35.0923H224.888L224.801 21.5663Z" fill="#5552FF"/>
<path opacity="0.6" d="M404.194 35.1356H323.298V21.5663C323.287 15.9588 321.054 10.5844 317.089 6.61929C313.124 2.65423 307.75 0.421604 302.142 0.410149H229.917C224.309 0.421604 218.935 2.65423 214.97 6.61929C211.005 10.5844 208.772 15.9588 208.76 21.5663V35.1356H127.864C126.094 35.1356 124.395 35.839 123.143 37.0911C121.891 38.3432 121.188 40.0413 121.188 41.812V108.618C121.188 110.163 121.725 111.66 122.705 112.853C123.685 114.047 125.049 114.864 126.564 115.165L264.729 142.173C265.587 142.347 266.472 142.347 267.33 142.173L405.495 114.991C407.01 114.69 408.374 113.874 409.354 112.68C410.334 111.486 410.87 109.99 410.871 108.445V41.812C410.871 40.0413 410.167 38.3432 408.915 37.0911C407.663 35.839 405.965 35.1356 404.194 35.1356ZM224.801 21.5663C224.812 20.213 225.355 18.9184 226.312 17.9615C227.269 17.0046 228.563 16.462 229.917 16.4506H302.142C303.488 16.4618 304.776 16.9984 305.732 17.946C306.688 18.8936 307.235 20.1772 307.258 21.5229V35.0923H224.888L224.801 21.5663Z" fill="white"/>
<path d="M280.292 124.139H251.766C248.223 124.139 245.35 127.011 245.35 130.555V148.59C245.35 152.133 248.223 155.006 251.766 155.006H280.292C283.836 155.006 286.709 152.133 286.709 148.59V130.555C286.709 127.011 283.836 124.139 280.292 124.139Z" fill="#5552FF"/>
<path opacity="0.3" d="M280.292 124.139H251.766C248.223 124.139 245.35 127.011 245.35 130.555V148.59C245.35 152.133 248.223 155.006 251.766 155.006H280.292C283.836 155.006 286.709 152.133 286.709 148.59V130.555C286.709 127.011 283.836 124.139 280.292 124.139Z" fill="white"/>
<path d="M363.963 603.229H133.63C131.825 603.229 130.094 602.512 128.817 601.236C127.541 599.959 126.824 598.228 126.824 596.423V486.004C126.83 485.093 127.022 484.193 127.387 483.359C127.564 482.97 127.766 482.593 127.994 482.232C128.236 481.861 128.527 481.525 128.861 481.235C130.124 479.965 131.839 479.248 133.63 479.241H351.651C349.837 494.371 349.243 509.622 349.873 524.848C349.873 527.319 349.873 529.79 350.263 532.218C350.567 536.77 350.914 541.365 351.434 545.917C353.665 565.395 357.863 584.597 363.963 603.229Z" fill="#5552FF"/>
<path opacity="0.6" d="M363.963 603.229H133.63C131.825 603.229 130.094 602.512 128.817 601.236C127.541 599.959 126.824 598.228 126.824 596.423V486.004C126.83 485.093 127.022 484.193 127.387 483.359C127.564 482.97 127.766 482.593 127.994 482.232C128.236 481.861 128.527 481.525 128.861 481.235C130.124 479.965 131.839 479.248 133.63 479.241H351.651C349.837 494.371 349.243 509.622 349.873 524.848C349.873 527.319 349.873 529.79 350.263 532.218C350.567 536.77 350.914 541.365 351.434 545.917C353.665 565.395 357.863 584.597 363.963 603.229Z" fill="white"/>
<path opacity="0.1" d="M351.651 479.241C349.837 494.371 349.243 509.622 349.873 524.848C349.873 527.319 349.873 529.79 350.264 532.218L286.709 544.703L267.287 548.518C266.448 548.735 265.568 548.735 264.729 548.518L245.35 544.747L126.867 521.423V485.96C126.881 485.069 127.057 484.187 127.387 483.359C127.564 482.97 127.766 482.593 127.994 482.232C128.236 481.861 128.528 481.525 128.861 481.235C130.124 479.965 131.839 479.248 133.63 479.241H351.651Z" fill="black"/>
<path d="M360.712 433.894H323.342V420.324C323.319 414.713 321.076 409.339 317.104 405.375C313.133 401.411 307.754 399.18 302.142 399.168H229.917C224.306 399.168 218.924 401.397 214.957 405.365C210.989 409.332 208.76 414.713 208.76 420.324V433.894H127.864C126.988 433.894 126.119 434.066 125.309 434.402C124.499 434.737 123.763 435.229 123.143 435.849C122.523 436.469 122.032 437.205 121.696 438.015C121.361 438.825 121.188 439.693 121.188 440.57V507.333C121.189 508.889 121.729 510.397 122.718 511.598C123.706 512.8 125.081 513.622 126.607 513.923H126.867L245.35 537.29L264.729 541.062C265.573 541.234 266.443 541.234 267.287 541.062L286.709 537.247L349.873 524.804C349.243 509.579 349.837 494.327 351.651 479.197C353.451 463.878 356.481 448.727 360.712 433.894ZM224.801 420.324C224.823 418.979 225.371 417.695 226.327 416.747C227.282 415.8 228.571 415.263 229.917 415.252H302.142C303.484 415.263 304.767 415.801 305.716 416.75C306.665 417.699 307.203 418.983 307.214 420.324V433.894H224.844L224.801 420.324Z" fill="#5552FF"/>
<path opacity="0.6" d="M360.712 433.894H323.342V420.324C323.319 414.713 321.076 409.339 317.104 405.375C313.133 401.411 307.754 399.18 302.142 399.168H229.917C224.306 399.168 218.924 401.397 214.957 405.365C210.989 409.332 208.76 414.713 208.76 420.324V433.894H127.864C126.988 433.894 126.119 434.066 125.309 434.402C124.499 434.737 123.763 435.229 123.143 435.849C122.523 436.469 122.032 437.205 121.696 438.015C121.361 438.825 121.188 439.693 121.188 440.57V507.333C121.189 508.889 121.729 510.397 122.718 511.598C123.706 512.8 125.081 513.622 126.607 513.923H126.867L245.35 537.29L264.729 541.062C265.573 541.234 266.443 541.234 267.287 541.062L286.709 537.247L349.873 524.804C349.243 509.579 349.837 494.327 351.651 479.197C353.451 463.878 356.481 448.727 360.712 433.894ZM224.801 420.324C224.823 418.979 225.371 417.695 226.327 416.747C227.282 415.8 228.571 415.263 229.917 415.252H302.142C303.484 415.263 304.767 415.801 305.716 416.75C306.665 417.699 307.203 418.983 307.214 420.324V433.894H224.844L224.801 420.324Z" fill="white"/>
<path d="M280.292 522.853H251.766C248.223 522.853 245.35 525.726 245.35 529.27V547.304C245.35 550.848 248.223 553.721 251.766 553.721H280.292C283.836 553.721 286.709 550.848 286.709 547.304V529.27C286.709 525.726 283.836 522.853 280.292 522.853Z" fill="#5552FF"/>
<path opacity="0.3" d="M280.292 522.853H251.766C248.223 522.853 245.35 525.726 245.35 529.27V547.304C245.35 550.848 248.223 553.721 251.766 553.721H280.292C283.836 553.721 286.709 550.848 286.709 547.304V529.27C286.709 525.726 283.836 522.853 280.292 522.853Z" fill="white"/>
<path d="M958.719 1001.94H1223.56C1227.3 1001.94 1230.32 998.916 1230.32 995.181V884.718C1230.32 880.983 1227.3 877.955 1223.56 877.955H958.719C954.984 877.955 951.956 880.983 951.956 884.718V995.181C951.956 998.916 954.984 1001.94 958.719 1001.94Z" fill="#5552FF"/>
<path opacity="0.6" d="M958.719 1001.94H1223.56C1227.3 1001.94 1230.32 998.916 1230.32 995.181V884.718C1230.32 880.983 1227.3 877.955 1223.56 877.955H958.719C954.984 877.955 951.956 880.983 951.956 884.718V995.181C951.956 998.916 954.984 1001.94 958.719 1001.94Z" fill="white"/>
<path opacity="0.1" d="M958.762 877.999H1223.56C1225.35 877.999 1227.07 878.711 1228.34 879.98C1229.61 881.248 1230.32 882.968 1230.32 884.762V920.181L1092.29 947.32C1091.44 947.492 1090.57 947.492 1089.73 947.32L951.826 920.181V884.762C951.825 883.859 952.006 882.965 952.356 882.133C952.707 881.301 953.221 880.547 953.867 879.917C954.514 879.287 955.28 878.792 956.121 878.463C956.961 878.133 957.86 877.976 958.762 877.999Z" fill="black"/>
<path d="M952.996 832.652H1033.89V819.082C1033.9 813.475 1036.14 808.1 1040.1 804.135C1044.07 800.17 1049.44 797.938 1055.05 797.926H1127.32C1132.92 797.938 1138.3 800.17 1142.26 804.135C1146.23 808.1 1148.46 813.475 1148.47 819.082V832.652H1229.33C1230.2 832.652 1231.07 832.824 1231.88 833.16C1232.69 833.495 1233.43 833.987 1234.05 834.607C1234.67 835.227 1235.16 835.963 1235.49 836.773C1235.83 837.583 1236 838.451 1236 839.328V906.135C1235.99 907.677 1235.45 909.169 1234.48 910.361C1233.5 911.553 1232.14 912.372 1230.63 912.681L1092.29 939.863C1091.43 939.994 1090.55 939.994 1089.69 939.863L951.522 912.681C950.011 912.372 948.652 911.553 947.673 910.361C946.694 909.169 946.155 907.677 946.146 906.135V839.328C946.146 838.437 946.324 837.554 946.671 836.732C947.017 835.911 947.524 835.167 948.163 834.545C948.801 833.923 949.558 833.434 950.388 833.109C951.218 832.784 952.105 832.629 952.996 832.652ZM1132.39 819.082C1132.38 817.737 1131.84 816.448 1130.89 815.493C1129.95 814.537 1128.66 813.989 1127.32 813.967H1055.05C1053.7 813.989 1052.41 814.535 1051.46 815.49C1050.5 816.444 1049.96 817.733 1049.93 819.082V832.652H1132.3L1132.39 819.082Z" fill="#5552FF"/>
<path opacity="0.6" d="M952.996 832.652H1033.89V819.082C1033.9 813.475 1036.14 808.1 1040.1 804.135C1044.07 800.17 1049.44 797.938 1055.05 797.926H1127.32C1132.92 797.938 1138.3 800.17 1142.26 804.135C1146.23 808.1 1148.46 813.475 1148.47 819.082V832.652H1229.33C1230.2 832.652 1231.07 832.824 1231.88 833.16C1232.69 833.495 1233.43 833.987 1234.05 834.607C1234.67 835.227 1235.16 835.963 1235.49 836.773C1235.83 837.583 1236 838.451 1236 839.328V906.135C1235.99 907.677 1235.45 909.169 1234.48 910.361C1233.5 911.553 1232.14 912.372 1230.63 912.681L1092.29 939.863C1091.43 939.994 1090.55 939.994 1089.69 939.863L951.522 912.681C950.011 912.372 948.652 911.553 947.673 910.361C946.694 909.169 946.155 907.677 946.146 906.135V839.328C946.146 838.437 946.324 837.554 946.671 836.732C947.017 835.911 947.524 835.167 948.163 834.545C948.801 833.923 949.558 833.434 950.388 833.109C951.218 832.784 952.105 832.629 952.996 832.652ZM1132.39 819.082C1132.38 817.737 1131.84 816.448 1130.89 815.493C1129.95 814.537 1128.66 813.989 1127.32 813.967H1055.05C1053.7 813.989 1052.41 814.535 1051.46 815.49C1050.5 816.444 1049.96 817.733 1049.93 819.082V832.652H1132.3L1132.39 819.082Z" fill="white"/>
<path d="M1076.9 952.479H1105.42C1108.97 952.479 1111.84 949.606 1111.84 946.062V928.028C1111.84 924.484 1108.97 921.611 1105.42 921.611H1076.9C1073.35 921.611 1070.48 924.484 1070.48 928.028V946.062C1070.48 949.606 1073.35 952.479 1076.9 952.479Z" fill="#5552FF"/>
<path opacity="0.3" d="M1076.9 952.479H1105.42C1108.97 952.479 1111.84 949.606 1111.84 946.062V928.028C1111.84 924.484 1108.97 921.611 1105.42 921.611H1076.9C1073.35 921.611 1070.48 924.484 1070.48 928.028V946.062C1070.48 949.606 1073.35 952.479 1076.9 952.479Z" fill="white"/>
<path d="M958.719 204.428L1223.56 204.428C1227.3 204.428 1230.32 201.4 1230.32 197.665V87.2022C1230.32 83.4671 1227.3 80.4392 1223.56 80.4392L958.719 80.4392C954.984 80.4392 951.956 83.4671 951.956 87.2022V197.665C951.956 201.4 954.984 204.428 958.719 204.428Z" fill="#5552FF"/>
<path opacity="0.6" d="M958.719 204.428L1223.56 204.428C1227.3 204.428 1230.32 201.4 1230.32 197.665V87.2022C1230.32 83.4671 1227.3 80.4392 1223.56 80.4392L958.719 80.4392C954.984 80.4392 951.956 83.4671 951.956 87.2022V197.665C951.956 201.4 954.984 204.428 958.719 204.428Z" fill="white"/>
<path opacity="0.1" d="M958.762 80.4826H1223.56C1225.35 80.4826 1227.07 81.1951 1228.34 82.4634C1229.61 83.7317 1230.32 85.4519 1230.32 87.2456V122.665L1092.29 149.804C1091.44 149.976 1090.57 149.976 1089.73 149.804L951.999 122.665V87.2456C951.999 85.4519 952.712 83.7317 953.98 82.4634C955.248 81.1951 956.968 80.4826 958.762 80.4826Z" fill="black"/>
<path d="M952.996 35.1357H1033.89V21.5663C1033.9 15.9588 1036.14 10.5844 1040.1 6.61929C1044.07 2.65423 1049.44 0.421607 1055.05 0.410151H1127.32C1130.11 0.393021 1132.88 0.927289 1135.46 1.98228C1138.04 3.03727 1140.39 4.59221 1142.38 6.55787C1144.36 8.52354 1145.93 10.8612 1147.01 13.4368C1148.08 16.0123 1148.64 18.775 1148.65 21.5663V35.1357H1229.5C1231.27 35.1357 1232.97 35.8391 1234.22 37.0911C1235.47 38.3432 1236.18 40.0413 1236.18 41.812V108.618C1236.18 110.163 1235.64 111.66 1234.66 112.853C1233.68 114.047 1232.32 114.864 1230.8 115.165L1092.29 142.173C1091.43 142.347 1090.55 142.347 1089.69 142.173L951.522 114.991C950.007 114.69 948.643 113.874 947.663 112.68C946.683 111.486 946.147 109.99 946.146 108.445V41.812C946.146 40.9204 946.324 40.0379 946.671 39.2164C947.017 38.3948 947.524 37.651 948.163 37.0287C948.801 36.4065 949.558 35.9183 950.388 35.5932C951.218 35.2681 952.105 35.1125 952.996 35.1357ZM1132.39 21.5663C1132.39 20.217 1131.86 18.9223 1130.91 17.9642C1129.96 17.0061 1128.67 16.4621 1127.32 16.4506H1055.05C1053.7 16.4618 1052.41 16.9984 1051.46 17.946C1050.5 18.8936 1049.96 20.1772 1049.93 21.5229V35.0923H1132.3L1132.39 21.5663Z" fill="#5552FF"/>
<path opacity="0.6" d="M952.996 35.1357H1033.89V21.5663C1033.9 15.9588 1036.14 10.5844 1040.1 6.61929C1044.07 2.65423 1049.44 0.421607 1055.05 0.410151H1127.32C1130.11 0.393021 1132.88 0.927289 1135.46 1.98228C1138.04 3.03727 1140.39 4.59221 1142.38 6.55787C1144.36 8.52354 1145.93 10.8612 1147.01 13.4368C1148.08 16.0123 1148.64 18.775 1148.65 21.5663V35.1357H1229.5C1231.27 35.1357 1232.97 35.8391 1234.22 37.0911C1235.47 38.3432 1236.18 40.0413 1236.18 41.812V108.618C1236.18 110.163 1235.64 111.66 1234.66 112.853C1233.68 114.047 1232.32 114.864 1230.8 115.165L1092.29 142.173C1091.43 142.347 1090.55 142.347 1089.69 142.173L951.522 114.991C950.007 114.69 948.643 113.874 947.663 112.68C946.683 111.486 946.147 109.99 946.146 108.445V41.812C946.146 40.9204 946.324 40.0379 946.671 39.2164C947.017 38.3948 947.524 37.651 948.163 37.0287C948.801 36.4065 949.558 35.9183 950.388 35.5932C951.218 35.2681 952.105 35.1125 952.996 35.1357ZM1132.39 21.5663C1132.39 20.217 1131.86 18.9223 1130.91 17.9642C1129.96 17.0061 1128.67 16.4621 1127.32 16.4506H1055.05C1053.7 16.4618 1052.41 16.9984 1051.46 17.946C1050.5 18.8936 1049.96 20.1772 1049.93 21.5229V35.0923H1132.3L1132.39 21.5663Z" fill="white"/>
<path d="M1076.9 154.963H1105.42C1108.97 154.963 1111.84 152.09 1111.84 148.546V130.512C1111.84 126.968 1108.97 124.095 1105.42 124.095H1076.9C1073.35 124.095 1070.48 126.968 1070.48 130.512V148.546C1070.48 152.09 1073.35 154.963 1076.9 154.963Z" fill="#5552FF"/>
<path opacity="0.3" d="M1076.9 154.963H1105.42C1108.97 154.963 1111.84 152.09 1111.84 148.546V130.512C1111.84 126.968 1108.97 124.095 1105.42 124.095H1076.9C1073.35 124.095 1070.48 126.968 1070.48 130.512V148.546C1070.48 152.09 1073.35 154.963 1076.9 154.963Z" fill="white"/>
<path d="M993.401 603.229H1223.6C1225.4 603.218 1227.12 602.496 1228.39 601.221C1229.66 599.945 1230.37 598.221 1230.37 596.423V486.004C1230.36 485.093 1230.17 484.193 1229.8 483.359C1229.64 482.962 1229.44 482.583 1229.2 482.232C1228.95 481.861 1228.66 481.525 1228.33 481.235C1227.71 480.602 1226.96 480.1 1226.15 479.758C1225.33 479.415 1224.45 479.239 1223.56 479.241H1005.58C1007.4 494.371 1007.99 509.622 1007.36 524.848C1007.36 527.319 1007.36 529.79 1006.97 532.218C1006.71 536.77 1006.32 541.365 1005.8 545.917C1003.61 565.391 999.457 584.592 993.401 603.229Z" fill="#5552FF"/>
<path opacity="0.6" d="M993.401 603.229H1223.6C1225.4 603.218 1227.12 602.496 1228.39 601.221C1229.66 599.945 1230.37 598.221 1230.37 596.423V486.004C1230.36 485.093 1230.17 484.193 1229.8 483.359C1229.64 482.962 1229.44 482.583 1229.2 482.232C1228.95 481.861 1228.66 481.525 1228.33 481.235C1227.71 480.602 1226.96 480.1 1226.15 479.758C1225.33 479.415 1224.45 479.239 1223.56 479.241H1005.58C1007.4 494.371 1007.99 509.622 1007.36 524.848C1007.36 527.319 1007.36 529.79 1006.97 532.218C1006.71 536.77 1006.32 541.365 1005.8 545.917C1003.61 565.391 999.457 584.592 993.401 603.229Z" fill="white"/>
<path opacity="0.1" d="M1005.58 479.241C1007.4 494.371 1007.99 509.622 1007.36 524.848C1007.36 527.319 1007.36 529.79 1006.97 532.218L1070.61 544.703L1090.03 548.518C1090.87 548.735 1091.75 548.735 1092.59 548.518L1111.97 544.747L1230.45 521.423V485.96C1230.44 485.069 1230.26 484.187 1229.93 483.359C1229.77 482.962 1229.57 482.583 1229.33 482.232C1229.08 481.861 1228.79 481.525 1228.46 481.235C1227.84 480.602 1227.09 480.1 1226.28 479.758C1225.46 479.415 1224.58 479.239 1223.69 479.241H1005.58Z" fill="black"/>
<path d="M996.479 433.894H1033.89V420.324C1033.9 414.717 1036.14 409.342 1040.1 405.377C1044.07 401.412 1049.44 399.18 1055.05 399.168H1127.27C1132.89 399.168 1138.27 401.396 1142.25 405.362C1146.22 409.328 1148.46 414.709 1148.47 420.324V433.894H1229.33C1231.1 433.894 1232.79 434.597 1234.05 435.849C1235.3 437.101 1236 438.799 1236 440.57V507.333C1236 508.883 1235.47 510.386 1234.49 511.587C1233.51 512.787 1232.15 513.613 1230.63 513.923H1230.32L1111.84 537.29L1092.29 541.018C1091.44 541.191 1090.57 541.191 1089.73 541.018L1070.31 537.203L1007.14 524.761C1008.37 494.032 1004.71 463.302 996.305 433.72L996.479 433.894ZM1132.39 420.324C1132.37 418.979 1131.82 417.695 1130.86 416.747C1129.91 415.8 1128.62 415.263 1127.27 415.252H1055.05C1053.71 415.263 1052.42 415.801 1051.47 416.75C1050.53 417.699 1049.99 418.983 1049.98 420.324V433.894H1132.35L1132.39 420.324Z" fill="#5552FF"/>
<path opacity="0.6" d="M996.479 433.894H1033.89V420.324C1033.9 414.717 1036.14 409.342 1040.1 405.377C1044.07 401.412 1049.44 399.18 1055.05 399.168H1127.27C1132.89 399.168 1138.27 401.396 1142.25 405.362C1146.22 409.328 1148.46 414.709 1148.47 420.324V433.894H1229.33C1231.1 433.894 1232.79 434.597 1234.05 435.849C1235.3 437.101 1236 438.799 1236 440.57V507.333C1236 508.883 1235.47 510.386 1234.49 511.587C1233.51 512.787 1232.15 513.613 1230.63 513.923H1230.32L1111.84 537.29L1092.29 541.018C1091.44 541.191 1090.57 541.191 1089.73 541.018L1070.31 537.203L1007.14 524.761C1008.37 494.032 1004.71 463.302 996.305 433.72L996.479 433.894ZM1132.39 420.324C1132.37 418.979 1131.82 417.695 1130.86 416.747C1129.91 415.8 1128.62 415.263 1127.27 415.252H1055.05C1053.71 415.263 1052.42 415.801 1051.47 416.75C1050.53 417.699 1049.99 418.983 1049.98 420.324V433.894H1132.35L1132.39 420.324Z" fill="white"/>
<path d="M1076.9 553.764H1105.42C1108.97 553.764 1111.84 550.891 1111.84 547.348V529.313C1111.84 525.769 1108.97 522.897 1105.42 522.897H1076.9C1073.35 522.897 1070.48 525.769 1070.48 529.313V547.348C1070.48 550.891 1073.35 553.764 1076.9 553.764Z" fill="#5552FF"/>
<path opacity="0.3" d="M1076.9 553.764H1105.42C1108.97 553.764 1111.84 550.891 1111.84 547.348V529.313C1111.84 525.769 1108.97 522.897 1105.42 522.897H1076.9C1073.35 522.897 1070.48 525.769 1070.48 529.313V547.348C1070.48 550.891 1073.35 553.764 1076.9 553.764Z" fill="white"/>
<path d="M882.895 452.319H502.345C496.982 452.319 492.634 456.666 492.634 462.03V620.744C492.634 626.107 496.982 630.455 502.345 630.455H882.895C888.258 630.455 892.606 626.107 892.606 620.744V462.03C892.606 456.666 888.258 452.319 882.895 452.319Z" fill="#5552FF"/>
<path d="M744.513 423.966H640.683C632.811 423.954 625.264 420.822 619.697 415.255C614.131 409.689 610.998 402.142 610.987 394.269V367.607C610.998 359.735 614.131 352.188 619.697 346.621C625.264 341.055 632.811 337.922 640.683 337.911H744.513C752.389 337.911 759.943 341.04 765.512 346.609C771.081 352.178 774.21 359.731 774.21 367.607V394.139C774.227 398.05 773.471 401.926 771.987 405.544C770.502 409.162 768.317 412.451 765.558 415.222C762.799 417.993 759.519 420.193 755.908 421.693C752.296 423.194 748.424 423.966 744.513 423.966ZM640.683 359.717C638.594 359.74 636.595 360.577 635.113 362.05C633.632 363.524 632.784 365.518 632.75 367.607V394.139C632.75 396.266 633.595 398.306 635.099 399.81C636.603 401.315 638.643 402.16 640.77 402.16H744.6C746.727 402.16 748.767 401.315 750.271 399.81C751.775 398.306 752.62 396.266 752.62 394.139V367.607C752.62 365.48 751.775 363.44 750.271 361.936C748.767 360.432 746.727 359.587 744.6 359.587L640.683 359.717Z" fill="#5552FF"/>
<path opacity="0.2" d="M882.851 452.319H502.388C501.109 452.313 499.842 452.56 498.659 453.045C497.475 453.531 496.4 454.245 495.493 455.148C494.587 456.05 493.868 457.122 493.377 458.303C492.886 459.484 492.634 460.751 492.634 462.03V512.969L690.756 551.986C691.97 552.251 693.226 552.251 694.441 551.986L892.606 512.969V462.03C892.606 460.751 892.353 459.484 891.862 458.303C891.372 457.122 890.653 456.05 889.746 455.148C888.84 454.245 887.764 453.531 886.581 453.045C885.398 452.56 884.13 452.313 882.851 452.319Z" fill="black"/>
<path d="M892.866 502.001L694.354 541.018C693.121 541.235 691.859 541.235 690.626 541.018L492.114 502.001C489.933 501.57 487.968 500.398 486.553 498.683C485.139 496.968 484.361 494.816 484.354 492.593V396.784C484.354 395.526 484.601 394.28 485.083 393.117C485.564 391.955 486.27 390.899 487.16 390.009C488.049 389.119 489.106 388.414 490.268 387.932C491.43 387.451 492.676 387.203 493.934 387.203H891.132C892.39 387.203 893.636 387.451 894.798 387.932C895.961 388.414 897.017 389.119 897.907 390.009C898.796 390.899 899.502 391.955 899.983 393.117C900.465 394.28 900.713 395.526 900.713 396.784V492.767C900.669 494.974 899.864 497.099 898.435 498.782C897.005 500.464 895.038 501.602 892.866 502.001Z" fill="#5552FF"/>
<path d="M713.169 515.05H672.114C667.038 515.05 662.923 519.165 662.923 524.241V550.209C662.923 555.285 667.038 559.4 672.114 559.4H713.169C718.245 559.4 722.36 555.285 722.36 550.209V524.241C722.36 519.165 718.245 515.05 713.169 515.05Z" fill="#5552FF"/>
<path opacity="0.4" d="M713.169 515.05H672.114C667.038 515.05 662.923 519.165 662.923 524.241V550.209C662.923 555.285 667.038 559.4 672.114 559.4H713.169C718.245 559.4 722.36 555.285 722.36 550.209V524.241C722.36 519.165 718.245 515.05 713.169 515.05Z" fill="black"/>
<path d="M1408.33 550.599C1413.31 560.874 1417 570.585 1421.33 580.729C1425.67 590.874 1428.83 600.975 1432.22 611.336C1439.07 632.344 1444.13 653.895 1447.35 675.758C1447.78 678.49 1448 681.438 1448.3 684.429L1448.73 688.764C1448.73 689.545 1448.73 690.108 1448.73 691.019V693.836C1448.88 700.41 1448.31 706.98 1447.04 713.432C1444.89 724.645 1441.83 735.664 1437.9 746.38C1430.49 766.751 1421.26 786.412 1410.32 805.123L1388.3 795.802C1393.2 776.033 1398.14 755.874 1401.87 736.409C1403.69 727.082 1404.98 717.66 1405.73 708.186C1405.98 704.313 1405.9 700.425 1405.47 696.568L1404.99 693.836L1404.38 690.368C1403.91 688.07 1403.6 685.773 1403.04 683.432C1398.72 664.295 1393.13 645.467 1386.31 627.073C1383.01 617.666 1379.37 608.302 1375.73 598.894C1372.09 589.487 1368.05 580.036 1364.33 571.365L1408.33 550.599Z" fill="#7F3E3B"/>
<path d="M1389.25 790.036L1372.35 806.51L1409.24 823.851C1409.24 823.851 1418.17 808.244 1412.01 794.111L1389.25 790.036Z" fill="#7F3E3B"/>
<path d="M1358.73 831.091L1389.86 843.837L1409.24 823.678L1372.35 806.51L1358.73 831.091Z" fill="#7F3E3B"/>
<path opacity="0.2" d="M727.302 813.316C788.648 806.446 846.58 781.54 893.772 741.748C940.964 701.955 975.298 649.064 992.433 589.76C1009.57 530.456 1008.73 467.403 990.037 408.574C971.34 349.744 935.619 297.779 887.391 259.248C839.163 220.718 780.593 197.353 719.087 192.106C657.581 186.86 595.9 199.969 541.843 229.775C487.787 259.581 443.781 304.746 415.391 359.56C387.001 414.374 375.501 476.374 382.345 537.723C386.891 578.473 399.421 617.927 419.219 653.833C439.017 689.739 465.695 721.392 497.729 746.985C529.763 772.578 566.526 791.608 605.917 802.99C645.308 814.371 686.555 817.88 727.302 813.316Z" fill="#5552FF"/>
<path opacity="0.1" d="M500.177 257.231L974.889 636.394C976.927 632.059 978.834 627.724 980.699 623.388C992.596 595.082 1000.19 565.156 1003.24 534.602L593.212 207.202C559.563 218.424 528.093 235.347 500.177 257.231Z" fill="white"/>
<path opacity="0.1" d="M390.668 423.402L836.941 779.978C879.345 757.863 916.1 726.299 944.369 687.724L456.998 298.243C425.589 334.329 402.895 377.151 390.668 423.402Z" fill="white"/>
<path d="M1461.52 853.678C1460.95 845.788 1458.37 838.176 1454.02 831.568C1450.86 826.707 1446.44 822.796 1441.23 820.253L1411.62 805.73C1391.94 795.975 1372.13 786.481 1352.32 776.987C1332.51 767.493 1312.56 758.172 1292.71 748.764C1272.85 739.357 1252.82 730.209 1232.75 721.235C1192.69 703.085 1152.38 685.426 1111.8 668.258C1091.51 659.588 1071.18 651.264 1050.67 643.114C1044.68 640.756 1039.82 636.211 1037.06 630.399C1034.29 624.587 1033.85 617.943 1035.8 611.813C1063.25 525.273 1057 431.559 1018.3 349.431C979.602 267.303 911.312 202.821 827.101 168.894C742.89 134.967 648.972 134.098 564.147 166.461C479.323 198.824 409.852 262.032 369.641 343.43C329.43 424.828 321.446 518.41 347.289 605.443C373.131 692.476 430.892 766.537 509.009 812.8C587.126 859.064 679.835 874.116 768.576 854.943C857.317 835.77 935.542 783.787 987.592 709.4C991.276 704.113 996.832 700.424 1003.14 699.079C1009.44 697.735 1016.02 698.836 1021.54 702.16C1040.5 713.432 1059.54 724.516 1078.68 735.412C1116.91 757.204 1155.44 778.446 1194.25 799.14C1213.63 809.631 1233.27 819.733 1252.56 830.007C1271.86 840.282 1291.58 850.296 1311.22 860.354C1330.86 870.412 1350.24 880.253 1370.14 889.964L1399.66 904.617C1404.85 907.225 1410.65 908.365 1416.44 907.912C1424.32 907.354 1431.92 904.77 1438.5 900.412C1446.36 895.587 1452.69 888.639 1456.76 880.369C1460.84 872.099 1462.49 862.846 1461.52 853.678ZM566.854 757.782C516.457 732.913 474.566 693.658 446.48 644.981C418.394 596.304 405.373 540.391 409.065 484.314C412.758 428.236 432.996 374.513 467.222 329.939C501.448 285.364 548.124 251.941 601.347 233.895C654.569 215.848 711.948 213.991 766.226 228.556C820.505 243.122 869.245 273.456 906.283 315.723C943.32 357.991 966.992 410.292 974.304 466.013C981.615 521.734 972.239 578.372 947.36 628.764C930.849 662.221 907.909 692.098 879.85 716.689C851.791 741.28 819.163 760.103 783.829 772.084C748.496 784.064 711.148 788.968 673.919 786.514C636.69 784.06 600.309 774.297 566.854 757.782Z" fill="#5552FF"/>
<path d="M1244.85 416.596C1244.85 419.154 1243.5 421.235 1241.81 421.235C1240.12 421.235 1238.78 419.154 1238.78 416.596C1238.78 414.038 1240.12 411.914 1241.81 411.914C1243.5 411.914 1244.85 413.995 1244.85 416.596Z" fill="#5552FF"/>
<path d="M1243.72 421.235C1240.67 429.088 1236.56 436.484 1231.49 443.215C1233.25 444.469 1235.25 445.325 1237.37 445.722C1239.49 446.119 1241.67 446.047 1243.76 445.512L1243.72 421.235Z" fill="#630F0F"/>
<path d="M1253.95 402.29C1254.27 402.281 1254.57 402.174 1254.82 401.985C1255.07 401.795 1255.26 401.532 1255.35 401.232C1255.45 400.932 1255.45 400.609 1255.35 400.31C1255.26 400.01 1255.07 399.747 1254.82 399.558C1252.9 398.123 1250.67 397.162 1248.31 396.755C1245.96 396.348 1243.53 396.506 1241.25 397.217C1241.04 397.273 1240.85 397.371 1240.69 397.505C1240.52 397.639 1240.39 397.806 1240.29 397.996C1240.2 398.185 1240.14 398.392 1240.13 398.604C1240.12 398.816 1240.15 399.028 1240.23 399.226C1240.31 399.424 1240.42 399.604 1240.57 399.754C1240.72 399.904 1240.9 400.021 1241.1 400.097C1241.3 400.174 1241.51 400.207 1241.72 400.197C1241.94 400.186 1242.14 400.131 1242.33 400.035C1244.15 399.494 1246.07 399.388 1247.94 399.727C1249.81 400.066 1251.57 400.84 1253.08 401.986C1253.33 402.186 1253.64 402.293 1253.95 402.29Z" fill="#5552FF"/>
<path d="M1332.55 435.931C1327.95 459.255 1323.4 501.957 1339.7 517.478C1339.7 517.478 1333.33 541.105 1290.06 541.105C1242.38 541.105 1267.3 517.478 1267.3 517.478C1293.31 511.278 1292.62 491.986 1288.07 474.125L1332.55 435.931Z" fill="#7F3E3B"/>
<path d="M1348.07 502.868C1351.67 504.038 1346.99 525.455 1346.99 525.455C1346.99 525.455 1341.05 540.411 1267.26 535.209C1261.58 534.775 1263.75 514.226 1269.17 511.235C1286.64 501.697 1336.45 499.053 1348.07 502.868Z" fill="#5552FF"/>
<path d="M1497.94 1398.58C1501.93 1398.19 1507.74 1390.86 1509.38 1388.17C1509.46 1388.06 1509.5 1387.92 1509.5 1387.78C1509.5 1387.65 1509.46 1387.51 1509.38 1387.39C1509.31 1387.26 1509.2 1387.16 1509.07 1387.1C1508.94 1387.04 1508.79 1387.02 1508.65 1387.05C1508.21 1387.05 1497.72 1389.04 1495.16 1393.12C1494.89 1393.54 1494.72 1394.02 1494.64 1394.52C1494.57 1395.02 1494.6 1395.53 1494.73 1396.02C1495.29 1397.93 1496.38 1398.45 1497.25 1398.58H1497.94ZM1507.09 1388.91C1504.27 1392.81 1499.63 1397.36 1497.42 1397.06C1497.2 1397.06 1496.55 1397.06 1496.16 1395.59C1496.08 1395.3 1496.06 1395 1496.1 1394.71C1496.15 1394.42 1496.26 1394.14 1496.42 1393.9C1499.41 1391.22 1503.12 1389.49 1507.09 1388.91Z" fill="#5552FF"/>
<path d="M1506.65 1388.91C1507.43 1388.84 1508.2 1388.71 1508.95 1388.52C1509.08 1388.48 1509.19 1388.41 1509.29 1388.31C1509.38 1388.21 1509.44 1388.09 1509.47 1387.96C1509.5 1387.82 1509.49 1387.68 1509.44 1387.55C1509.39 1387.42 1509.32 1387.31 1509.21 1387.22C1508.95 1386.96 1501.93 1380.98 1497.16 1381.45C1496.59 1381.49 1496.03 1381.65 1495.52 1381.92C1495.01 1382.19 1494.56 1382.56 1494.21 1383.01C1493.8 1383.41 1493.55 1383.93 1493.49 1384.5C1493.44 1385.06 1493.58 1385.63 1493.91 1386.09C1495.47 1388.56 1502.32 1389.34 1506.65 1388.91ZM1507 1387.39C1502.67 1387.91 1496.34 1387.05 1495.12 1385.27C1495.12 1385.27 1494.78 1384.7 1495.38 1383.92C1495.63 1383.64 1495.92 1383.4 1496.26 1383.23C1496.59 1383.06 1496.96 1382.96 1497.33 1382.93C1500.93 1383.42 1504.29 1384.98 1507 1387.39Z" fill="#5552FF"/>
<path d="M1199.89 1512.6C1203.17 1512.58 1206.45 1512.29 1209.69 1511.73C1209.83 1511.69 1209.97 1511.61 1210.07 1511.51C1210.18 1511.4 1210.25 1511.27 1210.29 1511.12C1210.32 1510.97 1210.3 1510.81 1210.23 1510.67C1210.16 1510.53 1210.04 1510.41 1209.9 1510.34C1209.43 1510.04 1198.33 1503.71 1193 1505.14C1192 1505.39 1191.14 1506.03 1190.61 1506.92C1190.27 1507.4 1190.09 1507.97 1190.09 1508.56C1190.09 1509.15 1190.27 1509.73 1190.61 1510.21C1192 1512.12 1195.82 1512.6 1199.89 1512.6ZM1207.26 1510.6C1201.32 1511.42 1193.26 1511.38 1191.78 1509.34C1191.57 1509.08 1191.39 1508.61 1191.78 1507.65C1191.94 1507.39 1192.16 1507.16 1192.41 1506.98C1192.66 1506.8 1192.95 1506.67 1193.26 1506.61C1196.68 1505.7 1203.36 1508.61 1207.26 1510.6Z" fill="#5552FF"/>
<path d="M1209.34 1511.73C1209.5 1511.77 1209.66 1511.77 1209.82 1511.73C1209.92 1511.64 1210 1511.54 1210.05 1511.42C1210.1 1511.3 1210.13 1511.17 1210.12 1511.03C1210.12 1510.69 1209.21 1502.1 1205.18 1498.77C1204.58 1498.27 1203.89 1497.9 1203.14 1497.67C1202.4 1497.45 1201.62 1497.38 1200.84 1497.47C1198.76 1497.68 1198.2 1498.72 1198.03 1499.59C1197.46 1503.19 1205.09 1510.08 1208.91 1511.82L1209.34 1511.73ZM1201.58 1498.72C1202.55 1498.75 1203.48 1499.1 1204.23 1499.72C1206.63 1502.47 1208.14 1505.89 1208.56 1509.52C1204.62 1507.18 1199.46 1501.76 1199.89 1499.59C1199.89 1499.59 1199.89 1498.9 1201.36 1498.77L1201.58 1498.72Z" fill="#5552FF"/>
<path d="M1244.54 1510.99H1212.72L1209.51 1437.21H1241.38L1244.54 1510.99Z" fill="#7F3E3B"/>
<path d="M1537.22 1364.85L1512.38 1384.75L1449.17 1340.88L1474.05 1320.98L1537.22 1364.85Z" fill="#7F3E3B"/>
<path d="M1507.82 1383.49L1533.23 1358.3C1533.68 1357.86 1534.27 1357.59 1534.9 1357.53C1535.53 1357.47 1536.16 1357.62 1536.7 1357.96L1561.1 1373.65C1561.7 1374.03 1562.19 1374.55 1562.56 1375.15C1562.92 1375.75 1563.14 1376.43 1563.21 1377.13C1563.27 1377.84 1563.17 1378.54 1562.92 1379.2C1562.67 1379.86 1562.27 1380.45 1561.75 1380.93C1552.74 1389.6 1547.93 1393.33 1536.74 1404.39C1529.89 1411.24 1513.11 1431.61 1503.62 1441.02C1494.12 1450.43 1483.55 1442.28 1486.62 1437.55C1500.28 1416.48 1504.92 1399.1 1505.53 1388.52C1505.66 1386.62 1506.47 1384.83 1507.82 1383.49Z" fill="#5552FF"/>
<path d="M1212.9 1507.31H1247.58C1248.21 1507.3 1248.82 1507.52 1249.31 1507.91C1249.8 1508.31 1250.14 1508.86 1250.27 1509.47L1256.55 1537.78C1256.71 1538.46 1256.71 1539.17 1256.56 1539.85C1256.4 1540.53 1256.09 1541.17 1255.65 1541.71C1255.21 1542.26 1254.66 1542.69 1254.02 1542.99C1253.39 1543.28 1252.7 1543.43 1252 1543.42C1239.43 1543.42 1221.31 1542.51 1205.53 1542.51C1187.1 1542.51 1171.19 1543.51 1149.56 1543.51C1136.55 1543.51 1132.87 1530.28 1138.33 1529.07C1163.26 1523.65 1183.59 1523.04 1205.09 1509.78C1207.41 1508.24 1210.12 1507.39 1212.9 1507.31Z" fill="#5552FF"/>
<path d="M1402.48 527.015C1430.09 540.021 1441.49 629.154 1441.49 629.154L1377.98 654.082C1368.12 629.948 1360.14 605.091 1354.1 579.732C1345.21 539.501 1374.08 513.489 1402.48 527.015Z" fill="#5552FF"/>
<path opacity="0.3" d="M1402.48 527.015C1430.09 540.021 1441.49 629.154 1441.49 629.154L1377.98 654.082C1368.12 629.948 1360.14 605.091 1354.1 579.732C1345.21 539.501 1374.08 513.489 1402.48 527.015Z" fill="white"/>
<path opacity="0.2" d="M1361.34 553.157C1359.17 552.106 1356.9 551.278 1354.57 550.686C1352.04 560.191 1351.95 570.183 1354.31 579.732C1360.33 605.094 1368.3 629.951 1378.16 654.082L1399.1 645.888C1395.24 622.608 1383.4 563.735 1361.34 553.157Z" fill="black"/>
<path d="M1218.31 526.322C1218.31 526.322 1184.41 564.602 1216.41 801.611H1386.78C1387.95 775.6 1371.52 647.883 1396.75 524.674C1377.91 521.05 1358.85 518.647 1339.7 517.478C1315.59 516.089 1291.42 516.089 1267.3 517.478C1250.77 519.144 1234.39 522.101 1218.31 526.322Z" fill="#5552FF"/>
<path opacity="0.3" d="M1218.31 526.322C1218.31 526.322 1184.41 564.602 1216.41 801.611H1386.78C1387.95 775.6 1371.52 647.883 1396.75 524.674C1377.91 521.05 1358.85 518.647 1339.7 517.478C1315.59 516.089 1291.42 516.089 1267.3 517.478C1250.77 519.144 1234.39 522.101 1218.31 526.322Z" fill="white"/>
<path opacity="0.2" d="M1252.69 577.131C1244.98 553.981 1226.42 546.567 1207.52 560.31C1203.7 582.767 1201.02 618.966 1204.09 676.365L1237.35 676.062C1237.35 676.062 1264.09 611.596 1252.69 577.131Z" fill="black"/>
<path d="M1246.45 567.637C1245.06 579.255 1243.16 589.79 1241.03 600.758C1238.91 611.726 1236.44 622.435 1233.62 633.229C1228.05 655.292 1220.48 676.798 1210.99 697.478C1208.52 702.81 1205.66 708.056 1202.62 713.302C1201.06 715.946 1199.5 718.591 1197.72 721.192C1195.42 724.807 1192.7 728.139 1189.62 731.12C1183.63 736.667 1176.54 740.879 1168.81 743.475C1162.53 745.676 1156.03 747.201 1149.43 748.027C1137.64 749.488 1125.74 749.634 1113.92 748.461C1108.14 747.998 1102.51 747.261 1097.01 746.25C1091.38 745.253 1086.05 744.212 1080.24 742.695L1083.05 718.938C1102.84 718.107 1122.49 715.201 1141.67 710.267C1145.57 709.112 1149.36 707.603 1152.98 705.758C1155.36 704.667 1157.45 703.016 1159.05 700.946C1158.7 701.25 1161.87 696.004 1163.73 692.276C1165.6 688.547 1167.68 683.605 1169.46 679.27C1173.1 670.339 1176.22 660.888 1179.08 651.221C1181.94 641.553 1184.46 631.712 1186.8 621.741C1189.14 611.77 1191.13 601.712 1193.3 591.394C1195.47 581.076 1197.03 570.845 1198.59 561.264L1246.45 567.637Z" fill="#7F3E3B"/>
<path d="M1260.89 549.689C1269.86 578.778 1233.44 665.484 1233.44 665.484L1156.75 646.192C1161.45 618.786 1169.35 592.027 1180.29 566.466C1205.01 512.362 1250.09 514.616 1260.89 549.689Z" fill="#5552FF"/>
<path opacity="0.3" d="M1260.89 549.689C1269.86 578.778 1233.44 665.484 1233.44 665.484L1156.75 646.192C1161.45 618.786 1169.35 592.027 1180.29 566.466C1205.01 512.362 1250.09 514.616 1260.89 549.689Z" fill="white"/>
<path d="M1084.14 719.068L1048.07 718.157L1065.41 755.657C1065.41 755.657 1080.06 757.608 1092.12 737.796L1104.82 722.666L1090.21 719.718C1088.21 719.328 1086.18 719.11 1084.14 719.068Z" fill="#7F3E3B"/>
<path d="M1025.31 725.137L1045.99 756.221L1065.45 755.657L1048.07 718.157L1025.31 725.137Z" fill="#7F3E3B"/>
<path opacity="0.2" d="M1209.56 1437.25L1211.16 1475.27H1243.03L1241.38 1437.25H1209.56Z" fill="black"/>
<path opacity="0.2" d="M1474.05 1320.98L1449.17 1340.88L1481.77 1363.51L1506.65 1343.61L1474.05 1320.98Z" fill="black"/>
<path d="M1330.73 410.96C1328.82 442.521 1329.34 461.076 1313.39 477.29C1289.46 501.654 1250.48 487.261 1242.94 455.613C1236.13 427.261 1240.42 380.44 1271.29 367.824C1278.1 365.009 1285.51 363.985 1292.83 364.85C1300.14 365.716 1307.11 368.442 1313.07 372.769C1319.04 377.095 1323.79 382.877 1326.88 389.563C1329.97 396.249 1331.29 403.616 1330.73 410.96Z" fill="#7F3E3B"/>
<path d="M1356.22 381.654C1356.22 381.654 1372.82 386.596 1367.62 405.541C1359.77 434.327 1341.31 467.449 1317.46 469.53C1287.77 472.174 1274.37 441.524 1270.47 409.833C1252.69 397.651 1239.51 386.249 1243.76 373.59C1250.27 354.081 1273.85 337.261 1311.39 341.596C1348.94 345.931 1367.62 370.209 1356.22 381.654Z" fill="#5552FF"/>
<path d="M1288.55 416.336C1287.97 424.163 1284.83 431.583 1279.61 437.449C1272.68 445.079 1265.4 440.31 1264.18 431.032C1263.1 422.622 1265.35 408.532 1273.85 404.327C1282.35 400.122 1289.11 406.885 1288.55 416.336Z" fill="#7F3E3B"/>
<path d="M1276.84 801.611C1276.84 801.611 1266.09 1016.29 1287.03 1107.25C1320.19 1251.27 1465.99 1366.67 1465.99 1366.67L1512.81 1329.17C1512.81 1329.17 1392.85 1239.91 1382.06 1119.99C1372.39 1012.31 1386.7 888.62 1386.7 801.611H1276.84Z" fill="#5552FF"/>
<path opacity="0.2" d="M1276.84 801.611C1276.84 801.611 1266.09 1016.29 1287.03 1107.25C1320.19 1251.27 1465.99 1366.67 1465.99 1366.67L1512.81 1329.17C1512.81 1329.17 1392.85 1239.91 1382.06 1119.99C1372.39 1012.31 1386.7 888.62 1386.7 801.611H1276.84Z" fill="black"/>
<path opacity="0.2" d="M1292.84 865.21C1288.5 856.843 1280.05 881.77 1274.15 913.765C1274.15 957.898 1274.93 1008.1 1278.79 1050.63C1308.23 996.221 1301.99 882.551 1292.84 865.21Z" fill="black"/>
<path d="M1444.75 1357.44L1462.52 1371.22L1516.58 1327.39L1500.37 1312.7L1444.75 1357.44Z" fill="#2C6BDB"/>
<path opacity="0.4" d="M1444.75 1357.44L1462.52 1371.22L1516.58 1327.39L1500.37 1312.7L1444.75 1357.44Z" fill="#FAFAFA"/>
<path d="M1216.41 801.611C1216.41 801.611 1168.46 1004.94 1165.08 1102.05C1161.31 1210.99 1199.28 1467.9 1199.28 1467.9H1253.26C1253.26 1467.9 1259.89 1209 1262.32 1109.76C1264.92 1001.6 1328.39 801.611 1328.39 801.611H1216.41Z" fill="#5552FF"/>
<path opacity="0.2" d="M1216.41 801.611C1216.41 801.611 1168.46 1004.94 1165.08 1102.05C1161.31 1210.99 1199.28 1467.9 1199.28 1467.9H1253.26C1253.26 1467.9 1259.89 1209 1262.32 1109.76C1264.92 1001.6 1328.39 801.611 1328.39 801.611H1216.41Z" fill="black"/>
<path d="M1188.92 1446.4C1188.66 1446.4 1191.96 1468.81 1191.96 1468.81H1257.59L1259.37 1448.82L1188.92 1446.4Z" fill="#2C6BDB"/>
<path opacity="0.4" d="M1188.92 1446.4C1188.66 1446.4 1191.96 1468.81 1191.96 1468.81H1257.59L1259.37 1448.82L1188.92 1446.4Z" fill="#FAFAFA"/>
</svg>
