<svg width="209" height="209" viewBox="0 0 209 209" fill="none" xmlns="http://www.w3.org/2000/svg">
<path d="M52.2502 191.583C47.4606 191.583 43.359 189.876 39.9453 186.463C36.5316 183.049 34.8277 178.95 34.8335 174.167V34.8332C34.8335 30.0436 36.5403 25.942 39.954 22.5283C43.3677 19.1146 47.4664 17.4107 52.2502 17.4165H130.625L174.167 60.9582V174.167C174.167 178.956 172.46 183.058 169.046 186.471C165.633 189.885 161.534 191.589 156.75 191.583H52.2502ZM52.2502 174.167H156.75V69.6665H121.917V34.8332H52.2502V174.167ZM104.5 165.458C114.224 165.458 122.463 162.047 129.214 155.226C135.966 148.404 139.339 140.204 139.334 130.625V95.7915H121.917V130.625C121.917 135.414 120.248 139.516 116.91 142.93C113.571 146.343 109.435 148.047 104.5 148.042C99.7106 148.042 95.609 146.335 92.1953 142.921C88.7816 139.507 87.0777 135.409 87.0835 130.625V82.729C87.0835 81.4228 87.5189 80.3691 88.3898 79.5679C89.2606 78.7667 90.2766 78.369 91.4377 78.3749C92.7439 78.3749 93.7976 78.7754 94.5988 79.5766C95.4 80.3778 95.7976 81.4286 95.7918 82.729V130.625H113.209V82.729C113.209 76.6332 111.104 71.4808 106.895 67.2717C102.686 63.0627 97.5335 60.9582 91.4377 60.9582C85.3418 60.9582 80.1894 63.0627 75.9804 67.2717C71.7714 71.4808 69.6668 76.6332 69.6668 82.729V130.625C69.6668 140.204 73.0776 148.404 79.8991 155.226C86.7207 162.047 94.921 165.458 104.5 165.458Z" fill="#5552FF"/>
</svg>
